%TF.GenerationSoftware,KiCad,Pcbnew,8.0.0-dirty*%
%TF.CreationDate,2024-03-12T22:30:07-04:00*%
%TF.ProjectId,RCJ_Open_LinePCB,52434a5f-4f70-4656-9e5f-4c696e655043,rev?*%
%TF.SameCoordinates,Original*%
%TF.FileFunction,Paste,Bot*%
%TF.FilePolarity,Positive*%
%FSLAX46Y46*%
G04 Gerber Fmt 4.6, Leading zero omitted, Abs format (unit mm)*
G04 Created by KiCad (PCBNEW 8.0.0-dirty) date 2024-03-12 22:30:07*
%MOMM*%
%LPD*%
G01*
G04 APERTURE LIST*
G04 Aperture macros list*
%AMRoundRect*
0 Rectangle with rounded corners*
0 $1 Rounding radius*
0 $2 $3 $4 $5 $6 $7 $8 $9 X,Y pos of 4 corners*
0 Add a 4 corners polygon primitive as box body*
4,1,4,$2,$3,$4,$5,$6,$7,$8,$9,$2,$3,0*
0 Add four circle primitives for the rounded corners*
1,1,$1+$1,$2,$3*
1,1,$1+$1,$4,$5*
1,1,$1+$1,$6,$7*
1,1,$1+$1,$8,$9*
0 Add four rect primitives between the rounded corners*
20,1,$1+$1,$2,$3,$4,$5,0*
20,1,$1+$1,$4,$5,$6,$7,0*
20,1,$1+$1,$6,$7,$8,$9,0*
20,1,$1+$1,$8,$9,$2,$3,0*%
G04 Aperture macros list end*
%ADD10RoundRect,0.250000X-0.001244X0.570086X-0.552851X0.139123X0.001244X-0.570086X0.552851X-0.139123X0*%
%ADD11RoundRect,0.250000X-0.416310X0.367166X-0.479436X-0.279761X0.416310X-0.367166X0.479436X0.279761X0*%
%ADD12RoundRect,0.250000X-0.363145X0.419822X-0.512706X-0.212738X0.363145X-0.419822X0.512706X0.212738X0*%
%ADD13RoundRect,0.250000X-0.533151X-0.154515X-0.020944X-0.554695X0.533151X0.154515X0.020944X0.554695X0*%
%ADD14RoundRect,0.250000X-0.126115X-0.540574X0.473511X-0.289677X0.126115X0.540574X-0.473511X0.289677X0*%
%ADD15RoundRect,0.250000X0.552851X0.139123X0.001244X0.570086X-0.552851X-0.139123X-0.001244X-0.570086X0*%
%ADD16RoundRect,0.250000X0.020944X-0.554695X0.533151X-0.154515X-0.020944X0.554695X-0.533151X0.154515X0*%
%ADD17RoundRect,0.250000X-0.122103X0.556858X-0.569780X0.018727X0.122103X-0.556858X0.569780X-0.018727X0*%
%ADD18RoundRect,0.250000X0.001244X-0.570086X0.552851X-0.139123X-0.001244X0.570086X-0.552851X0.139123X0*%
%ADD19R,0.508000X1.676400*%
%ADD20RoundRect,0.250000X-0.020944X0.554695X-0.533151X0.154515X0.020944X-0.554695X0.533151X-0.154515X0*%
%ADD21RoundRect,0.250000X0.416929X0.388806X-0.274214X0.499807X-0.416929X-0.388806X0.274214X-0.499807X0*%
%ADD22RoundRect,0.250000X-0.241467X0.516424X-0.559972X-0.106917X0.241467X-0.516424X0.559972X0.106917X0*%
%ADD23RoundRect,0.250000X-0.305434X0.481363X-0.541735X-0.177547X0.305434X-0.481363X0.541735X0.177547X0*%
%ADD24RoundRect,0.250000X-0.450000X0.325000X-0.450000X-0.325000X0.450000X-0.325000X0.450000X0.325000X0*%
%ADD25RoundRect,0.250000X-0.389376X0.395615X-0.497974X-0.245249X0.389376X-0.395615X0.497974X0.245249X0*%
%ADD26RoundRect,0.250000X-0.333902X-0.462071X0.365662X-0.437369X0.333902X0.462071X-0.365662X0.437369X0*%
%ADD27RoundRect,0.250000X-0.517565X0.200627X-0.353176X-0.428242X0.517565X-0.200627X0.353176X0.428242X0*%
%ADD28RoundRect,0.250000X-0.350000X-0.450000X0.350000X-0.450000X0.350000X0.450000X-0.350000X0.450000X0*%
%ADD29RoundRect,0.250000X-0.484185X0.271459X-0.409921X-0.374285X0.484185X-0.271459X0.409921X0.374285X0*%
%ADD30RoundRect,0.250000X-0.441375X0.360816X-0.458360X-0.338977X0.441375X-0.360816X0.458360X0.338977X0*%
%ADD31RoundRect,0.250000X0.057979X0.567132X-0.535410X0.195797X-0.057979X-0.567132X0.535410X-0.195797X0*%
%ADD32RoundRect,0.250000X-0.546229X-0.163199X0.023722X-0.569594X0.546229X0.163199X-0.023722X0.569594X0*%
%ADD33RoundRect,0.250000X-0.315805X-0.474623X0.382283X-0.422918X0.315805X0.474623X-0.382283X0.422918X0*%
%ADD34RoundRect,0.250000X0.431560X0.349115X-0.195728X0.519438X-0.431560X-0.349115X0.195728X-0.519438X0*%
%ADD35RoundRect,0.250000X-0.270722X0.501707X-0.552909X-0.138895X0.270722X-0.501707X0.552909X0.138895X0*%
%ADD36RoundRect,0.250000X0.249943X0.495635X-0.391919X0.393096X-0.249943X-0.495635X0.391919X-0.393096X0*%
%ADD37RoundRect,0.250000X0.549597X-0.077898X0.246742X0.497236X-0.549597X0.077898X-0.246742X-0.497236X0*%
%ADD38RoundRect,0.250000X0.256829X0.508958X-0.430079X0.374209X-0.256829X-0.508958X0.430079X-0.374209X0*%
%ADD39RoundRect,0.250000X0.554333X0.028973X0.146780X0.535332X-0.554333X-0.028973X-0.146780X-0.535332X0*%
%ADD40RoundRect,0.250000X-0.530427X0.163622X-0.322092X-0.452086X0.530427X-0.163622X0.322092X0.452086X0*%
%ADD41RoundRect,0.250000X0.292088X0.489576X-0.402614X0.403611X-0.292088X-0.489576X0.402614X-0.403611X0*%
%ADD42RoundRect,0.250000X0.533151X0.154515X0.020944X0.554695X-0.533151X-0.154515X-0.020944X-0.554695X0*%
%ADD43RoundRect,0.250000X0.405861X0.378684X-0.231877X0.504339X-0.405861X-0.378684X0.231877X-0.504339X0*%
%ADD44RoundRect,0.250000X-0.397277X0.387680X-0.492926X-0.255244X0.397277X-0.387680X0.492926X0.255244X0*%
%ADD45RoundRect,0.250000X-0.452999X0.346110X-0.446968X-0.353864X0.452999X-0.346110X0.446968X0.353864X0*%
%ADD46RoundRect,0.250000X-0.423567X-0.381564X0.265561X-0.504457X0.423567X0.381564X-0.265561X0.504457X0*%
%ADD47RoundRect,0.250000X-0.234661X0.519552X-0.561328X-0.099551X0.234661X-0.519552X0.561328X0.099551X0*%
%ADD48R,1.676400X0.508000*%
%ADD49RoundRect,0.250000X0.511113X0.252515X-0.118933X0.557544X-0.511113X-0.252515X0.118933X-0.557544X0*%
%ADD50RoundRect,0.250000X-0.513287X0.248066X-0.366781X-0.436431X0.513287X-0.248066X0.366781X0.436431X0*%
%ADD51RoundRect,0.250000X-0.349563X-0.431197X0.299428X-0.467406X0.349563X0.431197X-0.299428X0.467406X0*%
%ADD52RoundRect,0.250000X0.423583X-0.358752X0.473734X0.289311X-0.423583X0.358752X-0.473734X-0.289311X0*%
%ADD53RoundRect,0.250000X0.284278X0.476771X-0.363217X0.419760X-0.284278X-0.476771X0.363217X-0.419760X0*%
%ADD54RoundRect,0.250000X-0.554980X-0.011040X-0.164007X-0.530308X0.554980X0.011040X0.164007X0.530308X0*%
%ADD55RoundRect,0.250000X-0.365662X-0.437369X0.333902X-0.462071X0.365662X0.437369X-0.333902X0.462071X0*%
%ADD56RoundRect,0.250000X0.118933X0.557544X-0.511113X0.252515X-0.118933X-0.557544X0.511113X-0.252515X0*%
%ADD57RoundRect,0.250000X0.450449X0.324378X-0.166307X0.529591X-0.450449X-0.324378X0.166307X-0.529591X0*%
%ADD58RoundRect,0.250000X-0.531495X0.206187X-0.330672X-0.464388X0.531495X-0.206187X0.330672X0.464388X0*%
%ADD59RoundRect,0.250000X-0.481302X0.305529X-0.414603X-0.391286X0.481302X-0.305529X0.414603X0.391286X0*%
%ADD60RoundRect,0.250000X-0.515629X0.243161X-0.362603X-0.439908X0.515629X-0.243161X0.362603X0.439908X0*%
%ADD61RoundRect,0.250000X-0.538910X-0.133045X-0.043136X-0.553412X0.538910X0.133045X0.043136X0.553412X0*%
%ADD62RoundRect,0.250000X-0.082352X0.564108X-0.567022X0.059039X0.082352X-0.564108X0.567022X-0.059039X0*%
%ADD63RoundRect,0.250000X-0.476282X0.313297X-0.420896X-0.384508X0.476282X-0.313297X0.420896X0.384508X0*%
%ADD64RoundRect,0.250000X0.570086X0.001244X0.139123X0.552851X-0.570086X-0.001244X-0.139123X-0.552851X0*%
%ADD65RoundRect,0.250000X0.166307X0.529591X-0.450449X0.324378X-0.166307X-0.529591X0.450449X-0.324378X0*%
%ADD66RoundRect,0.250000X-0.263728X0.488439X-0.546587X-0.096789X0.263728X-0.488439X0.546587X0.096789X0*%
%ADD67RoundRect,0.250000X0.317198X0.455533X-0.332706X0.444333X-0.317198X-0.455533X0.332706X-0.444333X0*%
%ADD68RoundRect,0.250000X-0.538222X-0.135802X-0.040302X-0.553625X0.538222X0.135802X0.040302X0.553625X0*%
%ADD69RoundRect,0.250000X0.559972X-0.106917X0.241467X0.516424X-0.559972X0.106917X-0.241467X-0.516424X0*%
%ADD70RoundRect,0.250000X-0.552851X-0.139123X-0.001244X-0.570086X0.552851X0.139123X0.001244X0.570086X0*%
%ADD71RoundRect,0.250000X-0.154515X0.533151X-0.554695X0.020944X0.154515X-0.533151X0.554695X-0.020944X0*%
%ADD72RoundRect,0.250000X-0.139123X0.552851X-0.570086X0.001244X0.139123X-0.552851X0.570086X-0.001244X0*%
%ADD73RoundRect,0.250000X-0.554544X0.024622X-0.197723X-0.518682X0.554544X-0.024622X0.197723X0.518682X0*%
%ADD74RoundRect,0.250000X-0.558341X0.115130X-0.249025X-0.512822X0.558341X-0.115130X0.249025X0.512822X0*%
%ADD75RoundRect,0.250000X0.564425X-0.080151X0.216620X0.527329X-0.564425X0.080151X-0.216620X-0.527329X0*%
%ADD76RoundRect,0.250000X-0.473511X-0.289677X0.126115X-0.540574X0.473511X0.289677X-0.126115X0.540574X0*%
%ADD77RoundRect,0.250000X-0.427459X0.377199X-0.470813X-0.321457X0.427459X-0.377199X0.470813X0.321457X0*%
%ADD78RoundRect,0.250000X0.001244X-0.570086X0.552851X-0.139123X-0.001244X0.570086X-0.552851X0.139123X0*%
%ADD79RoundRect,0.250000X-0.229319X-0.521932X0.449424X-0.350739X0.229319X0.521932X-0.449424X0.350739X0*%
%ADD80RoundRect,0.250000X0.507141X-0.260399X0.377222X0.427439X-0.507141X0.260399X-0.377222X-0.427439X0*%
%ADD81RoundRect,0.250000X0.557366X-0.119761X0.253274X0.510737X-0.557366X0.119761X-0.253274X-0.510737X0*%
%ADD82RoundRect,0.250000X-0.300480X-0.484471X0.395599X-0.410489X0.300480X0.484471X-0.395599X0.410489X0*%
%ADD83RoundRect,0.250000X0.034427X-0.569047X0.560013X-0.106705X-0.034427X0.569047X-0.560013X0.106705X0*%
%ADD84RoundRect,0.250000X-0.370129X0.433595X-0.511362X-0.252009X0.370129X-0.433595X0.511362X0.252009X0*%
%ADD85RoundRect,0.250000X-0.441170X0.336889X-0.458510X-0.312880X0.441170X-0.336889X0.458510X0.312880X0*%
%ADD86RoundRect,0.250000X0.348538X0.432026X-0.300537X0.466693X-0.348538X-0.432026X0.300537X-0.466693X0*%
%ADD87RoundRect,0.250000X-0.531719X0.159374X-0.318465X-0.454648X0.531719X-0.159374X0.318465X0.454648X0*%
%ADD88RoundRect,0.250000X-0.355930X-0.425956X0.292451X-0.471802X0.355930X0.425956X-0.292451X0.471802X0*%
%ADD89RoundRect,0.250000X-0.292451X-0.471802X0.355930X-0.425956X0.292451X0.471802X-0.355930X0.425956X0*%
%ADD90RoundRect,0.250000X-0.497194X0.278924X-0.392727X-0.413237X0.497194X-0.278924X0.392727X0.413237X0*%
%ADD91RoundRect,0.250000X-0.329834X0.446469X-0.527529X-0.172737X0.329834X-0.446469X0.527529X0.172737X0*%
%ADD92RoundRect,0.250000X-0.217691X0.526888X-0.564261X-0.081298X0.217691X-0.526888X0.564261X0.081298X0*%
%ADD93RoundRect,0.250000X-0.476660X0.284464X-0.419902X-0.363053X0.476660X-0.284464X0.419902X0.363053X0*%
%ADD94RoundRect,0.250000X-0.228621X0.505824X-0.552052X-0.057996X0.228621X-0.505824X0.552052X0.057996X0*%
%ADD95RoundRect,0.250000X-0.548173X0.087356X-0.255273X-0.492910X0.548173X-0.087356X0.255273X0.492910X0*%
%ADD96RoundRect,0.250000X-0.338625X0.458621X-0.527863X-0.215314X0.338625X-0.458621X0.527863X0.215314X0*%
%ADD97RoundRect,0.250000X-0.502126X0.236632X-0.382501X-0.402266X0.502126X-0.236632X0.382501X0.402266X0*%
%ADD98RoundRect,0.250000X0.378141X0.406367X-0.266872X0.486728X-0.378141X-0.406367X0.266872X-0.486728X0*%
%ADD99RoundRect,0.250000X0.255273X-0.492910X0.548173X0.087356X-0.255273X0.492910X-0.548173X-0.087356X0*%
%ADD100RoundRect,0.250000X-0.463833X0.304933X-0.435300X-0.344440X0.463833X-0.304933X0.435300X0.344440X0*%
%ADD101RoundRect,0.250000X-0.449424X-0.350739X0.229319X-0.521932X0.449424X0.350739X-0.229319X0.521932X0*%
%ADD102RoundRect,0.250000X0.358071X0.443605X-0.341815X0.456249X-0.358071X-0.443605X0.341815X-0.456249X0*%
%ADD103RoundRect,0.250000X0.220292X0.525806X-0.455401X0.342943X-0.220292X-0.525806X0.455401X-0.342943X0*%
%ADD104RoundRect,0.250000X-0.450000X0.350000X-0.450000X-0.350000X0.450000X-0.350000X0.450000X0.350000X0*%
%ADD105RoundRect,0.250000X-0.543751X-0.111623X-0.064994X-0.551272X0.543751X0.111623X0.064994X0.551272X0*%
%ADD106RoundRect,0.250000X0.552851X0.139124X0.001244X0.570086X-0.552851X-0.139124X-0.001244X-0.570086X0*%
%ADD107RoundRect,0.250000X0.031514X-0.569216X0.559459X-0.109570X-0.031514X0.569216X-0.559459X0.109570X0*%
%ADD108RoundRect,0.250000X-0.223153X-0.508260X0.412326X-0.371634X0.223153X0.508260X-0.412326X0.371634X0*%
%ADD109RoundRect,0.250000X0.214362X0.512029X-0.418669X0.364474X-0.214362X-0.512029X0.418669X-0.364474X0*%
%ADD110RoundRect,0.250000X-0.499996X-0.241101X0.071675X-0.550443X0.499996X0.241101X-0.071675X0.550443X0*%
%ADD111RoundRect,0.250000X0.443314X0.358431X-0.238278X0.517903X-0.443314X-0.358431X0.238278X-0.517903X0*%
%ADD112RoundRect,0.250000X0.443370X0.333988X-0.177656X0.525893X-0.443370X-0.333988X0.177656X-0.525893X0*%
%ADD113RoundRect,0.250000X0.388468X0.417244X-0.308783X0.479221X-0.388468X-0.417244X0.308783X-0.479221X0*%
%ADD114RoundRect,0.250000X-0.031679X0.554185X-0.536043X0.144165X0.031679X-0.554185X0.536043X-0.144165X0*%
%ADD115RoundRect,0.250000X-0.265561X-0.504457X0.423567X-0.381564X0.265561X0.504457X-0.423567X0.381564X0*%
%ADD116RoundRect,0.250000X-0.399790X0.406409X-0.492314X-0.287449X0.399790X-0.406409X0.492314X0.287449X0*%
%ADD117RoundRect,0.250000X-0.562960X0.089864X-0.225674X-0.523518X0.562960X-0.089864X0.225674X0.523518X0*%
%ADD118RoundRect,0.250000X-0.166129X0.529647X-0.555020X0.008817X0.166129X-0.529647X0.555020X-0.008817X0*%
%ADD119RoundRect,0.250000X-0.544714X0.168186X-0.297094X-0.486554X0.544714X-0.168186X0.297094X0.486554X0*%
%ADD120RoundRect,0.250000X0.325891X0.467755X-0.373144X0.431003X-0.325891X-0.467755X0.373144X-0.431003X0*%
%ADD121RoundRect,0.250000X-0.569549X-0.024786X-0.116173X-0.558125X0.569549X0.024786X0.116173X0.558125X0*%
%ADD122RoundRect,0.250000X-0.258446X-0.491254X0.385087X-0.399791X0.258446X0.491254X-0.385087X0.399791X0*%
%ADD123RoundRect,0.250000X-0.540647X0.125802X-0.289403X-0.473678X0.540647X-0.125802X0.289403X0.473678X0*%
%ADD124RoundRect,0.250000X-0.339834X0.457726X-0.527294X-0.216706X0.339834X-0.457726X0.527294X0.216706X0*%
%ADD125RoundRect,0.250000X-0.555220X0.129347X-0.262037X-0.506297X0.555220X-0.129347X0.262037X0.506297X0*%
%ADD126RoundRect,0.250000X-0.385087X-0.399791X0.258446X-0.491254X0.385087X0.399791X-0.258446X0.491254X0*%
%ADD127RoundRect,0.250000X-0.360503X0.422093X-0.514032X-0.209515X0.360503X-0.422093X0.514032X0.209515X0*%
%ADD128RoundRect,0.250000X-0.395599X-0.410489X0.300480X-0.484471X0.395599X0.410489X-0.300480X0.484471X0*%
%ADD129RoundRect,0.250000X0.225674X-0.523518X0.562960X0.089864X-0.225674X0.523518X-0.562960X-0.089864X0*%
%ADD130RoundRect,0.250000X0.417469X0.388226X-0.273519X0.500187X-0.417469X-0.388226X0.273519X-0.500187X0*%
%ADD131RoundRect,0.250000X0.535613X-0.145754X0.306760X0.462626X-0.535613X0.145754X-0.306760X-0.462626X0*%
%ADD132RoundRect,0.250000X-0.412326X-0.371634X0.223153X-0.508260X0.412326X0.371634X-0.223153X0.508260X0*%
%ADD133RoundRect,0.250000X0.306760X-0.462626X0.535613X0.145754X-0.306760X0.462626X-0.535613X-0.145754X0*%
%ADD134RoundRect,0.250000X-0.297522X0.468621X-0.538399X-0.135099X0.297522X-0.468621X0.538399X0.135099X0*%
%ADD135RoundRect,0.250000X-0.325000X-0.450000X0.325000X-0.450000X0.325000X0.450000X-0.325000X0.450000X0*%
%ADD136RoundRect,0.250000X-0.290509X0.473001X-0.540351X-0.127065X0.290509X-0.473001X0.540351X0.127065X0*%
G04 APERTURE END LIST*
D10*
%TO.C,R66*%
X175277236Y-65956997D03*
X173701214Y-67188319D03*
%TD*%
%TO.C,R67*%
X167671743Y-56222411D03*
X166095721Y-57453733D03*
%TD*%
D11*
%TO.C,D51*%
X94277289Y-180746232D03*
X94078199Y-182786542D03*
%TD*%
D12*
%TO.C,D26*%
X20032330Y-119406018D03*
X19560638Y-121401014D03*
%TD*%
D13*
%TO.C,D66*%
X53843566Y-35492344D03*
X55458988Y-36754450D03*
%TD*%
D14*
%TO.C,D36*%
X186040000Y-71080000D03*
X187931126Y-70288710D03*
%TD*%
D15*
%TO.C,R43*%
X171474490Y-128270296D03*
X169898468Y-127038974D03*
%TD*%
%TO.C,R63*%
X167671743Y-133137589D03*
X166095721Y-131906267D03*
%TD*%
D10*
%TO.C,R58*%
X156263505Y-41620531D03*
X154687483Y-42851853D03*
%TD*%
D16*
%TO.C,D1*%
X32883650Y-127040186D03*
X34499072Y-125778080D03*
%TD*%
D17*
%TO.C,R15*%
X58960245Y-167313314D03*
X57681167Y-168850832D03*
%TD*%
D18*
%TO.C,R13*%
X50015707Y-148927613D03*
X51591729Y-147696291D03*
%TD*%
D19*
%TO.C,U4*%
X103690000Y-34997200D03*
X104960000Y-34997200D03*
X106230000Y-34997200D03*
X107500000Y-34997200D03*
X108770000Y-34997200D03*
X110040000Y-34997200D03*
X111310000Y-34997200D03*
X112580000Y-34997200D03*
X112580000Y-39620000D03*
X111310000Y-39620000D03*
X110040000Y-39620000D03*
X108770000Y-39620000D03*
X107500000Y-39620000D03*
X106230000Y-39620000D03*
X104960000Y-39620000D03*
X103690000Y-39620000D03*
%TD*%
D20*
%TO.C,D41*%
X169592816Y-58640666D03*
X167977394Y-59902772D03*
%TD*%
D21*
%TO.C,R6*%
X17269925Y-80963458D03*
X15295231Y-80646312D03*
%TD*%
D20*
%TO.C,D43*%
X146776339Y-29436906D03*
X145160917Y-30699012D03*
%TD*%
D22*
%TO.C,R56*%
X178780000Y-70270000D03*
X177869984Y-72050974D03*
%TD*%
D23*
%TO.C,R23*%
X73475390Y-176102390D03*
X72800244Y-177984988D03*
%TD*%
D24*
%TO.C,D77*%
X181070000Y-70475000D03*
X181070000Y-72525000D03*
%TD*%
D25*
%TO.C,D15*%
X88227776Y-179939544D03*
X87885274Y-181960730D03*
%TD*%
D26*
%TO.C,R47*%
X189121593Y-91627587D03*
X191120347Y-91557011D03*
%TD*%
D27*
%TO.C,D17*%
X124545553Y-178343761D03*
X125064011Y-180327117D03*
%TD*%
D28*
%TO.C,R97*%
X24350000Y-75650000D03*
X26350000Y-75650000D03*
%TD*%
D29*
%TO.C,D12*%
X112555394Y-180588746D03*
X112789610Y-182625322D03*
%TD*%
D28*
%TO.C,R98*%
X24350000Y-78600000D03*
X26350000Y-78600000D03*
%TD*%
D30*
%TO.C,R76*%
X89592536Y-29250948D03*
X89544004Y-31250360D03*
%TD*%
D31*
%TO.C,R78*%
X69811258Y-17978737D03*
X68115862Y-19039695D03*
%TD*%
D32*
%TO.C,R72*%
X134735302Y-19181928D03*
X136363732Y-20343056D03*
%TD*%
D33*
%TO.C,R21*%
X60702732Y-163073865D03*
X62697268Y-162926135D03*
%TD*%
D34*
%TO.C,D22*%
X19222059Y-72020468D03*
X17243689Y-71483294D03*
%TD*%
D13*
%TO.C,D82*%
X38632582Y-54961517D03*
X40248004Y-56223623D03*
%TD*%
D35*
%TO.C,R16*%
X67805224Y-173840067D03*
X66998976Y-175670357D03*
%TD*%
D36*
%TO.C,D25*%
X17283231Y-108321548D03*
X15258899Y-108644938D03*
%TD*%
D18*
%TO.C,R19*%
X46212961Y-144060320D03*
X47788983Y-142828998D03*
%TD*%
D37*
%TO.C,D67*%
X62384048Y-18165117D03*
X61428888Y-16351235D03*
%TD*%
D38*
%TO.C,R90*%
X17793265Y-111331187D03*
X15830671Y-111716185D03*
%TD*%
D39*
%TO.C,D95*%
X68097569Y-16615982D03*
X66812207Y-15019002D03*
%TD*%
D16*
%TO.C,D30*%
X51897381Y-151376652D03*
X53512803Y-150114546D03*
%TD*%
D40*
%TO.C,D54*%
X130392062Y-176592855D03*
X131049122Y-178534703D03*
%TD*%
D41*
%TO.C,R8*%
X16830221Y-105302800D03*
X14845359Y-105548414D03*
%TD*%
D13*
%TO.C,D83*%
X46238074Y-45226930D03*
X47853496Y-46489036D03*
%TD*%
D19*
%TO.C,U1*%
X34715000Y-108838600D03*
X35985000Y-108838600D03*
X37255000Y-108838600D03*
X38525000Y-108838600D03*
X39795000Y-108838600D03*
X41065000Y-108838600D03*
X42335000Y-108838600D03*
X43605000Y-108838600D03*
X43605000Y-113461400D03*
X42335000Y-113461400D03*
X41065000Y-113461400D03*
X39795000Y-113461400D03*
X38525000Y-113461400D03*
X37255000Y-113461400D03*
X35985000Y-113461400D03*
X34715000Y-113461400D03*
%TD*%
D42*
%TO.C,D58*%
X158184578Y-145321214D03*
X156569156Y-144059108D03*
%TD*%
D43*
%TO.C,D78*%
X17831675Y-77963041D03*
X15820345Y-77566745D03*
%TD*%
D44*
%TO.C,D93*%
X86644119Y-28971777D03*
X86342457Y-30999461D03*
%TD*%
D10*
%TO.C,R69*%
X152460759Y-36753238D03*
X150884737Y-37984560D03*
%TD*%
D45*
%TO.C,R35*%
X103420729Y-181176789D03*
X103437961Y-183176715D03*
%TD*%
D20*
%TO.C,D86*%
X150579085Y-34304200D03*
X148963663Y-35566306D03*
%TD*%
D46*
%TO.C,R61*%
X187831980Y-109866119D03*
X189800916Y-110217243D03*
%TD*%
D18*
%TO.C,R14*%
X57621200Y-158662199D03*
X59197222Y-157430877D03*
%TD*%
D47*
%TO.C,R22*%
X62308745Y-171183450D03*
X61375411Y-172952316D03*
%TD*%
D48*
%TO.C,U3*%
X104710000Y-172920000D03*
X104710000Y-171650000D03*
X104710000Y-170380000D03*
X104710000Y-169110000D03*
X104710000Y-167840000D03*
X104710000Y-166570000D03*
X104710000Y-165300000D03*
X104710000Y-164030000D03*
X109332800Y-164030000D03*
X109332800Y-165300000D03*
X109332800Y-166570000D03*
X109332800Y-167840000D03*
X109332800Y-169110000D03*
X109332800Y-170380000D03*
X109332800Y-171650000D03*
X109332800Y-172920000D03*
%TD*%
D49*
%TO.C,R25*%
X144820065Y-161995755D03*
X143019935Y-161124245D03*
%TD*%
D18*
%TO.C,R20*%
X53818454Y-153794906D03*
X55394476Y-152563584D03*
%TD*%
D50*
%TO.C,R87*%
X120203326Y-28725980D03*
X120621914Y-30681686D03*
%TD*%
D51*
%TO.C,D65*%
X60909363Y-26145672D03*
X62956179Y-26259870D03*
%TD*%
D52*
%TO.C,D8*%
X25220000Y-118240000D03*
X25378170Y-116196112D03*
%TD*%
D53*
%TO.C,D70*%
X16533733Y-102264684D03*
X14491633Y-102444488D03*
%TD*%
D54*
%TO.C,D96*%
X57658995Y-20402017D03*
X58892065Y-22039711D03*
%TD*%
D55*
%TO.C,R55*%
X189121593Y-97732413D03*
X191120347Y-97802989D03*
%TD*%
D56*
%TO.C,R70*%
X145042040Y-27148263D03*
X143241910Y-28019773D03*
%TD*%
D57*
%TO.C,D87*%
X144782576Y-24663606D03*
X142837424Y-24016394D03*
%TD*%
D58*
%TO.C,R37*%
X127491432Y-177543851D03*
X128065212Y-179459779D03*
%TD*%
D59*
%TO.C,R94*%
X25314714Y-71074550D03*
X25505286Y-73065450D03*
%TD*%
D60*
%TO.C,R32*%
X121585070Y-179087801D03*
X122022286Y-181039427D03*
%TD*%
D61*
%TO.C,D21*%
X27247755Y-69529556D03*
X28811351Y-70855326D03*
%TD*%
D62*
%TO.C,R85*%
X73542322Y-22568293D03*
X72157550Y-24011347D03*
%TD*%
D13*
%TO.C,D79*%
X31027089Y-64696103D03*
X32642511Y-65958209D03*
%TD*%
D10*
%TO.C,R59*%
X148658012Y-31885945D03*
X147081990Y-33117267D03*
%TD*%
D63*
%TO.C,R28*%
X109519670Y-180908805D03*
X109677918Y-182902535D03*
%TD*%
D64*
%TO.C,R24*%
X23031983Y-119468271D03*
X21800661Y-117892249D03*
%TD*%
D65*
%TO.C,D56*%
X144919394Y-164458250D03*
X142974242Y-165105462D03*
%TD*%
D66*
%TO.C,D6*%
X65044420Y-172537754D03*
X64152328Y-174383472D03*
%TD*%
D67*
%TO.C,D24*%
X16213304Y-96170040D03*
X14163608Y-96205364D03*
%TD*%
D16*
%TO.C,D31*%
X59502873Y-161111238D03*
X61118295Y-159849132D03*
%TD*%
D68*
%TO.C,D5*%
X59887638Y-165431343D03*
X61458000Y-166749091D03*
%TD*%
D42*
%TO.C,D9*%
X146776339Y-159923094D03*
X145160917Y-158660988D03*
%TD*%
D15*
%TO.C,R60*%
X175277236Y-123403003D03*
X173701214Y-122171681D03*
%TD*%
D13*
%TO.C,D18*%
X50040820Y-40359637D03*
X51656242Y-41621743D03*
%TD*%
D69*
%TO.C,R44*%
X179007271Y-119082970D03*
X178097255Y-117301996D03*
%TD*%
D15*
%TO.C,R42*%
X163868997Y-138004882D03*
X162292975Y-136773560D03*
%TD*%
D70*
%TO.C,R82*%
X55764640Y-33074089D03*
X57340662Y-34305411D03*
%TD*%
D24*
%TO.C,D68*%
X92656552Y-29233022D03*
X92656552Y-31283022D03*
%TD*%
D71*
%TO.C,D81*%
X23104733Y-69916842D03*
X21842627Y-71532264D03*
%TD*%
D72*
%TO.C,R39*%
X146480657Y-166340404D03*
X145249335Y-167916426D03*
%TD*%
D16*
%TO.C,D2*%
X40489142Y-136774772D03*
X42104564Y-135512666D03*
%TD*%
D18*
%TO.C,R11*%
X34804723Y-129458440D03*
X36380745Y-128227118D03*
%TD*%
D73*
%TO.C,D35*%
X128349271Y-25293796D03*
X129474631Y-27007292D03*
%TD*%
D74*
%TO.C,R73*%
X125790736Y-26785435D03*
X126674496Y-28579583D03*
%TD*%
D15*
%TO.C,R40*%
X148658012Y-157474055D03*
X147081990Y-156242733D03*
%TD*%
D42*
%TO.C,D59*%
X165790070Y-135586628D03*
X164174648Y-134324522D03*
%TD*%
%TO.C,D44*%
X177198309Y-120984748D03*
X175582887Y-119722642D03*
%TD*%
D75*
%TO.C,R79*%
X59696663Y-19612880D03*
X58702933Y-17877224D03*
%TD*%
D42*
%TO.C,D47*%
X169592816Y-130719334D03*
X167977394Y-129457228D03*
%TD*%
D76*
%TO.C,D48*%
X185848480Y-118488398D03*
X187739606Y-119279688D03*
%TD*%
D77*
%TO.C,R31*%
X97318076Y-181013935D03*
X97194206Y-183010095D03*
%TD*%
D13*
%TO.C,D19*%
X42435328Y-50094224D03*
X44050750Y-51356330D03*
%TD*%
D78*
%TO.C,R65*%
X183334743Y-70367121D03*
X184910765Y-69135799D03*
%TD*%
D79*
%TO.C,R52*%
X186548790Y-73525437D03*
X188488058Y-73036315D03*
%TD*%
D42*
%TO.C,D60*%
X173395563Y-125852041D03*
X171780141Y-124589935D03*
%TD*%
D80*
%TO.C,R5*%
X20095600Y-69932625D03*
X19724400Y-67967375D03*
%TD*%
D81*
%TO.C,R83*%
X65098340Y-16768451D03*
X64229504Y-14967027D03*
%TD*%
D82*
%TO.C,R50*%
X188691007Y-85537966D03*
X190679805Y-85326590D03*
%TD*%
D83*
%TO.C,R10*%
X27231141Y-119772962D03*
X28732813Y-118451984D03*
%TD*%
D84*
%TO.C,R30*%
X85223091Y-179401098D03*
X84819567Y-181359968D03*
%TD*%
D85*
%TO.C,D16*%
X100368633Y-181124226D03*
X100313947Y-183173496D03*
%TD*%
D86*
%TO.C,D76*%
X16323541Y-90067975D03*
X14276459Y-89958641D03*
%TD*%
D87*
%TO.C,D90*%
X123048780Y-27904711D03*
X123721350Y-29841241D03*
%TD*%
D88*
%TO.C,D63*%
X188935101Y-100779260D03*
X190979995Y-100923850D03*
%TD*%
D89*
%TO.C,D64*%
X188935101Y-88580740D03*
X190979995Y-88436150D03*
%TD*%
D24*
%TO.C,D72*%
X105009919Y-29233022D03*
X105009919Y-31283022D03*
%TD*%
D90*
%TO.C,R36*%
X115584519Y-180211318D03*
X115882995Y-182188920D03*
%TD*%
D91*
%TO.C,D7*%
X76374414Y-177058276D03*
X75750914Y-179011158D03*
%TD*%
D10*
%TO.C,R68*%
X160066251Y-46487825D03*
X158490229Y-47719147D03*
%TD*%
D92*
%TO.C,R77*%
X78281714Y-26107081D03*
X77291514Y-27844753D03*
%TD*%
D93*
%TO.C,D71*%
X117270996Y-29141355D03*
X117450004Y-31183525D03*
%TD*%
D94*
%TO.C,D32*%
X59646671Y-169689656D03*
X58626619Y-171467856D03*
%TD*%
D95*
%TO.C,D55*%
X141642484Y-171877780D03*
X142566246Y-173707852D03*
%TD*%
D70*
%TO.C,R95*%
X40553655Y-52543262D03*
X42129677Y-53774584D03*
%TD*%
D96*
%TO.C,R33*%
X79291002Y-177959150D03*
X78750320Y-179884680D03*
%TD*%
D28*
%TO.C,R99*%
X24350000Y-81550000D03*
X26350000Y-81550000D03*
%TD*%
D20*
%TO.C,D84*%
X165790070Y-53773372D03*
X164174648Y-55035478D03*
%TD*%
D28*
%TO.C,R101*%
X24350000Y-87450000D03*
X26350000Y-87450000D03*
%TD*%
D20*
%TO.C,D37*%
X161987324Y-48906079D03*
X160371902Y-50168185D03*
%TD*%
D97*
%TO.C,D53*%
X118590109Y-179677940D03*
X118967385Y-181692924D03*
%TD*%
D98*
%TO.C,D23*%
X16863895Y-83988882D03*
X14829623Y-83735436D03*
%TD*%
D13*
%TO.C,D14*%
X57646313Y-30625051D03*
X59261735Y-31887157D03*
%TD*%
D42*
%TO.C,D10*%
X154381832Y-150188507D03*
X152766410Y-148926401D03*
%TD*%
D70*
%TO.C,R1*%
X51961893Y-37941383D03*
X53537915Y-39172705D03*
%TD*%
D20*
%TO.C,D80*%
X173395563Y-63507959D03*
X171780141Y-64770065D03*
%TD*%
D70*
%TO.C,R4*%
X29145416Y-67145142D03*
X30721438Y-68376464D03*
%TD*%
D99*
%TO.C,D88*%
X141642484Y-17482220D03*
X142566246Y-15652148D03*
%TD*%
D100*
%TO.C,D52*%
X106471468Y-181071643D03*
X106561456Y-183119667D03*
%TD*%
D101*
%TO.C,R45*%
X186548790Y-115834563D03*
X188488058Y-116323685D03*
%TD*%
D70*
%TO.C,R96*%
X48159147Y-42808676D03*
X49735169Y-44039998D03*
%TD*%
D102*
%TO.C,R7*%
X16189578Y-93117584D03*
X14189904Y-93081458D03*
%TD*%
D15*
%TO.C,R62*%
X160066251Y-142872175D03*
X158490229Y-141640853D03*
%TD*%
%TO.C,R41*%
X156263505Y-147739469D03*
X154687483Y-146508147D03*
%TD*%
D103*
%TO.C,R9*%
X19179106Y-117276633D03*
X17248554Y-117799099D03*
%TD*%
D104*
%TO.C,R74*%
X114274945Y-29258022D03*
X114274945Y-31258022D03*
%TD*%
D105*
%TO.C,D89*%
X132851144Y-21466889D03*
X134361072Y-22853475D03*
%TD*%
D19*
%TO.C,U6*%
X34400000Y-100170000D03*
X35670000Y-100170000D03*
X36940000Y-100170000D03*
X38210000Y-100170000D03*
X39480000Y-100170000D03*
X40750000Y-100170000D03*
X42020000Y-100170000D03*
X43290000Y-100170000D03*
X43290000Y-104792800D03*
X42020000Y-104792800D03*
X40750000Y-104792800D03*
X39480000Y-104792800D03*
X38210000Y-104792800D03*
X36940000Y-104792800D03*
X35670000Y-104792800D03*
X34400000Y-104792800D03*
%TD*%
D106*
%TO.C,R64*%
X184646022Y-120881322D03*
X183070000Y-119650000D03*
%TD*%
D107*
%TO.C,R81*%
X59871319Y-23871089D03*
X61379733Y-22557817D03*
%TD*%
D20*
%TO.C,D40*%
X177198309Y-68375252D03*
X175582887Y-69637358D03*
%TD*%
D108*
%TO.C,D75*%
X187218614Y-76503590D03*
X189222816Y-76072696D03*
%TD*%
D109*
%TO.C,D74*%
X18458065Y-114310463D03*
X16461585Y-114775831D03*
%TD*%
D110*
%TO.C,D33*%
X136281490Y-16655983D03*
X138084450Y-17631603D03*
%TD*%
D70*
%TO.C,R2*%
X44356401Y-47675969D03*
X45932423Y-48907291D03*
%TD*%
D15*
%TO.C,R26*%
X152460759Y-152606762D03*
X150884737Y-151375440D03*
%TD*%
D18*
%TO.C,R12*%
X42410215Y-139193027D03*
X43986237Y-137961705D03*
%TD*%
D16*
%TO.C,D3*%
X48094634Y-146509358D03*
X49710056Y-145247252D03*
%TD*%
D19*
%TO.C,U5*%
X90660000Y-34970000D03*
X91930000Y-34970000D03*
X93200000Y-34970000D03*
X94470000Y-34970000D03*
X95740000Y-34970000D03*
X97010000Y-34970000D03*
X98280000Y-34970000D03*
X99550000Y-34970000D03*
X99550000Y-39592800D03*
X98280000Y-39592800D03*
X97010000Y-39592800D03*
X95740000Y-39592800D03*
X94470000Y-39592800D03*
X93200000Y-39592800D03*
X91930000Y-39592800D03*
X90660000Y-39592800D03*
%TD*%
D111*
%TO.C,R92*%
X18450082Y-74973789D03*
X16502674Y-74518155D03*
%TD*%
D112*
%TO.C,D61*%
X182395556Y-117078866D03*
X180436938Y-116473628D03*
%TD*%
D113*
%TO.C,R91*%
X16515170Y-87021447D03*
X14523024Y-86844371D03*
%TD*%
D16*
%TO.C,D4*%
X55700127Y-156243945D03*
X57315549Y-154981839D03*
%TD*%
D114*
%TO.C,D69*%
X71554397Y-20373014D03*
X69963711Y-21666156D03*
%TD*%
D115*
%TO.C,R48*%
X187831980Y-79493881D03*
X189800916Y-79142757D03*
%TD*%
D116*
%TO.C,R34*%
X91242109Y-180421054D03*
X90977753Y-182403506D03*
%TD*%
D18*
%TO.C,R17*%
X31001976Y-124591147D03*
X32577998Y-123359825D03*
%TD*%
D16*
%TO.C,D29*%
X44291888Y-141642065D03*
X45907310Y-140379959D03*
%TD*%
D42*
%TO.C,D57*%
X150579085Y-155055800D03*
X148963663Y-153793694D03*
%TD*%
D16*
%TO.C,D27*%
X29080903Y-122172892D03*
X30696325Y-120910786D03*
%TD*%
D104*
%TO.C,R84*%
X95744894Y-29258022D03*
X95744894Y-31258022D03*
%TD*%
D48*
%TO.C,U2*%
X92183700Y-172625000D03*
X92183700Y-171355000D03*
X92183700Y-170085000D03*
X92183700Y-168815000D03*
X92183700Y-167545000D03*
X92183700Y-166275000D03*
X92183700Y-165005000D03*
X92183700Y-163735000D03*
X96806500Y-163735000D03*
X96806500Y-165005000D03*
X96806500Y-166275000D03*
X96806500Y-167545000D03*
X96806500Y-168815000D03*
X96806500Y-170085000D03*
X96806500Y-171355000D03*
X96806500Y-172625000D03*
%TD*%
D16*
%TO.C,D28*%
X36686396Y-131907479D03*
X38301818Y-130645373D03*
%TD*%
D64*
%TO.C,R54*%
X146480657Y-23019596D03*
X145249335Y-21443574D03*
%TD*%
D28*
%TO.C,R100*%
X24350000Y-84500000D03*
X26350000Y-84500000D03*
%TD*%
D117*
%TO.C,R27*%
X144354415Y-170476537D03*
X145318091Y-172229059D03*
%TD*%
D24*
%TO.C,D91*%
X111186603Y-29233022D03*
X111186603Y-31283022D03*
%TD*%
D118*
%TO.C,D94*%
X75817646Y-24464075D03*
X74591144Y-26106693D03*
%TD*%
D119*
%TO.C,R29*%
X133274187Y-175587159D03*
X133981671Y-177457845D03*
%TD*%
D120*
%TO.C,R86*%
X16294770Y-99221503D03*
X14297528Y-99326509D03*
%TD*%
D121*
%TO.C,R51*%
X130734630Y-23538473D03*
X132029988Y-25062299D03*
%TD*%
D122*
%TO.C,D34*%
X188290079Y-82511861D03*
X190319683Y-82223399D03*
%TD*%
D28*
%TO.C,R102*%
X24350000Y-90400000D03*
X26350000Y-90400000D03*
%TD*%
D123*
%TO.C,D13*%
X136100518Y-174433944D03*
X136892902Y-176324612D03*
%TD*%
D124*
%TO.C,R89*%
X83742125Y-28380573D03*
X83206525Y-30307523D03*
%TD*%
D70*
%TO.C,R93*%
X32948162Y-62277849D03*
X34524184Y-63509171D03*
%TD*%
D125*
%TO.C,R38*%
X138904529Y-173227470D03*
X139742195Y-175043596D03*
%TD*%
D42*
%TO.C,D46*%
X161987324Y-140453921D03*
X160371902Y-139191815D03*
%TD*%
D18*
%TO.C,R18*%
X38607469Y-134325733D03*
X40183491Y-133094411D03*
%TD*%
D20*
%TO.C,D42*%
X154381832Y-39171493D03*
X152766410Y-40433599D03*
%TD*%
D126*
%TO.C,D45*%
X188290079Y-106848139D03*
X190319683Y-107136601D03*
%TD*%
D127*
%TO.C,D50*%
X82250226Y-178708181D03*
X81766020Y-180700177D03*
%TD*%
D24*
%TO.C,D92*%
X98833236Y-29233022D03*
X98833236Y-31283022D03*
%TD*%
D128*
%TO.C,R46*%
X188691007Y-103822034D03*
X190679805Y-104033410D03*
%TD*%
D129*
%TO.C,R71*%
X144354415Y-18883463D03*
X145318091Y-17130941D03*
%TD*%
D104*
%TO.C,R75*%
X101921578Y-29258022D03*
X101921578Y-31258022D03*
%TD*%
D10*
%TO.C,R53*%
X163868997Y-51355118D03*
X162292975Y-52586440D03*
%TD*%
D130*
%TO.C,R49*%
X140291593Y-15437278D03*
X138317341Y-15117388D03*
%TD*%
D131*
%TO.C,D38*%
X147641943Y-20749845D03*
X146920179Y-18831107D03*
%TD*%
D10*
%TO.C,R57*%
X171474490Y-61089704D03*
X169898468Y-62321026D03*
%TD*%
D132*
%TO.C,D62*%
X187218614Y-112856410D03*
X189222816Y-113287304D03*
%TD*%
D20*
%TO.C,D85*%
X158184578Y-44038786D03*
X156569156Y-45300892D03*
%TD*%
D133*
%TO.C,D11*%
X146920179Y-170528893D03*
X147641943Y-168610155D03*
%TD*%
D134*
%TO.C,D49*%
X70629607Y-174998046D03*
X69869919Y-176902088D03*
%TD*%
D70*
%TO.C,R80*%
X59567386Y-28206796D03*
X61143408Y-29438118D03*
%TD*%
D13*
%TO.C,D20*%
X34829835Y-59828810D03*
X36445257Y-61090916D03*
%TD*%
D104*
%TO.C,R88*%
X108098261Y-29258022D03*
X108098261Y-31258022D03*
%TD*%
D70*
%TO.C,R3*%
X36750909Y-57410555D03*
X38326931Y-58641877D03*
%TD*%
D135*
%TO.C,D39*%
X189150466Y-94680000D03*
X191200466Y-94680000D03*
%TD*%
D136*
%TO.C,D73*%
X80951291Y-27389443D03*
X80163325Y-29281957D03*
%TD*%
M02*
