M48
; DRILL file {KiCad 8.0.0-dirty} date 2024-04-13T23:16:23-0400
; FORMAT={-:-/ absolute / metric / decimal}
; #@! TF.CreationDate,2024-04-13T23:16:23-04:00
; #@! TF.GenerationSoftware,Kicad,Pcbnew,8.0.0-dirty
; #@! TF.FileFunction,Plated,1,4,PTH
FMAT,2
METRIC
; #@! TA.AperFunction,Plated,PTH,ViaDrill
T1C0.400
; #@! TA.AperFunction,Plated,PTH,ComponentDrill
T2C1.000
%
G90
G05
T1
X16.16Y-96.15
X16.33Y-90.11
X16.35Y-99.29
X16.37Y-74.42
X16.92Y-84.18
X17.34Y-108.3
X17.84Y-111.31
X17.86Y-78.0
X20.73Y-99.08
X21.73Y-117.92
X23.1Y-119.42
X23.17Y-114.64
X24.35Y-90.4
X25.31Y-71.11
X26.33Y-75.69
X26.37Y-78.63
X26.38Y-84.47
X26.4Y-87.51
X26.42Y-90.37
X26.44Y-81.58
X30.33Y-100.47
X32.16Y-114.34
X32.67Y-123.42
X32.87Y-127.09
X32.96Y-62.21
X34.37Y-98.54
X34.44Y-100.19
X34.47Y-63.47
X34.69Y-113.37
X34.84Y-59.79
X35.02Y-104.66
X35.62Y-97.67
X35.67Y-100.17
X35.93Y-108.89
X36.53Y-111.206
X36.95Y-100.13
X37.14Y-117.06
X37.24Y-124.68
X37.385Y-108.839
X37.9Y-106.72
X38.005Y-96.72
X38.21Y-104.793
X38.49Y-108.839
X38.56Y-134.32
X38.61Y-54.98
X39.48Y-104.793
X39.835Y-113.461
X39.85Y-120.29
X39.94Y-108.824
X40.14Y-133.2
X40.74Y-104.85
X42.35Y-113.51
X42.369Y-108.839
X42.48Y-50.17
X42.71Y-116.14
X43.605Y-108.839
X46.168Y-143.723
X46.23Y-45.21
X47.874Y-142.744
X50.1Y-40.47
X53.89Y-35.47
X54.022Y-153.53
X55.32Y-152.54
X57.55Y-30.66
X59.54Y-161.06
X59.78Y-169.62
X60.86Y-162.99
X61.02Y-26.09
X61.38Y-22.52
X62.29Y-171.2
X65.08Y-16.77
X68.05Y-16.66
X70.66Y-175.03
X73.41Y-22.68
X73.48Y-176.06
X75.84Y-24.47
X82.32Y-178.73
X83.77Y-28.42
X85.12Y-179.41
X86.59Y-28.9
X87.97Y-181.93
X90.759Y-164.626
X92.184Y-165.151
X92.184Y-172.625
X92.43Y-171.33
X92.78Y-29.32
X93.17Y-34.82
X94.33Y-180.91
X94.339Y-39.724
X94.36Y-174.49
X94.47Y-34.97
X95.71Y-173.9
X95.74Y-34.97
X95.74Y-39.593
X96.17Y-178.41
X96.645Y-174.253
X96.66Y-170.09
X96.806Y-167.545
X96.806Y-168.815
X96.806Y-171.355
X96.82Y-163.72
X97.01Y-34.97
X97.17Y-33.37
X97.19Y-39.593
X97.3Y-180.99
X97.8Y-174.26
X98.28Y-39.593
X98.39Y-35.19
X98.85Y-29.23
X98.86Y-174.23
X99.44Y-32.73
X99.52Y-35.1
X99.55Y-39.593
X100.012Y-174.368
X102.17Y-167.149
X103.69Y-34.997
X104.604Y-164.136
X104.71Y-165.3
X104.71Y-166.424
X104.71Y-169.029
X104.86Y-167.89
X105.0Y-35.01
X105.08Y-29.27
X106.23Y-34.565
X106.23Y-39.62
X106.471Y-181.072
X107.5Y-39.62
X108.74Y-39.55
X109.25Y-169.13
X109.333Y-167.594
X109.333Y-170.234
X109.333Y-172.29
X109.5Y-175.74
X109.53Y-180.97
X110.04Y-34.997
X111.24Y-29.25
X111.31Y-39.62
X111.39Y-35.01
X111.6Y-170.43
X112.34Y-173.93
X112.54Y-39.73
X112.58Y-34.997
X113.18Y-32.97
X113.74Y-34.07
X117.31Y-29.16
X118.53Y-179.71
X121.64Y-179.08
X123.0Y-27.93
X128.47Y-25.23
X130.39Y-176.59
X132.82Y-21.54
X133.288Y-175.601
X140.28Y-15.46
X141.53Y-17.55
X141.57Y-171.9
X144.41Y-170.51
X144.73Y-24.68
X144.8Y-162.03
X144.96Y-164.48
X146.42Y-23.04
X146.71Y-29.26
X150.53Y-155.0
X150.61Y-34.34
X152.49Y-152.55
X154.51Y-39.28
X158.22Y-145.35
X158.23Y-43.97
X160.09Y-143.0
X161.937Y-48.878
X162.26Y-52.63
X165.83Y-135.56
X167.5Y-133.06
X169.72Y-58.59
X169.89Y-62.32
X173.38Y-125.87
X175.32Y-123.28
X177.207Y-68.383
X181.26Y-70.54
X182.32Y-117.13
X184.67Y-120.75
X186.47Y-73.6
X187.23Y-112.77
X187.34Y-76.56
X188.28Y-82.46
X188.33Y-106.99
X188.92Y-88.62
X188.92Y-100.86
X189.24Y-97.7
T2
X36.565Y-76.36
X36.565Y-78.9
X36.565Y-81.44
X36.565Y-83.98
X36.565Y-86.52
X36.565Y-89.06
X39.105Y-76.36
X39.105Y-78.9
X39.105Y-81.44
X39.105Y-83.98
X39.105Y-86.52
X39.105Y-89.06
M30
