%TF.GenerationSoftware,KiCad,Pcbnew,8.0.0-dirty*%
%TF.CreationDate,2024-03-12T22:30:07-04:00*%
%TF.ProjectId,RCJ_Open_LinePCB,52434a5f-4f70-4656-9e5f-4c696e655043,rev?*%
%TF.SameCoordinates,Original*%
%TF.FileFunction,Copper,L1,Top*%
%TF.FilePolarity,Positive*%
%FSLAX46Y46*%
G04 Gerber Fmt 4.6, Leading zero omitted, Abs format (unit mm)*
G04 Created by KiCad (PCBNEW 8.0.0-dirty) date 2024-03-12 22:30:07*
%MOMM*%
%LPD*%
G01*
G04 APERTURE LIST*
G04 Aperture macros list*
%AMRoundRect*
0 Rectangle with rounded corners*
0 $1 Rounding radius*
0 $2 $3 $4 $5 $6 $7 $8 $9 X,Y pos of 4 corners*
0 Add a 4 corners polygon primitive as box body*
4,1,4,$2,$3,$4,$5,$6,$7,$8,$9,$2,$3,0*
0 Add four circle primitives for the rounded corners*
1,1,$1+$1,$2,$3*
1,1,$1+$1,$4,$5*
1,1,$1+$1,$6,$7*
1,1,$1+$1,$8,$9*
0 Add four rect primitives between the rounded corners*
20,1,$1+$1,$2,$3,$4,$5,0*
20,1,$1+$1,$4,$5,$6,$7,0*
20,1,$1+$1,$6,$7,$8,$9,0*
20,1,$1+$1,$8,$9,$2,$3,0*%
G04 Aperture macros list end*
%TA.AperFunction,ComponentPad*%
%ADD10RoundRect,0.250000X-0.600000X-0.600000X0.600000X-0.600000X0.600000X0.600000X-0.600000X0.600000X0*%
%TD*%
%TA.AperFunction,ComponentPad*%
%ADD11C,1.700000*%
%TD*%
%TA.AperFunction,ViaPad*%
%ADD12C,0.800000*%
%TD*%
%TA.AperFunction,Conductor*%
%ADD13C,0.250000*%
%TD*%
G04 APERTURE END LIST*
D10*
%TO.P,J1,1,Pin_1*%
%TO.N,CS3*%
X36565000Y-76360000D03*
D11*
%TO.P,J1,2,Pin_2*%
%TO.N,CS2*%
X39105000Y-76360000D03*
%TO.P,J1,3,Pin_3*%
%TO.N,MOSI*%
X36565000Y-78900000D03*
%TO.P,J1,4,Pin_4*%
%TO.N,MISO*%
X39105000Y-78900000D03*
%TO.P,J1,5,Pin_5*%
%TO.N,SCK1*%
X36565000Y-81440000D03*
%TO.P,J1,6,Pin_6*%
%TO.N,CS1*%
X39105000Y-81440000D03*
%TO.P,J1,7,Pin_7*%
%TO.N,CS4*%
X36565000Y-83980000D03*
%TO.P,J1,8,Pin_8*%
%TO.N,CS5*%
X39105000Y-83980000D03*
%TO.P,J1,9,Pin_9*%
%TO.N,5V*%
X36565000Y-86520000D03*
%TO.P,J1,10,Pin_10*%
%TO.N,GND*%
X39105000Y-86520000D03*
%TO.P,J1,11,Pin_11*%
%TO.N,CS6*%
X36565000Y-89060000D03*
%TO.P,J1,12,Pin_12*%
%TO.N,3.3V*%
X39105000Y-89060000D03*
%TD*%
D12*
%TO.N,GND*%
X141530000Y-17550000D03*
X123000000Y-27930000D03*
X96660000Y-170090000D03*
X109332800Y-170234000D03*
X32160000Y-114340000D03*
X141570000Y-171900000D03*
X187340000Y-76560000D03*
X16370000Y-74420000D03*
X150610000Y-34340000D03*
X173380000Y-125870000D03*
X82320000Y-178730000D03*
X47874439Y-142743542D03*
X99550000Y-39592800D03*
X130390000Y-176590000D03*
X158230000Y-43970000D03*
X34470000Y-63470000D03*
X188920000Y-88620000D03*
X42480000Y-50170000D03*
X75840000Y-24470000D03*
X144960000Y-164480000D03*
X68050000Y-16660000D03*
X55320000Y-152540000D03*
X132820000Y-21540000D03*
X162260000Y-52630000D03*
X106230000Y-39620000D03*
X150530000Y-155000000D03*
X144730000Y-24680000D03*
X50100000Y-40470000D03*
X182320000Y-117130000D03*
X188920000Y-100860000D03*
X86590000Y-28900000D03*
X40140000Y-133200000D03*
X181260000Y-70540000D03*
X16920000Y-84180000D03*
X94330000Y-180910000D03*
X17340000Y-108300000D03*
X98850000Y-29230000D03*
X106471468Y-181071643D03*
X165830000Y-135560000D03*
X34840000Y-59790000D03*
X61380000Y-22520000D03*
X169890000Y-62320000D03*
X21730000Y-117920000D03*
X94360000Y-174490000D03*
X111240000Y-29250000D03*
X158220000Y-145350000D03*
X59780000Y-169620000D03*
X16160000Y-96150000D03*
X96820000Y-163720000D03*
X118530000Y-179710000D03*
X59540000Y-161060000D03*
X70660000Y-175030000D03*
X187230000Y-112770000D03*
X32670000Y-123420000D03*
X57550000Y-30660000D03*
X112540000Y-39730000D03*
%TO.N,Ch40*%
X53890000Y-35470000D03*
X99520000Y-35100000D03*
%TO.N,3.3V*%
X109332800Y-172290000D03*
X87970000Y-181930000D03*
X104960000Y-39620000D03*
X35020000Y-104660000D03*
X96806500Y-171355000D03*
X34690000Y-113370000D03*
X101140000Y-37150000D03*
%TO.N,Ch36*%
X94470000Y-34970000D03*
X83770000Y-28420000D03*
%TO.N,Ch39*%
X98390000Y-35190000D03*
X61020000Y-26090000D03*
%TO.N,Ch35*%
X92780000Y-29320000D03*
X93170000Y-34820000D03*
%TO.N,Ch38*%
X65080000Y-16770000D03*
X97010000Y-34970000D03*
%TO.N,Ch34*%
X105080000Y-29270000D03*
X97170000Y-33370000D03*
%TO.N,Ch33*%
X117310000Y-29160000D03*
X99440000Y-32730000D03*
%TO.N,Ch37*%
X73410000Y-22680000D03*
X95740000Y-34970000D03*
%TO.N,Ch32*%
X128470000Y-25230000D03*
X112580000Y-34997200D03*
%TO.N,Ch28*%
X113740000Y-34070000D03*
X154510000Y-39280000D03*
%TO.N,Ch31*%
X140280000Y-15460000D03*
X111390000Y-35010000D03*
%TO.N,Ch27*%
X161937240Y-48878055D03*
X106230000Y-34565000D03*
%TO.N,Ch30*%
X146420000Y-23040000D03*
X110040000Y-34997200D03*
%TO.N,Ch26*%
X105000000Y-35010000D03*
X169720000Y-58590000D03*
%TO.N,Ch25*%
X177207131Y-68383151D03*
X103690000Y-34997200D03*
%TO.N,Ch29*%
X113180000Y-32970000D03*
X146710000Y-29260000D03*
%TO.N,Ch16*%
X152490000Y-152550000D03*
X100011712Y-174368288D03*
%TO.N,Ch8*%
X43605000Y-108838600D03*
X73480000Y-176060000D03*
%TO.N,Ch4*%
X46167652Y-143723054D03*
X38490000Y-108838600D03*
%TO.N,Ch24*%
X104603747Y-164136253D03*
X186470000Y-73600000D03*
%TO.N,Ch12*%
X96645474Y-174253401D03*
X121640000Y-179080000D03*
%TO.N,Ch20*%
X104710000Y-169029200D03*
X184670000Y-120750000D03*
%TO.N,Ch7*%
X42369000Y-108838600D03*
X62290000Y-171200000D03*
X36530000Y-111206149D03*
%TO.N,Ch3*%
X37240000Y-124680000D03*
X38560000Y-134320000D03*
X39850000Y-120290000D03*
X37385000Y-108838600D03*
%TO.N,Ch15*%
X144800000Y-162030000D03*
X92183700Y-165151000D03*
%TO.N,Ch23*%
X188280000Y-82460000D03*
X104710000Y-165300000D03*
%TO.N,Ch11*%
X109530000Y-180970000D03*
X95710000Y-173900000D03*
%TO.N,Ch19*%
X175320000Y-123280000D03*
X111600000Y-170430000D03*
%TO.N,Ch6*%
X60860000Y-162990000D03*
X37140000Y-117060000D03*
%TO.N,Ch2*%
X32870000Y-127090000D03*
X35930000Y-108890000D03*
%TO.N,Ch14*%
X98860000Y-174230000D03*
X144410000Y-170510000D03*
%TO.N,Ch10*%
X92430000Y-171330000D03*
X97300000Y-180990000D03*
%TO.N,Ch22*%
X189240000Y-97700000D03*
X104710000Y-166424000D03*
%TO.N,Ch18*%
X167500000Y-133060000D03*
X112340000Y-173930000D03*
%TO.N,Ch1*%
X23100000Y-119420000D03*
X23170000Y-114640000D03*
%TO.N,Ch5*%
X54021790Y-153530500D03*
X39940000Y-108824271D03*
%TO.N,Ch9*%
X92183700Y-172625000D03*
X85120000Y-179410000D03*
%TO.N,Ch13*%
X97800000Y-174260000D03*
X133288161Y-175601133D03*
%TO.N,Ch17*%
X160090000Y-143000000D03*
X109500000Y-175740000D03*
%TO.N,Ch21*%
X104860000Y-167890000D03*
X188330000Y-106990000D03*
%TO.N,MOSI*%
X97190000Y-39592800D03*
X37900000Y-106720000D03*
X102170000Y-167149000D03*
X40740000Y-104850000D03*
%TO.N,MISO*%
X108740000Y-39550000D03*
X96806500Y-167545000D03*
X95740000Y-39592800D03*
X39835000Y-113461400D03*
X109332800Y-167593949D03*
X39480000Y-104792800D03*
X42710000Y-116140000D03*
%TO.N,SCK1*%
X107500000Y-39620000D03*
X109250000Y-169130000D03*
X94338747Y-39724053D03*
X96806500Y-168815000D03*
X38210000Y-104792800D03*
%TO.N,CS1*%
X42350000Y-113510000D03*
X26330000Y-75690000D03*
%TO.N,CS2*%
X90758767Y-164625518D03*
X26370000Y-78630000D03*
%TO.N,CS3*%
X96170000Y-178410000D03*
X26440000Y-81580000D03*
%TO.N,CS4*%
X111310000Y-39620000D03*
X26380000Y-84470000D03*
%TO.N,CS5*%
X98280000Y-39592800D03*
X26400000Y-87510000D03*
%TO.N,Ch48*%
X30330000Y-100470000D03*
X17840000Y-111310000D03*
%TO.N,Ch44*%
X25310000Y-71110000D03*
X38005000Y-96720000D03*
%TO.N,Ch47*%
X16350000Y-99290000D03*
X20730000Y-99080000D03*
%TO.N,Ch43*%
X32960000Y-62210000D03*
X36950000Y-100130000D03*
%TO.N,Ch46*%
X34370000Y-98540000D03*
X16330000Y-90110000D03*
%TO.N,Ch42*%
X38610000Y-54980000D03*
X35670000Y-100170000D03*
%TO.N,Ch41*%
X34440000Y-100190000D03*
X46230000Y-45210000D03*
%TO.N,Ch45*%
X17860000Y-78000000D03*
X35620000Y-97670000D03*
%TO.N,CS6*%
X26420000Y-90370000D03*
%TD*%
D13*
%TO.N,GND*%
X59570000Y-161060000D02*
X59540000Y-161060000D01*
X145960000Y-163480000D02*
X144960000Y-164480000D01*
X112580000Y-39730000D02*
X112590000Y-39720000D01*
X158240000Y-145330000D02*
X158220000Y-145350000D01*
X68050000Y-16660000D02*
X68020000Y-16660000D01*
X28070000Y-69930000D02*
X34470000Y-63530000D01*
X94360000Y-170400200D02*
X94930100Y-169830100D01*
X59780000Y-170520000D02*
X59780000Y-169620000D01*
X34810000Y-59790000D02*
X34810000Y-59790000D01*
X98190000Y-28540000D02*
X98020000Y-28540000D01*
X173950000Y-125870000D02*
X173380000Y-125870000D01*
X59540000Y-161030000D02*
X55290000Y-156780000D01*
X44220000Y-46540000D02*
X44040000Y-46720000D01*
X158240000Y-143130000D02*
X158240000Y-145330000D01*
X21730000Y-117910000D02*
X16660000Y-112840000D01*
X31700000Y-114340000D02*
X32160000Y-114340000D01*
X171930124Y-129719876D02*
X166090000Y-135560000D01*
X50100000Y-40460000D02*
X50100000Y-40460000D01*
X187340000Y-76550000D02*
X187340000Y-76560000D01*
X47320000Y-142330000D02*
X45860000Y-142330000D01*
X15120000Y-85980000D02*
X16920000Y-84180000D01*
X109332800Y-170234000D02*
X109332800Y-170342800D01*
X171930124Y-129589876D02*
X171930124Y-129719876D01*
X61370000Y-22490000D02*
X61370000Y-22510000D01*
X32640000Y-123410000D02*
X27290000Y-118060000D01*
X14870000Y-105750000D02*
X14870000Y-97440000D01*
X40140000Y-133200000D02*
X37620000Y-133200000D01*
X144750000Y-24700000D02*
X144750000Y-28450000D01*
X118540000Y-179710000D02*
X118530000Y-179710000D01*
X79895920Y-25360000D02*
X76740000Y-25360000D01*
X158230000Y-43970000D02*
X158240000Y-43970000D01*
X96860000Y-163720000D02*
X96820000Y-163720000D01*
X187230000Y-104769115D02*
X187230000Y-112770000D01*
X132830000Y-21530000D02*
X133340000Y-21530000D01*
X98160000Y-28540000D02*
X98850000Y-29230000D01*
X122980000Y-27900000D02*
X123960000Y-27900000D01*
X188920000Y-100860000D02*
X188910000Y-100870000D01*
X150530000Y-155000000D02*
X150530000Y-156460000D01*
X112540000Y-39730000D02*
X112580000Y-39730000D01*
X169870000Y-62330000D02*
X178080000Y-70540000D01*
X125520000Y-26340000D02*
X125870000Y-26340000D01*
X21740000Y-117920000D02*
X21730000Y-117920000D01*
X111240000Y-29250000D02*
X110390000Y-28400000D01*
X94320000Y-180900000D02*
X84500000Y-180900000D01*
X16660000Y-108980000D02*
X17340000Y-108300000D01*
X106230000Y-39620000D02*
X105505000Y-38895000D01*
X27150000Y-117920000D02*
X21740000Y-117920000D01*
X75840000Y-23620000D02*
X68880000Y-16660000D01*
X49860000Y-40470000D02*
X44220000Y-46110000D01*
X173380000Y-128140000D02*
X171930124Y-129589876D01*
X112200000Y-28290000D02*
X122590000Y-28290000D01*
X104903286Y-182400000D02*
X95820000Y-182400000D01*
X55290000Y-152570000D02*
X55320000Y-152540000D01*
X59540000Y-161060000D02*
X59540000Y-161030000D01*
X181330000Y-70540000D02*
X187340000Y-76550000D01*
X55290000Y-152510000D02*
X55320000Y-152540000D01*
X106471468Y-181071643D02*
X107879825Y-182480000D01*
X40170000Y-133200000D02*
X40140000Y-133200000D01*
X187350000Y-76560000D02*
X189990000Y-79200000D01*
X84944710Y-27244710D02*
X84257999Y-27069955D01*
X94930100Y-169830100D02*
X96430100Y-169830100D01*
X150530000Y-155000000D02*
X151660000Y-155000000D01*
X107879825Y-182480000D02*
X115770000Y-182480000D01*
X47874439Y-142743542D02*
X47733542Y-142743542D01*
X158240000Y-43970000D02*
X158240000Y-48570000D01*
X144710305Y-169785000D02*
X144051396Y-169785000D01*
X153340000Y-150230000D02*
X158220000Y-145350000D01*
X162300000Y-52630000D02*
X169870000Y-60200000D01*
X151660000Y-155000000D02*
X153340000Y-153320000D01*
X96660000Y-170060000D02*
X96660000Y-170090000D01*
X79982613Y-25402613D02*
X79895920Y-25360000D01*
X47874439Y-142743542D02*
X47874439Y-142884439D01*
X16370000Y-74420000D02*
X16370000Y-83630000D01*
X106520000Y-163140000D02*
X98402000Y-163140000D01*
X125870000Y-26340000D02*
X127980000Y-24230000D01*
X34470000Y-63470000D02*
X34530000Y-63470000D01*
X133340000Y-21530000D02*
X133340000Y-18933063D01*
X94330000Y-180910000D02*
X94320000Y-180900000D01*
X145135000Y-170209695D02*
X144710305Y-169785000D01*
X150610000Y-37370000D02*
X157210000Y-43970000D01*
X86590000Y-28890000D02*
X84944710Y-27244710D01*
X96430100Y-169830100D02*
X96660000Y-170060000D01*
X102965000Y-38895000D02*
X102267200Y-39592800D01*
X96690000Y-170090000D02*
X96690000Y-170090000D01*
X109332800Y-170342800D02*
X109400000Y-170410000D01*
X52380000Y-35770000D02*
X52380000Y-37190000D01*
X34530000Y-63470000D02*
X34500000Y-63500000D01*
X132820000Y-21540000D02*
X132830000Y-21530000D01*
X106231643Y-181071643D02*
X104903286Y-182400000D01*
X21730000Y-117920000D02*
X21730000Y-117910000D01*
X123260000Y-180820000D02*
X119650000Y-180820000D01*
X36190000Y-57430000D02*
X36190000Y-58410000D01*
X27290000Y-118060000D02*
X27150000Y-117920000D01*
X75840000Y-24470000D02*
X75840000Y-23620000D01*
X82320000Y-178720000D02*
X78600000Y-175000000D01*
X157210000Y-43970000D02*
X158230000Y-43970000D01*
X189990000Y-87550000D02*
X188920000Y-88620000D01*
X47874439Y-142884439D02*
X55290000Y-150300000D01*
X106471468Y-181071643D02*
X106231643Y-181071643D01*
X83356625Y-26800262D02*
X83066052Y-26700000D01*
X110057800Y-169752200D02*
X110057800Y-166677800D01*
X182320000Y-117130000D02*
X182320000Y-117500000D01*
X84500000Y-180900000D02*
X82330000Y-178730000D01*
X42480000Y-50170000D02*
X42160000Y-50170000D01*
X122590000Y-28290000D02*
X122980000Y-27900000D01*
X59780000Y-169620000D02*
X59900000Y-161390000D01*
X141540000Y-21490000D02*
X141540000Y-17560000D01*
X142620000Y-173320000D02*
X142625305Y-173320000D01*
X31700000Y-124390000D02*
X32670000Y-123420000D01*
X68020000Y-16660000D02*
X68020000Y-16660000D01*
X61380000Y-22520000D02*
X60080000Y-23820000D01*
X127520000Y-176560000D02*
X123260000Y-180820000D01*
X37620000Y-133200000D02*
X31700000Y-127280000D01*
X37460000Y-54870000D02*
X37460000Y-56160000D01*
X144730000Y-24680000D02*
X144750000Y-24700000D01*
X109332800Y-170234000D02*
X109576000Y-170234000D01*
X86950000Y-28540000D02*
X86590000Y-28900000D01*
X142625305Y-173320000D02*
X145135000Y-170810305D01*
X31700000Y-127280000D02*
X31700000Y-124390000D01*
X98330000Y-28400000D02*
X98190000Y-28540000D01*
X34470000Y-63530000D02*
X34470000Y-63470000D01*
X55290000Y-150300000D02*
X55290000Y-152510000D01*
X133340000Y-18933063D02*
X138143063Y-14130000D01*
X17310000Y-108190000D02*
X14870000Y-105750000D01*
X150530000Y-156460000D02*
X145960000Y-161030000D01*
X81280000Y-26700000D02*
X79982613Y-25402613D01*
X75850000Y-24470000D02*
X75840000Y-24470000D01*
X45860000Y-142330000D02*
X45860000Y-138890000D01*
X145960000Y-161030000D02*
X145960000Y-163480000D01*
X111240000Y-29250000D02*
X112200000Y-28290000D01*
X61370000Y-22510000D02*
X61380000Y-22520000D01*
X173380000Y-125870000D02*
X173380000Y-128140000D01*
X150610000Y-34340000D02*
X150610000Y-37370000D01*
X15120000Y-95110000D02*
X15120000Y-85980000D01*
X57470000Y-30680000D02*
X52380000Y-35770000D01*
X98020000Y-28540000D02*
X98160000Y-28540000D01*
X144750000Y-28450000D02*
X150610000Y-34310000D01*
X115770000Y-182480000D02*
X118530000Y-179720000D01*
X142620000Y-173320000D02*
X139380000Y-176560000D01*
X59900000Y-161390000D02*
X59570000Y-161060000D01*
X95820000Y-182400000D02*
X94330000Y-180910000D01*
X21740000Y-117920000D02*
X21740000Y-117920000D01*
X162260000Y-52630000D02*
X162300000Y-52630000D01*
X83066052Y-26700000D02*
X81280000Y-26700000D01*
X34840000Y-59790000D02*
X34810000Y-59790000D01*
X144710305Y-171235000D02*
X144705000Y-171235000D01*
X44220000Y-46110000D02*
X44220000Y-46540000D01*
X42480000Y-49730000D02*
X42480000Y-50170000D01*
X109576000Y-170234000D02*
X110057800Y-169752200D01*
X144705000Y-171235000D02*
X142620000Y-173320000D01*
X17310000Y-108270000D02*
X17310000Y-108190000D01*
X98020000Y-28540000D02*
X86950000Y-28540000D01*
X182320000Y-117500000D02*
X173950000Y-125870000D01*
X158240000Y-48570000D02*
X162260000Y-52590000D01*
X142970000Y-16260000D02*
X141680000Y-17550000D01*
X42160000Y-50170000D02*
X37460000Y-54870000D01*
X127980000Y-24230000D02*
X130130000Y-24230000D01*
X130130000Y-24230000D02*
X132820000Y-21540000D01*
X97424000Y-163156000D02*
X96860000Y-163720000D01*
X138143063Y-14130000D02*
X140840000Y-14130000D01*
X27290000Y-118060000D02*
X30610000Y-114740000D01*
X82330000Y-178730000D02*
X82320000Y-178730000D01*
X188150000Y-89390000D02*
X188150000Y-100090000D01*
X68880000Y-16660000D02*
X68050000Y-16660000D01*
X82320000Y-178730000D02*
X82320000Y-178720000D01*
X144960000Y-164480000D02*
X145990000Y-165510000D01*
X119650000Y-180820000D02*
X118540000Y-179710000D01*
X123960000Y-27900000D02*
X125520000Y-26340000D01*
X50100000Y-40470000D02*
X49860000Y-40470000D01*
X95000000Y-165540000D02*
X96820000Y-163720000D01*
X20860000Y-69930000D02*
X28070000Y-69930000D01*
X50100000Y-39470000D02*
X50100000Y-40470000D01*
X105505000Y-38895000D02*
X102965000Y-38895000D01*
X169870000Y-60200000D02*
X169870000Y-62330000D01*
X31300000Y-114740000D02*
X31700000Y-114340000D01*
X62190000Y-22490000D02*
X61370000Y-22490000D01*
X188920000Y-88620000D02*
X188150000Y-89390000D01*
X140840000Y-14130000D02*
X142970000Y-16260000D01*
X55290000Y-156780000D02*
X55290000Y-152570000D01*
X188150000Y-100090000D02*
X188920000Y-100860000D01*
X94930100Y-169830100D02*
X95000000Y-169760200D01*
X17340000Y-108300000D02*
X17310000Y-108270000D01*
X16370000Y-83630000D02*
X16920000Y-84180000D01*
X162260000Y-52590000D02*
X162260000Y-52630000D01*
X110390000Y-28400000D02*
X98330000Y-28400000D01*
X165830000Y-135560000D02*
X165810000Y-135560000D01*
X182340000Y-117110000D02*
X182320000Y-117130000D01*
X150610000Y-34310000D02*
X150610000Y-34340000D01*
X84257999Y-27069955D02*
X83356625Y-26800262D01*
X16160000Y-96150000D02*
X15120000Y-95110000D01*
X141936396Y-171900000D02*
X141570000Y-171900000D01*
X145990000Y-169955305D02*
X144710305Y-171235000D01*
X165810000Y-135560000D02*
X158240000Y-143130000D01*
X98386000Y-163156000D02*
X97424000Y-163156000D01*
X188910000Y-103089115D02*
X187230000Y-104769115D01*
X139380000Y-176560000D02*
X127520000Y-176560000D01*
X86590000Y-28900000D02*
X86590000Y-28890000D01*
X60080000Y-23820000D02*
X60080000Y-28190000D01*
X187340000Y-76560000D02*
X187350000Y-76560000D01*
X94360000Y-174490000D02*
X94360000Y-170400200D01*
X36190000Y-58410000D02*
X34840000Y-59760000D01*
X68020000Y-16660000D02*
X62190000Y-22490000D01*
X110057800Y-166677800D02*
X106520000Y-163140000D01*
X45860000Y-138890000D02*
X40170000Y-133200000D01*
X158240000Y-43970000D02*
X158240000Y-43970000D01*
X141680000Y-17550000D02*
X141530000Y-17550000D01*
X60080000Y-28190000D02*
X57590000Y-30680000D01*
X181260000Y-70540000D02*
X181330000Y-70540000D01*
X187230000Y-112770000D02*
X182890000Y-117110000D01*
X34840000Y-59760000D02*
X34840000Y-59790000D01*
X57590000Y-30680000D02*
X57470000Y-30680000D01*
X145135000Y-170810305D02*
X145135000Y-170209695D01*
X178080000Y-70540000D02*
X181260000Y-70540000D01*
X118530000Y-179720000D02*
X118530000Y-179710000D01*
X47733542Y-142743542D02*
X47320000Y-142330000D01*
X98402000Y-163140000D02*
X98386000Y-163156000D01*
X64260000Y-175000000D02*
X59780000Y-170520000D01*
X44040000Y-48170000D02*
X42480000Y-49730000D01*
X16660000Y-112840000D02*
X16660000Y-108980000D01*
X144051396Y-169785000D02*
X141936396Y-171900000D01*
X182890000Y-117110000D02*
X182340000Y-117110000D01*
X16370000Y-74420000D02*
X20860000Y-69930000D01*
X76740000Y-25360000D02*
X75850000Y-24470000D01*
X102267200Y-39592800D02*
X99550000Y-39592800D01*
X44040000Y-46720000D02*
X44040000Y-48170000D01*
X96660000Y-170090000D02*
X96690000Y-170090000D01*
X166090000Y-135560000D02*
X165830000Y-135560000D01*
X14870000Y-97440000D02*
X16160000Y-96150000D01*
X95000000Y-169760200D02*
X95000000Y-165540000D01*
X78600000Y-175000000D02*
X64260000Y-175000000D01*
X189990000Y-79200000D02*
X189990000Y-87550000D01*
X52380000Y-37190000D02*
X50100000Y-39470000D01*
X141540000Y-17560000D02*
X141530000Y-17550000D01*
X32670000Y-123420000D02*
X32640000Y-123410000D01*
X141540000Y-21490000D02*
X144730000Y-24680000D01*
X30610000Y-114740000D02*
X31300000Y-114740000D01*
X145990000Y-165510000D02*
X145990000Y-169955305D01*
X153340000Y-153320000D02*
X153340000Y-150230000D01*
X188910000Y-100870000D02*
X188910000Y-103089115D01*
X37460000Y-56160000D02*
X36190000Y-57430000D01*
%TO.N,Ch40*%
X70966569Y-24040000D02*
X74621279Y-27694710D01*
X99520000Y-35100000D02*
X99520000Y-35085305D01*
X99520000Y-36650000D02*
X99520000Y-35100000D01*
X85249882Y-30575000D02*
X89260000Y-34585118D01*
X57855000Y-33695000D02*
X56070000Y-35480000D01*
X99560000Y-35045305D02*
X99560000Y-35010000D01*
X83545000Y-30575000D02*
X85249882Y-30575000D01*
X74621279Y-27694710D02*
X80664710Y-27694710D01*
X56070000Y-35480000D02*
X53890000Y-35470000D01*
X53890000Y-35470000D02*
X53890000Y-35480000D01*
X90020000Y-38380000D02*
X94462204Y-38380000D01*
X57855000Y-33695000D02*
X57340000Y-34210000D01*
X57340000Y-34210000D02*
X57340000Y-34220000D01*
X89260000Y-34585118D02*
X89260000Y-37620000D01*
X57855000Y-33695000D02*
X67510000Y-24040000D01*
X80664710Y-27694710D02*
X83545000Y-30575000D01*
X95612204Y-37230000D02*
X98940000Y-37230000D01*
X67510000Y-24040000D02*
X70966569Y-24040000D01*
X94462204Y-38380000D02*
X95612204Y-37230000D01*
X99520000Y-35085305D02*
X99560000Y-35045305D01*
X89260000Y-37620000D02*
X90020000Y-38380000D01*
X98940000Y-37230000D02*
X99520000Y-36650000D01*
%TO.N,3.3V*%
X25640000Y-91690000D02*
X36475000Y-91690000D01*
X24350000Y-90400000D02*
X25640000Y-91690000D01*
X36475000Y-91690000D02*
X39105000Y-89060000D01*
%TO.N,Ch39*%
X83646396Y-30040000D02*
X79536396Y-25930000D01*
X71152965Y-23590000D02*
X63520000Y-23590000D01*
X97950000Y-35190000D02*
X97810000Y-35330000D01*
X63520000Y-23590000D02*
X61020000Y-26090000D01*
X98390000Y-35190000D02*
X97950000Y-35190000D01*
X98310000Y-35500000D02*
X98390000Y-35190000D01*
X97310305Y-35695000D02*
X93019695Y-35695000D01*
X73492965Y-25930000D02*
X71152965Y-23590000D01*
X87364695Y-30040000D02*
X83646396Y-30040000D01*
X97675305Y-35330000D02*
X97310305Y-35695000D01*
X79536396Y-25930000D02*
X73492965Y-25930000D01*
X93019695Y-35695000D02*
X87364695Y-30040000D01*
X97810000Y-35330000D02*
X97675305Y-35330000D01*
%TO.N,Ch35*%
X93220000Y-29760000D02*
X92780000Y-29320000D01*
X93220000Y-35100000D02*
X93220000Y-34870000D01*
X93170000Y-34820000D02*
X93220000Y-34770000D01*
X93220000Y-34770000D02*
X93220000Y-29760000D01*
X93220000Y-34870000D02*
X93170000Y-34820000D01*
%TO.N,Ch34*%
X105080000Y-29270000D02*
X105100000Y-29270000D01*
X101270000Y-29270000D02*
X105080000Y-29270000D01*
X97170000Y-33370000D02*
X101270000Y-29270000D01*
%TO.N,Ch33*%
X99490000Y-32730000D02*
X99440000Y-32730000D01*
X102160000Y-30060000D02*
X99490000Y-32730000D01*
X116410000Y-30060000D02*
X102160000Y-30060000D01*
X99440000Y-32730000D02*
X99550000Y-32840000D01*
X117310000Y-29160000D02*
X116410000Y-30060000D01*
%TO.N,Ch32*%
X122970000Y-30730000D02*
X128470000Y-25230000D01*
X112580000Y-34997200D02*
X112580000Y-35010000D01*
X111855000Y-35735000D02*
X109735000Y-35735000D01*
X109315000Y-33395000D02*
X111980000Y-30730000D01*
X109315000Y-35315000D02*
X109315000Y-33395000D01*
X111980000Y-30730000D02*
X122970000Y-30730000D01*
X112580000Y-35010000D02*
X111855000Y-35735000D01*
X109735000Y-35735000D02*
X109315000Y-35315000D01*
%TO.N,Ch31*%
X140250000Y-15520000D02*
X140250000Y-15490000D01*
X128935305Y-25790000D02*
X129980000Y-25790000D01*
X123545305Y-31180000D02*
X128935305Y-25790000D01*
X112260000Y-31180000D02*
X123545305Y-31180000D01*
X110560000Y-34120000D02*
X111390000Y-35010000D01*
X111390000Y-35010000D02*
X111310000Y-34870000D01*
X110560000Y-32880000D02*
X112260000Y-31180000D01*
X129980000Y-25790000D02*
X140250000Y-15520000D01*
X110560000Y-32880000D02*
X110560000Y-34120000D01*
%TO.N,Ch16*%
X142025000Y-171175000D02*
X142291397Y-170908603D01*
X142291397Y-170908603D02*
X142291397Y-167405692D01*
X100011712Y-174368288D02*
X100219700Y-174576276D01*
X142291397Y-167405692D02*
X142160000Y-167274295D01*
X142160000Y-167274295D02*
X142160000Y-160570000D01*
X132801460Y-174426133D02*
X133817834Y-174426133D01*
X138800000Y-174660000D02*
X138800000Y-173644695D01*
X100219700Y-174576276D02*
X100219700Y-176924116D01*
X132017593Y-175210000D02*
X132801460Y-174426133D01*
X138800000Y-173644695D02*
X141269695Y-171175000D01*
X141269695Y-171175000D02*
X142025000Y-171175000D01*
X133817834Y-174426133D02*
X134051701Y-174660000D01*
X122448097Y-177590000D02*
X124580812Y-177590000D01*
X134051701Y-174660000D02*
X138800000Y-174660000D01*
X100219700Y-176924116D02*
X101842227Y-178546643D01*
X101842227Y-178546643D02*
X116758864Y-178546643D01*
X122313097Y-177455000D02*
X122448097Y-177590000D01*
X142160000Y-160570000D02*
X150180000Y-152550000D01*
X150180000Y-152550000D02*
X152490000Y-152550000D01*
X116758864Y-178546643D02*
X117850507Y-177455000D01*
X131063097Y-174965000D02*
X131308097Y-175210000D01*
X117850507Y-177455000D02*
X122313097Y-177455000D01*
X124580812Y-177590000D02*
X127205812Y-174965000D01*
X131308097Y-175210000D02*
X132017593Y-175210000D01*
X127205812Y-174965000D02*
X131063097Y-174965000D01*
%TO.N,Ch12*%
X118229695Y-178985000D02*
X121545000Y-178985000D01*
X117318052Y-179896643D02*
X118229695Y-178985000D01*
X96645474Y-174253401D02*
X98869700Y-176477627D01*
X101283039Y-179896643D02*
X117318052Y-179896643D01*
X98869700Y-177483304D02*
X101283039Y-179896643D01*
X121545000Y-178985000D02*
X121640000Y-179080000D01*
X98869700Y-176477627D02*
X98869700Y-177483304D01*
%TO.N,Ch7*%
X36536149Y-111200000D02*
X39970000Y-111200000D01*
X36530000Y-111206149D02*
X36536149Y-111200000D01*
X42370000Y-108837600D02*
X42370000Y-108800000D01*
X42370000Y-108800000D02*
X42370000Y-108800000D01*
X39970000Y-111200000D02*
X42331400Y-108838600D01*
X42331400Y-108838600D02*
X42369000Y-108838600D01*
X42369000Y-108838600D02*
X42370000Y-108837600D01*
%TO.N,Ch11*%
X98419700Y-177669700D02*
X101096643Y-180346643D01*
X98419700Y-177323604D02*
X98419700Y-177669700D01*
X101096643Y-180346643D02*
X108906643Y-180346643D01*
X95710000Y-174613904D02*
X98419700Y-177323604D01*
X95710000Y-173900000D02*
X95710000Y-174613904D01*
X108906643Y-180346643D02*
X109530000Y-180970000D01*
%TO.N,Ch2*%
X41640000Y-117430000D02*
X43260000Y-117430000D01*
X44570000Y-116120000D02*
X44570000Y-107930000D01*
X35930000Y-108890000D02*
X36000000Y-108890000D01*
X32870000Y-127090000D02*
X33580000Y-126380000D01*
X33580000Y-125490000D02*
X41640000Y-117430000D01*
X35690000Y-106424695D02*
X35690000Y-108650000D01*
X36000000Y-108890000D02*
X36010000Y-108900000D01*
X35690000Y-108650000D02*
X35930000Y-108890000D01*
X42635000Y-105995000D02*
X36119695Y-105995000D01*
X44570000Y-107930000D02*
X42635000Y-105995000D01*
X43260000Y-117430000D02*
X44570000Y-116120000D01*
X33580000Y-126380000D02*
X33580000Y-125490000D01*
X36119695Y-105995000D02*
X35690000Y-106424695D01*
%TO.N,Ch14*%
X131121701Y-175660000D02*
X132203989Y-175660000D01*
X98860000Y-174230000D02*
X98860000Y-174620000D01*
X99760000Y-175520000D02*
X99769700Y-175520000D01*
X132203989Y-175660000D02*
X132987856Y-174876133D01*
X132987856Y-174876133D02*
X133631438Y-174876133D01*
X133631438Y-174876133D02*
X133865305Y-175110000D01*
X116945260Y-178996643D02*
X118036903Y-177905000D01*
X130876701Y-175415000D02*
X131121701Y-175660000D01*
X98860000Y-174620000D02*
X99760000Y-175520000D01*
X101655831Y-178996643D02*
X116945260Y-178996643D01*
X124767208Y-178040000D02*
X127392208Y-175415000D01*
X139810000Y-175110000D02*
X144410000Y-170510000D01*
X133865305Y-175110000D02*
X139810000Y-175110000D01*
X122126701Y-177905000D02*
X122261701Y-178040000D01*
X99769700Y-177110512D02*
X101655831Y-178996643D01*
X127392208Y-175415000D02*
X130876701Y-175415000D01*
X99769700Y-175520000D02*
X99769700Y-177110512D01*
X122261701Y-178040000D02*
X124767208Y-178040000D01*
X118036903Y-177905000D02*
X122126701Y-177905000D01*
%TO.N,Ch10*%
X92908700Y-171818700D02*
X92430000Y-171340000D01*
X92430000Y-171340000D02*
X92430000Y-171330000D01*
X92908700Y-174700401D02*
X92908700Y-171818700D01*
X97300000Y-180990000D02*
X97969700Y-180320300D01*
X97969700Y-177510000D02*
X95718299Y-177510000D01*
X97969700Y-180320300D02*
X97969700Y-177510000D01*
X95718299Y-177510000D02*
X92908700Y-174700401D01*
X92430000Y-171330000D02*
X92420000Y-171330000D01*
X92420000Y-171330000D02*
X92450000Y-171360000D01*
%TO.N,Ch9*%
X85120000Y-179410000D02*
X85090000Y-179410000D01*
X92183700Y-172625000D02*
X90788700Y-174020000D01*
X85090000Y-179410000D02*
X85130000Y-179370000D01*
X90788700Y-174020000D02*
X90480000Y-174020000D01*
X90480000Y-174020000D02*
X85120000Y-179380000D01*
X85120000Y-179380000D02*
X85120000Y-179410000D01*
%TO.N,Ch13*%
X127578604Y-175865000D02*
X130690305Y-175865000D01*
X118223299Y-178355000D02*
X121940305Y-178355000D01*
X130935305Y-176110000D02*
X132720000Y-176110000D01*
X99319700Y-176070000D02*
X99319700Y-177296908D01*
X122075305Y-178490000D02*
X124953604Y-178490000D01*
X121940305Y-178355000D02*
X122075305Y-178490000D01*
X124953604Y-178490000D02*
X127578604Y-175865000D01*
X132720000Y-176110000D02*
X133310000Y-175520000D01*
X130690305Y-175865000D02*
X130935305Y-176110000D01*
X101469435Y-179446643D02*
X117131656Y-179446643D01*
X117131656Y-179446643D02*
X118223299Y-178355000D01*
X99319700Y-175779700D02*
X97800000Y-174260000D01*
X99319700Y-177296908D02*
X101469435Y-179446643D01*
X99319700Y-176070000D02*
X99319700Y-175779700D01*
%TO.N,MISO*%
X101440305Y-37875000D02*
X101635305Y-37680000D01*
X106870000Y-37680000D02*
X108740000Y-39550000D01*
X100644695Y-37680000D02*
X100839695Y-37875000D01*
X100839695Y-37875000D02*
X101440305Y-37875000D01*
X101635305Y-37680000D02*
X106870000Y-37680000D01*
X95798600Y-37680000D02*
X100644695Y-37680000D01*
X108740000Y-39600000D02*
X108740000Y-39600000D01*
X108740000Y-39550000D02*
X108740000Y-39600000D01*
X95740000Y-37738600D02*
X95798600Y-37680000D01*
X95740000Y-39592800D02*
X95740000Y-37738600D01*
%TO.N,SCK1*%
X98239404Y-165130000D02*
X102379404Y-169270000D01*
X102379404Y-169270000D02*
X102863604Y-169754200D01*
X109220000Y-169130000D02*
X109250000Y-169130000D01*
X96046396Y-165130000D02*
X98239404Y-165130000D01*
X95560000Y-165616396D02*
X96046396Y-165130000D01*
X95560000Y-167568500D02*
X95560000Y-165616396D01*
X96806500Y-168815000D02*
X95560000Y-167568500D01*
X109250000Y-169130000D02*
X109250000Y-169100000D01*
X109250000Y-169100000D02*
X109250000Y-169100000D01*
X102863604Y-169754200D02*
X108595800Y-169754200D01*
X108595800Y-169754200D02*
X109220000Y-169130000D01*
%TO.N,CS1*%
X15605000Y-92891396D02*
X15605000Y-87765000D01*
X35010000Y-112035000D02*
X40955000Y-112035000D01*
X40280000Y-80265000D02*
X39105000Y-81440000D01*
X18065000Y-102030305D02*
X15625000Y-99590305D01*
X15605000Y-87765000D02*
X17645000Y-85725000D01*
X35142800Y-112035000D02*
X35010000Y-112035000D01*
X17115000Y-111009695D02*
X18065000Y-110059695D01*
X18065000Y-110059695D02*
X18065000Y-102030305D01*
X17090000Y-78255305D02*
X17090000Y-77690000D01*
X26330000Y-71100000D02*
X26330000Y-75690000D01*
X35010000Y-112035000D02*
X17539695Y-112035000D01*
X42430000Y-113510000D02*
X42350000Y-113430000D01*
X17645000Y-85725000D02*
X17645000Y-78810305D01*
X40280000Y-75873299D02*
X40280000Y-80265000D01*
X27265000Y-74735000D02*
X39141701Y-74735000D01*
X17645000Y-78810305D02*
X17090000Y-78255305D01*
X42350000Y-113510000D02*
X42430000Y-113510000D01*
X25610000Y-70380000D02*
X26330000Y-71100000D01*
X40955000Y-112035000D02*
X42350000Y-113430000D01*
X42350000Y-113430000D02*
X42350000Y-113510000D01*
X17115000Y-111610305D02*
X17115000Y-111009695D01*
X18076802Y-95363198D02*
X15605000Y-92891396D01*
X17539695Y-112035000D02*
X17115000Y-111610305D01*
X15625000Y-97815000D02*
X18076802Y-95363198D01*
X15625000Y-99590305D02*
X15625000Y-97815000D01*
X39141701Y-74735000D02*
X40280000Y-75873299D01*
X26310000Y-75690000D02*
X27265000Y-74735000D01*
X26330000Y-75670000D02*
X26330000Y-75690000D01*
X24400000Y-70380000D02*
X25610000Y-70380000D01*
X17090000Y-77690000D02*
X24400000Y-70380000D01*
X26350000Y-75650000D02*
X26330000Y-75670000D01*
X26330000Y-75690000D02*
X26310000Y-75690000D01*
%TO.N,CS2*%
X32311827Y-78600000D02*
X35726827Y-75185000D01*
X26350000Y-78600000D02*
X26370000Y-78630000D01*
X35726827Y-75185000D02*
X37930000Y-75185000D01*
X26370000Y-78630000D02*
X32311827Y-78600000D01*
X37930000Y-75185000D02*
X39105000Y-76360000D01*
%TO.N,CS3*%
X26440000Y-81580000D02*
X26470000Y-81550000D01*
X26410000Y-81550000D02*
X26440000Y-81580000D01*
X26470000Y-81550000D02*
X31375000Y-81550000D01*
X26350000Y-81550000D02*
X26410000Y-81550000D01*
X31375000Y-81550000D02*
X36565000Y-76360000D01*
%TO.N,CS4*%
X26380000Y-84470000D02*
X26870000Y-83980000D01*
X26350000Y-84500000D02*
X26380000Y-84470000D01*
X26870000Y-83980000D02*
X36565000Y-83980000D01*
%TO.N,CS5*%
X26400000Y-87400000D02*
X26400000Y-87510000D01*
X26350000Y-87450000D02*
X26400000Y-87400000D01*
X26290000Y-87510000D02*
X28645000Y-85155000D01*
X28645000Y-85155000D02*
X37930000Y-85155000D01*
X37930000Y-85155000D02*
X39105000Y-83980000D01*
X26400000Y-87510000D02*
X26290000Y-87510000D01*
%TO.N,Ch48*%
X17840000Y-111310000D02*
X28970000Y-100180000D01*
X30040000Y-100180000D02*
X28970000Y-100180000D01*
X30330000Y-100470000D02*
X30040000Y-100180000D01*
%TO.N,Ch44*%
X24650000Y-71910000D02*
X24650000Y-71770000D01*
X19130000Y-78633604D02*
X19020000Y-78523604D01*
X38005000Y-96720000D02*
X37895000Y-96830000D01*
X24650000Y-71770000D02*
X25310000Y-71110000D01*
X19020000Y-78523604D02*
X19020000Y-77540000D01*
X23118616Y-93687782D02*
X19130000Y-89699166D01*
X19130000Y-89699166D02*
X19130000Y-78633604D01*
X26006396Y-96830000D02*
X23118616Y-93942220D01*
X23118616Y-93942220D02*
X23118616Y-93687782D01*
X19020000Y-77540000D02*
X24650000Y-71910000D01*
X37895000Y-96830000D02*
X26006396Y-96830000D01*
%TO.N,Ch47*%
X20560000Y-98910000D02*
X16730000Y-98910000D01*
X16730000Y-98910000D02*
X16350000Y-99290000D01*
X20730000Y-99080000D02*
X20560000Y-98910000D01*
%TO.N,Ch43*%
X40730000Y-96340000D02*
X36950000Y-100120000D01*
X39100000Y-71050000D02*
X39100000Y-67074695D01*
X40730000Y-72680000D02*
X39100000Y-71050000D01*
X36940000Y-100130000D02*
X36970000Y-100100000D01*
X40730000Y-72680000D02*
X40730000Y-96340000D01*
X36950000Y-100130000D02*
X36940000Y-100130000D01*
X34255305Y-62230000D02*
X32960000Y-62210000D01*
X36950000Y-100120000D02*
X36950000Y-100130000D01*
X39100000Y-67074695D02*
X34255305Y-62230000D01*
X32960000Y-62210000D02*
X32940000Y-62230000D01*
%TO.N,Ch46*%
X21890000Y-98540000D02*
X16330000Y-92980000D01*
X16330000Y-92980000D02*
X16330000Y-90110000D01*
X34370000Y-98540000D02*
X21890000Y-98540000D01*
%TO.N,Ch42*%
X42070000Y-68045305D02*
X39340000Y-65315305D01*
X39340000Y-65315305D02*
X39340000Y-60110000D01*
X42070000Y-98940000D02*
X42070000Y-68045305D01*
X39340000Y-60110000D02*
X38610000Y-59380000D01*
X35670000Y-102520000D02*
X38490000Y-102520000D01*
X38490000Y-102520000D02*
X42070000Y-98940000D01*
X38610000Y-59380000D02*
X38610000Y-54980000D01*
X35670000Y-100170000D02*
X35670000Y-99970000D01*
X35670000Y-100170000D02*
X35670000Y-102520000D01*
X35670000Y-99970000D02*
X35730000Y-99910000D01*
X42070000Y-99063604D02*
X42070000Y-98940000D01*
%TO.N,Ch41*%
X43860000Y-64366396D02*
X43860000Y-97910000D01*
X34440000Y-100230000D02*
X34440000Y-100190000D01*
X35260000Y-102970000D02*
X34440000Y-102150000D01*
X46230000Y-45210000D02*
X46230000Y-49990000D01*
X34440000Y-102150000D02*
X34440000Y-100230000D01*
X43860000Y-97910000D02*
X38800000Y-102970000D01*
X46230000Y-49990000D02*
X39790000Y-56430000D01*
X39790000Y-56430000D02*
X39790000Y-60296396D01*
X39790000Y-60296396D02*
X43860000Y-64366396D01*
X34440000Y-100190000D02*
X34400000Y-100190000D01*
X34400000Y-100190000D02*
X34440000Y-100230000D01*
X38800000Y-102970000D02*
X35260000Y-102970000D01*
%TO.N,Ch45*%
X22668616Y-94128616D02*
X22668616Y-93874178D01*
X35180000Y-97420000D02*
X25960000Y-97420000D01*
X35200000Y-97440000D02*
X35620000Y-97670000D01*
X22668616Y-93874178D02*
X18680000Y-89885562D01*
X18680000Y-78820000D02*
X17860000Y-78000000D01*
X18680000Y-89885562D02*
X18680000Y-78820000D01*
X25960000Y-97420000D02*
X22668616Y-94128616D01*
X35620000Y-97670000D02*
X35180000Y-97420000D01*
%TO.N,CS6*%
X26420000Y-90330000D02*
X27690000Y-89060000D01*
X39690000Y-87885000D02*
X37740000Y-87885000D01*
X26350000Y-90400000D02*
X26380000Y-90370000D01*
X37740000Y-87885000D02*
X36565000Y-89060000D01*
X26420000Y-90370000D02*
X26420000Y-90330000D01*
X40280000Y-88475000D02*
X39690000Y-87885000D01*
X40280000Y-89660000D02*
X40280000Y-88475000D01*
X27690000Y-89060000D02*
X36565000Y-89060000D01*
X40059000Y-89881000D02*
X40280000Y-89660000D01*
X26380000Y-90370000D02*
X26420000Y-90370000D01*
%TD*%
M02*
