%TF.GenerationSoftware,KiCad,Pcbnew,8.0.0-dirty*%
%TF.CreationDate,2024-03-12T22:30:07-04:00*%
%TF.ProjectId,RCJ_Open_LinePCB,52434a5f-4f70-4656-9e5f-4c696e655043,rev?*%
%TF.SameCoordinates,Original*%
%TF.FileFunction,Copper,L2,Inr*%
%TF.FilePolarity,Positive*%
%FSLAX46Y46*%
G04 Gerber Fmt 4.6, Leading zero omitted, Abs format (unit mm)*
G04 Created by KiCad (PCBNEW 8.0.0-dirty) date 2024-03-12 22:30:07*
%MOMM*%
%LPD*%
G01*
G04 APERTURE LIST*
G04 Aperture macros list*
%AMRoundRect*
0 Rectangle with rounded corners*
0 $1 Rounding radius*
0 $2 $3 $4 $5 $6 $7 $8 $9 X,Y pos of 4 corners*
0 Add a 4 corners polygon primitive as box body*
4,1,4,$2,$3,$4,$5,$6,$7,$8,$9,$2,$3,0*
0 Add four circle primitives for the rounded corners*
1,1,$1+$1,$2,$3*
1,1,$1+$1,$4,$5*
1,1,$1+$1,$6,$7*
1,1,$1+$1,$8,$9*
0 Add four rect primitives between the rounded corners*
20,1,$1+$1,$2,$3,$4,$5,0*
20,1,$1+$1,$4,$5,$6,$7,0*
20,1,$1+$1,$6,$7,$8,$9,0*
20,1,$1+$1,$8,$9,$2,$3,0*%
G04 Aperture macros list end*
%TA.AperFunction,ComponentPad*%
%ADD10RoundRect,0.250000X-0.600000X-0.600000X0.600000X-0.600000X0.600000X0.600000X-0.600000X0.600000X0*%
%TD*%
%TA.AperFunction,ComponentPad*%
%ADD11C,1.700000*%
%TD*%
%TA.AperFunction,ViaPad*%
%ADD12C,0.800000*%
%TD*%
%TA.AperFunction,Conductor*%
%ADD13C,0.250000*%
%TD*%
G04 APERTURE END LIST*
D10*
%TO.N,CS3*%
%TO.C,J1*%
X36565000Y-76360000D03*
D11*
%TO.N,CS2*%
X39105000Y-76360000D03*
%TO.N,MOSI*%
X36565000Y-78900000D03*
%TO.N,MISO*%
X39105000Y-78900000D03*
%TO.N,SCK1*%
X36565000Y-81440000D03*
%TO.N,CS1*%
X39105000Y-81440000D03*
%TO.N,CS4*%
X36565000Y-83980000D03*
%TO.N,CS5*%
X39105000Y-83980000D03*
%TO.N,5V*%
X36565000Y-86520000D03*
%TO.N,GND*%
X39105000Y-86520000D03*
%TO.N,CS6*%
X36565000Y-89060000D03*
%TO.N,3.3V*%
X39105000Y-89060000D03*
%TD*%
D12*
%TO.N,GND*%
X141530000Y-17550000D03*
X123000000Y-27930000D03*
X96660000Y-170090000D03*
X109332800Y-170234000D03*
X32160000Y-114340000D03*
X141570000Y-171900000D03*
X187340000Y-76560000D03*
X16370000Y-74420000D03*
X150610000Y-34340000D03*
X173380000Y-125870000D03*
X82320000Y-178730000D03*
X47874439Y-142743542D03*
X99550000Y-39592800D03*
X130390000Y-176590000D03*
X158230000Y-43970000D03*
X34470000Y-63470000D03*
X188920000Y-88620000D03*
X42480000Y-50170000D03*
X75840000Y-24470000D03*
X144960000Y-164480000D03*
X68050000Y-16660000D03*
X55320000Y-152540000D03*
X132820000Y-21540000D03*
X162260000Y-52630000D03*
X106230000Y-39620000D03*
X150530000Y-155000000D03*
X144730000Y-24680000D03*
X50100000Y-40470000D03*
X182320000Y-117130000D03*
X188920000Y-100860000D03*
X86590000Y-28900000D03*
X40140000Y-133200000D03*
X181260000Y-70540000D03*
X16920000Y-84180000D03*
X94330000Y-180910000D03*
X17340000Y-108300000D03*
X98850000Y-29230000D03*
X106471468Y-181071643D03*
X165830000Y-135560000D03*
X34840000Y-59790000D03*
X61380000Y-22520000D03*
X169890000Y-62320000D03*
X21730000Y-117920000D03*
X94360000Y-174490000D03*
X111240000Y-29250000D03*
X158220000Y-145350000D03*
X59780000Y-169620000D03*
X16160000Y-96150000D03*
X96820000Y-163720000D03*
X118530000Y-179710000D03*
X59540000Y-161060000D03*
X70660000Y-175030000D03*
X187230000Y-112770000D03*
X32670000Y-123420000D03*
X57550000Y-30660000D03*
X112540000Y-39730000D03*
%TO.N,Ch40*%
X53890000Y-35470000D03*
X99520000Y-35100000D03*
%TO.N,3.3V*%
X109332800Y-172290000D03*
X87970000Y-181930000D03*
X104960000Y-39620000D03*
X35020000Y-104660000D03*
X96806500Y-171355000D03*
X34690000Y-113370000D03*
X101140000Y-37150000D03*
%TO.N,Ch36*%
X94470000Y-34970000D03*
X83770000Y-28420000D03*
%TO.N,Ch39*%
X98390000Y-35190000D03*
X61020000Y-26090000D03*
%TO.N,Ch35*%
X92780000Y-29320000D03*
X93170000Y-34820000D03*
%TO.N,Ch38*%
X65080000Y-16770000D03*
X97010000Y-34970000D03*
%TO.N,Ch34*%
X105080000Y-29270000D03*
X97170000Y-33370000D03*
%TO.N,Ch33*%
X117310000Y-29160000D03*
X99440000Y-32730000D03*
%TO.N,Ch37*%
X73410000Y-22680000D03*
X95740000Y-34970000D03*
%TO.N,Ch32*%
X128470000Y-25230000D03*
X112580000Y-34997200D03*
%TO.N,Ch28*%
X113740000Y-34070000D03*
X154510000Y-39280000D03*
%TO.N,Ch31*%
X140280000Y-15460000D03*
X111390000Y-35010000D03*
%TO.N,Ch27*%
X161937240Y-48878055D03*
X106230000Y-34565000D03*
%TO.N,Ch30*%
X146420000Y-23040000D03*
X110040000Y-34997200D03*
%TO.N,Ch26*%
X105000000Y-35010000D03*
X169720000Y-58590000D03*
%TO.N,Ch25*%
X177207131Y-68383151D03*
X103690000Y-34997200D03*
%TO.N,Ch29*%
X113180000Y-32970000D03*
X146710000Y-29260000D03*
%TO.N,Ch16*%
X152490000Y-152550000D03*
X100011712Y-174368288D03*
%TO.N,Ch8*%
X43605000Y-108838600D03*
X73480000Y-176060000D03*
%TO.N,Ch4*%
X46167652Y-143723054D03*
X38490000Y-108838600D03*
%TO.N,Ch24*%
X104603747Y-164136253D03*
X186470000Y-73600000D03*
%TO.N,Ch12*%
X96645474Y-174253401D03*
X121640000Y-179080000D03*
%TO.N,Ch20*%
X104710000Y-169029200D03*
X184670000Y-120750000D03*
%TO.N,Ch7*%
X42369000Y-108838600D03*
X62290000Y-171200000D03*
X36530000Y-111206149D03*
%TO.N,Ch3*%
X37240000Y-124680000D03*
X38560000Y-134320000D03*
X39850000Y-120290000D03*
X37385000Y-108838600D03*
%TO.N,Ch15*%
X144800000Y-162030000D03*
X92183700Y-165151000D03*
%TO.N,Ch23*%
X188280000Y-82460000D03*
X104710000Y-165300000D03*
%TO.N,Ch11*%
X109530000Y-180970000D03*
X95710000Y-173900000D03*
%TO.N,Ch19*%
X175320000Y-123280000D03*
X111600000Y-170430000D03*
%TO.N,Ch6*%
X60860000Y-162990000D03*
X37140000Y-117060000D03*
%TO.N,Ch2*%
X32870000Y-127090000D03*
X35930000Y-108890000D03*
%TO.N,Ch14*%
X98860000Y-174230000D03*
X144410000Y-170510000D03*
%TO.N,Ch10*%
X92430000Y-171330000D03*
X97300000Y-180990000D03*
%TO.N,Ch22*%
X189240000Y-97700000D03*
X104710000Y-166424000D03*
%TO.N,Ch18*%
X167500000Y-133060000D03*
X112340000Y-173930000D03*
%TO.N,Ch1*%
X23100000Y-119420000D03*
X23170000Y-114640000D03*
%TO.N,Ch5*%
X54021790Y-153530500D03*
X39940000Y-108824271D03*
%TO.N,Ch9*%
X92183700Y-172625000D03*
X85120000Y-179410000D03*
%TO.N,Ch13*%
X97800000Y-174260000D03*
X133288161Y-175601133D03*
%TO.N,Ch17*%
X160090000Y-143000000D03*
X109500000Y-175740000D03*
%TO.N,Ch21*%
X104860000Y-167890000D03*
X188330000Y-106990000D03*
%TO.N,MOSI*%
X97190000Y-39592800D03*
X37900000Y-106720000D03*
X102170000Y-167149000D03*
X40740000Y-104850000D03*
%TO.N,MISO*%
X108740000Y-39550000D03*
X96806500Y-167545000D03*
X95740000Y-39592800D03*
X39835000Y-113461400D03*
X109332800Y-167593949D03*
X39480000Y-104792800D03*
X42710000Y-116140000D03*
%TO.N,SCK1*%
X107500000Y-39620000D03*
X109250000Y-169130000D03*
X94338747Y-39724053D03*
X96806500Y-168815000D03*
X38210000Y-104792800D03*
%TO.N,CS1*%
X42350000Y-113510000D03*
X26330000Y-75690000D03*
%TO.N,CS2*%
X90758767Y-164625518D03*
X26370000Y-78630000D03*
%TO.N,CS3*%
X96170000Y-178410000D03*
X26440000Y-81580000D03*
%TO.N,CS4*%
X111310000Y-39620000D03*
X26380000Y-84470000D03*
%TO.N,CS5*%
X98280000Y-39592800D03*
X26400000Y-87510000D03*
%TO.N,Ch48*%
X30330000Y-100470000D03*
X17840000Y-111310000D03*
%TO.N,Ch44*%
X25310000Y-71110000D03*
X38005000Y-96720000D03*
%TO.N,Ch47*%
X16350000Y-99290000D03*
X20730000Y-99080000D03*
%TO.N,Ch43*%
X32960000Y-62210000D03*
X36950000Y-100130000D03*
%TO.N,Ch46*%
X34370000Y-98540000D03*
X16330000Y-90110000D03*
%TO.N,Ch42*%
X38610000Y-54980000D03*
X35670000Y-100170000D03*
%TO.N,Ch41*%
X34440000Y-100190000D03*
X46230000Y-45210000D03*
%TO.N,Ch45*%
X17860000Y-78000000D03*
X35620000Y-97670000D03*
%TO.N,CS6*%
X26420000Y-90370000D03*
%TD*%
D13*
%TO.N,3.3V*%
X34690000Y-113370000D02*
X34630000Y-113370000D01*
X35020000Y-104660000D02*
X35020000Y-112980000D01*
X96806500Y-171355000D02*
X96781500Y-171380000D01*
X97211500Y-171760000D02*
X96806500Y-171355000D01*
X34630000Y-113370000D02*
X34650000Y-113350000D01*
X35020000Y-112980000D02*
X34690000Y-113310000D01*
X109332800Y-172290000D02*
X108802800Y-171760000D01*
X108802800Y-171760000D02*
X97211500Y-171760000D01*
X34690000Y-113310000D02*
X34690000Y-113370000D01*
%TO.N,Ch36*%
X91001701Y-30960000D02*
X86310000Y-30960000D01*
X94470000Y-34970000D02*
X94470000Y-34428299D01*
X94470000Y-34428299D02*
X91001701Y-30960000D01*
X86310000Y-30960000D02*
X83770000Y-28420000D01*
%TO.N,Ch38*%
X80240000Y-30350000D02*
X84110000Y-30350000D01*
X65010000Y-16770000D02*
X65010000Y-16980000D01*
X76580000Y-28560000D02*
X78450000Y-28560000D01*
X78450000Y-28560000D02*
X80240000Y-30350000D01*
X89760000Y-33095306D02*
X89760000Y-37090000D01*
X76580000Y-28550000D02*
X76580000Y-28560000D01*
X65010000Y-16980000D02*
X76580000Y-28550000D01*
X89760000Y-37090000D02*
X94890000Y-37090000D01*
X94890000Y-37090000D02*
X97010000Y-34970000D01*
X85620000Y-31860000D02*
X88524695Y-31860000D01*
X88524695Y-31860000D02*
X89760000Y-33095306D01*
X84110000Y-30350000D02*
X85620000Y-31860000D01*
%TO.N,Ch37*%
X73410000Y-23260000D02*
X73410000Y-22800000D01*
X93019695Y-35695000D02*
X88734695Y-31410000D01*
X78636396Y-28110000D02*
X78260000Y-28110000D01*
X95015000Y-35695000D02*
X93019695Y-35695000D01*
X84296396Y-29900000D02*
X80426396Y-29900000D01*
X88734695Y-31410000D02*
X85806396Y-31410000D01*
X80426396Y-29900000D02*
X78636396Y-28110000D01*
X95740000Y-34970000D02*
X95015000Y-35695000D01*
X78260000Y-28110000D02*
X73410000Y-23260000D01*
X85806396Y-31410000D02*
X84296396Y-29900000D01*
X73410000Y-22680000D02*
X73530000Y-22680000D01*
X73410000Y-22800000D02*
X73460000Y-22800000D01*
X73410000Y-22800000D02*
X73410000Y-22680000D01*
X73530000Y-22680000D02*
X73410000Y-22800000D01*
%TO.N,Ch28*%
X113740000Y-34070000D02*
X115160000Y-32650000D01*
X146300000Y-28276396D02*
X146300000Y-28644695D01*
X145985000Y-28959695D02*
X145985000Y-30745000D01*
X145985000Y-30745000D02*
X154470000Y-39230000D01*
X126405000Y-29105000D02*
X127090000Y-28420000D01*
X154510000Y-39280000D02*
X154470000Y-39250000D01*
X154470000Y-39230000D02*
X154510000Y-39280000D01*
X135110000Y-21593198D02*
X139616802Y-21593198D01*
X115160000Y-32650000D02*
X116220000Y-32650000D01*
X119790000Y-29080000D02*
X119815000Y-29105000D01*
X128283198Y-28420000D02*
X135110000Y-21593198D01*
X119815000Y-29105000D02*
X126405000Y-29105000D01*
X146300000Y-28644695D02*
X145985000Y-28959695D01*
X116220000Y-32650000D02*
X119790000Y-29080000D01*
X139616802Y-21593198D02*
X146300000Y-28276396D01*
X127090000Y-28420000D02*
X128283198Y-28420000D01*
%TO.N,Ch27*%
X106230000Y-34565000D02*
X106230000Y-35830000D01*
X127450000Y-28870000D02*
X128469594Y-28870000D01*
X128469594Y-28870000D02*
X135296396Y-22043198D01*
X145535000Y-30931396D02*
X153785000Y-39181396D01*
X135296396Y-22043198D02*
X138883198Y-22043198D01*
X120000000Y-29630000D02*
X126690000Y-29630000D01*
X153785000Y-39181396D02*
X153785000Y-40765000D01*
X106230000Y-34565000D02*
X106230000Y-34660000D01*
X116406396Y-33100000D02*
X119938198Y-29568198D01*
X138883198Y-22043198D02*
X139781802Y-22941802D01*
X106230000Y-34660000D02*
X106210000Y-34680000D01*
X107130000Y-36730000D02*
X114500000Y-36730000D01*
X116406396Y-34823604D02*
X116406396Y-33100000D01*
X126690000Y-29630000D02*
X127450000Y-28870000D01*
X106230000Y-35830000D02*
X107130000Y-36730000D01*
X114500000Y-36730000D02*
X116406396Y-34823604D01*
X119938198Y-29568198D02*
X120000000Y-29630000D01*
X145535000Y-28147792D02*
X145535000Y-30931396D01*
X140329010Y-22941802D02*
X145535000Y-28147792D01*
X139781802Y-22941802D02*
X140329010Y-22941802D01*
X153785000Y-40765000D02*
X161900000Y-48880000D01*
%TO.N,Ch30*%
X113287200Y-31750000D02*
X115745305Y-31750000D01*
X122699695Y-27205000D02*
X123300305Y-27205000D01*
X115745305Y-31750000D02*
X119975305Y-27520000D01*
X143140000Y-19760000D02*
X146270000Y-22890000D01*
X127870000Y-27520000D02*
X135520000Y-19870000D01*
X123300305Y-27205000D02*
X123615305Y-27520000D01*
X135520000Y-19870000D02*
X135520000Y-19760000D01*
X119975305Y-27520000D02*
X122384695Y-27520000D01*
X146270000Y-22890000D02*
X146480000Y-22890000D01*
X122384695Y-27520000D02*
X122699695Y-27205000D01*
X110040000Y-34997200D02*
X113287200Y-31750000D01*
X123615305Y-27520000D02*
X127870000Y-27520000D01*
X135520000Y-19760000D02*
X143140000Y-19760000D01*
%TO.N,Ch29*%
X139803198Y-21143198D02*
X146750000Y-28090000D01*
X146710000Y-29260000D02*
X146750000Y-29300000D01*
X123325305Y-28630000D02*
X125660000Y-28630000D01*
X113180000Y-32970000D02*
X113950000Y-32200000D01*
X126320000Y-27970000D02*
X128056396Y-27970000D01*
X134883198Y-21143198D02*
X139803198Y-21143198D01*
X113950000Y-32200000D02*
X115931701Y-32200000D01*
X125660000Y-28630000D02*
X126320000Y-27970000D01*
X119501701Y-28630000D02*
X122674695Y-28630000D01*
X128056396Y-27970000D02*
X134883198Y-21143198D01*
X122674695Y-28630000D02*
X122699695Y-28655000D01*
X115931701Y-32200000D02*
X119501701Y-28630000D01*
X122699695Y-28655000D02*
X123300305Y-28655000D01*
X123300305Y-28655000D02*
X123325305Y-28630000D01*
X146750000Y-28090000D02*
X146750000Y-29220000D01*
X146750000Y-29220000D02*
X146710000Y-29260000D01*
X146750000Y-29300000D02*
X146750000Y-29350000D01*
%TO.N,Ch24*%
X142830000Y-169618299D02*
X142830000Y-160173604D01*
X142830000Y-160173604D02*
X148905000Y-154098604D01*
X140691075Y-174426133D02*
X143235000Y-171882208D01*
X187605000Y-107290305D02*
X187605000Y-105961396D01*
X188310000Y-96968299D02*
X188310000Y-89035305D01*
X188195000Y-88920305D02*
X188195000Y-83525000D01*
X187445000Y-115955000D02*
X188605000Y-114795000D01*
X164020000Y-137888299D02*
X164020000Y-132918299D01*
X187745000Y-105821396D02*
X187745000Y-97533299D01*
X143235000Y-171882208D02*
X143235000Y-170023299D01*
X164020000Y-132918299D02*
X180983299Y-115955000D01*
X148905000Y-153003299D02*
X164020000Y-137888299D01*
X186940000Y-82270000D02*
X186940000Y-77185305D01*
X143235000Y-170023299D02*
X142830000Y-169618299D01*
X186470000Y-73600000D02*
X186500000Y-73630000D01*
X186615000Y-76860305D02*
X186615000Y-76259695D01*
X186615000Y-76259695D02*
X186940000Y-75934695D01*
X120234350Y-164136253D02*
X130524230Y-174426133D01*
X148905000Y-154098604D02*
X148905000Y-153003299D01*
X188605000Y-107715000D02*
X188029695Y-107715000D01*
X188195000Y-83525000D02*
X186940000Y-82270000D01*
X104603747Y-164136253D02*
X120234350Y-164136253D01*
X188310000Y-89035305D02*
X188195000Y-88920305D01*
X188605000Y-114795000D02*
X188605000Y-107715000D01*
X186940000Y-77185305D02*
X186615000Y-76860305D01*
X186940000Y-75934695D02*
X186940000Y-74070000D01*
X188029695Y-107715000D02*
X187605000Y-107290305D01*
X130524230Y-174426133D02*
X140691075Y-174426133D01*
X187605000Y-105961396D02*
X187745000Y-105821396D01*
X186940000Y-74070000D02*
X186470000Y-73600000D01*
X187745000Y-97533299D02*
X188310000Y-96968299D01*
X180983299Y-115955000D02*
X187445000Y-115955000D01*
%TO.N,Ch7*%
X58815000Y-160955000D02*
X58815000Y-161360305D01*
X40865000Y-138831396D02*
X43685000Y-141651396D01*
X59880000Y-164340000D02*
X59880000Y-166110000D01*
X36981802Y-134161802D02*
X40865000Y-138045000D01*
X36410000Y-132660000D02*
X36410000Y-132806396D01*
X58290000Y-167700000D02*
X58290000Y-171290000D01*
X58410000Y-159830000D02*
X58410000Y-160550000D01*
X35970000Y-114870000D02*
X35970000Y-132220000D01*
X43685000Y-142265000D02*
X52700000Y-151280000D01*
X61960000Y-171910000D02*
X61960000Y-171530000D01*
X58290000Y-171290000D02*
X58910000Y-171910000D01*
X60020000Y-164200000D02*
X59880000Y-164340000D01*
X36981802Y-133378198D02*
X36981802Y-134161802D01*
X36640000Y-111316149D02*
X36640000Y-114200000D01*
X40865000Y-138045000D02*
X40865000Y-138831396D01*
X36640000Y-114200000D02*
X35970000Y-114870000D01*
X58815000Y-161360305D02*
X59272348Y-161817652D01*
X59880000Y-166110000D02*
X58290000Y-167700000D01*
X61960000Y-171530000D02*
X62290000Y-171200000D01*
X59272348Y-162608140D02*
X60020000Y-163355791D01*
X59272348Y-161817652D02*
X59272348Y-162608140D01*
X52700000Y-154120000D02*
X58410000Y-159830000D01*
X36530000Y-111206149D02*
X36640000Y-111316149D01*
X43685000Y-141651396D02*
X43685000Y-142265000D01*
X52700000Y-151280000D02*
X52700000Y-154120000D01*
X58910000Y-171910000D02*
X61960000Y-171910000D01*
X36410000Y-132806396D02*
X36981802Y-133378198D01*
X58410000Y-160550000D02*
X58815000Y-160955000D01*
X35970000Y-132220000D02*
X36410000Y-132660000D01*
X60020000Y-163355791D02*
X60020000Y-164200000D01*
%TO.N,Ch3*%
X37240000Y-124680000D02*
X37240000Y-133000000D01*
X38055000Y-113840305D02*
X39850000Y-115635305D01*
X37385000Y-108838600D02*
X38055000Y-109508600D01*
X37240000Y-133000000D02*
X38500000Y-134260000D01*
X38500000Y-134260000D02*
X38500000Y-134360000D01*
X39850000Y-115635305D02*
X39850000Y-120290000D01*
X38055000Y-109508600D02*
X38055000Y-113840305D01*
%TO.N,Ch23*%
X143685000Y-172068604D02*
X143685000Y-160035000D01*
X164639344Y-137905351D02*
X164639344Y-134258955D01*
X158819695Y-143725000D02*
X160390305Y-143725000D01*
X181169695Y-116405000D02*
X182620305Y-116405000D01*
X188939695Y-96975000D02*
X189540305Y-96975000D01*
X189640000Y-96274695D02*
X190700000Y-95214695D01*
X168148604Y-131885000D02*
X172655000Y-127378604D01*
X139562429Y-176191175D02*
X143685000Y-172068604D01*
X190700000Y-95214695D02*
X190700000Y-84920000D01*
X172655000Y-127378604D02*
X172655000Y-124919695D01*
X187503604Y-116790000D02*
X189055000Y-115238604D01*
X172655000Y-124919695D02*
X181169695Y-116405000D01*
X188280000Y-82500000D02*
X188280000Y-82460000D01*
X119670000Y-175490000D02*
X132100000Y-175490000D01*
X183005305Y-116790000D02*
X187503604Y-116790000D01*
X138487295Y-176672651D02*
X139562429Y-176191175D01*
X190700000Y-84920000D02*
X188280000Y-82500000D01*
X133282651Y-176672651D02*
X138487295Y-176672651D01*
X188195000Y-97719695D02*
X188939695Y-96975000D01*
X164639344Y-134258955D02*
X167013299Y-131885000D01*
X143685000Y-160035000D02*
X149355000Y-154365000D01*
X182620305Y-116405000D02*
X183005305Y-116790000D01*
X104710000Y-165300000D02*
X109480000Y-165300000D01*
X160815000Y-141729695D02*
X164639344Y-137905351D01*
X189540305Y-96975000D02*
X189640000Y-96875305D01*
X149355000Y-153189695D02*
X158819695Y-143725000D01*
X188280000Y-82460000D02*
X188320000Y-82460000D01*
X189640000Y-96875305D02*
X189640000Y-96274695D01*
X189055000Y-106495000D02*
X188195000Y-105635000D01*
X149355000Y-154365000D02*
X149355000Y-153189695D01*
X109480000Y-165300000D02*
X119670000Y-175490000D01*
X188320000Y-82460000D02*
X188280000Y-82500000D01*
X188195000Y-105635000D02*
X188195000Y-97719695D01*
X160815000Y-143300305D02*
X160815000Y-141729695D01*
X189055000Y-115238604D02*
X189055000Y-106495000D01*
X132100000Y-175490000D02*
X133282651Y-176672651D01*
X160390305Y-143725000D02*
X160815000Y-143300305D01*
X167013299Y-131885000D02*
X168148604Y-131885000D01*
%TO.N,Ch6*%
X46467957Y-142998054D02*
X46892652Y-143422749D01*
X37690000Y-125255305D02*
X37690000Y-132424695D01*
X41315000Y-136049695D02*
X41315000Y-138645000D01*
X37965000Y-124980305D02*
X37690000Y-125255305D01*
X53780000Y-152805000D02*
X53719695Y-152805000D01*
X45668054Y-142998054D02*
X46467957Y-142998054D01*
X53295000Y-153229695D02*
X53295000Y-154078604D01*
X60860000Y-161354695D02*
X60860000Y-162990000D01*
X41315000Y-138645000D02*
X45668054Y-142998054D01*
X59840305Y-160335000D02*
X60860000Y-161354695D01*
X59551396Y-160335000D02*
X59840305Y-160335000D01*
X37690000Y-132424695D02*
X41315000Y-136049695D01*
X53295000Y-154078604D02*
X59551396Y-160335000D01*
X37965000Y-124379695D02*
X37965000Y-124980305D01*
X53719695Y-152805000D02*
X53295000Y-153229695D01*
X37680000Y-124094695D02*
X37965000Y-124379695D01*
X46892652Y-144836256D02*
X53780000Y-151723604D01*
X37680000Y-117600000D02*
X37680000Y-124094695D01*
X53780000Y-151723604D02*
X53780000Y-152805000D01*
X37140000Y-117060000D02*
X37680000Y-117600000D01*
X46892652Y-143422749D02*
X46892652Y-144836256D01*
%TO.N,Ch22*%
X161265000Y-142125000D02*
X166775000Y-136615000D01*
X111195000Y-168405000D02*
X120430000Y-177640000D01*
X179960000Y-119730000D02*
X185200000Y-119730000D01*
X158623498Y-146128203D02*
X161265000Y-143486701D01*
X106892754Y-166424000D02*
X108873754Y-168405000D01*
X174105000Y-125585000D02*
X179960000Y-119730000D01*
X149805000Y-158075000D02*
X149805000Y-154209695D01*
X185200000Y-119730000D02*
X189645000Y-115285000D01*
X157886492Y-146128203D02*
X158623498Y-146128203D01*
X167199695Y-132335000D02*
X168335000Y-132335000D01*
X104710000Y-166424000D02*
X106892754Y-166424000D01*
X120430000Y-177640000D02*
X137354848Y-177640000D01*
X189645000Y-115285000D02*
X189645000Y-97995000D01*
X161265000Y-143486701D02*
X161265000Y-142125000D01*
X108873754Y-168405000D02*
X111195000Y-168405000D01*
X166775000Y-132759695D02*
X167199695Y-132335000D01*
X166775000Y-136615000D02*
X166775000Y-132759695D01*
X174105000Y-126565000D02*
X174105000Y-125585000D01*
X138666905Y-177085280D02*
X139822008Y-176567992D01*
X137354848Y-177640000D02*
X138666905Y-177085280D01*
X189645000Y-97995000D02*
X189380000Y-97730000D01*
X146020000Y-170370000D02*
X146020000Y-161860000D01*
X139822008Y-176567992D02*
X146020000Y-170370000D01*
X168335000Y-132335000D02*
X174105000Y-126565000D01*
X149805000Y-154209695D02*
X157886492Y-146128203D01*
X146020000Y-161860000D02*
X149805000Y-158075000D01*
%TO.N,MOSI*%
X33460000Y-100745305D02*
X33715000Y-100490305D01*
X102170000Y-167149000D02*
X101501000Y-166480000D01*
X36330000Y-106720000D02*
X35745000Y-106135000D01*
X62920000Y-161850000D02*
X62920000Y-161413604D01*
X47920000Y-140611902D02*
X41765000Y-134456902D01*
X33460000Y-102074695D02*
X33460000Y-100745305D01*
X49465000Y-143485561D02*
X49049439Y-143070000D01*
X49465000Y-145499416D02*
X49465000Y-143485561D01*
X41765000Y-133080000D02*
X39499048Y-130814048D01*
X54583604Y-150132208D02*
X54097792Y-150132208D01*
X35745000Y-104359695D02*
X33460000Y-102074695D01*
X71335305Y-174680000D02*
X69985305Y-173330000D01*
X35771827Y-75140000D02*
X35390000Y-75521827D01*
X58528198Y-155850000D02*
X58528198Y-154538198D01*
X41765000Y-134456902D02*
X41765000Y-133080000D01*
X69985305Y-173330000D02*
X66718097Y-173330000D01*
X44380000Y-79973299D02*
X39546701Y-75140000D01*
X33715000Y-100490305D02*
X33715000Y-99950305D01*
X82234695Y-166280000D02*
X73834695Y-174680000D01*
X35390000Y-75521827D02*
X35390000Y-77725000D01*
X56495000Y-152043604D02*
X54583604Y-150132208D01*
X48292598Y-141500000D02*
X47920000Y-141500000D01*
X56495000Y-153564999D02*
X56495000Y-152043604D01*
X58528198Y-157021802D02*
X58528198Y-155850000D01*
X35745000Y-106135000D02*
X35745000Y-104359695D01*
X33160000Y-99395305D02*
X33160000Y-82305000D01*
X56424048Y-153635951D02*
X56495000Y-153564999D01*
X37900000Y-106720000D02*
X36330000Y-106720000D01*
X39499048Y-130814048D02*
X39499048Y-122939049D01*
X49049439Y-143070000D02*
X49049439Y-142256841D01*
X33715000Y-99950305D02*
X33160000Y-99395305D01*
X33160000Y-82305000D02*
X36565000Y-78900000D01*
X47920000Y-141500000D02*
X47920000Y-140611902D01*
X101501000Y-166480000D02*
X101080000Y-166480000D01*
X58528198Y-155850000D02*
X58528198Y-155740101D01*
X44380000Y-118058097D02*
X44380000Y-79973299D01*
X49049439Y-142256841D02*
X48292598Y-141500000D01*
X58528198Y-154538198D02*
X57110000Y-153120000D01*
X58528198Y-155740101D02*
X56424048Y-153635951D01*
X73834695Y-174680000D02*
X71335305Y-174680000D01*
X39499048Y-122939049D02*
X44380000Y-118058097D01*
X35390000Y-77725000D02*
X36565000Y-78900000D01*
X39546701Y-75140000D02*
X35771827Y-75140000D01*
X62920000Y-161413604D02*
X58528198Y-157021802D01*
X62920000Y-161850000D02*
X62920000Y-161720000D01*
X62920000Y-169531903D02*
X62920000Y-161850000D01*
X54097792Y-150132208D02*
X49465000Y-145499416D01*
X100880000Y-166280000D02*
X82234695Y-166280000D01*
X66718097Y-173330000D02*
X62920000Y-169531903D01*
X101080000Y-166480000D02*
X100880000Y-166280000D01*
%TO.N,MISO*%
X83070000Y-180390000D02*
X79780000Y-180390000D01*
X66745000Y-175940000D02*
X63465000Y-172660000D01*
X79780000Y-180390000D02*
X77100000Y-177710000D01*
X49015000Y-145685812D02*
X49015000Y-143745000D01*
X39508198Y-131721802D02*
X38590000Y-130803604D01*
X58030000Y-157160000D02*
X58030000Y-155878299D01*
X48599439Y-142443237D02*
X48174744Y-142018542D01*
X73770000Y-177710000D02*
X72000000Y-175940000D01*
X96806500Y-167545000D02*
X92499695Y-167545000D01*
X42710000Y-116140000D02*
X42590000Y-116140000D01*
X72000000Y-175940000D02*
X66745000Y-175940000D01*
X56045000Y-153374999D02*
X56045000Y-152230000D01*
X63465000Y-170713299D02*
X62470000Y-169718299D01*
X38580000Y-123221701D02*
X42710000Y-119091701D01*
X39835000Y-113461400D02*
X39215000Y-112841400D01*
X39480000Y-104792800D02*
X40280000Y-103992800D01*
X58030000Y-155878299D02*
X55785850Y-153634149D01*
X46902653Y-141282653D02*
X46902653Y-140230951D01*
X55180000Y-151365000D02*
X54694188Y-151365000D01*
X56045000Y-152230000D02*
X55180000Y-151365000D01*
X39810000Y-107894695D02*
X39810000Y-105122800D01*
X54694188Y-151365000D02*
X49015000Y-145685812D01*
X40280000Y-80075000D02*
X39105000Y-78900000D01*
X39687107Y-131721802D02*
X39508198Y-131721802D01*
X40280000Y-103992800D02*
X40280000Y-80075000D01*
X39215000Y-108489695D02*
X39810000Y-107894695D01*
X42710000Y-116260000D02*
X42710000Y-116260000D01*
X38590000Y-130803604D02*
X38590000Y-125628097D01*
X42710000Y-119091701D02*
X42710000Y-116140000D01*
X92499695Y-167545000D02*
X83350000Y-176694695D01*
X47638542Y-142018542D02*
X46902653Y-141282653D01*
X49015000Y-143745000D02*
X48599439Y-143329439D01*
X41315000Y-134643299D02*
X41315000Y-133349695D01*
X38865000Y-124006903D02*
X38580000Y-123721903D01*
X39810000Y-105122800D02*
X39480000Y-104792800D01*
X55785850Y-153634149D02*
X56045000Y-153374999D01*
X41315000Y-133349695D02*
X39687107Y-131721802D01*
X62470000Y-161600000D02*
X58030000Y-157160000D01*
X48599439Y-143329439D02*
X48599439Y-142443237D01*
X48174744Y-142018542D02*
X47638542Y-142018542D01*
X39215000Y-112841400D02*
X39215000Y-108489695D01*
X38590000Y-125628097D02*
X38865000Y-125353097D01*
X62470000Y-169718299D02*
X62470000Y-161600000D01*
X42590000Y-116140000D02*
X42610000Y-116160000D01*
X83350000Y-176694695D02*
X83350000Y-180110000D01*
X77100000Y-177710000D02*
X73770000Y-177710000D01*
X38580000Y-123721903D02*
X38580000Y-123221701D01*
X46902653Y-140230951D02*
X41315000Y-134643299D01*
X63465000Y-172660000D02*
X63465000Y-170713299D01*
X83350000Y-180110000D02*
X83070000Y-180390000D01*
X38865000Y-125353097D02*
X38865000Y-124006903D01*
%TO.N,SCK1*%
X62020000Y-169904695D02*
X62020000Y-161878299D01*
X79480000Y-180840000D02*
X77510000Y-178870000D01*
X37930000Y-82805000D02*
X36565000Y-81440000D01*
X37930000Y-89546701D02*
X37930000Y-82805000D01*
X38130000Y-123908299D02*
X38130000Y-123035305D01*
X38210000Y-104792800D02*
X38210000Y-103480000D01*
X83840000Y-180840000D02*
X79480000Y-180840000D01*
X77510000Y-178870000D02*
X73330000Y-178870000D01*
X96760000Y-36130000D02*
X105200000Y-36130000D01*
X96806500Y-168815000D02*
X91866091Y-168815000D01*
X40665000Y-120500305D02*
X40665000Y-108523966D01*
X38415000Y-124193299D02*
X38130000Y-123908299D01*
X91866091Y-168815000D02*
X83840000Y-176841091D01*
X41465000Y-107723966D02*
X41465000Y-79598299D01*
X63015000Y-172950305D02*
X63015000Y-170899695D01*
X73330000Y-178870000D02*
X70850000Y-176390000D01*
X57580000Y-157438299D02*
X57580000Y-156064695D01*
X38730000Y-102960000D02*
X38730000Y-90346701D01*
X105200000Y-36130000D02*
X107500000Y-38430000D01*
X40665000Y-108523966D02*
X41465000Y-107723966D01*
X47342652Y-144649860D02*
X47342652Y-143236353D01*
X46452653Y-142346354D02*
X46452653Y-140537958D01*
X39586701Y-77720000D02*
X38620000Y-77720000D01*
X94338747Y-38551253D02*
X96760000Y-36130000D01*
X38140000Y-125441701D02*
X38415000Y-125166701D01*
X62020000Y-161878299D02*
X57580000Y-157438299D01*
X107500000Y-38430000D02*
X107500000Y-39620000D01*
X54595000Y-153079695D02*
X54595000Y-151902208D01*
X37740000Y-80265000D02*
X36565000Y-81440000D01*
X38730000Y-90346701D02*
X37930000Y-89546701D01*
X94338747Y-39724053D02*
X94338747Y-38551253D01*
X38210000Y-104792800D02*
X38242800Y-104760000D01*
X38140000Y-132225305D02*
X38140000Y-125441701D01*
X38415000Y-125166701D02*
X38415000Y-124193299D01*
X83840000Y-176841091D02*
X83840000Y-180840000D01*
X37740000Y-78600000D02*
X37740000Y-80265000D01*
X38130000Y-123035305D02*
X40665000Y-120500305D01*
X63015000Y-170899695D02*
X62020000Y-169904695D01*
X54595000Y-151902208D02*
X47342652Y-144649860D01*
X70850000Y-176390000D02*
X66454695Y-176390000D01*
X66454695Y-176390000D02*
X63015000Y-172950305D01*
X38620000Y-77720000D02*
X37740000Y-78600000D01*
X38210000Y-103480000D02*
X38730000Y-102960000D01*
X47342652Y-143236353D02*
X46452653Y-142346354D01*
X57580000Y-156064695D02*
X54595000Y-153079695D01*
X46452653Y-140537958D02*
X38140000Y-132225305D01*
X41465000Y-79598299D02*
X39586701Y-77720000D01*
%TD*%
M02*
