%TF.GenerationSoftware,KiCad,Pcbnew,8.0.0-dirty*%
%TF.CreationDate,2024-03-12T22:30:07-04:00*%
%TF.ProjectId,RCJ_Open_LinePCB,52434a5f-4f70-4656-9e5f-4c696e655043,rev?*%
%TF.SameCoordinates,Original*%
%TF.FileFunction,Copper,L3,Inr*%
%TF.FilePolarity,Positive*%
%FSLAX46Y46*%
G04 Gerber Fmt 4.6, Leading zero omitted, Abs format (unit mm)*
G04 Created by KiCad (PCBNEW 8.0.0-dirty) date 2024-03-12 22:30:07*
%MOMM*%
%LPD*%
G01*
G04 APERTURE LIST*
G04 Aperture macros list*
%AMRoundRect*
0 Rectangle with rounded corners*
0 $1 Rounding radius*
0 $2 $3 $4 $5 $6 $7 $8 $9 X,Y pos of 4 corners*
0 Add a 4 corners polygon primitive as box body*
4,1,4,$2,$3,$4,$5,$6,$7,$8,$9,$2,$3,0*
0 Add four circle primitives for the rounded corners*
1,1,$1+$1,$2,$3*
1,1,$1+$1,$4,$5*
1,1,$1+$1,$6,$7*
1,1,$1+$1,$8,$9*
0 Add four rect primitives between the rounded corners*
20,1,$1+$1,$2,$3,$4,$5,0*
20,1,$1+$1,$4,$5,$6,$7,0*
20,1,$1+$1,$6,$7,$8,$9,0*
20,1,$1+$1,$8,$9,$2,$3,0*%
G04 Aperture macros list end*
%TA.AperFunction,ComponentPad*%
%ADD10RoundRect,0.250000X-0.600000X-0.600000X0.600000X-0.600000X0.600000X0.600000X-0.600000X0.600000X0*%
%TD*%
%TA.AperFunction,ComponentPad*%
%ADD11C,1.700000*%
%TD*%
%TA.AperFunction,ViaPad*%
%ADD12C,0.800000*%
%TD*%
%TA.AperFunction,Conductor*%
%ADD13C,0.250000*%
%TD*%
G04 APERTURE END LIST*
D10*
%TO.N,CS3*%
%TO.C,J1*%
X36565000Y-76360000D03*
D11*
%TO.N,CS2*%
X39105000Y-76360000D03*
%TO.N,MOSI*%
X36565000Y-78900000D03*
%TO.N,MISO*%
X39105000Y-78900000D03*
%TO.N,SCK1*%
X36565000Y-81440000D03*
%TO.N,CS1*%
X39105000Y-81440000D03*
%TO.N,CS4*%
X36565000Y-83980000D03*
%TO.N,CS5*%
X39105000Y-83980000D03*
%TO.N,5V*%
X36565000Y-86520000D03*
%TO.N,GND*%
X39105000Y-86520000D03*
%TO.N,CS6*%
X36565000Y-89060000D03*
%TO.N,3.3V*%
X39105000Y-89060000D03*
%TD*%
D12*
%TO.N,GND*%
X141530000Y-17550000D03*
X123000000Y-27930000D03*
X96660000Y-170090000D03*
X109332800Y-170234000D03*
X32160000Y-114340000D03*
X141570000Y-171900000D03*
X187340000Y-76560000D03*
X16370000Y-74420000D03*
X150610000Y-34340000D03*
X173380000Y-125870000D03*
X82320000Y-178730000D03*
X47874439Y-142743542D03*
X99550000Y-39592800D03*
X130390000Y-176590000D03*
X158230000Y-43970000D03*
X34470000Y-63470000D03*
X188920000Y-88620000D03*
X42480000Y-50170000D03*
X75840000Y-24470000D03*
X144960000Y-164480000D03*
X68050000Y-16660000D03*
X55320000Y-152540000D03*
X132820000Y-21540000D03*
X162260000Y-52630000D03*
X106230000Y-39620000D03*
X150530000Y-155000000D03*
X144730000Y-24680000D03*
X50100000Y-40470000D03*
X182320000Y-117130000D03*
X188920000Y-100860000D03*
X86590000Y-28900000D03*
X40140000Y-133200000D03*
X181260000Y-70540000D03*
X16920000Y-84180000D03*
X94330000Y-180910000D03*
X17340000Y-108300000D03*
X98850000Y-29230000D03*
X106471468Y-181071643D03*
X165830000Y-135560000D03*
X34840000Y-59790000D03*
X61380000Y-22520000D03*
X169890000Y-62320000D03*
X21730000Y-117920000D03*
X94360000Y-174490000D03*
X111240000Y-29250000D03*
X158220000Y-145350000D03*
X59780000Y-169620000D03*
X16160000Y-96150000D03*
X96820000Y-163720000D03*
X118530000Y-179710000D03*
X59540000Y-161060000D03*
X70660000Y-175030000D03*
X187230000Y-112770000D03*
X32670000Y-123420000D03*
X57550000Y-30660000D03*
X112540000Y-39730000D03*
%TO.N,Ch40*%
X53890000Y-35470000D03*
X99520000Y-35100000D03*
%TO.N,3.3V*%
X109332800Y-172290000D03*
X87970000Y-181930000D03*
X104960000Y-39620000D03*
X35020000Y-104660000D03*
X96806500Y-171355000D03*
X34690000Y-113370000D03*
X101140000Y-37150000D03*
%TO.N,Ch36*%
X94470000Y-34970000D03*
X83770000Y-28420000D03*
%TO.N,Ch39*%
X98390000Y-35190000D03*
X61020000Y-26090000D03*
%TO.N,Ch35*%
X92780000Y-29320000D03*
X93170000Y-34820000D03*
%TO.N,Ch38*%
X65080000Y-16770000D03*
X97010000Y-34970000D03*
%TO.N,Ch34*%
X105080000Y-29270000D03*
X97170000Y-33370000D03*
%TO.N,Ch33*%
X117310000Y-29160000D03*
X99440000Y-32730000D03*
%TO.N,Ch37*%
X73410000Y-22680000D03*
X95740000Y-34970000D03*
%TO.N,Ch32*%
X128470000Y-25230000D03*
X112580000Y-34997200D03*
%TO.N,Ch28*%
X113740000Y-34070000D03*
X154510000Y-39280000D03*
%TO.N,Ch31*%
X140280000Y-15460000D03*
X111390000Y-35010000D03*
%TO.N,Ch27*%
X161937240Y-48878055D03*
X106230000Y-34565000D03*
%TO.N,Ch30*%
X146420000Y-23040000D03*
X110040000Y-34997200D03*
%TO.N,Ch26*%
X105000000Y-35010000D03*
X169720000Y-58590000D03*
%TO.N,Ch25*%
X177207131Y-68383151D03*
X103690000Y-34997200D03*
%TO.N,Ch29*%
X113180000Y-32970000D03*
X146710000Y-29260000D03*
%TO.N,Ch16*%
X152490000Y-152550000D03*
X100011712Y-174368288D03*
%TO.N,Ch8*%
X43605000Y-108838600D03*
X73480000Y-176060000D03*
%TO.N,Ch4*%
X46167652Y-143723054D03*
X38490000Y-108838600D03*
%TO.N,Ch24*%
X104603747Y-164136253D03*
X186470000Y-73600000D03*
%TO.N,Ch12*%
X96645474Y-174253401D03*
X121640000Y-179080000D03*
%TO.N,Ch20*%
X104710000Y-169029200D03*
X184670000Y-120750000D03*
%TO.N,Ch7*%
X42369000Y-108838600D03*
X62290000Y-171200000D03*
X36530000Y-111206149D03*
%TO.N,Ch3*%
X37240000Y-124680000D03*
X38560000Y-134320000D03*
X39850000Y-120290000D03*
X37385000Y-108838600D03*
%TO.N,Ch15*%
X144800000Y-162030000D03*
X92183700Y-165151000D03*
%TO.N,Ch23*%
X188280000Y-82460000D03*
X104710000Y-165300000D03*
%TO.N,Ch11*%
X109530000Y-180970000D03*
X95710000Y-173900000D03*
%TO.N,Ch19*%
X175320000Y-123280000D03*
X111600000Y-170430000D03*
%TO.N,Ch6*%
X60860000Y-162990000D03*
X37140000Y-117060000D03*
%TO.N,Ch2*%
X32870000Y-127090000D03*
X35930000Y-108890000D03*
%TO.N,Ch14*%
X98860000Y-174230000D03*
X144410000Y-170510000D03*
%TO.N,Ch10*%
X92430000Y-171330000D03*
X97300000Y-180990000D03*
%TO.N,Ch22*%
X189240000Y-97700000D03*
X104710000Y-166424000D03*
%TO.N,Ch18*%
X167500000Y-133060000D03*
X112340000Y-173930000D03*
%TO.N,Ch1*%
X23100000Y-119420000D03*
X23170000Y-114640000D03*
%TO.N,Ch5*%
X54021790Y-153530500D03*
X39940000Y-108824271D03*
%TO.N,Ch9*%
X92183700Y-172625000D03*
X85120000Y-179410000D03*
%TO.N,Ch13*%
X97800000Y-174260000D03*
X133288161Y-175601133D03*
%TO.N,Ch17*%
X160090000Y-143000000D03*
X109500000Y-175740000D03*
%TO.N,Ch21*%
X104860000Y-167890000D03*
X188330000Y-106990000D03*
%TO.N,MOSI*%
X97190000Y-39592800D03*
X37900000Y-106720000D03*
X102170000Y-167149000D03*
X40740000Y-104850000D03*
%TO.N,MISO*%
X108740000Y-39550000D03*
X96806500Y-167545000D03*
X95740000Y-39592800D03*
X39835000Y-113461400D03*
X109332800Y-167593949D03*
X39480000Y-104792800D03*
X42710000Y-116140000D03*
%TO.N,SCK1*%
X107500000Y-39620000D03*
X109250000Y-169130000D03*
X94338747Y-39724053D03*
X96806500Y-168815000D03*
X38210000Y-104792800D03*
%TO.N,CS1*%
X42350000Y-113510000D03*
X26330000Y-75690000D03*
%TO.N,CS2*%
X90758767Y-164625518D03*
X26370000Y-78630000D03*
%TO.N,CS3*%
X96170000Y-178410000D03*
X26440000Y-81580000D03*
%TO.N,CS4*%
X111310000Y-39620000D03*
X26380000Y-84470000D03*
%TO.N,CS5*%
X98280000Y-39592800D03*
X26400000Y-87510000D03*
%TO.N,Ch48*%
X30330000Y-100470000D03*
X17840000Y-111310000D03*
%TO.N,Ch44*%
X25310000Y-71110000D03*
X38005000Y-96720000D03*
%TO.N,Ch47*%
X16350000Y-99290000D03*
X20730000Y-99080000D03*
%TO.N,Ch43*%
X32960000Y-62210000D03*
X36950000Y-100130000D03*
%TO.N,Ch46*%
X34370000Y-98540000D03*
X16330000Y-90110000D03*
%TO.N,Ch42*%
X38610000Y-54980000D03*
X35670000Y-100170000D03*
%TO.N,Ch41*%
X34440000Y-100190000D03*
X46230000Y-45210000D03*
%TO.N,Ch45*%
X17860000Y-78000000D03*
X35620000Y-97670000D03*
%TO.N,CS6*%
X26420000Y-90370000D03*
%TD*%
D13*
%TO.N,GND*%
X94330000Y-180910000D02*
X94330000Y-174520000D01*
X94330000Y-180910000D02*
X94360000Y-180880000D01*
X94330000Y-174520000D02*
X94360000Y-174490000D01*
%TO.N,3.3V*%
X94793299Y-171355000D02*
X96806500Y-171355000D01*
X42650000Y-92605000D02*
X39105000Y-89060000D01*
X92190000Y-175420000D02*
X93880000Y-173730000D01*
X93880000Y-172268299D02*
X94793299Y-171355000D01*
X35020000Y-104600000D02*
X42650000Y-96970000D01*
X92190000Y-177640000D02*
X92190000Y-175420000D01*
X35020000Y-104660000D02*
X35020000Y-104600000D01*
X87930000Y-181900000D02*
X92190000Y-177640000D01*
X42650000Y-96970000D02*
X42650000Y-92605000D01*
X93880000Y-173730000D02*
X93880000Y-172268299D01*
%TO.N,Ch26*%
X112184002Y-36540000D02*
X106490000Y-36540000D01*
X106490000Y-36540000D02*
X105000000Y-35050000D01*
X169790000Y-58660000D02*
X169790000Y-58680000D01*
X115895000Y-29549695D02*
X115895000Y-34340305D01*
X113434002Y-35290000D02*
X112184002Y-36540000D01*
X114945305Y-35290000D02*
X113434002Y-35290000D01*
X117610305Y-28435000D02*
X117009695Y-28435000D01*
X149570000Y-35140000D02*
X149570000Y-34020000D01*
X138940000Y-21520000D02*
X134400000Y-21520000D01*
X117885305Y-28710000D02*
X117610305Y-28435000D01*
X134400000Y-21520000D02*
X127210000Y-28710000D01*
X117009695Y-28435000D02*
X115895000Y-29549695D01*
X115895000Y-34340305D02*
X114945305Y-35290000D01*
X105000000Y-35050000D02*
X105000000Y-35010000D01*
X169720000Y-57860000D02*
X153785000Y-41925000D01*
X104960000Y-35010000D02*
X104920000Y-34970000D01*
X127210000Y-28710000D02*
X117885305Y-28710000D01*
X153785000Y-39355000D02*
X149570000Y-35140000D01*
X153785000Y-41925000D02*
X153785000Y-39355000D01*
X105000000Y-35010000D02*
X104960000Y-35010000D01*
X169720000Y-58590000D02*
X169720000Y-57860000D01*
X145070000Y-27650000D02*
X138940000Y-21520000D01*
X169720000Y-58590000D02*
X169790000Y-58660000D01*
X145070000Y-29520000D02*
X145070000Y-27650000D01*
X149570000Y-34020000D02*
X145070000Y-29520000D01*
%TO.N,Ch25*%
X118440000Y-29160000D02*
X127396396Y-29160000D01*
X153335000Y-40325000D02*
X153335000Y-42265000D01*
X132588198Y-23968198D02*
X138881802Y-23968198D01*
X148030000Y-33116396D02*
X148030000Y-35020000D01*
X148030000Y-35020000D02*
X153335000Y-40325000D01*
X161535000Y-50465000D02*
X161535000Y-52930305D01*
X148030000Y-35020000D02*
X148030000Y-35150000D01*
X105682800Y-36990000D02*
X114380305Y-36990000D01*
X161535000Y-52930305D02*
X176974695Y-68370000D01*
X176974695Y-68370000D02*
X177230000Y-68370000D01*
X116620000Y-30980000D02*
X118440000Y-29160000D01*
X138881802Y-23968198D02*
X148030000Y-33116396D01*
X114380305Y-36990000D02*
X116620000Y-34750305D01*
X116620000Y-34750305D02*
X116620000Y-30980000D01*
X127396396Y-29160000D02*
X132588198Y-23968198D01*
X103690000Y-34997200D02*
X105682800Y-36990000D01*
X153335000Y-42265000D02*
X161535000Y-50465000D01*
%TO.N,Ch8*%
X43605000Y-108838600D02*
X43605000Y-108925000D01*
X40150305Y-130860305D02*
X40865000Y-131575000D01*
X55490000Y-153735305D02*
X55490000Y-154370000D01*
X43080000Y-109450000D02*
X43080000Y-115484695D01*
X43435000Y-117730305D02*
X40150305Y-121015000D01*
X63255000Y-170355000D02*
X65334155Y-172434155D01*
X53378296Y-151623601D02*
X55490000Y-153735305D01*
X53378296Y-147818296D02*
X53378296Y-151623601D01*
X40865000Y-134055000D02*
X49698098Y-142888098D01*
X43435000Y-115839695D02*
X43435000Y-117730305D01*
X40150305Y-121015000D02*
X40150305Y-130860305D01*
X43080000Y-115484695D02*
X43435000Y-115839695D01*
X55490000Y-154370000D02*
X63255000Y-162135000D01*
X49698098Y-142888098D02*
X49698098Y-144138098D01*
X65334155Y-172434155D02*
X65930000Y-172434155D01*
X43605000Y-108925000D02*
X43080000Y-109450000D01*
X40865000Y-131575000D02*
X40865000Y-134055000D01*
X65930000Y-172434155D02*
X69555845Y-176060000D01*
X63255000Y-162135000D02*
X63255000Y-170355000D01*
X49698098Y-144138098D02*
X53378296Y-147818296D01*
X69555845Y-176060000D02*
X73480000Y-176060000D01*
%TO.N,Ch4*%
X38055000Y-113840305D02*
X38070000Y-113855305D01*
X38490000Y-108838600D02*
X38055000Y-109273600D01*
X38070000Y-113855305D02*
X38070000Y-132804695D01*
X38070000Y-132804695D02*
X46167652Y-140902347D01*
X38055000Y-109273600D02*
X38055000Y-113840305D01*
X46167652Y-140902347D02*
X46167652Y-143723054D01*
%TO.N,Ch20*%
X143235000Y-172531851D02*
X143235000Y-169246502D01*
X157546903Y-143725000D02*
X157752208Y-143725000D01*
X142556851Y-173210000D02*
X143235000Y-172531851D01*
X130089695Y-177315000D02*
X132255000Y-177315000D01*
X112593604Y-169080000D02*
X120483604Y-176970000D01*
X132255000Y-177315000D02*
X133150000Y-176420000D01*
X158465000Y-141263299D02*
X166325000Y-133403299D01*
X157752208Y-143725000D02*
X158465000Y-143012208D01*
X143235000Y-169246502D02*
X143240000Y-169241502D01*
X184003313Y-120123313D02*
X184630000Y-120750000D01*
X120483604Y-176970000D02*
X129744695Y-176970000D01*
X148330812Y-154355304D02*
X156595000Y-146091116D01*
X133150000Y-176420000D02*
X134110236Y-176420000D01*
X134110236Y-176420000D02*
X137320236Y-173210000D01*
X143240000Y-169241502D02*
X143240000Y-161096396D01*
X104710000Y-169029200D02*
X106639800Y-170959000D01*
X143240000Y-161096396D02*
X148330812Y-156005584D01*
X177450291Y-120123313D02*
X184003313Y-120123313D01*
X158465000Y-143012208D02*
X158465000Y-141263299D01*
X129744695Y-176970000D02*
X130089695Y-177315000D01*
X166325000Y-133403299D02*
X166325000Y-131248604D01*
X137320236Y-173210000D02*
X142556851Y-173210000D01*
X109633105Y-170959000D02*
X111512105Y-169080000D01*
X156595000Y-146091116D02*
X156595000Y-144676903D01*
X166325000Y-131248604D02*
X177450291Y-120123313D01*
X111512105Y-169080000D02*
X112593604Y-169080000D01*
X106639800Y-170959000D02*
X109633105Y-170959000D01*
X148330812Y-156005584D02*
X148330812Y-154355304D01*
X156595000Y-144676903D02*
X157546903Y-143725000D01*
%TO.N,Ch15*%
X92183700Y-165151000D02*
X92759700Y-164575000D01*
X123850000Y-178850000D02*
X131627131Y-178850000D01*
X143036634Y-174030680D02*
X144680000Y-172387314D01*
X103491805Y-173205000D02*
X114739696Y-173205000D01*
X132262131Y-178215000D02*
X133418028Y-178215000D01*
X131627131Y-178850000D02*
X132262131Y-178215000D01*
X92759700Y-164575000D02*
X94861805Y-164575000D01*
X144235000Y-164780305D02*
X144235000Y-162595000D01*
X121339695Y-179805000D02*
X122895000Y-179805000D01*
X145135000Y-165680305D02*
X144235000Y-164780305D01*
X122895000Y-179805000D02*
X123850000Y-178850000D01*
X144680000Y-172387314D02*
X144680000Y-171450000D01*
X144680000Y-171450000D02*
X145135000Y-170995000D01*
X114739696Y-173205000D02*
X121339695Y-179805000D01*
X145135000Y-170995000D02*
X145135000Y-165680305D01*
X133418028Y-178215000D02*
X134313028Y-177320000D01*
X144800000Y-162030000D02*
X144830000Y-162000000D01*
X94861805Y-164575000D02*
X103491805Y-173205000D01*
X140923413Y-174110000D02*
X142877797Y-174110000D01*
X142877797Y-174110000D02*
X143036634Y-174030680D01*
X144235000Y-162595000D02*
X144800000Y-162030000D01*
X134313028Y-177320000D02*
X135157208Y-177320000D01*
X135157208Y-177320000D02*
X137477208Y-175000000D01*
X140033413Y-175000000D02*
X140923413Y-174110000D01*
X137477208Y-175000000D02*
X140033413Y-175000000D01*
%TO.N,Ch19*%
X125897208Y-177420000D02*
X129558299Y-177420000D01*
X143685000Y-172718247D02*
X143685000Y-170209695D01*
X143685000Y-169405000D02*
X143690000Y-169400000D01*
X143690000Y-161282792D02*
X148988604Y-155984188D01*
X133336396Y-176870000D02*
X134516396Y-176870000D01*
X157045000Y-146277513D02*
X157045000Y-144863299D01*
X124962208Y-178355000D02*
X125897208Y-177420000D01*
X142743247Y-173660000D02*
X143685000Y-172718247D01*
X157938604Y-144175000D02*
X158915000Y-143198604D01*
X174940000Y-123270000D02*
X175240000Y-123270000D01*
X157733299Y-144175000D02*
X157938604Y-144175000D01*
X136200236Y-175186160D02*
X136200236Y-174966396D01*
X111600000Y-170430000D02*
X113307208Y-170430000D01*
X158915000Y-141449695D02*
X166775000Y-133589695D01*
X157045000Y-144863299D02*
X157733299Y-144175000D01*
X148988604Y-155984188D02*
X148988604Y-154333909D01*
X134516396Y-176870000D02*
X136200236Y-175186160D01*
X158915000Y-143198604D02*
X158915000Y-141449695D01*
X166775000Y-133589695D02*
X166775000Y-131435000D01*
X121232208Y-178355000D02*
X124962208Y-178355000D01*
X148988604Y-154333909D02*
X157045000Y-146277513D01*
X129558299Y-177420000D02*
X129903299Y-177765000D01*
X143690000Y-170204695D02*
X143690000Y-161282792D01*
X132441396Y-177765000D02*
X133336396Y-176870000D01*
X137506632Y-173660000D02*
X142743247Y-173660000D01*
X136200236Y-174966396D02*
X137506632Y-173660000D01*
X113307208Y-170430000D02*
X121232208Y-178355000D01*
X166775000Y-131435000D02*
X174940000Y-123270000D01*
X143685000Y-170209695D02*
X143690000Y-170204695D01*
X129903299Y-177765000D02*
X132441396Y-177765000D01*
%TO.N,Ch18*%
X157919695Y-144625000D02*
X158125000Y-144625000D01*
X141906948Y-175097812D02*
X143341451Y-174381451D01*
X160475000Y-142275000D02*
X167500000Y-135250000D01*
X159365000Y-142699695D02*
X159789695Y-142275000D01*
X149438604Y-154520305D02*
X157495000Y-146463909D01*
X157495000Y-146463909D02*
X157495000Y-145049695D01*
X158125000Y-144625000D02*
X159365000Y-143385000D01*
X147540000Y-170163710D02*
X147540000Y-169346396D01*
X143341451Y-174362259D02*
X147540000Y-170163710D01*
X135016125Y-178097479D02*
X137613604Y-175500000D01*
X112340000Y-173930000D02*
X112340000Y-175270000D01*
X122023604Y-181940000D02*
X124313604Y-179650000D01*
X145685000Y-167491396D02*
X145685000Y-159924188D01*
X147540000Y-169346396D02*
X145685000Y-167491396D01*
X141057279Y-175500000D02*
X141906948Y-175097812D01*
X130649561Y-179650000D02*
X131464478Y-179383752D01*
X119010000Y-181940000D02*
X122023604Y-181940000D01*
X159365000Y-143385000D02*
X159365000Y-142699695D01*
X124313604Y-179650000D02*
X130649561Y-179650000D01*
X159789695Y-142275000D02*
X160475000Y-142275000D01*
X149438604Y-156170584D02*
X149438604Y-154520305D01*
X145685000Y-159924188D02*
X149438604Y-156170584D01*
X167500000Y-135250000D02*
X167500000Y-133060000D01*
X135004445Y-178102130D02*
X135016125Y-178097479D01*
X137613604Y-175500000D02*
X141057279Y-175500000D01*
X112340000Y-175270000D02*
X119010000Y-181940000D01*
X157495000Y-145049695D02*
X157919695Y-144625000D01*
X167500000Y-133060000D02*
X167470000Y-133020000D01*
X143341451Y-174381451D02*
X143341451Y-174362259D01*
X131464478Y-179383752D02*
X133241227Y-178761564D01*
X133241227Y-178761564D02*
X135004445Y-178102130D01*
%TO.N,Ch1*%
X23170000Y-114640000D02*
X23170000Y-119350000D01*
X23170000Y-119350000D02*
X23100000Y-119420000D01*
%TO.N,Ch5*%
X54021790Y-153530500D02*
X54030000Y-153522290D01*
X52928296Y-152388296D02*
X54021790Y-153481790D01*
X49248098Y-143091896D02*
X49248098Y-144751506D01*
X49248098Y-144751506D02*
X52928296Y-148431704D01*
X39075000Y-133173299D02*
X46617652Y-140715951D01*
X54030000Y-153522290D02*
X54030000Y-153490000D01*
X39075000Y-109689271D02*
X39075000Y-133173299D01*
X39940000Y-108824271D02*
X39804271Y-108960000D01*
X54021790Y-153481790D02*
X54021790Y-153530500D01*
X52928296Y-148431704D02*
X52928296Y-152388296D01*
X46872153Y-140715951D02*
X49248098Y-143091896D01*
X46617652Y-140715951D02*
X46872153Y-140715951D01*
X39804271Y-108960000D02*
X39780000Y-108960000D01*
X39940000Y-108824271D02*
X39075000Y-109689271D01*
%TO.N,Ch17*%
X154335305Y-150260000D02*
X160090000Y-144505305D01*
X146103281Y-173426719D02*
X147990000Y-171540000D01*
X147990000Y-171540000D02*
X147990000Y-169160000D01*
X142103749Y-175502524D02*
X143796382Y-174657258D01*
X146210000Y-161998774D02*
X146210000Y-160035584D01*
X146235613Y-162024387D02*
X146210000Y-161998774D01*
X131608697Y-179810042D02*
X133394406Y-179184717D01*
X154335305Y-152220000D02*
X154335305Y-150260000D01*
X124500000Y-180100000D02*
X130721208Y-180100000D01*
X109350000Y-175890000D02*
X109350000Y-178860000D01*
X146720000Y-164675883D02*
X146235613Y-164191496D01*
X109350000Y-178860000D02*
X113410000Y-182920000D01*
X143796382Y-174657258D02*
X145470904Y-173776516D01*
X150520584Y-155725000D02*
X150830305Y-155725000D01*
X133394406Y-179184717D02*
X135166516Y-178521957D01*
X141158404Y-175950000D02*
X142103749Y-175502524D01*
X150830305Y-155725000D02*
X154335305Y-152220000D01*
X147990000Y-169160000D02*
X146720000Y-167890000D01*
X145470904Y-173776516D02*
X146103281Y-173426719D01*
X135166516Y-178521957D02*
X135268752Y-178481248D01*
X146235613Y-164191496D02*
X146235613Y-162024387D01*
X113410000Y-182920000D02*
X117540000Y-182920000D01*
X137800000Y-175950000D02*
X141158404Y-175950000D01*
X146210000Y-160035584D02*
X150520584Y-155725000D01*
X118070000Y-182390000D02*
X122210000Y-182390000D01*
X122210000Y-182390000D02*
X124500000Y-180100000D01*
X130721208Y-180100000D02*
X131608697Y-179810042D01*
X117540000Y-182920000D02*
X118070000Y-182390000D01*
X160090000Y-144505305D02*
X160090000Y-143000000D01*
X135268752Y-178481248D02*
X137800000Y-175950000D01*
X146720000Y-167890000D02*
X146720000Y-164675883D01*
X109500000Y-175740000D02*
X109350000Y-175890000D01*
%TO.N,Ch21*%
X158015000Y-140895000D02*
X157980524Y-140860524D01*
X130089695Y-175865000D02*
X130690305Y-175865000D01*
X120670000Y-176520000D02*
X129434695Y-176520000D01*
X133588466Y-174876133D02*
X133798965Y-175086632D01*
X142785000Y-172345000D02*
X142785000Y-169060106D01*
X129434695Y-176520000D02*
X130089695Y-175865000D01*
X105238949Y-168318949D02*
X104860000Y-167940000D01*
X137133840Y-172760000D02*
X142370000Y-172760000D01*
X147880812Y-154168908D02*
X155689860Y-146359860D01*
X155689860Y-146359860D02*
X155689860Y-144905140D01*
X165875000Y-131062208D02*
X180877208Y-116060000D01*
X142785000Y-169060106D02*
X142790000Y-169055106D01*
X134807208Y-175086632D02*
X137133840Y-172760000D01*
X165875000Y-132966048D02*
X165875000Y-131062208D01*
X142790000Y-169055106D02*
X142790000Y-163433604D01*
X112370000Y-168220000D02*
X120670000Y-176520000D01*
X155689860Y-144905140D02*
X158015000Y-142580000D01*
X157980524Y-140860524D02*
X165875000Y-132966048D01*
X188338772Y-114651228D02*
X188338772Y-109490000D01*
X104860000Y-167890000D02*
X104810000Y-167890000D01*
X133798965Y-175086632D02*
X134807208Y-175086632D01*
X142790000Y-163433604D02*
X142560000Y-163203604D01*
X188330000Y-106990000D02*
X188340000Y-107020000D01*
X186930000Y-116060000D02*
X188338772Y-114651228D01*
X131679172Y-174876133D02*
X133588466Y-174876133D01*
X104860000Y-167940000D02*
X104860000Y-167890000D01*
X142370000Y-172760000D02*
X142785000Y-172345000D01*
X180877208Y-116060000D02*
X186930000Y-116060000D01*
X142560000Y-163203604D02*
X142560000Y-161140000D01*
X130690305Y-175865000D02*
X131679172Y-174876133D01*
X111221000Y-168230000D02*
X111231000Y-168220000D01*
X142560000Y-161140000D02*
X147880812Y-155819188D01*
X104810000Y-167890000D02*
X104860000Y-167940000D01*
X111231000Y-168220000D02*
X111132051Y-168318949D01*
X188338772Y-109490000D02*
X188330000Y-106990000D01*
X111132051Y-168318949D02*
X105238949Y-168318949D01*
X111231000Y-168220000D02*
X112370000Y-168220000D01*
X158015000Y-142580000D02*
X158015000Y-140895000D01*
X147880812Y-155819188D02*
X147880812Y-154168908D01*
%TO.N,MOSI*%
X75630000Y-27700000D02*
X71190000Y-23260000D01*
X57120000Y-36005584D02*
X52175000Y-40950584D01*
X66540000Y-23260000D02*
X63080000Y-26720000D01*
X86375306Y-31450000D02*
X83180000Y-31450000D01*
X37930000Y-75873299D02*
X37930000Y-76846701D01*
X57120000Y-34666012D02*
X57120000Y-36005584D01*
X37900000Y-106720000D02*
X38870000Y-106720000D01*
X97190000Y-39592800D02*
X96950000Y-39832800D01*
X39430000Y-57330000D02*
X39430000Y-74373299D01*
X63080000Y-26720000D02*
X63080000Y-28706012D01*
X92500000Y-37574694D02*
X86375306Y-31450000D01*
X63080000Y-28706012D02*
X57120000Y-34666012D01*
X77022743Y-27700000D02*
X75630000Y-27700000D01*
X52175000Y-40950584D02*
X52175000Y-41329493D01*
X38020000Y-76936701D02*
X38020000Y-77445000D01*
X96950000Y-40101701D02*
X95296701Y-41755000D01*
X38870000Y-106720000D02*
X40740000Y-104850000D01*
X39430000Y-74373299D02*
X37930000Y-75873299D01*
X49340000Y-44164493D02*
X49340000Y-46836396D01*
X92999695Y-41755000D02*
X92500000Y-41255305D01*
X52175000Y-41329493D02*
X49340000Y-44164493D01*
X79904335Y-30581592D02*
X77022743Y-27700000D01*
X71190000Y-23260000D02*
X66540000Y-23260000D01*
X82510000Y-30780000D02*
X80416273Y-30780000D01*
X37930000Y-76846701D02*
X38020000Y-76936701D01*
X49340000Y-46836396D02*
X41240000Y-54936396D01*
X41240000Y-54936396D02*
X41240000Y-55520000D01*
X41240000Y-55520000D02*
X39430000Y-57330000D01*
X80416273Y-30780000D02*
X79904335Y-30581592D01*
X92500000Y-41255305D02*
X92500000Y-37574694D01*
X38020000Y-77445000D02*
X36565000Y-78900000D01*
X96950000Y-39832800D02*
X96950000Y-40101701D01*
X95296701Y-41755000D02*
X92999695Y-41755000D01*
X83180000Y-31450000D02*
X82510000Y-30780000D01*
%TO.N,MISO*%
X40630000Y-114256400D02*
X40630000Y-115390000D01*
X39835000Y-113461400D02*
X40630000Y-114256400D01*
X61500000Y-29649616D02*
X56670000Y-34479616D01*
X41380000Y-116140000D02*
X42710000Y-116140000D01*
X83370000Y-31000000D02*
X82920000Y-30550000D01*
X109086749Y-167593949D02*
X104487800Y-162995000D01*
X66373604Y-22790000D02*
X61500000Y-27663604D01*
X95740000Y-39592800D02*
X95232800Y-39592800D01*
X95232800Y-39592800D02*
X86640000Y-31000000D01*
X40630000Y-115390000D02*
X41380000Y-116140000D01*
X40561802Y-54978198D02*
X40561802Y-55561802D01*
X48806802Y-44061295D02*
X48806802Y-46733198D01*
X56670000Y-35819188D02*
X51725000Y-40764188D01*
X35390000Y-79576701D02*
X35913299Y-80100000D01*
X77029681Y-26950000D02*
X75516396Y-26950000D01*
X82920000Y-30550000D02*
X82920000Y-30233447D01*
X37905000Y-80100000D02*
X39105000Y-78900000D01*
X38980000Y-62210000D02*
X35390000Y-65800000D01*
X35913299Y-80100000D02*
X37905000Y-80100000D01*
X104487800Y-162995000D02*
X93314395Y-162995000D01*
X38980000Y-57143604D02*
X38980000Y-62210000D01*
X80251296Y-30233447D02*
X80352256Y-30272575D01*
X93314395Y-162995000D02*
X91458700Y-164850695D01*
X91458700Y-165451305D02*
X91883395Y-165876000D01*
X86640000Y-31000000D02*
X83370000Y-31000000D01*
X51725000Y-40764188D02*
X51725000Y-41143097D01*
X56670000Y-34479616D02*
X56670000Y-35819188D01*
X82920000Y-30233447D02*
X80251296Y-30233447D01*
X92086000Y-165876000D02*
X93755000Y-167545000D01*
X40561802Y-55561802D02*
X38980000Y-57143604D01*
X91883395Y-165876000D02*
X92086000Y-165876000D01*
X93755000Y-167545000D02*
X96806500Y-167545000D01*
X75516396Y-26950000D02*
X71356396Y-22790000D01*
X48806802Y-46733198D02*
X40561802Y-54978198D01*
X61500000Y-27663604D02*
X61500000Y-29649616D01*
X71356396Y-22790000D02*
X66373604Y-22790000D01*
X51725000Y-41143097D02*
X48806802Y-44061295D01*
X91458700Y-164850695D02*
X91458700Y-165451305D01*
X80352256Y-30272575D02*
X77029681Y-26950000D01*
X35390000Y-65800000D02*
X35390000Y-79576701D01*
X109332800Y-167593949D02*
X109086749Y-167593949D01*
%TO.N,SCK1*%
X40111802Y-54791802D02*
X40111802Y-55375406D01*
X40111802Y-55375406D02*
X38530000Y-56957208D01*
X75702792Y-26500000D02*
X71542792Y-22340000D01*
X83533198Y-30526802D02*
X83370000Y-30363604D01*
X80713447Y-29783447D02*
X77430000Y-26500000D01*
X95144196Y-38867800D02*
X86803198Y-30526802D01*
X61050000Y-27477208D02*
X61050000Y-29463220D01*
X33745000Y-78620000D02*
X36565000Y-81440000D01*
X94932494Y-40317800D02*
X96040305Y-40317800D01*
X96465000Y-39893105D02*
X96465000Y-39292495D01*
X48356802Y-43874899D02*
X48356802Y-46546802D01*
X38530000Y-62023604D02*
X33745000Y-66808604D01*
X96040305Y-40317800D02*
X96465000Y-39893105D01*
X77430000Y-26500000D02*
X75702792Y-26500000D01*
X56220000Y-35632792D02*
X51275000Y-40577792D01*
X51275000Y-40956701D02*
X48356802Y-43874899D01*
X71542792Y-22340000D02*
X66187208Y-22340000D01*
X33745000Y-66808604D02*
X33745000Y-78620000D01*
X96040305Y-38867800D02*
X95144196Y-38867800D01*
X94338747Y-39724053D02*
X94932494Y-40317800D01*
X61050000Y-29463220D02*
X56220000Y-34293220D01*
X83106396Y-29783447D02*
X80713447Y-29783447D01*
X83370000Y-30047051D02*
X83106396Y-29783447D01*
X48356802Y-46546802D02*
X40111802Y-54791802D01*
X96465000Y-39292495D02*
X96040305Y-38867800D01*
X86803198Y-30526802D02*
X83533198Y-30526802D01*
X38530000Y-56957208D02*
X38530000Y-62023604D01*
X66187208Y-22340000D02*
X61050000Y-27477208D01*
X83370000Y-30363604D02*
X83370000Y-30047051D01*
X56220000Y-34293220D02*
X56220000Y-35632792D01*
X51275000Y-40577792D02*
X51275000Y-40956701D01*
%TO.N,CS2*%
X44992652Y-143573359D02*
X44992652Y-140363743D01*
X88700000Y-166684285D02*
X88700000Y-168550000D01*
X62484454Y-170220850D02*
X62484454Y-162964454D01*
X37620000Y-132991091D02*
X37620000Y-126846396D01*
X38259695Y-135045000D02*
X37835000Y-134620305D01*
X62484454Y-162964454D02*
X53775500Y-154255500D01*
X52478296Y-151059003D02*
X44992652Y-143573359D01*
X90758767Y-164625518D02*
X88700000Y-166684285D01*
X27165000Y-79425000D02*
X26370000Y-78630000D01*
X37835000Y-134019695D02*
X38230000Y-133624695D01*
X53522708Y-154255500D02*
X52478296Y-153211088D01*
X27165000Y-116391396D02*
X27165000Y-79425000D01*
X44992652Y-140363743D02*
X40327107Y-135698198D01*
X38230000Y-133624695D02*
X38230000Y-133601091D01*
X65600000Y-173130000D02*
X65393604Y-173130000D01*
X53775500Y-154255500D02*
X53522708Y-154255500D01*
X80465000Y-176785000D02*
X69255000Y-176785000D01*
X40327107Y-135698198D02*
X38923198Y-135698198D01*
X88700000Y-168550000D02*
X80465000Y-176785000D01*
X37835000Y-134620305D02*
X37835000Y-134019695D01*
X69255000Y-176785000D02*
X65600000Y-173130000D01*
X65393604Y-173130000D02*
X62484454Y-170220850D01*
X52478296Y-153211088D02*
X52478296Y-151059003D01*
X38270000Y-135045000D02*
X38259695Y-135045000D01*
X38923198Y-135698198D02*
X38270000Y-135045000D01*
X38230000Y-133601091D02*
X37620000Y-132991091D01*
X37620000Y-126846396D02*
X27165000Y-116391396D01*
%TO.N,CS3*%
X44542652Y-142605444D02*
X41608604Y-139671396D01*
X59510000Y-162040000D02*
X59494695Y-162040000D01*
X44542652Y-143759755D02*
X44542652Y-142605444D01*
X96170000Y-178410000D02*
X96620000Y-178860000D01*
X80939695Y-181629695D02*
X76545000Y-177235000D01*
X96620000Y-179645305D02*
X93610305Y-182655000D01*
X56386802Y-157503198D02*
X56134010Y-157503198D01*
X25630000Y-82390000D02*
X26440000Y-81580000D01*
X56386802Y-158932107D02*
X56386802Y-157503198D01*
X37385000Y-134806701D02*
X37385000Y-133555000D01*
X25630000Y-117420000D02*
X25630000Y-82390000D01*
X59510000Y-162665305D02*
X59510000Y-162040000D01*
X51390000Y-150607103D02*
X44542652Y-143759755D01*
X67299695Y-177235000D02*
X61015000Y-170950305D01*
X59494695Y-162040000D02*
X56386802Y-158932107D01*
X76545000Y-177235000D02*
X67299695Y-177235000D01*
X41608604Y-139671396D02*
X41608604Y-139030305D01*
X86644390Y-181629695D02*
X80939695Y-181629695D01*
X61015000Y-170950305D02*
X61015000Y-164170305D01*
X87669695Y-182655000D02*
X86644390Y-181629695D01*
X33600000Y-129770000D02*
X33600000Y-125390000D01*
X61015000Y-164170305D02*
X59510000Y-162665305D01*
X93610305Y-182655000D02*
X87669695Y-182655000D01*
X41608604Y-139030305D02*
X37385000Y-134806701D01*
X33600000Y-125390000D02*
X25630000Y-117420000D01*
X96620000Y-178860000D02*
X96620000Y-179645305D01*
X56134010Y-157503198D02*
X51390000Y-152759188D01*
X37385000Y-133555000D02*
X33600000Y-129770000D01*
X51390000Y-152759188D02*
X51390000Y-150607103D01*
%TO.N,CS4*%
X73846396Y-21440000D02*
X64008299Y-21440000D01*
X99855000Y-33455000D02*
X99139695Y-33455000D01*
X38309695Y-55705000D02*
X37445406Y-56569289D01*
X99139695Y-33455000D02*
X93854695Y-28170000D01*
X37445406Y-56569289D02*
X37445406Y-61835406D01*
X48680000Y-40864695D02*
X48680000Y-41830000D01*
X37445406Y-61835406D02*
X32810000Y-66470812D01*
X42875240Y-48749455D02*
X40110000Y-51514695D01*
X55320000Y-31864695D02*
X55320000Y-35260000D01*
X111310000Y-39620000D02*
X109860000Y-38170000D01*
X59845000Y-25603299D02*
X59845000Y-27339695D01*
X45505000Y-46323909D02*
X43079455Y-48749455D01*
X51040000Y-39540000D02*
X50004695Y-39540000D01*
X64008299Y-21440000D02*
X59845000Y-25603299D01*
X32810000Y-80225000D02*
X36565000Y-83980000D01*
X55320000Y-35260000D02*
X51040000Y-39540000D01*
X86050000Y-28170000D02*
X85575000Y-27695000D01*
X43079455Y-48749455D02*
X42875240Y-48749455D01*
X93854695Y-28170000D02*
X86050000Y-28170000D01*
X40110000Y-52410000D02*
X37885000Y-54635000D01*
X43079455Y-48749455D02*
X42989454Y-48839455D01*
X32810000Y-66470812D02*
X32810000Y-80225000D01*
X85575000Y-27695000D02*
X80101396Y-27695000D01*
X80101396Y-27695000D02*
X73846396Y-21440000D01*
X48584695Y-41830000D02*
X45505000Y-44909695D01*
X37885000Y-54635000D02*
X37885000Y-55280305D01*
X109860000Y-38170000D02*
X104570000Y-38170000D01*
X104570000Y-38170000D02*
X99855000Y-33455000D01*
X48680000Y-41830000D02*
X48584695Y-41830000D01*
X59845000Y-27339695D02*
X55320000Y-31864695D01*
X50004695Y-39540000D02*
X48680000Y-40864695D01*
X37885000Y-55280305D02*
X38309695Y-55705000D01*
X45505000Y-44909695D02*
X45505000Y-46323909D01*
X40110000Y-51514695D02*
X40110000Y-52410000D01*
%TO.N,CS5*%
X55770000Y-34106824D02*
X55770000Y-35446396D01*
X75550101Y-25205406D02*
X74180000Y-23835305D01*
X37895406Y-62021802D02*
X33295000Y-66622208D01*
X87000655Y-29860655D02*
X83820000Y-29860655D01*
X74180000Y-23835305D02*
X74180000Y-22410000D01*
X76860711Y-25205406D02*
X75550101Y-25205406D01*
X36268299Y-82805000D02*
X37930000Y-82805000D01*
X33295000Y-66622208D02*
X33295000Y-79831701D01*
X73660000Y-21890000D02*
X64194695Y-21890000D01*
X47906802Y-46360406D02*
X39661802Y-54605406D01*
X60295000Y-25789695D02*
X60295000Y-29581824D01*
X55770000Y-35446396D02*
X50825000Y-40391396D01*
X95557800Y-38417800D02*
X87000655Y-29860655D01*
X39661802Y-55189010D02*
X37895406Y-56955406D01*
X98280000Y-39592800D02*
X97105000Y-38417800D01*
X39661802Y-54605406D02*
X39661802Y-55189010D01*
X37895406Y-56955406D02*
X37895406Y-62021802D01*
X60295000Y-29581824D02*
X55770000Y-34106824D01*
X50825000Y-40770305D02*
X47906802Y-43688503D01*
X83820000Y-29860655D02*
X83292792Y-29333447D01*
X83292792Y-29333447D02*
X80988752Y-29333447D01*
X47906802Y-43688503D02*
X47906802Y-46360406D01*
X37930000Y-82805000D02*
X39105000Y-83980000D01*
X50825000Y-40391396D02*
X50825000Y-40770305D01*
X64194695Y-21890000D02*
X60295000Y-25789695D01*
X97105000Y-38417800D02*
X95557800Y-38417800D01*
X80988752Y-29333447D02*
X76860711Y-25205406D01*
X33295000Y-79831701D02*
X36268299Y-82805000D01*
X74180000Y-22410000D02*
X73660000Y-21890000D01*
%TD*%
M02*
