%TF.GenerationSoftware,KiCad,Pcbnew,8.0.0-dirty*%
%TF.CreationDate,2024-03-12T22:30:07-04:00*%
%TF.ProjectId,RCJ_Open_LinePCB,52434a5f-4f70-4656-9e5f-4c696e655043,rev?*%
%TF.SameCoordinates,Original*%
%TF.FileFunction,Copper,L4,Bot*%
%TF.FilePolarity,Positive*%
%FSLAX46Y46*%
G04 Gerber Fmt 4.6, Leading zero omitted, Abs format (unit mm)*
G04 Created by KiCad (PCBNEW 8.0.0-dirty) date 2024-03-12 22:30:07*
%MOMM*%
%LPD*%
G01*
G04 APERTURE LIST*
G04 Aperture macros list*
%AMRoundRect*
0 Rectangle with rounded corners*
0 $1 Rounding radius*
0 $2 $3 $4 $5 $6 $7 $8 $9 X,Y pos of 4 corners*
0 Add a 4 corners polygon primitive as box body*
4,1,4,$2,$3,$4,$5,$6,$7,$8,$9,$2,$3,0*
0 Add four circle primitives for the rounded corners*
1,1,$1+$1,$2,$3*
1,1,$1+$1,$4,$5*
1,1,$1+$1,$6,$7*
1,1,$1+$1,$8,$9*
0 Add four rect primitives between the rounded corners*
20,1,$1+$1,$2,$3,$4,$5,0*
20,1,$1+$1,$4,$5,$6,$7,0*
20,1,$1+$1,$6,$7,$8,$9,0*
20,1,$1+$1,$8,$9,$2,$3,0*%
G04 Aperture macros list end*
%TA.AperFunction,ComponentPad*%
%ADD10RoundRect,0.250000X-0.600000X-0.600000X0.600000X-0.600000X0.600000X0.600000X-0.600000X0.600000X0*%
%TD*%
%TA.AperFunction,ComponentPad*%
%ADD11C,1.700000*%
%TD*%
%TA.AperFunction,SMDPad,CuDef*%
%ADD12RoundRect,0.250000X-0.001244X0.570086X-0.552851X0.139123X0.001244X-0.570086X0.552851X-0.139123X0*%
%TD*%
%TA.AperFunction,SMDPad,CuDef*%
%ADD13RoundRect,0.250000X-0.416310X0.367166X-0.479436X-0.279761X0.416310X-0.367166X0.479436X0.279761X0*%
%TD*%
%TA.AperFunction,SMDPad,CuDef*%
%ADD14RoundRect,0.250000X-0.363145X0.419822X-0.512706X-0.212738X0.363145X-0.419822X0.512706X0.212738X0*%
%TD*%
%TA.AperFunction,SMDPad,CuDef*%
%ADD15RoundRect,0.250000X-0.533151X-0.154515X-0.020944X-0.554695X0.533151X0.154515X0.020944X0.554695X0*%
%TD*%
%TA.AperFunction,SMDPad,CuDef*%
%ADD16RoundRect,0.250000X-0.126115X-0.540574X0.473511X-0.289677X0.126115X0.540574X-0.473511X0.289677X0*%
%TD*%
%TA.AperFunction,SMDPad,CuDef*%
%ADD17RoundRect,0.250000X0.552851X0.139123X0.001244X0.570086X-0.552851X-0.139123X-0.001244X-0.570086X0*%
%TD*%
%TA.AperFunction,SMDPad,CuDef*%
%ADD18RoundRect,0.250000X0.020944X-0.554695X0.533151X-0.154515X-0.020944X0.554695X-0.533151X0.154515X0*%
%TD*%
%TA.AperFunction,SMDPad,CuDef*%
%ADD19RoundRect,0.250000X-0.122103X0.556858X-0.569780X0.018727X0.122103X-0.556858X0.569780X-0.018727X0*%
%TD*%
%TA.AperFunction,SMDPad,CuDef*%
%ADD20RoundRect,0.250000X0.001244X-0.570086X0.552851X-0.139123X-0.001244X0.570086X-0.552851X0.139123X0*%
%TD*%
%TA.AperFunction,SMDPad,CuDef*%
%ADD21R,0.508000X1.676400*%
%TD*%
%TA.AperFunction,SMDPad,CuDef*%
%ADD22RoundRect,0.250000X-0.020944X0.554695X-0.533151X0.154515X0.020944X-0.554695X0.533151X-0.154515X0*%
%TD*%
%TA.AperFunction,SMDPad,CuDef*%
%ADD23RoundRect,0.250000X0.416929X0.388806X-0.274214X0.499807X-0.416929X-0.388806X0.274214X-0.499807X0*%
%TD*%
%TA.AperFunction,SMDPad,CuDef*%
%ADD24RoundRect,0.250000X-0.241467X0.516424X-0.559972X-0.106917X0.241467X-0.516424X0.559972X0.106917X0*%
%TD*%
%TA.AperFunction,SMDPad,CuDef*%
%ADD25RoundRect,0.250000X-0.305434X0.481363X-0.541735X-0.177547X0.305434X-0.481363X0.541735X0.177547X0*%
%TD*%
%TA.AperFunction,SMDPad,CuDef*%
%ADD26RoundRect,0.250000X-0.450000X0.325000X-0.450000X-0.325000X0.450000X-0.325000X0.450000X0.325000X0*%
%TD*%
%TA.AperFunction,SMDPad,CuDef*%
%ADD27RoundRect,0.250000X-0.389376X0.395615X-0.497974X-0.245249X0.389376X-0.395615X0.497974X0.245249X0*%
%TD*%
%TA.AperFunction,SMDPad,CuDef*%
%ADD28RoundRect,0.250000X-0.333902X-0.462071X0.365662X-0.437369X0.333902X0.462071X-0.365662X0.437369X0*%
%TD*%
%TA.AperFunction,SMDPad,CuDef*%
%ADD29RoundRect,0.250000X-0.517565X0.200627X-0.353176X-0.428242X0.517565X-0.200627X0.353176X0.428242X0*%
%TD*%
%TA.AperFunction,SMDPad,CuDef*%
%ADD30RoundRect,0.250000X-0.350000X-0.450000X0.350000X-0.450000X0.350000X0.450000X-0.350000X0.450000X0*%
%TD*%
%TA.AperFunction,SMDPad,CuDef*%
%ADD31RoundRect,0.250000X-0.484185X0.271459X-0.409921X-0.374285X0.484185X-0.271459X0.409921X0.374285X0*%
%TD*%
%TA.AperFunction,SMDPad,CuDef*%
%ADD32RoundRect,0.250000X-0.441375X0.360816X-0.458360X-0.338977X0.441375X-0.360816X0.458360X0.338977X0*%
%TD*%
%TA.AperFunction,SMDPad,CuDef*%
%ADD33RoundRect,0.250000X0.057979X0.567132X-0.535410X0.195797X-0.057979X-0.567132X0.535410X-0.195797X0*%
%TD*%
%TA.AperFunction,SMDPad,CuDef*%
%ADD34RoundRect,0.250000X-0.546229X-0.163199X0.023722X-0.569594X0.546229X0.163199X-0.023722X0.569594X0*%
%TD*%
%TA.AperFunction,SMDPad,CuDef*%
%ADD35RoundRect,0.250000X-0.315805X-0.474623X0.382283X-0.422918X0.315805X0.474623X-0.382283X0.422918X0*%
%TD*%
%TA.AperFunction,SMDPad,CuDef*%
%ADD36RoundRect,0.250000X0.431560X0.349115X-0.195728X0.519438X-0.431560X-0.349115X0.195728X-0.519438X0*%
%TD*%
%TA.AperFunction,SMDPad,CuDef*%
%ADD37RoundRect,0.250000X-0.270722X0.501707X-0.552909X-0.138895X0.270722X-0.501707X0.552909X0.138895X0*%
%TD*%
%TA.AperFunction,SMDPad,CuDef*%
%ADD38RoundRect,0.250000X0.249943X0.495635X-0.391919X0.393096X-0.249943X-0.495635X0.391919X-0.393096X0*%
%TD*%
%TA.AperFunction,SMDPad,CuDef*%
%ADD39RoundRect,0.250000X0.549597X-0.077898X0.246742X0.497236X-0.549597X0.077898X-0.246742X-0.497236X0*%
%TD*%
%TA.AperFunction,SMDPad,CuDef*%
%ADD40RoundRect,0.250000X0.256829X0.508958X-0.430079X0.374209X-0.256829X-0.508958X0.430079X-0.374209X0*%
%TD*%
%TA.AperFunction,SMDPad,CuDef*%
%ADD41RoundRect,0.250000X0.554333X0.028973X0.146780X0.535332X-0.554333X-0.028973X-0.146780X-0.535332X0*%
%TD*%
%TA.AperFunction,SMDPad,CuDef*%
%ADD42RoundRect,0.250000X-0.530427X0.163622X-0.322092X-0.452086X0.530427X-0.163622X0.322092X0.452086X0*%
%TD*%
%TA.AperFunction,SMDPad,CuDef*%
%ADD43RoundRect,0.250000X0.292088X0.489576X-0.402614X0.403611X-0.292088X-0.489576X0.402614X-0.403611X0*%
%TD*%
%TA.AperFunction,SMDPad,CuDef*%
%ADD44RoundRect,0.250000X0.533151X0.154515X0.020944X0.554695X-0.533151X-0.154515X-0.020944X-0.554695X0*%
%TD*%
%TA.AperFunction,SMDPad,CuDef*%
%ADD45RoundRect,0.250000X0.405861X0.378684X-0.231877X0.504339X-0.405861X-0.378684X0.231877X-0.504339X0*%
%TD*%
%TA.AperFunction,SMDPad,CuDef*%
%ADD46RoundRect,0.250000X-0.397277X0.387680X-0.492926X-0.255244X0.397277X-0.387680X0.492926X0.255244X0*%
%TD*%
%TA.AperFunction,SMDPad,CuDef*%
%ADD47RoundRect,0.250000X-0.452999X0.346110X-0.446968X-0.353864X0.452999X-0.346110X0.446968X0.353864X0*%
%TD*%
%TA.AperFunction,SMDPad,CuDef*%
%ADD48RoundRect,0.250000X-0.423567X-0.381564X0.265561X-0.504457X0.423567X0.381564X-0.265561X0.504457X0*%
%TD*%
%TA.AperFunction,SMDPad,CuDef*%
%ADD49RoundRect,0.250000X-0.234661X0.519552X-0.561328X-0.099551X0.234661X-0.519552X0.561328X0.099551X0*%
%TD*%
%TA.AperFunction,SMDPad,CuDef*%
%ADD50R,1.676400X0.508000*%
%TD*%
%TA.AperFunction,SMDPad,CuDef*%
%ADD51RoundRect,0.250000X0.511113X0.252515X-0.118933X0.557544X-0.511113X-0.252515X0.118933X-0.557544X0*%
%TD*%
%TA.AperFunction,SMDPad,CuDef*%
%ADD52RoundRect,0.250000X-0.513287X0.248066X-0.366781X-0.436431X0.513287X-0.248066X0.366781X0.436431X0*%
%TD*%
%TA.AperFunction,SMDPad,CuDef*%
%ADD53RoundRect,0.250000X-0.349563X-0.431197X0.299428X-0.467406X0.349563X0.431197X-0.299428X0.467406X0*%
%TD*%
%TA.AperFunction,SMDPad,CuDef*%
%ADD54RoundRect,0.250000X0.423583X-0.358752X0.473734X0.289311X-0.423583X0.358752X-0.473734X-0.289311X0*%
%TD*%
%TA.AperFunction,SMDPad,CuDef*%
%ADD55RoundRect,0.250000X0.284278X0.476771X-0.363217X0.419760X-0.284278X-0.476771X0.363217X-0.419760X0*%
%TD*%
%TA.AperFunction,SMDPad,CuDef*%
%ADD56RoundRect,0.250000X-0.554980X-0.011040X-0.164007X-0.530308X0.554980X0.011040X0.164007X0.530308X0*%
%TD*%
%TA.AperFunction,SMDPad,CuDef*%
%ADD57RoundRect,0.250000X-0.365662X-0.437369X0.333902X-0.462071X0.365662X0.437369X-0.333902X0.462071X0*%
%TD*%
%TA.AperFunction,SMDPad,CuDef*%
%ADD58RoundRect,0.250000X0.118933X0.557544X-0.511113X0.252515X-0.118933X-0.557544X0.511113X-0.252515X0*%
%TD*%
%TA.AperFunction,SMDPad,CuDef*%
%ADD59RoundRect,0.250000X0.450449X0.324378X-0.166307X0.529591X-0.450449X-0.324378X0.166307X-0.529591X0*%
%TD*%
%TA.AperFunction,SMDPad,CuDef*%
%ADD60RoundRect,0.250000X-0.531495X0.206187X-0.330672X-0.464388X0.531495X-0.206187X0.330672X0.464388X0*%
%TD*%
%TA.AperFunction,SMDPad,CuDef*%
%ADD61RoundRect,0.250000X-0.481302X0.305529X-0.414603X-0.391286X0.481302X-0.305529X0.414603X0.391286X0*%
%TD*%
%TA.AperFunction,SMDPad,CuDef*%
%ADD62RoundRect,0.250000X-0.515629X0.243161X-0.362603X-0.439908X0.515629X-0.243161X0.362603X0.439908X0*%
%TD*%
%TA.AperFunction,SMDPad,CuDef*%
%ADD63RoundRect,0.250000X-0.538910X-0.133045X-0.043136X-0.553412X0.538910X0.133045X0.043136X0.553412X0*%
%TD*%
%TA.AperFunction,SMDPad,CuDef*%
%ADD64RoundRect,0.250000X-0.082352X0.564108X-0.567022X0.059039X0.082352X-0.564108X0.567022X-0.059039X0*%
%TD*%
%TA.AperFunction,SMDPad,CuDef*%
%ADD65RoundRect,0.250000X-0.476282X0.313297X-0.420896X-0.384508X0.476282X-0.313297X0.420896X0.384508X0*%
%TD*%
%TA.AperFunction,SMDPad,CuDef*%
%ADD66RoundRect,0.250000X0.570086X0.001244X0.139123X0.552851X-0.570086X-0.001244X-0.139123X-0.552851X0*%
%TD*%
%TA.AperFunction,SMDPad,CuDef*%
%ADD67RoundRect,0.250000X0.166307X0.529591X-0.450449X0.324378X-0.166307X-0.529591X0.450449X-0.324378X0*%
%TD*%
%TA.AperFunction,SMDPad,CuDef*%
%ADD68RoundRect,0.250000X-0.263728X0.488439X-0.546587X-0.096789X0.263728X-0.488439X0.546587X0.096789X0*%
%TD*%
%TA.AperFunction,SMDPad,CuDef*%
%ADD69RoundRect,0.250000X0.317198X0.455533X-0.332706X0.444333X-0.317198X-0.455533X0.332706X-0.444333X0*%
%TD*%
%TA.AperFunction,SMDPad,CuDef*%
%ADD70RoundRect,0.250000X-0.538222X-0.135802X-0.040302X-0.553625X0.538222X0.135802X0.040302X0.553625X0*%
%TD*%
%TA.AperFunction,SMDPad,CuDef*%
%ADD71RoundRect,0.250000X0.559972X-0.106917X0.241467X0.516424X-0.559972X0.106917X-0.241467X-0.516424X0*%
%TD*%
%TA.AperFunction,SMDPad,CuDef*%
%ADD72RoundRect,0.250000X-0.552851X-0.139123X-0.001244X-0.570086X0.552851X0.139123X0.001244X0.570086X0*%
%TD*%
%TA.AperFunction,SMDPad,CuDef*%
%ADD73RoundRect,0.250000X-0.154515X0.533151X-0.554695X0.020944X0.154515X-0.533151X0.554695X-0.020944X0*%
%TD*%
%TA.AperFunction,SMDPad,CuDef*%
%ADD74RoundRect,0.250000X-0.139123X0.552851X-0.570086X0.001244X0.139123X-0.552851X0.570086X-0.001244X0*%
%TD*%
%TA.AperFunction,SMDPad,CuDef*%
%ADD75RoundRect,0.250000X-0.554544X0.024622X-0.197723X-0.518682X0.554544X-0.024622X0.197723X0.518682X0*%
%TD*%
%TA.AperFunction,SMDPad,CuDef*%
%ADD76RoundRect,0.250000X-0.558341X0.115130X-0.249025X-0.512822X0.558341X-0.115130X0.249025X0.512822X0*%
%TD*%
%TA.AperFunction,SMDPad,CuDef*%
%ADD77RoundRect,0.250000X0.564425X-0.080151X0.216620X0.527329X-0.564425X0.080151X-0.216620X-0.527329X0*%
%TD*%
%TA.AperFunction,SMDPad,CuDef*%
%ADD78RoundRect,0.250000X-0.473511X-0.289677X0.126115X-0.540574X0.473511X0.289677X-0.126115X0.540574X0*%
%TD*%
%TA.AperFunction,SMDPad,CuDef*%
%ADD79RoundRect,0.250000X-0.427459X0.377199X-0.470813X-0.321457X0.427459X-0.377199X0.470813X0.321457X0*%
%TD*%
%TA.AperFunction,SMDPad,CuDef*%
%ADD80RoundRect,0.250000X0.001244X-0.570086X0.552851X-0.139123X-0.001244X0.570086X-0.552851X0.139123X0*%
%TD*%
%TA.AperFunction,SMDPad,CuDef*%
%ADD81RoundRect,0.250000X-0.229319X-0.521932X0.449424X-0.350739X0.229319X0.521932X-0.449424X0.350739X0*%
%TD*%
%TA.AperFunction,SMDPad,CuDef*%
%ADD82RoundRect,0.250000X0.507141X-0.260399X0.377222X0.427439X-0.507141X0.260399X-0.377222X-0.427439X0*%
%TD*%
%TA.AperFunction,SMDPad,CuDef*%
%ADD83RoundRect,0.250000X0.557366X-0.119761X0.253274X0.510737X-0.557366X0.119761X-0.253274X-0.510737X0*%
%TD*%
%TA.AperFunction,SMDPad,CuDef*%
%ADD84RoundRect,0.250000X-0.300480X-0.484471X0.395599X-0.410489X0.300480X0.484471X-0.395599X0.410489X0*%
%TD*%
%TA.AperFunction,SMDPad,CuDef*%
%ADD85RoundRect,0.250000X0.034427X-0.569047X0.560013X-0.106705X-0.034427X0.569047X-0.560013X0.106705X0*%
%TD*%
%TA.AperFunction,SMDPad,CuDef*%
%ADD86RoundRect,0.250000X-0.370129X0.433595X-0.511362X-0.252009X0.370129X-0.433595X0.511362X0.252009X0*%
%TD*%
%TA.AperFunction,SMDPad,CuDef*%
%ADD87RoundRect,0.250000X-0.441170X0.336889X-0.458510X-0.312880X0.441170X-0.336889X0.458510X0.312880X0*%
%TD*%
%TA.AperFunction,SMDPad,CuDef*%
%ADD88RoundRect,0.250000X0.348538X0.432026X-0.300537X0.466693X-0.348538X-0.432026X0.300537X-0.466693X0*%
%TD*%
%TA.AperFunction,SMDPad,CuDef*%
%ADD89RoundRect,0.250000X-0.531719X0.159374X-0.318465X-0.454648X0.531719X-0.159374X0.318465X0.454648X0*%
%TD*%
%TA.AperFunction,SMDPad,CuDef*%
%ADD90RoundRect,0.250000X-0.355930X-0.425956X0.292451X-0.471802X0.355930X0.425956X-0.292451X0.471802X0*%
%TD*%
%TA.AperFunction,SMDPad,CuDef*%
%ADD91RoundRect,0.250000X-0.292451X-0.471802X0.355930X-0.425956X0.292451X0.471802X-0.355930X0.425956X0*%
%TD*%
%TA.AperFunction,SMDPad,CuDef*%
%ADD92RoundRect,0.250000X-0.497194X0.278924X-0.392727X-0.413237X0.497194X-0.278924X0.392727X0.413237X0*%
%TD*%
%TA.AperFunction,SMDPad,CuDef*%
%ADD93RoundRect,0.250000X-0.329834X0.446469X-0.527529X-0.172737X0.329834X-0.446469X0.527529X0.172737X0*%
%TD*%
%TA.AperFunction,SMDPad,CuDef*%
%ADD94RoundRect,0.250000X-0.217691X0.526888X-0.564261X-0.081298X0.217691X-0.526888X0.564261X0.081298X0*%
%TD*%
%TA.AperFunction,SMDPad,CuDef*%
%ADD95RoundRect,0.250000X-0.476660X0.284464X-0.419902X-0.363053X0.476660X-0.284464X0.419902X0.363053X0*%
%TD*%
%TA.AperFunction,SMDPad,CuDef*%
%ADD96RoundRect,0.250000X-0.228621X0.505824X-0.552052X-0.057996X0.228621X-0.505824X0.552052X0.057996X0*%
%TD*%
%TA.AperFunction,SMDPad,CuDef*%
%ADD97RoundRect,0.250000X-0.548173X0.087356X-0.255273X-0.492910X0.548173X-0.087356X0.255273X0.492910X0*%
%TD*%
%TA.AperFunction,SMDPad,CuDef*%
%ADD98RoundRect,0.250000X-0.338625X0.458621X-0.527863X-0.215314X0.338625X-0.458621X0.527863X0.215314X0*%
%TD*%
%TA.AperFunction,SMDPad,CuDef*%
%ADD99RoundRect,0.250000X-0.502126X0.236632X-0.382501X-0.402266X0.502126X-0.236632X0.382501X0.402266X0*%
%TD*%
%TA.AperFunction,SMDPad,CuDef*%
%ADD100RoundRect,0.250000X0.378141X0.406367X-0.266872X0.486728X-0.378141X-0.406367X0.266872X-0.486728X0*%
%TD*%
%TA.AperFunction,SMDPad,CuDef*%
%ADD101RoundRect,0.250000X0.255273X-0.492910X0.548173X0.087356X-0.255273X0.492910X-0.548173X-0.087356X0*%
%TD*%
%TA.AperFunction,SMDPad,CuDef*%
%ADD102RoundRect,0.250000X-0.463833X0.304933X-0.435300X-0.344440X0.463833X-0.304933X0.435300X0.344440X0*%
%TD*%
%TA.AperFunction,SMDPad,CuDef*%
%ADD103RoundRect,0.250000X-0.449424X-0.350739X0.229319X-0.521932X0.449424X0.350739X-0.229319X0.521932X0*%
%TD*%
%TA.AperFunction,SMDPad,CuDef*%
%ADD104RoundRect,0.250000X0.358071X0.443605X-0.341815X0.456249X-0.358071X-0.443605X0.341815X-0.456249X0*%
%TD*%
%TA.AperFunction,SMDPad,CuDef*%
%ADD105RoundRect,0.250000X0.220292X0.525806X-0.455401X0.342943X-0.220292X-0.525806X0.455401X-0.342943X0*%
%TD*%
%TA.AperFunction,SMDPad,CuDef*%
%ADD106RoundRect,0.250000X-0.450000X0.350000X-0.450000X-0.350000X0.450000X-0.350000X0.450000X0.350000X0*%
%TD*%
%TA.AperFunction,SMDPad,CuDef*%
%ADD107RoundRect,0.250000X-0.543751X-0.111623X-0.064994X-0.551272X0.543751X0.111623X0.064994X0.551272X0*%
%TD*%
%TA.AperFunction,SMDPad,CuDef*%
%ADD108RoundRect,0.250000X0.552851X0.139124X0.001244X0.570086X-0.552851X-0.139124X-0.001244X-0.570086X0*%
%TD*%
%TA.AperFunction,SMDPad,CuDef*%
%ADD109RoundRect,0.250000X0.031514X-0.569216X0.559459X-0.109570X-0.031514X0.569216X-0.559459X0.109570X0*%
%TD*%
%TA.AperFunction,SMDPad,CuDef*%
%ADD110RoundRect,0.250000X-0.223153X-0.508260X0.412326X-0.371634X0.223153X0.508260X-0.412326X0.371634X0*%
%TD*%
%TA.AperFunction,SMDPad,CuDef*%
%ADD111RoundRect,0.250000X0.214362X0.512029X-0.418669X0.364474X-0.214362X-0.512029X0.418669X-0.364474X0*%
%TD*%
%TA.AperFunction,SMDPad,CuDef*%
%ADD112RoundRect,0.250000X-0.499996X-0.241101X0.071675X-0.550443X0.499996X0.241101X-0.071675X0.550443X0*%
%TD*%
%TA.AperFunction,SMDPad,CuDef*%
%ADD113RoundRect,0.250000X0.443314X0.358431X-0.238278X0.517903X-0.443314X-0.358431X0.238278X-0.517903X0*%
%TD*%
%TA.AperFunction,SMDPad,CuDef*%
%ADD114RoundRect,0.250000X0.443370X0.333988X-0.177656X0.525893X-0.443370X-0.333988X0.177656X-0.525893X0*%
%TD*%
%TA.AperFunction,SMDPad,CuDef*%
%ADD115RoundRect,0.250000X0.388468X0.417244X-0.308783X0.479221X-0.388468X-0.417244X0.308783X-0.479221X0*%
%TD*%
%TA.AperFunction,SMDPad,CuDef*%
%ADD116RoundRect,0.250000X-0.031679X0.554185X-0.536043X0.144165X0.031679X-0.554185X0.536043X-0.144165X0*%
%TD*%
%TA.AperFunction,SMDPad,CuDef*%
%ADD117RoundRect,0.250000X-0.265561X-0.504457X0.423567X-0.381564X0.265561X0.504457X-0.423567X0.381564X0*%
%TD*%
%TA.AperFunction,SMDPad,CuDef*%
%ADD118RoundRect,0.250000X-0.399790X0.406409X-0.492314X-0.287449X0.399790X-0.406409X0.492314X0.287449X0*%
%TD*%
%TA.AperFunction,SMDPad,CuDef*%
%ADD119RoundRect,0.250000X-0.562960X0.089864X-0.225674X-0.523518X0.562960X-0.089864X0.225674X0.523518X0*%
%TD*%
%TA.AperFunction,SMDPad,CuDef*%
%ADD120RoundRect,0.250000X-0.166129X0.529647X-0.555020X0.008817X0.166129X-0.529647X0.555020X-0.008817X0*%
%TD*%
%TA.AperFunction,SMDPad,CuDef*%
%ADD121RoundRect,0.250000X-0.544714X0.168186X-0.297094X-0.486554X0.544714X-0.168186X0.297094X0.486554X0*%
%TD*%
%TA.AperFunction,SMDPad,CuDef*%
%ADD122RoundRect,0.250000X0.325891X0.467755X-0.373144X0.431003X-0.325891X-0.467755X0.373144X-0.431003X0*%
%TD*%
%TA.AperFunction,SMDPad,CuDef*%
%ADD123RoundRect,0.250000X-0.569549X-0.024786X-0.116173X-0.558125X0.569549X0.024786X0.116173X0.558125X0*%
%TD*%
%TA.AperFunction,SMDPad,CuDef*%
%ADD124RoundRect,0.250000X-0.258446X-0.491254X0.385087X-0.399791X0.258446X0.491254X-0.385087X0.399791X0*%
%TD*%
%TA.AperFunction,SMDPad,CuDef*%
%ADD125RoundRect,0.250000X-0.540647X0.125802X-0.289403X-0.473678X0.540647X-0.125802X0.289403X0.473678X0*%
%TD*%
%TA.AperFunction,SMDPad,CuDef*%
%ADD126RoundRect,0.250000X-0.339834X0.457726X-0.527294X-0.216706X0.339834X-0.457726X0.527294X0.216706X0*%
%TD*%
%TA.AperFunction,SMDPad,CuDef*%
%ADD127RoundRect,0.250000X-0.555220X0.129347X-0.262037X-0.506297X0.555220X-0.129347X0.262037X0.506297X0*%
%TD*%
%TA.AperFunction,SMDPad,CuDef*%
%ADD128RoundRect,0.250000X-0.385087X-0.399791X0.258446X-0.491254X0.385087X0.399791X-0.258446X0.491254X0*%
%TD*%
%TA.AperFunction,SMDPad,CuDef*%
%ADD129RoundRect,0.250000X-0.360503X0.422093X-0.514032X-0.209515X0.360503X-0.422093X0.514032X0.209515X0*%
%TD*%
%TA.AperFunction,SMDPad,CuDef*%
%ADD130RoundRect,0.250000X-0.395599X-0.410489X0.300480X-0.484471X0.395599X0.410489X-0.300480X0.484471X0*%
%TD*%
%TA.AperFunction,SMDPad,CuDef*%
%ADD131RoundRect,0.250000X0.225674X-0.523518X0.562960X0.089864X-0.225674X0.523518X-0.562960X-0.089864X0*%
%TD*%
%TA.AperFunction,SMDPad,CuDef*%
%ADD132RoundRect,0.250000X0.417469X0.388226X-0.273519X0.500187X-0.417469X-0.388226X0.273519X-0.500187X0*%
%TD*%
%TA.AperFunction,SMDPad,CuDef*%
%ADD133RoundRect,0.250000X0.535613X-0.145754X0.306760X0.462626X-0.535613X0.145754X-0.306760X-0.462626X0*%
%TD*%
%TA.AperFunction,SMDPad,CuDef*%
%ADD134RoundRect,0.250000X-0.412326X-0.371634X0.223153X-0.508260X0.412326X0.371634X-0.223153X0.508260X0*%
%TD*%
%TA.AperFunction,SMDPad,CuDef*%
%ADD135RoundRect,0.250000X0.306760X-0.462626X0.535613X0.145754X-0.306760X0.462626X-0.535613X-0.145754X0*%
%TD*%
%TA.AperFunction,SMDPad,CuDef*%
%ADD136RoundRect,0.250000X-0.297522X0.468621X-0.538399X-0.135099X0.297522X-0.468621X0.538399X0.135099X0*%
%TD*%
%TA.AperFunction,SMDPad,CuDef*%
%ADD137RoundRect,0.250000X-0.325000X-0.450000X0.325000X-0.450000X0.325000X0.450000X-0.325000X0.450000X0*%
%TD*%
%TA.AperFunction,SMDPad,CuDef*%
%ADD138RoundRect,0.250000X-0.290509X0.473001X-0.540351X-0.127065X0.290509X-0.473001X0.540351X0.127065X0*%
%TD*%
%TA.AperFunction,ViaPad*%
%ADD139C,0.800000*%
%TD*%
%TA.AperFunction,Conductor*%
%ADD140C,0.250000*%
%TD*%
G04 APERTURE END LIST*
D10*
%TO.P,J1,1,Pin_1*%
%TO.N,CS3*%
X36565000Y-76360000D03*
D11*
%TO.P,J1,2,Pin_2*%
%TO.N,CS2*%
X39105000Y-76360000D03*
%TO.P,J1,3,Pin_3*%
%TO.N,MOSI*%
X36565000Y-78900000D03*
%TO.P,J1,4,Pin_4*%
%TO.N,MISO*%
X39105000Y-78900000D03*
%TO.P,J1,5,Pin_5*%
%TO.N,SCK1*%
X36565000Y-81440000D03*
%TO.P,J1,6,Pin_6*%
%TO.N,CS1*%
X39105000Y-81440000D03*
%TO.P,J1,7,Pin_7*%
%TO.N,CS4*%
X36565000Y-83980000D03*
%TO.P,J1,8,Pin_8*%
%TO.N,CS5*%
X39105000Y-83980000D03*
%TO.P,J1,9,Pin_9*%
%TO.N,5V*%
X36565000Y-86520000D03*
%TO.P,J1,10,Pin_10*%
%TO.N,GND*%
X39105000Y-86520000D03*
%TO.P,J1,11,Pin_11*%
%TO.N,CS6*%
X36565000Y-89060000D03*
%TO.P,J1,12,Pin_12*%
%TO.N,3.3V*%
X39105000Y-89060000D03*
%TD*%
D12*
%TO.P,R66,1*%
%TO.N,3.3V*%
X175277236Y-65956997D03*
%TO.P,R66,2*%
%TO.N,Net-(D77-A)*%
X173701214Y-67188319D03*
%TD*%
%TO.P,R67,1*%
%TO.N,3.3V*%
X167671743Y-56222411D03*
%TO.P,R67,2*%
%TO.N,Net-(D80-A)*%
X166095721Y-57453733D03*
%TD*%
D13*
%TO.P,D51,1,K*%
%TO.N,GND*%
X94277289Y-180746232D03*
%TO.P,D51,2,A*%
%TO.N,Net-(D51-A)*%
X94078199Y-182786542D03*
%TD*%
D14*
%TO.P,D26,1,K*%
%TO.N,GND*%
X20032330Y-119406018D03*
%TO.P,D26,2,A*%
%TO.N,Net-(D26-A)*%
X19560638Y-121401014D03*
%TD*%
D15*
%TO.P,D66,1,K*%
%TO.N,Ch40*%
X53843566Y-35492344D03*
%TO.P,D66,2,A*%
%TO.N,3.3V*%
X55458988Y-36754450D03*
%TD*%
D16*
%TO.P,D36,1,K*%
%TO.N,Ch24*%
X186040000Y-71080000D03*
%TO.P,D36,2,A*%
%TO.N,3.3V*%
X187931126Y-70288710D03*
%TD*%
D17*
%TO.P,R43,1*%
%TO.N,3.3V*%
X171474490Y-128270296D03*
%TO.P,R43,2*%
%TO.N,Net-(D59-A)*%
X169898468Y-127038974D03*
%TD*%
%TO.P,R63,1*%
%TO.N,Ch18*%
X167671743Y-133137589D03*
%TO.P,R63,2*%
%TO.N,GND*%
X166095721Y-131906267D03*
%TD*%
D12*
%TO.P,R58,1*%
%TO.N,Ch28*%
X156263505Y-41620531D03*
%TO.P,R58,2*%
%TO.N,GND*%
X154687483Y-42851853D03*
%TD*%
D18*
%TO.P,D1,1,K*%
%TO.N,Ch2*%
X32883650Y-127040186D03*
%TO.P,D1,2,A*%
%TO.N,3.3V*%
X34499072Y-125778080D03*
%TD*%
D19*
%TO.P,R15,1*%
%TO.N,3.3V*%
X58960245Y-167313314D03*
%TO.P,R15,2*%
%TO.N,Net-(D31-A)*%
X57681167Y-168850832D03*
%TD*%
D20*
%TO.P,R13,1*%
%TO.N,3.3V*%
X50015707Y-148927613D03*
%TO.P,R13,2*%
%TO.N,Net-(D29-A)*%
X51591729Y-147696291D03*
%TD*%
D21*
%TO.P,U4,1,CH0*%
%TO.N,Ch25*%
X103690000Y-34997200D03*
%TO.P,U4,2,CH1*%
%TO.N,Ch26*%
X104960000Y-34997200D03*
%TO.P,U4,3,CH2*%
%TO.N,Ch27*%
X106230000Y-34997200D03*
%TO.P,U4,4,CH3*%
%TO.N,Ch28*%
X107500000Y-34997200D03*
%TO.P,U4,5,CH4*%
%TO.N,Ch29*%
X108770000Y-34997200D03*
%TO.P,U4,6,CH5*%
%TO.N,Ch30*%
X110040000Y-34997200D03*
%TO.P,U4,7,CH6*%
%TO.N,Ch31*%
X111310000Y-34997200D03*
%TO.P,U4,8,CH7*%
%TO.N,Ch32*%
X112580000Y-34997200D03*
%TO.P,U4,9,DGND*%
%TO.N,GND*%
X112580000Y-39620000D03*
%TO.P,U4,10,~{CS}/SHDN*%
%TO.N,CS4*%
X111310000Y-39620000D03*
%TO.P,U4,11,Din*%
%TO.N,MOSI*%
X110040000Y-39620000D03*
%TO.P,U4,12,Dout*%
%TO.N,MISO*%
X108770000Y-39620000D03*
%TO.P,U4,13,CLK*%
%TO.N,SCK1*%
X107500000Y-39620000D03*
%TO.P,U4,14,AGND*%
%TO.N,GND*%
X106230000Y-39620000D03*
%TO.P,U4,15,Vref*%
%TO.N,3.3V*%
X104960000Y-39620000D03*
%TO.P,U4,16,Vdd*%
X103690000Y-39620000D03*
%TD*%
D22*
%TO.P,D41,1,K*%
%TO.N,Ch26*%
X169592816Y-58640666D03*
%TO.P,D41,2,A*%
%TO.N,3.3V*%
X167977394Y-59902772D03*
%TD*%
D23*
%TO.P,R6,1*%
%TO.N,3.3V*%
X17269925Y-80963458D03*
%TO.P,R6,2*%
%TO.N,Net-(D22-A)*%
X15295231Y-80646312D03*
%TD*%
D22*
%TO.P,D43,1,K*%
%TO.N,Ch29*%
X146776339Y-29436906D03*
%TO.P,D43,2,A*%
%TO.N,3.3V*%
X145160917Y-30699012D03*
%TD*%
D24*
%TO.P,R56,1*%
%TO.N,Ch25*%
X178780000Y-70270000D03*
%TO.P,R56,2*%
%TO.N,GND*%
X177869984Y-72050974D03*
%TD*%
D25*
%TO.P,R23,1*%
%TO.N,Ch8*%
X73475390Y-176102390D03*
%TO.P,R23,2*%
%TO.N,GND*%
X72800244Y-177984988D03*
%TD*%
D26*
%TO.P,D77,1,K*%
%TO.N,GND*%
X181070000Y-70475000D03*
%TO.P,D77,2,A*%
%TO.N,Net-(D77-A)*%
X181070000Y-72525000D03*
%TD*%
D27*
%TO.P,D15,1,K*%
%TO.N,Ch9*%
X88227776Y-179939544D03*
%TO.P,D15,2,A*%
%TO.N,3.3V*%
X87885274Y-181960730D03*
%TD*%
D28*
%TO.P,R47,1*%
%TO.N,3.3V*%
X189121593Y-91627587D03*
%TO.P,R47,2*%
%TO.N,Net-(D63-A)*%
X191120347Y-91557011D03*
%TD*%
D29*
%TO.P,D17,1,K*%
%TO.N,Ch12*%
X124545553Y-178343761D03*
%TO.P,D17,2,A*%
%TO.N,3.3V*%
X125064011Y-180327117D03*
%TD*%
D30*
%TO.P,R97,1*%
%TO.N,3.3V*%
X24350000Y-75650000D03*
%TO.P,R97,2*%
%TO.N,CS1*%
X26350000Y-75650000D03*
%TD*%
D31*
%TO.P,D12,1,K*%
%TO.N,Ch11*%
X112555394Y-180588746D03*
%TO.P,D12,2,A*%
%TO.N,3.3V*%
X112789610Y-182625322D03*
%TD*%
D30*
%TO.P,R98,1*%
%TO.N,3.3V*%
X24350000Y-78600000D03*
%TO.P,R98,2*%
%TO.N,CS2*%
X26350000Y-78600000D03*
%TD*%
D32*
%TO.P,R76,1*%
%TO.N,3.3V*%
X89592536Y-29250948D03*
%TO.P,R76,2*%
%TO.N,Net-(D92-A)*%
X89544004Y-31250360D03*
%TD*%
D33*
%TO.P,R78,1*%
%TO.N,3.3V*%
X69811258Y-17978737D03*
%TO.P,R78,2*%
%TO.N,Net-(D94-A)*%
X68115862Y-19039695D03*
%TD*%
D34*
%TO.P,R72,1*%
%TO.N,3.3V*%
X134735302Y-19181928D03*
%TO.P,R72,2*%
%TO.N,Net-(D88-A)*%
X136363732Y-20343056D03*
%TD*%
D35*
%TO.P,R21,1*%
%TO.N,Ch6*%
X60702732Y-163073865D03*
%TO.P,R21,2*%
%TO.N,GND*%
X62697268Y-162926135D03*
%TD*%
D36*
%TO.P,D22,1,K*%
%TO.N,GND*%
X19222059Y-72020468D03*
%TO.P,D22,2,A*%
%TO.N,Net-(D22-A)*%
X17243689Y-71483294D03*
%TD*%
D15*
%TO.P,D82,1,K*%
%TO.N,Ch42*%
X38632582Y-54961517D03*
%TO.P,D82,2,A*%
%TO.N,3.3V*%
X40248004Y-56223623D03*
%TD*%
D37*
%TO.P,R16,1*%
%TO.N,3.3V*%
X67805224Y-173840067D03*
%TO.P,R16,2*%
%TO.N,Net-(D32-A)*%
X66998976Y-175670357D03*
%TD*%
D38*
%TO.P,D25,1,K*%
%TO.N,GND*%
X17283231Y-108321548D03*
%TO.P,D25,2,A*%
%TO.N,Net-(D25-A)*%
X15258899Y-108644938D03*
%TD*%
D20*
%TO.P,R19,1*%
%TO.N,Ch4*%
X46212961Y-144060320D03*
%TO.P,R19,2*%
%TO.N,GND*%
X47788983Y-142828998D03*
%TD*%
D39*
%TO.P,D67,1,K*%
%TO.N,Ch38*%
X62384048Y-18165117D03*
%TO.P,D67,2,A*%
%TO.N,3.3V*%
X61428888Y-16351235D03*
%TD*%
D40*
%TO.P,R90,1*%
%TO.N,Ch48*%
X17793265Y-111331187D03*
%TO.P,R90,2*%
%TO.N,GND*%
X15830671Y-111716185D03*
%TD*%
D41*
%TO.P,D95,1,K*%
%TO.N,GND*%
X68097569Y-16615982D03*
%TO.P,D95,2,A*%
%TO.N,Net-(D95-A)*%
X66812207Y-15019002D03*
%TD*%
D18*
%TO.P,D30,1,K*%
%TO.N,GND*%
X51897381Y-151376652D03*
%TO.P,D30,2,A*%
%TO.N,Net-(D30-A)*%
X53512803Y-150114546D03*
%TD*%
D42*
%TO.P,D54,1,K*%
%TO.N,GND*%
X130392062Y-176592855D03*
%TO.P,D54,2,A*%
%TO.N,Net-(D54-A)*%
X131049122Y-178534703D03*
%TD*%
D43*
%TO.P,R8,1*%
%TO.N,3.3V*%
X16830221Y-105302800D03*
%TO.P,R8,2*%
%TO.N,Net-(D24-A)*%
X14845359Y-105548414D03*
%TD*%
D15*
%TO.P,D83,1,K*%
%TO.N,Ch41*%
X46238074Y-45226930D03*
%TO.P,D83,2,A*%
%TO.N,3.3V*%
X47853496Y-46489036D03*
%TD*%
D21*
%TO.P,U1,1,CH0*%
%TO.N,Ch1*%
X34715000Y-108838600D03*
%TO.P,U1,2,CH1*%
%TO.N,Ch2*%
X35985000Y-108838600D03*
%TO.P,U1,3,CH2*%
%TO.N,Ch3*%
X37255000Y-108838600D03*
%TO.P,U1,4,CH3*%
%TO.N,Ch4*%
X38525000Y-108838600D03*
%TO.P,U1,5,CH4*%
%TO.N,Ch5*%
X39795000Y-108838600D03*
%TO.P,U1,6,CH5*%
%TO.N,Ch6*%
X41065000Y-108838600D03*
%TO.P,U1,7,CH6*%
%TO.N,Ch7*%
X42335000Y-108838600D03*
%TO.P,U1,8,CH7*%
%TO.N,Ch8*%
X43605000Y-108838600D03*
%TO.P,U1,9,DGND*%
%TO.N,GND*%
X43605000Y-113461400D03*
%TO.P,U1,10,~{CS}/SHDN*%
%TO.N,CS1*%
X42335000Y-113461400D03*
%TO.P,U1,11,Din*%
%TO.N,MOSI*%
X41065000Y-113461400D03*
%TO.P,U1,12,Dout*%
%TO.N,MISO*%
X39795000Y-113461400D03*
%TO.P,U1,13,CLK*%
%TO.N,SCK1*%
X38525000Y-113461400D03*
%TO.P,U1,14,AGND*%
%TO.N,GND*%
X37255000Y-113461400D03*
%TO.P,U1,15,Vref*%
%TO.N,3.3V*%
X35985000Y-113461400D03*
%TO.P,U1,16,Vdd*%
X34715000Y-113461400D03*
%TD*%
D44*
%TO.P,D58,1,K*%
%TO.N,GND*%
X158184578Y-145321214D03*
%TO.P,D58,2,A*%
%TO.N,Net-(D58-A)*%
X156569156Y-144059108D03*
%TD*%
D45*
%TO.P,D78,1,K*%
%TO.N,Ch45*%
X17831675Y-77963041D03*
%TO.P,D78,2,A*%
%TO.N,3.3V*%
X15820345Y-77566745D03*
%TD*%
D46*
%TO.P,D93,1,K*%
%TO.N,GND*%
X86644119Y-28971777D03*
%TO.P,D93,2,A*%
%TO.N,Net-(D93-A)*%
X86342457Y-30999461D03*
%TD*%
D12*
%TO.P,R69,1*%
%TO.N,3.3V*%
X152460759Y-36753238D03*
%TO.P,R69,2*%
%TO.N,Net-(D85-A)*%
X150884737Y-37984560D03*
%TD*%
D47*
%TO.P,R35,1*%
%TO.N,3.3V*%
X103420729Y-181176789D03*
%TO.P,R35,2*%
%TO.N,Net-(D51-A)*%
X103437961Y-183176715D03*
%TD*%
D22*
%TO.P,D86,1,K*%
%TO.N,GND*%
X150579085Y-34304200D03*
%TO.P,D86,2,A*%
%TO.N,Net-(D86-A)*%
X148963663Y-35566306D03*
%TD*%
D48*
%TO.P,R61,1*%
%TO.N,Ch21*%
X187831980Y-109866119D03*
%TO.P,R61,2*%
%TO.N,GND*%
X189800916Y-110217243D03*
%TD*%
D20*
%TO.P,R14,1*%
%TO.N,3.3V*%
X57621200Y-158662199D03*
%TO.P,R14,2*%
%TO.N,Net-(D30-A)*%
X59197222Y-157430877D03*
%TD*%
D49*
%TO.P,R22,1*%
%TO.N,Ch7*%
X62308745Y-171183450D03*
%TO.P,R22,2*%
%TO.N,GND*%
X61375411Y-172952316D03*
%TD*%
D50*
%TO.P,U3,1,CH0*%
%TO.N,Ch17*%
X104710000Y-172920000D03*
%TO.P,U3,2,CH1*%
%TO.N,Ch18*%
X104710000Y-171650000D03*
%TO.P,U3,3,CH2*%
%TO.N,Ch19*%
X104710000Y-170380000D03*
%TO.P,U3,4,CH3*%
%TO.N,Ch20*%
X104710000Y-169110000D03*
%TO.P,U3,5,CH4*%
%TO.N,Ch21*%
X104710000Y-167840000D03*
%TO.P,U3,6,CH5*%
%TO.N,Ch22*%
X104710000Y-166570000D03*
%TO.P,U3,7,CH6*%
%TO.N,Ch23*%
X104710000Y-165300000D03*
%TO.P,U3,8,CH7*%
%TO.N,Ch24*%
X104710000Y-164030000D03*
%TO.P,U3,9,DGND*%
%TO.N,GND*%
X109332800Y-164030000D03*
%TO.P,U3,10,~{CS}/SHDN*%
%TO.N,CS3*%
X109332800Y-165300000D03*
%TO.P,U3,11,Din*%
%TO.N,MOSI*%
X109332800Y-166570000D03*
%TO.P,U3,12,Dout*%
%TO.N,MISO*%
X109332800Y-167840000D03*
%TO.P,U3,13,CLK*%
%TO.N,SCK1*%
X109332800Y-169110000D03*
%TO.P,U3,14,AGND*%
%TO.N,GND*%
X109332800Y-170380000D03*
%TO.P,U3,15,Vref*%
%TO.N,3.3V*%
X109332800Y-171650000D03*
%TO.P,U3,16,Vdd*%
X109332800Y-172920000D03*
%TD*%
D51*
%TO.P,R25,1*%
%TO.N,Ch15*%
X144820065Y-161995755D03*
%TO.P,R25,2*%
%TO.N,GND*%
X143019935Y-161124245D03*
%TD*%
D20*
%TO.P,R20,1*%
%TO.N,Ch5*%
X53818454Y-153794906D03*
%TO.P,R20,2*%
%TO.N,GND*%
X55394476Y-152563584D03*
%TD*%
D52*
%TO.P,R87,1*%
%TO.N,Ch33*%
X120203326Y-28725980D03*
%TO.P,R87,2*%
%TO.N,GND*%
X120621914Y-30681686D03*
%TD*%
D53*
%TO.P,D65,1,K*%
%TO.N,Ch39*%
X60909363Y-26145672D03*
%TO.P,D65,2,A*%
%TO.N,3.3V*%
X62956179Y-26259870D03*
%TD*%
D54*
%TO.P,D8,1,K*%
%TO.N,Ch1*%
X25220000Y-118240000D03*
%TO.P,D8,2,A*%
%TO.N,3.3V*%
X25378170Y-116196112D03*
%TD*%
D55*
%TO.P,D70,1,K*%
%TO.N,Ch47*%
X16533733Y-102264684D03*
%TO.P,D70,2,A*%
%TO.N,3.3V*%
X14491633Y-102444488D03*
%TD*%
D56*
%TO.P,D96,1,K*%
%TO.N,GND*%
X57658995Y-20402017D03*
%TO.P,D96,2,A*%
%TO.N,Net-(D96-A)*%
X58892065Y-22039711D03*
%TD*%
D57*
%TO.P,R55,1*%
%TO.N,Ch22*%
X189121593Y-97732413D03*
%TO.P,R55,2*%
%TO.N,GND*%
X191120347Y-97802989D03*
%TD*%
D58*
%TO.P,R70,1*%
%TO.N,3.3V*%
X145042040Y-27148263D03*
%TO.P,R70,2*%
%TO.N,Net-(D86-A)*%
X143241910Y-28019773D03*
%TD*%
D59*
%TO.P,D87,1,K*%
%TO.N,GND*%
X144782576Y-24663606D03*
%TO.P,D87,2,A*%
%TO.N,Net-(D87-A)*%
X142837424Y-24016394D03*
%TD*%
D60*
%TO.P,R37,1*%
%TO.N,3.3V*%
X127491432Y-177543851D03*
%TO.P,R37,2*%
%TO.N,Net-(D53-A)*%
X128065212Y-179459779D03*
%TD*%
D61*
%TO.P,R94,1*%
%TO.N,Ch44*%
X25314714Y-71074550D03*
%TO.P,R94,2*%
%TO.N,GND*%
X25505286Y-73065450D03*
%TD*%
D62*
%TO.P,R32,1*%
%TO.N,Ch12*%
X121585070Y-179087801D03*
%TO.P,R32,2*%
%TO.N,GND*%
X122022286Y-181039427D03*
%TD*%
D63*
%TO.P,D21,1,K*%
%TO.N,GND*%
X27247755Y-69529556D03*
%TO.P,D21,2,A*%
%TO.N,Net-(D21-A)*%
X28811351Y-70855326D03*
%TD*%
D64*
%TO.P,R85,1*%
%TO.N,Ch37*%
X73542322Y-22568293D03*
%TO.P,R85,2*%
%TO.N,GND*%
X72157550Y-24011347D03*
%TD*%
D15*
%TO.P,D79,1,K*%
%TO.N,Ch43*%
X31027089Y-64696103D03*
%TO.P,D79,2,A*%
%TO.N,3.3V*%
X32642511Y-65958209D03*
%TD*%
D12*
%TO.P,R59,1*%
%TO.N,Ch29*%
X148658012Y-31885945D03*
%TO.P,R59,2*%
%TO.N,GND*%
X147081990Y-33117267D03*
%TD*%
D65*
%TO.P,R28,1*%
%TO.N,Ch11*%
X109519670Y-180908805D03*
%TO.P,R28,2*%
%TO.N,GND*%
X109677918Y-182902535D03*
%TD*%
D66*
%TO.P,R24,1*%
%TO.N,Ch1*%
X23031983Y-119468271D03*
%TO.P,R24,2*%
%TO.N,GND*%
X21800661Y-117892249D03*
%TD*%
D67*
%TO.P,D56,1,K*%
%TO.N,GND*%
X144919394Y-164458250D03*
%TO.P,D56,2,A*%
%TO.N,Net-(D56-A)*%
X142974242Y-165105462D03*
%TD*%
D68*
%TO.P,D6,1,K*%
%TO.N,Ch7*%
X65044420Y-172537754D03*
%TO.P,D6,2,A*%
%TO.N,3.3V*%
X64152328Y-174383472D03*
%TD*%
D69*
%TO.P,D24,1,K*%
%TO.N,GND*%
X16213304Y-96170040D03*
%TO.P,D24,2,A*%
%TO.N,Net-(D24-A)*%
X14163608Y-96205364D03*
%TD*%
D18*
%TO.P,D31,1,K*%
%TO.N,GND*%
X59502873Y-161111238D03*
%TO.P,D31,2,A*%
%TO.N,Net-(D31-A)*%
X61118295Y-159849132D03*
%TD*%
D70*
%TO.P,D5,1,K*%
%TO.N,Ch6*%
X59887638Y-165431343D03*
%TO.P,D5,2,A*%
%TO.N,3.3V*%
X61458000Y-166749091D03*
%TD*%
D44*
%TO.P,D9,1,K*%
%TO.N,Ch15*%
X146776339Y-159923094D03*
%TO.P,D9,2,A*%
%TO.N,3.3V*%
X145160917Y-158660988D03*
%TD*%
D17*
%TO.P,R60,1*%
%TO.N,Ch19*%
X175277236Y-123403003D03*
%TO.P,R60,2*%
%TO.N,GND*%
X173701214Y-122171681D03*
%TD*%
D15*
%TO.P,D18,1,K*%
%TO.N,GND*%
X50040820Y-40359637D03*
%TO.P,D18,2,A*%
%TO.N,Net-(D18-A)*%
X51656242Y-41621743D03*
%TD*%
D71*
%TO.P,R44,1*%
%TO.N,3.3V*%
X179007271Y-119082970D03*
%TO.P,R44,2*%
%TO.N,Net-(D60-A)*%
X178097255Y-117301996D03*
%TD*%
D17*
%TO.P,R42,1*%
%TO.N,3.3V*%
X163868997Y-138004882D03*
%TO.P,R42,2*%
%TO.N,Net-(D58-A)*%
X162292975Y-136773560D03*
%TD*%
D72*
%TO.P,R82,1*%
%TO.N,Ch40*%
X55764640Y-33074089D03*
%TO.P,R82,2*%
%TO.N,GND*%
X57340662Y-34305411D03*
%TD*%
D26*
%TO.P,D68,1,K*%
%TO.N,Ch35*%
X92656552Y-29233022D03*
%TO.P,D68,2,A*%
%TO.N,3.3V*%
X92656552Y-31283022D03*
%TD*%
D73*
%TO.P,D81,1,K*%
%TO.N,Ch44*%
X23104733Y-69916842D03*
%TO.P,D81,2,A*%
%TO.N,3.3V*%
X21842627Y-71532264D03*
%TD*%
D74*
%TO.P,R39,1*%
%TO.N,3.3V*%
X146480657Y-166340404D03*
%TO.P,R39,2*%
%TO.N,Net-(D55-A)*%
X145249335Y-167916426D03*
%TD*%
D18*
%TO.P,D2,1,K*%
%TO.N,Ch3*%
X40489142Y-136774772D03*
%TO.P,D2,2,A*%
%TO.N,3.3V*%
X42104564Y-135512666D03*
%TD*%
D20*
%TO.P,R11,1*%
%TO.N,3.3V*%
X34804723Y-129458440D03*
%TO.P,R11,2*%
%TO.N,Net-(D27-A)*%
X36380745Y-128227118D03*
%TD*%
D75*
%TO.P,D35,1,K*%
%TO.N,Ch32*%
X128349271Y-25293796D03*
%TO.P,D35,2,A*%
%TO.N,3.3V*%
X129474631Y-27007292D03*
%TD*%
D76*
%TO.P,R73,1*%
%TO.N,3.3V*%
X125790736Y-26785435D03*
%TO.P,R73,2*%
%TO.N,Net-(D89-A)*%
X126674496Y-28579583D03*
%TD*%
D17*
%TO.P,R40,1*%
%TO.N,3.3V*%
X148658012Y-157474055D03*
%TO.P,R40,2*%
%TO.N,Net-(D56-A)*%
X147081990Y-156242733D03*
%TD*%
D44*
%TO.P,D59,1,K*%
%TO.N,GND*%
X165790070Y-135586628D03*
%TO.P,D59,2,A*%
%TO.N,Net-(D59-A)*%
X164174648Y-134324522D03*
%TD*%
%TO.P,D44,1,K*%
%TO.N,Ch19*%
X177198309Y-120984748D03*
%TO.P,D44,2,A*%
%TO.N,3.3V*%
X175582887Y-119722642D03*
%TD*%
D77*
%TO.P,R79,1*%
%TO.N,3.3V*%
X59696663Y-19612880D03*
%TO.P,R79,2*%
%TO.N,Net-(D95-A)*%
X58702933Y-17877224D03*
%TD*%
D44*
%TO.P,D47,1,K*%
%TO.N,Ch18*%
X169592816Y-130719334D03*
%TO.P,D47,2,A*%
%TO.N,3.3V*%
X167977394Y-129457228D03*
%TD*%
D78*
%TO.P,D48,1,K*%
%TO.N,Ch20*%
X185848480Y-118488398D03*
%TO.P,D48,2,A*%
%TO.N,3.3V*%
X187739606Y-119279688D03*
%TD*%
D79*
%TO.P,R31,1*%
%TO.N,Ch10*%
X97318076Y-181013935D03*
%TO.P,R31,2*%
%TO.N,GND*%
X97194206Y-183010095D03*
%TD*%
D15*
%TO.P,D19,1,K*%
%TO.N,GND*%
X42435328Y-50094224D03*
%TO.P,D19,2,A*%
%TO.N,Net-(D19-A)*%
X44050750Y-51356330D03*
%TD*%
D80*
%TO.P,R65,1*%
%TO.N,3.3V*%
X183334743Y-70367121D03*
%TO.P,R65,2*%
%TO.N,Net-(D75-A)*%
X184910765Y-69135799D03*
%TD*%
D81*
%TO.P,R52,1*%
%TO.N,Ch24*%
X186548790Y-73525437D03*
%TO.P,R52,2*%
%TO.N,GND*%
X188488058Y-73036315D03*
%TD*%
D44*
%TO.P,D60,1,K*%
%TO.N,GND*%
X173395563Y-125852041D03*
%TO.P,D60,2,A*%
%TO.N,Net-(D60-A)*%
X171780141Y-124589935D03*
%TD*%
D82*
%TO.P,R5,1*%
%TO.N,3.3V*%
X20095600Y-69932625D03*
%TO.P,R5,2*%
%TO.N,Net-(D21-A)*%
X19724400Y-67967375D03*
%TD*%
D83*
%TO.P,R83,1*%
%TO.N,Ch38*%
X65098340Y-16768451D03*
%TO.P,R83,2*%
%TO.N,GND*%
X64229504Y-14967027D03*
%TD*%
D84*
%TO.P,R50,1*%
%TO.N,Ch23*%
X188691007Y-85537966D03*
%TO.P,R50,2*%
%TO.N,GND*%
X190679805Y-85326590D03*
%TD*%
D85*
%TO.P,R10,1*%
%TO.N,3.3V*%
X27231141Y-119772962D03*
%TO.P,R10,2*%
%TO.N,Net-(D26-A)*%
X28732813Y-118451984D03*
%TD*%
D86*
%TO.P,R30,1*%
%TO.N,Ch9*%
X85223091Y-179401098D03*
%TO.P,R30,2*%
%TO.N,GND*%
X84819567Y-181359968D03*
%TD*%
D87*
%TO.P,D16,1,K*%
%TO.N,Ch10*%
X100368633Y-181124226D03*
%TO.P,D16,2,A*%
%TO.N,3.3V*%
X100313947Y-183173496D03*
%TD*%
D88*
%TO.P,D76,1,K*%
%TO.N,Ch46*%
X16323541Y-90067975D03*
%TO.P,D76,2,A*%
%TO.N,3.3V*%
X14276459Y-89958641D03*
%TD*%
D89*
%TO.P,D90,1,K*%
%TO.N,GND*%
X123048780Y-27904711D03*
%TO.P,D90,2,A*%
%TO.N,Net-(D90-A)*%
X123721350Y-29841241D03*
%TD*%
D90*
%TO.P,D63,1,K*%
%TO.N,GND*%
X188935101Y-100779260D03*
%TO.P,D63,2,A*%
%TO.N,Net-(D63-A)*%
X190979995Y-100923850D03*
%TD*%
D91*
%TO.P,D64,1,K*%
%TO.N,GND*%
X188935101Y-88580740D03*
%TO.P,D64,2,A*%
%TO.N,Net-(D64-A)*%
X190979995Y-88436150D03*
%TD*%
D26*
%TO.P,D72,1,K*%
%TO.N,Ch34*%
X105009919Y-29233022D03*
%TO.P,D72,2,A*%
%TO.N,3.3V*%
X105009919Y-31283022D03*
%TD*%
D92*
%TO.P,R36,1*%
%TO.N,3.3V*%
X115584519Y-180211318D03*
%TO.P,R36,2*%
%TO.N,Net-(D52-A)*%
X115882995Y-182188920D03*
%TD*%
D93*
%TO.P,D7,1,K*%
%TO.N,Ch8*%
X76374414Y-177058276D03*
%TO.P,D7,2,A*%
%TO.N,3.3V*%
X75750914Y-179011158D03*
%TD*%
D12*
%TO.P,R68,1*%
%TO.N,3.3V*%
X160066251Y-46487825D03*
%TO.P,R68,2*%
%TO.N,Net-(D84-A)*%
X158490229Y-47719147D03*
%TD*%
D94*
%TO.P,R77,1*%
%TO.N,3.3V*%
X78281714Y-26107081D03*
%TO.P,R77,2*%
%TO.N,Net-(D93-A)*%
X77291514Y-27844753D03*
%TD*%
D95*
%TO.P,D71,1,K*%
%TO.N,Ch33*%
X117270996Y-29141355D03*
%TO.P,D71,2,A*%
%TO.N,3.3V*%
X117450004Y-31183525D03*
%TD*%
D96*
%TO.P,D32,1,K*%
%TO.N,GND*%
X59646671Y-169689656D03*
%TO.P,D32,2,A*%
%TO.N,Net-(D32-A)*%
X58626619Y-171467856D03*
%TD*%
D97*
%TO.P,D55,1,K*%
%TO.N,GND*%
X141642484Y-171877780D03*
%TO.P,D55,2,A*%
%TO.N,Net-(D55-A)*%
X142566246Y-173707852D03*
%TD*%
D72*
%TO.P,R95,1*%
%TO.N,Ch42*%
X40553655Y-52543262D03*
%TO.P,R95,2*%
%TO.N,GND*%
X42129677Y-53774584D03*
%TD*%
D98*
%TO.P,R33,1*%
%TO.N,3.3V*%
X79291002Y-177959150D03*
%TO.P,R33,2*%
%TO.N,Net-(D49-A)*%
X78750320Y-179884680D03*
%TD*%
D30*
%TO.P,R99,1*%
%TO.N,3.3V*%
X24350000Y-81550000D03*
%TO.P,R99,2*%
%TO.N,CS3*%
X26350000Y-81550000D03*
%TD*%
D22*
%TO.P,D84,1,K*%
%TO.N,GND*%
X165790070Y-53773372D03*
%TO.P,D84,2,A*%
%TO.N,Net-(D84-A)*%
X164174648Y-55035478D03*
%TD*%
D30*
%TO.P,R101,1*%
%TO.N,3.3V*%
X24350000Y-87450000D03*
%TO.P,R101,2*%
%TO.N,CS5*%
X26350000Y-87450000D03*
%TD*%
D22*
%TO.P,D37,1,K*%
%TO.N,Ch27*%
X161987324Y-48906079D03*
%TO.P,D37,2,A*%
%TO.N,3.3V*%
X160371902Y-50168185D03*
%TD*%
D99*
%TO.P,D53,1,K*%
%TO.N,GND*%
X118590109Y-179677940D03*
%TO.P,D53,2,A*%
%TO.N,Net-(D53-A)*%
X118967385Y-181692924D03*
%TD*%
D100*
%TO.P,D23,1,K*%
%TO.N,GND*%
X16863895Y-83988882D03*
%TO.P,D23,2,A*%
%TO.N,Net-(D23-A)*%
X14829623Y-83735436D03*
%TD*%
D15*
%TO.P,D14,1,K*%
%TO.N,GND*%
X57646313Y-30625051D03*
%TO.P,D14,2,A*%
%TO.N,Net-(D14-A)*%
X59261735Y-31887157D03*
%TD*%
D44*
%TO.P,D10,1,K*%
%TO.N,Ch16*%
X154381832Y-150188507D03*
%TO.P,D10,2,A*%
%TO.N,3.3V*%
X152766410Y-148926401D03*
%TD*%
D72*
%TO.P,R1,1*%
%TO.N,3.3V*%
X51961893Y-37941383D03*
%TO.P,R1,2*%
%TO.N,Net-(D14-A)*%
X53537915Y-39172705D03*
%TD*%
D22*
%TO.P,D80,1,K*%
%TO.N,GND*%
X173395563Y-63507959D03*
%TO.P,D80,2,A*%
%TO.N,Net-(D80-A)*%
X171780141Y-64770065D03*
%TD*%
D72*
%TO.P,R4,1*%
%TO.N,3.3V*%
X29145416Y-67145142D03*
%TO.P,R4,2*%
%TO.N,Net-(D20-A)*%
X30721438Y-68376464D03*
%TD*%
D101*
%TO.P,D88,1,K*%
%TO.N,GND*%
X141642484Y-17482220D03*
%TO.P,D88,2,A*%
%TO.N,Net-(D88-A)*%
X142566246Y-15652148D03*
%TD*%
D102*
%TO.P,D52,1,K*%
%TO.N,GND*%
X106471468Y-181071643D03*
%TO.P,D52,2,A*%
%TO.N,Net-(D52-A)*%
X106561456Y-183119667D03*
%TD*%
D103*
%TO.P,R45,1*%
%TO.N,3.3V*%
X186548790Y-115834563D03*
%TO.P,R45,2*%
%TO.N,Net-(D61-A)*%
X188488058Y-116323685D03*
%TD*%
D72*
%TO.P,R96,1*%
%TO.N,Ch41*%
X48159147Y-42808676D03*
%TO.P,R96,2*%
%TO.N,GND*%
X49735169Y-44039998D03*
%TD*%
D104*
%TO.P,R7,1*%
%TO.N,3.3V*%
X16189578Y-93117584D03*
%TO.P,R7,2*%
%TO.N,Net-(D23-A)*%
X14189904Y-93081458D03*
%TD*%
D17*
%TO.P,R62,1*%
%TO.N,Ch17*%
X160066251Y-142872175D03*
%TO.P,R62,2*%
%TO.N,GND*%
X158490229Y-141640853D03*
%TD*%
%TO.P,R41,1*%
%TO.N,3.3V*%
X156263505Y-147739469D03*
%TO.P,R41,2*%
%TO.N,Net-(D57-A)*%
X154687483Y-146508147D03*
%TD*%
D105*
%TO.P,R9,1*%
%TO.N,3.3V*%
X19179106Y-117276633D03*
%TO.P,R9,2*%
%TO.N,Net-(D25-A)*%
X17248554Y-117799099D03*
%TD*%
D106*
%TO.P,R74,1*%
%TO.N,3.3V*%
X114274945Y-29258022D03*
%TO.P,R74,2*%
%TO.N,Net-(D90-A)*%
X114274945Y-31258022D03*
%TD*%
D107*
%TO.P,D89,1,K*%
%TO.N,GND*%
X132851144Y-21466889D03*
%TO.P,D89,2,A*%
%TO.N,Net-(D89-A)*%
X134361072Y-22853475D03*
%TD*%
D21*
%TO.P,U6,1,CH0*%
%TO.N,Ch41*%
X34400000Y-100170000D03*
%TO.P,U6,2,CH1*%
%TO.N,Ch42*%
X35670000Y-100170000D03*
%TO.P,U6,3,CH2*%
%TO.N,Ch43*%
X36940000Y-100170000D03*
%TO.P,U6,4,CH3*%
%TO.N,Ch44*%
X38210000Y-100170000D03*
%TO.P,U6,5,CH4*%
%TO.N,Ch45*%
X39480000Y-100170000D03*
%TO.P,U6,6,CH5*%
%TO.N,Ch46*%
X40750000Y-100170000D03*
%TO.P,U6,7,CH6*%
%TO.N,Ch47*%
X42020000Y-100170000D03*
%TO.P,U6,8,CH7*%
%TO.N,Ch48*%
X43290000Y-100170000D03*
%TO.P,U6,9,DGND*%
%TO.N,GND*%
X43290000Y-104792800D03*
%TO.P,U6,10,~{CS}/SHDN*%
%TO.N,CS6*%
X42020000Y-104792800D03*
%TO.P,U6,11,Din*%
%TO.N,MOSI*%
X40750000Y-104792800D03*
%TO.P,U6,12,Dout*%
%TO.N,MISO*%
X39480000Y-104792800D03*
%TO.P,U6,13,CLK*%
%TO.N,SCK1*%
X38210000Y-104792800D03*
%TO.P,U6,14,AGND*%
%TO.N,GND*%
X36940000Y-104792800D03*
%TO.P,U6,15,Vref*%
%TO.N,3.3V*%
X35670000Y-104792800D03*
%TO.P,U6,16,Vdd*%
X34400000Y-104792800D03*
%TD*%
D108*
%TO.P,R64,1*%
%TO.N,Ch20*%
X184646022Y-120881322D03*
%TO.P,R64,2*%
%TO.N,GND*%
X183070000Y-119650000D03*
%TD*%
D109*
%TO.P,R81,1*%
%TO.N,Ch39*%
X59871319Y-23871089D03*
%TO.P,R81,2*%
%TO.N,GND*%
X61379733Y-22557817D03*
%TD*%
D22*
%TO.P,D40,1,K*%
%TO.N,Ch25*%
X177198309Y-68375252D03*
%TO.P,D40,2,A*%
%TO.N,3.3V*%
X175582887Y-69637358D03*
%TD*%
D110*
%TO.P,D75,1,K*%
%TO.N,GND*%
X187218614Y-76503590D03*
%TO.P,D75,2,A*%
%TO.N,Net-(D75-A)*%
X189222816Y-76072696D03*
%TD*%
D111*
%TO.P,D74,1,K*%
%TO.N,Ch48*%
X18458065Y-114310463D03*
%TO.P,D74,2,A*%
%TO.N,3.3V*%
X16461585Y-114775831D03*
%TD*%
D112*
%TO.P,D33,1,K*%
%TO.N,Ch31*%
X136281490Y-16655983D03*
%TO.P,D33,2,A*%
%TO.N,3.3V*%
X138084450Y-17631603D03*
%TD*%
D72*
%TO.P,R2,1*%
%TO.N,3.3V*%
X44356401Y-47675969D03*
%TO.P,R2,2*%
%TO.N,Net-(D18-A)*%
X45932423Y-48907291D03*
%TD*%
D17*
%TO.P,R26,1*%
%TO.N,Ch16*%
X152460759Y-152606762D03*
%TO.P,R26,2*%
%TO.N,GND*%
X150884737Y-151375440D03*
%TD*%
D20*
%TO.P,R12,1*%
%TO.N,3.3V*%
X42410215Y-139193027D03*
%TO.P,R12,2*%
%TO.N,Net-(D28-A)*%
X43986237Y-137961705D03*
%TD*%
D18*
%TO.P,D3,1,K*%
%TO.N,Ch4*%
X48094634Y-146509358D03*
%TO.P,D3,2,A*%
%TO.N,3.3V*%
X49710056Y-145247252D03*
%TD*%
D21*
%TO.P,U5,1,CH0*%
%TO.N,Ch33*%
X90660000Y-34970000D03*
%TO.P,U5,2,CH1*%
%TO.N,Ch34*%
X91930000Y-34970000D03*
%TO.P,U5,3,CH2*%
%TO.N,Ch35*%
X93200000Y-34970000D03*
%TO.P,U5,4,CH3*%
%TO.N,Ch36*%
X94470000Y-34970000D03*
%TO.P,U5,5,CH4*%
%TO.N,Ch37*%
X95740000Y-34970000D03*
%TO.P,U5,6,CH5*%
%TO.N,Ch38*%
X97010000Y-34970000D03*
%TO.P,U5,7,CH6*%
%TO.N,Ch39*%
X98280000Y-34970000D03*
%TO.P,U5,8,CH7*%
%TO.N,Ch40*%
X99550000Y-34970000D03*
%TO.P,U5,9,DGND*%
%TO.N,GND*%
X99550000Y-39592800D03*
%TO.P,U5,10,~{CS}/SHDN*%
%TO.N,CS5*%
X98280000Y-39592800D03*
%TO.P,U5,11,Din*%
%TO.N,MOSI*%
X97010000Y-39592800D03*
%TO.P,U5,12,Dout*%
%TO.N,MISO*%
X95740000Y-39592800D03*
%TO.P,U5,13,CLK*%
%TO.N,SCK1*%
X94470000Y-39592800D03*
%TO.P,U5,14,AGND*%
%TO.N,GND*%
X93200000Y-39592800D03*
%TO.P,U5,15,Vref*%
%TO.N,3.3V*%
X91930000Y-39592800D03*
%TO.P,U5,16,Vdd*%
X90660000Y-39592800D03*
%TD*%
D113*
%TO.P,R92,1*%
%TO.N,Ch45*%
X18450082Y-74973789D03*
%TO.P,R92,2*%
%TO.N,GND*%
X16502674Y-74518155D03*
%TD*%
D114*
%TO.P,D61,1,K*%
%TO.N,GND*%
X182395556Y-117078866D03*
%TO.P,D61,2,A*%
%TO.N,Net-(D61-A)*%
X180436938Y-116473628D03*
%TD*%
D115*
%TO.P,R91,1*%
%TO.N,Ch46*%
X16515170Y-87021447D03*
%TO.P,R91,2*%
%TO.N,GND*%
X14523024Y-86844371D03*
%TD*%
D18*
%TO.P,D4,1,K*%
%TO.N,Ch5*%
X55700127Y-156243945D03*
%TO.P,D4,2,A*%
%TO.N,3.3V*%
X57315549Y-154981839D03*
%TD*%
D116*
%TO.P,D69,1,K*%
%TO.N,Ch37*%
X71554397Y-20373014D03*
%TO.P,D69,2,A*%
%TO.N,3.3V*%
X69963711Y-21666156D03*
%TD*%
D117*
%TO.P,R48,1*%
%TO.N,3.3V*%
X187831980Y-79493881D03*
%TO.P,R48,2*%
%TO.N,Net-(D64-A)*%
X189800916Y-79142757D03*
%TD*%
D118*
%TO.P,R34,1*%
%TO.N,3.3V*%
X91242109Y-180421054D03*
%TO.P,R34,2*%
%TO.N,Net-(D50-A)*%
X90977753Y-182403506D03*
%TD*%
D20*
%TO.P,R17,1*%
%TO.N,Ch2*%
X31001976Y-124591147D03*
%TO.P,R17,2*%
%TO.N,GND*%
X32577998Y-123359825D03*
%TD*%
D18*
%TO.P,D29,1,K*%
%TO.N,GND*%
X44291888Y-141642065D03*
%TO.P,D29,2,A*%
%TO.N,Net-(D29-A)*%
X45907310Y-140379959D03*
%TD*%
D44*
%TO.P,D57,1,K*%
%TO.N,GND*%
X150579085Y-155055800D03*
%TO.P,D57,2,A*%
%TO.N,Net-(D57-A)*%
X148963663Y-153793694D03*
%TD*%
D18*
%TO.P,D27,1,K*%
%TO.N,GND*%
X29080903Y-122172892D03*
%TO.P,D27,2,A*%
%TO.N,Net-(D27-A)*%
X30696325Y-120910786D03*
%TD*%
D106*
%TO.P,R84,1*%
%TO.N,Ch35*%
X95744894Y-29258022D03*
%TO.P,R84,2*%
%TO.N,GND*%
X95744894Y-31258022D03*
%TD*%
D50*
%TO.P,U2,1,CH0*%
%TO.N,Ch9*%
X92183700Y-172625000D03*
%TO.P,U2,2,CH1*%
%TO.N,Ch10*%
X92183700Y-171355000D03*
%TO.P,U2,3,CH2*%
%TO.N,Ch11*%
X92183700Y-170085000D03*
%TO.P,U2,4,CH3*%
%TO.N,Ch12*%
X92183700Y-168815000D03*
%TO.P,U2,5,CH4*%
%TO.N,Ch13*%
X92183700Y-167545000D03*
%TO.P,U2,6,CH5*%
%TO.N,Ch14*%
X92183700Y-166275000D03*
%TO.P,U2,7,CH6*%
%TO.N,Ch15*%
X92183700Y-165005000D03*
%TO.P,U2,8,CH7*%
%TO.N,Ch16*%
X92183700Y-163735000D03*
%TO.P,U2,9,DGND*%
%TO.N,GND*%
X96806500Y-163735000D03*
%TO.P,U2,10,~{CS}/SHDN*%
%TO.N,CS2*%
X96806500Y-165005000D03*
%TO.P,U2,11,Din*%
%TO.N,MOSI*%
X96806500Y-166275000D03*
%TO.P,U2,12,Dout*%
%TO.N,MISO*%
X96806500Y-167545000D03*
%TO.P,U2,13,CLK*%
%TO.N,SCK1*%
X96806500Y-168815000D03*
%TO.P,U2,14,AGND*%
%TO.N,GND*%
X96806500Y-170085000D03*
%TO.P,U2,15,Vref*%
%TO.N,3.3V*%
X96806500Y-171355000D03*
%TO.P,U2,16,Vdd*%
X96806500Y-172625000D03*
%TD*%
D18*
%TO.P,D28,1,K*%
%TO.N,GND*%
X36686396Y-131907479D03*
%TO.P,D28,2,A*%
%TO.N,Net-(D28-A)*%
X38301818Y-130645373D03*
%TD*%
D66*
%TO.P,R54,1*%
%TO.N,Ch30*%
X146480657Y-23019596D03*
%TO.P,R54,2*%
%TO.N,GND*%
X145249335Y-21443574D03*
%TD*%
D30*
%TO.P,R100,1*%
%TO.N,3.3V*%
X24350000Y-84500000D03*
%TO.P,R100,2*%
%TO.N,CS4*%
X26350000Y-84500000D03*
%TD*%
D119*
%TO.P,R27,1*%
%TO.N,Ch14*%
X144354415Y-170476537D03*
%TO.P,R27,2*%
%TO.N,GND*%
X145318091Y-172229059D03*
%TD*%
D26*
%TO.P,D91,1,K*%
%TO.N,GND*%
X111186603Y-29233022D03*
%TO.P,D91,2,A*%
%TO.N,Net-(D91-A)*%
X111186603Y-31283022D03*
%TD*%
D120*
%TO.P,D94,1,K*%
%TO.N,GND*%
X75817646Y-24464075D03*
%TO.P,D94,2,A*%
%TO.N,Net-(D94-A)*%
X74591144Y-26106693D03*
%TD*%
D121*
%TO.P,R29,1*%
%TO.N,Ch13*%
X133274187Y-175587159D03*
%TO.P,R29,2*%
%TO.N,GND*%
X133981671Y-177457845D03*
%TD*%
D122*
%TO.P,R86,1*%
%TO.N,Ch47*%
X16294770Y-99221503D03*
%TO.P,R86,2*%
%TO.N,GND*%
X14297528Y-99326509D03*
%TD*%
D123*
%TO.P,R51,1*%
%TO.N,Ch32*%
X130734630Y-23538473D03*
%TO.P,R51,2*%
%TO.N,GND*%
X132029988Y-25062299D03*
%TD*%
D124*
%TO.P,D34,1,K*%
%TO.N,Ch23*%
X188290079Y-82511861D03*
%TO.P,D34,2,A*%
%TO.N,3.3V*%
X190319683Y-82223399D03*
%TD*%
D30*
%TO.P,R102,1*%
%TO.N,3.3V*%
X24350000Y-90400000D03*
%TO.P,R102,2*%
%TO.N,CS6*%
X26350000Y-90400000D03*
%TD*%
D125*
%TO.P,D13,1,K*%
%TO.N,Ch13*%
X136100518Y-174433944D03*
%TO.P,D13,2,A*%
%TO.N,3.3V*%
X136892902Y-176324612D03*
%TD*%
D126*
%TO.P,R89,1*%
%TO.N,Ch36*%
X83742125Y-28380573D03*
%TO.P,R89,2*%
%TO.N,GND*%
X83206525Y-30307523D03*
%TD*%
D72*
%TO.P,R93,1*%
%TO.N,Ch43*%
X32948162Y-62277849D03*
%TO.P,R93,2*%
%TO.N,GND*%
X34524184Y-63509171D03*
%TD*%
D127*
%TO.P,R38,1*%
%TO.N,3.3V*%
X138904529Y-173227470D03*
%TO.P,R38,2*%
%TO.N,Net-(D54-A)*%
X139742195Y-175043596D03*
%TD*%
D44*
%TO.P,D46,1,K*%
%TO.N,Ch17*%
X161987324Y-140453921D03*
%TO.P,D46,2,A*%
%TO.N,3.3V*%
X160371902Y-139191815D03*
%TD*%
D20*
%TO.P,R18,1*%
%TO.N,Ch3*%
X38607469Y-134325733D03*
%TO.P,R18,2*%
%TO.N,GND*%
X40183491Y-133094411D03*
%TD*%
D22*
%TO.P,D42,1,K*%
%TO.N,Ch28*%
X154381832Y-39171493D03*
%TO.P,D42,2,A*%
%TO.N,3.3V*%
X152766410Y-40433599D03*
%TD*%
D128*
%TO.P,D45,1,K*%
%TO.N,Ch21*%
X188290079Y-106848139D03*
%TO.P,D45,2,A*%
%TO.N,3.3V*%
X190319683Y-107136601D03*
%TD*%
D129*
%TO.P,D50,1,K*%
%TO.N,GND*%
X82250226Y-178708181D03*
%TO.P,D50,2,A*%
%TO.N,Net-(D50-A)*%
X81766020Y-180700177D03*
%TD*%
D26*
%TO.P,D92,1,K*%
%TO.N,GND*%
X98833236Y-29233022D03*
%TO.P,D92,2,A*%
%TO.N,Net-(D92-A)*%
X98833236Y-31283022D03*
%TD*%
D130*
%TO.P,R46,1*%
%TO.N,3.3V*%
X188691007Y-103822034D03*
%TO.P,R46,2*%
%TO.N,Net-(D62-A)*%
X190679805Y-104033410D03*
%TD*%
D131*
%TO.P,R71,1*%
%TO.N,3.3V*%
X144354415Y-18883463D03*
%TO.P,R71,2*%
%TO.N,Net-(D87-A)*%
X145318091Y-17130941D03*
%TD*%
D106*
%TO.P,R75,1*%
%TO.N,3.3V*%
X101921578Y-29258022D03*
%TO.P,R75,2*%
%TO.N,Net-(D91-A)*%
X101921578Y-31258022D03*
%TD*%
D12*
%TO.P,R53,1*%
%TO.N,Ch27*%
X163868997Y-51355118D03*
%TO.P,R53,2*%
%TO.N,GND*%
X162292975Y-52586440D03*
%TD*%
D132*
%TO.P,R49,1*%
%TO.N,Ch31*%
X140291593Y-15437278D03*
%TO.P,R49,2*%
%TO.N,GND*%
X138317341Y-15117388D03*
%TD*%
D133*
%TO.P,D38,1,K*%
%TO.N,Ch30*%
X147641943Y-20749845D03*
%TO.P,D38,2,A*%
%TO.N,3.3V*%
X146920179Y-18831107D03*
%TD*%
D12*
%TO.P,R57,1*%
%TO.N,Ch26*%
X171474490Y-61089704D03*
%TO.P,R57,2*%
%TO.N,GND*%
X169898468Y-62321026D03*
%TD*%
D134*
%TO.P,D62,1,K*%
%TO.N,GND*%
X187218614Y-112856410D03*
%TO.P,D62,2,A*%
%TO.N,Net-(D62-A)*%
X189222816Y-113287304D03*
%TD*%
D22*
%TO.P,D85,1,K*%
%TO.N,GND*%
X158184578Y-44038786D03*
%TO.P,D85,2,A*%
%TO.N,Net-(D85-A)*%
X156569156Y-45300892D03*
%TD*%
D135*
%TO.P,D11,1,K*%
%TO.N,Ch14*%
X146920179Y-170528893D03*
%TO.P,D11,2,A*%
%TO.N,3.3V*%
X147641943Y-168610155D03*
%TD*%
D136*
%TO.P,D49,1,K*%
%TO.N,GND*%
X70629607Y-174998046D03*
%TO.P,D49,2,A*%
%TO.N,Net-(D49-A)*%
X69869919Y-176902088D03*
%TD*%
D72*
%TO.P,R80,1*%
%TO.N,3.3V*%
X59567386Y-28206796D03*
%TO.P,R80,2*%
%TO.N,Net-(D96-A)*%
X61143408Y-29438118D03*
%TD*%
D15*
%TO.P,D20,1,K*%
%TO.N,GND*%
X34829835Y-59828810D03*
%TO.P,D20,2,A*%
%TO.N,Net-(D20-A)*%
X36445257Y-61090916D03*
%TD*%
D106*
%TO.P,R88,1*%
%TO.N,Ch34*%
X108098261Y-29258022D03*
%TO.P,R88,2*%
%TO.N,GND*%
X108098261Y-31258022D03*
%TD*%
D72*
%TO.P,R3,1*%
%TO.N,3.3V*%
X36750909Y-57410555D03*
%TO.P,R3,2*%
%TO.N,Net-(D19-A)*%
X38326931Y-58641877D03*
%TD*%
D137*
%TO.P,D39,1,K*%
%TO.N,Ch22*%
X189150466Y-94680000D03*
%TO.P,D39,2,A*%
%TO.N,3.3V*%
X191200466Y-94680000D03*
%TD*%
D138*
%TO.P,D73,1,K*%
%TO.N,Ch36*%
X80951291Y-27389443D03*
%TO.P,D73,2,A*%
%TO.N,3.3V*%
X80163325Y-29281957D03*
%TD*%
D139*
%TO.N,GND*%
X141530000Y-17550000D03*
X123000000Y-27930000D03*
X96660000Y-170090000D03*
X109332800Y-170234000D03*
X32160000Y-114340000D03*
X141570000Y-171900000D03*
X187340000Y-76560000D03*
X16370000Y-74420000D03*
X150610000Y-34340000D03*
X173380000Y-125870000D03*
X82320000Y-178730000D03*
X47874439Y-142743542D03*
X99550000Y-39592800D03*
X130390000Y-176590000D03*
X158230000Y-43970000D03*
X34470000Y-63470000D03*
X188920000Y-88620000D03*
X42480000Y-50170000D03*
X75840000Y-24470000D03*
X144960000Y-164480000D03*
X68050000Y-16660000D03*
X55320000Y-152540000D03*
X132820000Y-21540000D03*
X162260000Y-52630000D03*
X106230000Y-39620000D03*
X150530000Y-155000000D03*
X144730000Y-24680000D03*
X50100000Y-40470000D03*
X182320000Y-117130000D03*
X188920000Y-100860000D03*
X86590000Y-28900000D03*
X40140000Y-133200000D03*
X181260000Y-70540000D03*
X16920000Y-84180000D03*
X94330000Y-180910000D03*
X17340000Y-108300000D03*
X98850000Y-29230000D03*
X106471468Y-181071643D03*
X165830000Y-135560000D03*
X34840000Y-59790000D03*
X61380000Y-22520000D03*
X169890000Y-62320000D03*
X21730000Y-117920000D03*
X94360000Y-174490000D03*
X111240000Y-29250000D03*
X158220000Y-145350000D03*
X59780000Y-169620000D03*
X16160000Y-96150000D03*
X96820000Y-163720000D03*
X118530000Y-179710000D03*
X59540000Y-161060000D03*
X70660000Y-175030000D03*
X187230000Y-112770000D03*
X32670000Y-123420000D03*
X57550000Y-30660000D03*
X112540000Y-39730000D03*
%TO.N,Ch40*%
X53890000Y-35470000D03*
X99520000Y-35100000D03*
%TO.N,3.3V*%
X109332800Y-172290000D03*
X87970000Y-181930000D03*
X104960000Y-39620000D03*
X35020000Y-104660000D03*
X96806500Y-171355000D03*
X34690000Y-113370000D03*
X101140000Y-37150000D03*
%TO.N,Ch36*%
X94470000Y-34970000D03*
X83770000Y-28420000D03*
%TO.N,Ch39*%
X98390000Y-35190000D03*
X61020000Y-26090000D03*
%TO.N,Ch35*%
X92780000Y-29320000D03*
X93170000Y-34820000D03*
%TO.N,Ch38*%
X65080000Y-16770000D03*
X97010000Y-34970000D03*
%TO.N,Ch34*%
X105080000Y-29270000D03*
X97170000Y-33370000D03*
%TO.N,Ch33*%
X117310000Y-29160000D03*
X99440000Y-32730000D03*
%TO.N,Ch37*%
X73410000Y-22680000D03*
X95740000Y-34970000D03*
%TO.N,Ch32*%
X128470000Y-25230000D03*
X112580000Y-34997200D03*
%TO.N,Ch28*%
X113740000Y-34070000D03*
X154510000Y-39280000D03*
%TO.N,Ch31*%
X140280000Y-15460000D03*
X111390000Y-35010000D03*
%TO.N,Ch27*%
X161937240Y-48878055D03*
X106230000Y-34565000D03*
%TO.N,Ch30*%
X146420000Y-23040000D03*
X110040000Y-34997200D03*
%TO.N,Ch26*%
X105000000Y-35010000D03*
X169720000Y-58590000D03*
%TO.N,Ch25*%
X177207131Y-68383151D03*
X103690000Y-34997200D03*
%TO.N,Ch29*%
X113180000Y-32970000D03*
X146710000Y-29260000D03*
%TO.N,Ch16*%
X152490000Y-152550000D03*
X100011712Y-174368288D03*
%TO.N,Ch8*%
X43605000Y-108838600D03*
X73480000Y-176060000D03*
%TO.N,Ch4*%
X46167652Y-143723054D03*
X38490000Y-108838600D03*
%TO.N,Ch24*%
X104603747Y-164136253D03*
X186470000Y-73600000D03*
%TO.N,Ch12*%
X96645474Y-174253401D03*
X121640000Y-179080000D03*
%TO.N,Ch20*%
X104710000Y-169029200D03*
X184670000Y-120750000D03*
%TO.N,Ch7*%
X42369000Y-108838600D03*
X62290000Y-171200000D03*
X36530000Y-111206149D03*
%TO.N,Ch3*%
X37240000Y-124680000D03*
X38560000Y-134320000D03*
X39850000Y-120290000D03*
X37385000Y-108838600D03*
%TO.N,Ch15*%
X144800000Y-162030000D03*
X92183700Y-165151000D03*
%TO.N,Ch23*%
X188280000Y-82460000D03*
X104710000Y-165300000D03*
%TO.N,Ch11*%
X109530000Y-180970000D03*
X95710000Y-173900000D03*
%TO.N,Ch19*%
X175320000Y-123280000D03*
X111600000Y-170430000D03*
%TO.N,Ch6*%
X60860000Y-162990000D03*
X37140000Y-117060000D03*
%TO.N,Ch2*%
X32870000Y-127090000D03*
X35930000Y-108890000D03*
%TO.N,Ch14*%
X98860000Y-174230000D03*
X144410000Y-170510000D03*
%TO.N,Ch10*%
X92430000Y-171330000D03*
X97300000Y-180990000D03*
%TO.N,Ch22*%
X189240000Y-97700000D03*
X104710000Y-166424000D03*
%TO.N,Ch18*%
X167500000Y-133060000D03*
X112340000Y-173930000D03*
%TO.N,Ch1*%
X23100000Y-119420000D03*
X23170000Y-114640000D03*
%TO.N,Ch5*%
X54021790Y-153530500D03*
X39940000Y-108824271D03*
%TO.N,Ch9*%
X92183700Y-172625000D03*
X85120000Y-179410000D03*
%TO.N,Ch13*%
X97800000Y-174260000D03*
X133288161Y-175601133D03*
%TO.N,Ch17*%
X160090000Y-143000000D03*
X109500000Y-175740000D03*
%TO.N,Ch21*%
X104860000Y-167890000D03*
X188330000Y-106990000D03*
%TO.N,MOSI*%
X97190000Y-39592800D03*
X37900000Y-106720000D03*
X102170000Y-167149000D03*
X40740000Y-104850000D03*
%TO.N,MISO*%
X108740000Y-39550000D03*
X96806500Y-167545000D03*
X95740000Y-39592800D03*
X39835000Y-113461400D03*
X109332800Y-167593949D03*
X39480000Y-104792800D03*
X42710000Y-116140000D03*
%TO.N,SCK1*%
X107500000Y-39620000D03*
X109250000Y-169130000D03*
X94338747Y-39724053D03*
X96806500Y-168815000D03*
X38210000Y-104792800D03*
%TO.N,CS1*%
X42350000Y-113510000D03*
X26330000Y-75690000D03*
%TO.N,CS2*%
X90758767Y-164625518D03*
X26370000Y-78630000D03*
%TO.N,CS3*%
X96170000Y-178410000D03*
X26440000Y-81580000D03*
%TO.N,CS4*%
X111310000Y-39620000D03*
X26380000Y-84470000D03*
%TO.N,CS5*%
X98280000Y-39592800D03*
X26400000Y-87510000D03*
%TO.N,Ch48*%
X30330000Y-100470000D03*
X17840000Y-111310000D03*
%TO.N,Ch44*%
X25310000Y-71110000D03*
X38005000Y-96720000D03*
%TO.N,Ch47*%
X16350000Y-99290000D03*
X20730000Y-99080000D03*
%TO.N,Ch43*%
X32960000Y-62210000D03*
X36950000Y-100130000D03*
%TO.N,Ch46*%
X34370000Y-98540000D03*
X16330000Y-90110000D03*
%TO.N,Ch42*%
X38610000Y-54980000D03*
X35670000Y-100170000D03*
%TO.N,Ch41*%
X34440000Y-100190000D03*
X46230000Y-45210000D03*
%TO.N,Ch45*%
X17860000Y-78000000D03*
X35620000Y-97670000D03*
%TO.N,CS6*%
X26420000Y-90370000D03*
%TD*%
D140*
%TO.N,GND*%
X42129677Y-50399875D02*
X42435328Y-50094224D01*
X16672777Y-84180000D02*
X16920000Y-84180000D01*
X37930000Y-61039833D02*
X37520096Y-60629929D01*
X132851144Y-21466889D02*
X132851144Y-24241143D01*
X32160000Y-114340000D02*
X32150000Y-114340000D01*
X135817455Y-15622419D02*
X136273992Y-15486482D01*
X143586144Y-15158804D02*
X143735057Y-15611275D01*
X110496000Y-169801000D02*
X110496000Y-164756000D01*
X70660000Y-175030000D02*
X70660000Y-175028439D01*
X15830671Y-111716185D02*
X16835418Y-110711438D01*
X136273992Y-15486482D02*
X136467122Y-15486482D01*
X61379733Y-22557817D02*
X60956710Y-22557817D01*
X100240000Y-31836396D02*
X100240000Y-31094686D01*
X150579085Y-154950915D02*
X150579085Y-151681092D01*
X130390000Y-176590000D02*
X130389208Y-176590000D01*
X188317194Y-73207179D02*
X188317194Y-75405010D01*
X37873328Y-133094411D02*
X36686396Y-131907479D01*
X172208630Y-62321026D02*
X173395563Y-63507959D01*
X14297528Y-99326509D02*
X14297528Y-98085816D01*
X173701214Y-122171681D02*
X173395563Y-122477332D01*
X32160000Y-114350000D02*
X32160000Y-114340000D01*
X57611364Y-30660000D02*
X57646313Y-30625051D01*
X158184578Y-44038786D02*
X155874416Y-44038786D01*
X141620264Y-171900000D02*
X141642484Y-171877780D01*
X72800244Y-177168683D02*
X70661561Y-175030000D01*
X97194206Y-183010095D02*
X96541152Y-183010095D01*
X123023491Y-27930000D02*
X123048780Y-27904711D01*
X16900000Y-110615335D02*
X16900000Y-108704779D01*
X166095721Y-131906267D02*
X165527336Y-132474652D01*
X98891400Y-38350000D02*
X93858600Y-38350000D01*
X142362071Y-17482220D02*
X141642484Y-17482220D01*
X64939685Y-14967027D02*
X64229504Y-14967027D01*
X19222059Y-72020468D02*
X19000361Y-72020468D01*
X145249335Y-21443574D02*
X145249335Y-24196847D01*
X164603138Y-52586440D02*
X165790070Y-53773372D01*
X120621914Y-30331577D02*
X123000000Y-27953491D01*
X21800661Y-117892249D02*
X21546099Y-117892249D01*
X99550000Y-39592800D02*
X100700000Y-38442800D01*
X136288988Y-17825484D02*
X135298373Y-17289444D01*
X25505286Y-73065450D02*
X24889167Y-73065450D01*
X60882371Y-161111238D02*
X59502873Y-161111238D01*
X36415000Y-115250000D02*
X33060000Y-115250000D01*
X43605000Y-113461400D02*
X43605000Y-114045600D01*
X66588640Y-16615982D02*
X64939685Y-14967027D01*
X169897442Y-62321026D02*
X169890000Y-62320000D01*
X30267836Y-123359825D02*
X29080903Y-122172892D01*
X110063000Y-170234000D02*
X110496000Y-169801000D01*
X130390000Y-176590792D02*
X130390000Y-176590000D01*
X21546099Y-117892249D02*
X20032330Y-119406018D01*
X25505286Y-73065450D02*
X27949567Y-73065450D01*
X49735169Y-44039998D02*
X50040820Y-43734347D01*
X177869984Y-72050974D02*
X179494026Y-72050974D01*
X179494026Y-72050974D02*
X181070000Y-70475000D01*
X100240000Y-31094686D02*
X99528336Y-30383022D01*
X18826373Y-69397518D02*
X18826373Y-71624782D01*
X93200000Y-39008600D02*
X93200000Y-39592800D01*
X106230000Y-39620000D02*
X106230000Y-39147800D01*
X141397435Y-174297435D02*
X141397435Y-172122829D01*
X16920000Y-83932777D02*
X16863895Y-83988882D01*
X96619894Y-30383022D02*
X95744894Y-31258022D01*
X141921400Y-174821400D02*
X141397435Y-174297435D01*
X32150000Y-114340000D02*
X32145000Y-114335000D01*
X191120347Y-98594014D02*
X188935101Y-100779260D01*
X150530000Y-155000000D02*
X150579085Y-154950915D01*
X135298373Y-17289444D02*
X135162436Y-16832907D01*
X33060000Y-115250000D02*
X32160000Y-114350000D01*
X70660000Y-175028439D02*
X70629607Y-174998046D01*
X158184578Y-141946504D02*
X158184578Y-145321214D01*
X138317341Y-15925484D02*
X136972223Y-17270603D01*
X29559556Y-69529556D02*
X27247755Y-69529556D01*
X143019935Y-161330065D02*
X143019935Y-161124245D01*
X122022286Y-181039427D02*
X119951596Y-181039427D01*
X165527336Y-132474652D02*
X165527336Y-135323894D01*
X135675802Y-15884198D02*
X135817455Y-15622419D01*
X29942862Y-69912862D02*
X29559556Y-69529556D01*
X72800244Y-177984988D02*
X72800244Y-177168683D01*
X100415000Y-36849695D02*
X100700000Y-36564695D01*
X120621914Y-30681686D02*
X120621914Y-30331577D01*
X141397435Y-172122829D02*
X141570000Y-171950264D01*
X43029600Y-103629600D02*
X43290000Y-103890000D01*
X109770000Y-164030000D02*
X109332800Y-164030000D01*
X68097569Y-16615982D02*
X66588640Y-16615982D01*
X16900000Y-108704779D02*
X17283231Y-108321548D01*
X132851144Y-24241143D02*
X132029988Y-25062299D01*
X143735057Y-15611275D02*
X143227508Y-16616783D01*
X20572296Y-68748579D02*
X19219862Y-69004029D01*
X106230000Y-39147800D02*
X106921000Y-38456800D01*
X84819567Y-181359968D02*
X84819567Y-181277522D01*
X110496000Y-164756000D02*
X109770000Y-164030000D01*
X100415000Y-37450305D02*
X100415000Y-36849695D01*
X39105000Y-86520000D02*
X37930000Y-85345000D01*
X188935101Y-88580740D02*
X188935101Y-87071294D01*
X29942862Y-71072155D02*
X29942862Y-69912862D01*
X57340662Y-30930702D02*
X57550000Y-30721364D01*
X36632523Y-59936481D02*
X36159729Y-59994533D01*
X150579085Y-34304200D02*
X148268923Y-34304200D01*
X57550000Y-30721364D02*
X57550000Y-30660000D01*
X34524184Y-63509171D02*
X34524184Y-60134461D01*
X135162436Y-16397564D02*
X135675802Y-15884198D01*
X45393365Y-142743542D02*
X44291888Y-141642065D01*
X19219862Y-69004029D02*
X18826373Y-69397518D01*
X169890000Y-62320000D02*
X169899494Y-62321026D01*
X144919394Y-164813062D02*
X143476617Y-166255839D01*
X19000361Y-72020468D02*
X16370000Y-74420000D01*
X97769894Y-29233022D02*
X95744894Y-31258022D01*
X57550000Y-30660000D02*
X57611364Y-30660000D01*
X110123261Y-29233022D02*
X108098261Y-31258022D01*
X123000000Y-27953491D02*
X123000000Y-27930000D01*
X37930000Y-85345000D02*
X37930000Y-61039833D01*
X142357456Y-14538600D02*
X143586144Y-15158804D01*
X55394476Y-152563584D02*
X55250892Y-152420000D01*
X148268923Y-34304200D02*
X147081990Y-33117267D01*
X98833236Y-29233022D02*
X98830214Y-29233022D01*
X36159729Y-59994533D02*
X34524184Y-61630078D01*
X36940000Y-104792800D02*
X36940000Y-104208600D01*
X14523024Y-86329753D02*
X16672777Y-84180000D01*
X34524184Y-61630078D02*
X34524184Y-63509171D01*
X112001000Y-38456800D02*
X112580000Y-39035800D01*
X133981671Y-177457845D02*
X131257053Y-177457845D01*
X61146582Y-171189567D02*
X59646671Y-169689656D01*
X141570000Y-171950264D02*
X141570000Y-171900000D01*
X182395556Y-117078866D02*
X182395556Y-118975556D01*
X60956710Y-22557817D02*
X58800910Y-20402017D01*
X14297528Y-98085816D02*
X16213304Y-96170040D01*
X142965941Y-174821400D02*
X141921400Y-174821400D01*
X130389208Y-176590000D02*
X130392063Y-176592855D01*
X32577998Y-123359825D02*
X30267836Y-123359825D01*
X62697268Y-162926135D02*
X60882371Y-161111238D01*
X139717889Y-14340000D02*
X141680000Y-14340000D01*
X145318091Y-172229059D02*
X145318091Y-172469250D01*
X136745525Y-17689547D02*
X136288988Y-17825484D01*
X96541152Y-183010095D02*
X94277289Y-180746232D01*
X36839695Y-117785000D02*
X36415000Y-117360305D01*
X144919394Y-164458250D02*
X144919394Y-164813062D01*
X47874439Y-142743542D02*
X45393365Y-142743542D01*
X75817646Y-24464075D02*
X72610278Y-24464075D01*
X61146582Y-172723487D02*
X61146582Y-171189567D01*
X72610278Y-24464075D02*
X72157550Y-24011347D01*
X189619966Y-110217243D02*
X187218614Y-112618595D01*
X182395556Y-118975556D02*
X183070000Y-119650000D01*
X109677918Y-182902535D02*
X107847026Y-181071643D01*
X36660000Y-110034695D02*
X36660000Y-105072800D01*
X187218614Y-112618595D02*
X187218614Y-112856410D01*
X150579085Y-155049085D02*
X150530000Y-155000000D01*
X37520096Y-60629929D02*
X36632523Y-59936481D01*
X55250892Y-152420000D02*
X52940729Y-152420000D01*
X57340662Y-34305411D02*
X57340662Y-30930702D01*
X24889167Y-73065450D02*
X20572296Y-68748579D01*
X84819567Y-181277522D02*
X82250226Y-178708181D01*
X169898468Y-62321026D02*
X169897442Y-62321026D01*
X42129677Y-53774584D02*
X42129677Y-50399875D01*
X98836258Y-29233022D02*
X97769894Y-29233022D01*
X40183491Y-133094411D02*
X37873328Y-133094411D01*
X188317194Y-75405010D02*
X187218614Y-76503590D01*
X173395563Y-122477332D02*
X173395563Y-125852041D01*
X141680000Y-14340000D02*
X141997173Y-14657173D01*
X86644119Y-28971777D02*
X85308373Y-30307523D01*
X100700000Y-32296396D02*
X100240000Y-31836396D01*
X50040820Y-43734347D02*
X50040820Y-40359637D01*
X169899494Y-62321026D02*
X172208630Y-62321026D01*
X100700000Y-38442800D02*
X100700000Y-37735305D01*
X142550796Y-166255839D02*
X141903007Y-165608050D01*
X165527336Y-135323894D02*
X165790070Y-135586628D01*
X37255000Y-110629695D02*
X36660000Y-110034695D01*
X61375411Y-172952316D02*
X61146582Y-172723487D01*
X189800916Y-110217243D02*
X189619966Y-110217243D01*
X43290000Y-103890000D02*
X43290000Y-104792800D01*
X107847026Y-181071643D02*
X106471468Y-181071643D01*
X34524184Y-60134461D02*
X34829835Y-59828810D01*
X27949567Y-73065450D02*
X29942862Y-71072155D01*
X145249335Y-24196847D02*
X144782576Y-24663606D01*
X36415000Y-117360305D02*
X36415000Y-115250000D01*
X150579085Y-155055800D02*
X150579085Y-155049085D01*
X16920000Y-84180000D02*
X16920000Y-83932777D01*
X145318091Y-172469250D02*
X142965941Y-174821400D01*
X141997173Y-14657173D02*
X142357456Y-14538600D01*
X139317857Y-13785266D02*
X139717889Y-14340000D01*
X70661561Y-175030000D02*
X70660000Y-175030000D01*
X141903007Y-165608050D02*
X141903007Y-162446993D01*
X100700000Y-36564695D02*
X100700000Y-32296396D01*
X16370000Y-74420000D02*
X16502674Y-74518155D01*
X143476617Y-166255839D02*
X142550796Y-166255839D01*
X99550000Y-39008600D02*
X98891400Y-38350000D01*
X188488058Y-73036315D02*
X188317194Y-73207179D01*
X155874416Y-44038786D02*
X154687483Y-42851853D01*
X138317341Y-15117388D02*
X138317341Y-15925484D01*
X111186603Y-29233022D02*
X110123261Y-29233022D01*
X191120347Y-97802989D02*
X191120347Y-98594014D01*
X37255000Y-113461400D02*
X37255000Y-110629695D01*
X136972223Y-17270603D02*
X136745525Y-17689547D01*
X137630559Y-13537490D02*
X137788662Y-13537490D01*
X39865600Y-117785000D02*
X36839695Y-117785000D01*
X143227508Y-16616783D02*
X142362071Y-17482220D01*
X136702722Y-15250882D02*
X136702722Y-14465327D01*
X98850000Y-29230000D02*
X98836258Y-29233022D01*
X36940000Y-104208600D02*
X37519000Y-103629600D01*
X52940729Y-152420000D02*
X51897381Y-151376652D01*
X14523024Y-86844371D02*
X14523024Y-86329753D01*
X137788662Y-13537490D02*
X139317857Y-13785266D01*
X37519000Y-103629600D02*
X43029600Y-103629600D01*
X188935101Y-87071294D02*
X190679805Y-85326590D01*
X36415000Y-114885600D02*
X37255000Y-114045600D01*
X36415000Y-115250000D02*
X36415000Y-114885600D01*
X98830214Y-29233022D02*
X98850000Y-29230000D01*
X93858600Y-38350000D02*
X93200000Y-39008600D01*
X150579085Y-151681092D02*
X150884737Y-151375440D01*
X158490229Y-141640853D02*
X158184578Y-141946504D01*
X99528336Y-30383022D02*
X96619894Y-30383022D01*
X99550000Y-39592800D02*
X99550000Y-39008600D01*
X112580000Y-39035800D02*
X112580000Y-39620000D01*
X123000000Y-27930000D02*
X123023491Y-27930000D01*
X141570000Y-171900000D02*
X141620264Y-171900000D01*
X16835418Y-110711438D02*
X16900000Y-110615335D01*
X131257053Y-177457845D02*
X130390000Y-176590792D01*
X162292975Y-52586440D02*
X164603138Y-52586440D01*
X18826373Y-71624782D02*
X19222059Y-72020468D01*
X141903007Y-162446993D02*
X143019935Y-161330065D01*
X136467122Y-15486482D02*
X136702722Y-15250882D01*
X106921000Y-38456800D02*
X112001000Y-38456800D01*
X36660000Y-105072800D02*
X36940000Y-104792800D01*
X135162436Y-16832907D02*
X135162436Y-16397564D01*
X43605000Y-114045600D02*
X39865600Y-117785000D01*
X100700000Y-37735305D02*
X100415000Y-37450305D01*
X37255000Y-114045600D02*
X37255000Y-113461400D01*
X109332800Y-170234000D02*
X110063000Y-170234000D01*
X85308373Y-30307523D02*
X83206525Y-30307523D01*
X136702722Y-14465327D02*
X137630559Y-13537490D01*
X119951596Y-181039427D02*
X118590109Y-179677940D01*
X58800910Y-20402017D02*
X57658995Y-20402017D01*
%TO.N,Net-(D19-A)*%
X42940000Y-54239868D02*
X43282268Y-53801784D01*
X39211661Y-58641877D02*
X42940000Y-54913538D01*
X43282268Y-53801784D02*
X43224217Y-53328989D01*
X43224217Y-53328989D02*
X43370000Y-53183206D01*
X43370000Y-52037080D02*
X44050750Y-51356330D01*
X43370000Y-53183206D02*
X43370000Y-52037080D01*
X42940000Y-54913538D02*
X42940000Y-54239868D01*
X38326931Y-58641877D02*
X39211661Y-58641877D01*
%TO.N,Net-(D20-A)*%
X36445257Y-63537374D02*
X36445257Y-61090916D01*
X31606167Y-68376464D02*
X36445257Y-63537374D01*
X30721438Y-68376464D02*
X31606167Y-68376464D01*
%TO.N,Ch40*%
X53843566Y-35492344D02*
X53843566Y-34995163D01*
X53843566Y-34995163D02*
X55764640Y-33074089D01*
%TO.N,3.3V*%
X64695733Y-173840067D02*
X64152328Y-174383472D01*
X61998013Y-28805065D02*
X62237948Y-28992523D01*
X20242988Y-69932625D02*
X21842627Y-71532264D01*
X135547191Y-173690000D02*
X134959650Y-173690000D01*
X51077163Y-37941383D02*
X51961893Y-37941383D01*
X62295999Y-29465318D02*
X62295999Y-29702530D01*
X122050282Y-27390000D02*
X122103424Y-27280304D01*
X187260000Y-105420000D02*
X187260000Y-108808404D01*
X46962773Y-146512773D02*
X46962773Y-146759408D01*
X127491432Y-177543851D02*
X127491432Y-177899696D01*
X187993288Y-103124315D02*
X187993288Y-93628305D01*
X29145416Y-68340577D02*
X30392862Y-69588023D01*
X145160917Y-158660988D02*
X143928033Y-158660988D01*
X159300000Y-145587703D02*
X159300000Y-143646059D01*
X142109475Y-27150525D02*
X143214139Y-26045861D01*
X179007271Y-119082970D02*
X179277628Y-118812613D01*
X34804723Y-129458440D02*
X34804723Y-131264723D01*
X60893777Y-167313314D02*
X61458000Y-166749091D01*
X30696748Y-125702922D02*
X30874781Y-125724781D01*
X19490789Y-111938992D02*
X18700000Y-111148203D01*
X158922623Y-143268682D02*
X158922623Y-142589862D01*
X91879510Y-179783653D02*
X103983653Y-179783653D01*
X45380000Y-44610000D02*
X47006556Y-42983444D01*
X55130000Y-32310000D02*
X55560000Y-31880000D01*
X19850000Y-77543879D02*
X17953879Y-79440000D01*
X88321898Y-27980310D02*
X88730794Y-28389206D01*
X141718779Y-21519099D02*
X141150000Y-21519099D01*
X44895168Y-144155168D02*
X45767522Y-145027522D01*
X104960000Y-39620000D02*
X104960000Y-38620000D01*
X186450000Y-75048754D02*
X183334743Y-71933497D01*
X183334743Y-70367121D02*
X183477622Y-70510000D01*
X187495868Y-83319828D02*
X187302199Y-81957177D01*
X146480657Y-167448869D02*
X146480657Y-166340404D01*
X35163299Y-88800000D02*
X36078299Y-87885000D01*
X142314852Y-170935148D02*
X142303746Y-170913145D01*
X129935283Y-175100000D02*
X127491432Y-177543851D01*
X54590039Y-156070039D02*
X54567236Y-156255752D01*
X187993288Y-93628305D02*
X189121593Y-92500000D01*
X143330000Y-167380000D02*
X144367693Y-167380000D01*
X16830221Y-105302800D02*
X14491633Y-102964212D01*
X56517030Y-169078296D02*
X57440781Y-170002047D01*
X30797099Y-63592901D02*
X31650000Y-62740000D01*
X115203614Y-180211318D02*
X112789610Y-182625322D01*
X42410215Y-139193027D02*
X42410215Y-141013608D01*
X57315549Y-158356548D02*
X57621200Y-158662199D01*
X142303746Y-170913145D02*
X141851274Y-170764232D01*
X31750759Y-127051993D02*
X32598122Y-128136569D01*
X17953879Y-79440000D02*
X17269925Y-79440000D01*
X149635027Y-37619581D02*
X147490000Y-35474554D01*
X32598122Y-128136569D02*
X33919993Y-129458440D01*
X104109919Y-32183022D02*
X102960000Y-32183022D01*
X101223022Y-34272422D02*
X101223022Y-32183022D01*
X18700000Y-111148203D02*
X18700000Y-107172579D01*
X174540000Y-125460000D02*
X174540000Y-126070000D01*
X144365990Y-30699012D02*
X142109475Y-28442497D01*
X55130000Y-32340000D02*
X55130000Y-32310000D01*
X135060000Y-19506626D02*
X134735302Y-19181928D01*
X187890000Y-86357274D02*
X187495868Y-85963142D01*
X159300000Y-143646059D02*
X158922623Y-143268682D01*
X174130000Y-123180000D02*
X174130000Y-125050000D01*
X88730794Y-28389206D02*
X89592536Y-29250948D01*
X172339704Y-128270296D02*
X171474490Y-128270296D01*
X38347054Y-53865134D02*
X38617470Y-53831931D01*
X140324587Y-171285413D02*
X138904529Y-172705471D01*
X78281714Y-26107081D02*
X78379182Y-26204549D01*
X147490000Y-35474554D02*
X147490000Y-34900000D01*
X145720000Y-32590000D02*
X145160917Y-32030917D01*
X17269925Y-80963458D02*
X17269925Y-79440000D01*
X57315549Y-154981839D02*
X57315549Y-158356548D01*
X62295999Y-29702530D02*
X61390585Y-30607944D01*
X135699099Y-21519099D02*
X135060000Y-20880000D01*
X186548790Y-115834563D02*
X186944363Y-116230136D01*
X186944363Y-118484445D02*
X187739606Y-119279688D01*
X55560000Y-31880000D02*
X55560000Y-31670000D01*
X134665706Y-173983944D02*
X134206056Y-173983944D01*
X142722844Y-170527156D02*
X142314852Y-170935148D01*
X189121593Y-91627587D02*
X189121593Y-91390721D01*
X51961893Y-37941383D02*
X51961893Y-36838107D01*
X45767522Y-145027522D02*
X45767522Y-145317522D01*
X151653924Y-154594813D02*
X151711976Y-155067607D01*
X42104564Y-138887376D02*
X42410215Y-139193027D01*
X136892902Y-175239097D02*
X138904529Y-173227470D01*
X189121593Y-92601127D02*
X191200466Y-94680000D01*
X103983653Y-179783653D02*
X104398759Y-180198759D01*
X59217345Y-162207621D02*
X59502652Y-162242652D01*
X125790736Y-26785435D02*
X125790736Y-26299264D01*
X96806500Y-171355000D02*
X96806500Y-172625000D01*
X34690000Y-113370000D02*
X35893600Y-113370000D01*
X103925300Y-37585300D02*
X104960000Y-38620000D01*
X112211603Y-31321364D02*
X112211603Y-31846195D01*
X167977394Y-129457228D02*
X167977394Y-131448025D01*
X78379182Y-26204549D02*
X78379182Y-27497814D01*
X136892902Y-176324612D02*
X136892902Y-175239097D01*
X167671743Y-56222411D02*
X167671743Y-54141743D01*
X88000730Y-181960730D02*
X89702433Y-181960730D01*
X176161965Y-65956997D02*
X175277236Y-65956997D01*
X102310654Y-181176789D02*
X100313947Y-183173496D01*
X120660535Y-27682172D02*
X120952707Y-27390000D01*
X138084450Y-17631603D02*
X136534125Y-19181928D01*
X68070715Y-17858790D02*
X69691311Y-17858790D01*
X189121593Y-91627587D02*
X189121593Y-92500000D01*
X35670000Y-104792800D02*
X35152800Y-104792800D01*
X21842627Y-71532264D02*
X21842627Y-71977373D01*
X82350000Y-26760000D02*
X82840000Y-27250000D01*
X133590652Y-174478531D02*
X132303298Y-174965403D01*
X147490000Y-34900000D02*
X146824960Y-34234960D01*
X100996578Y-28333022D02*
X101921578Y-29258022D01*
X37930000Y-87885000D02*
X39105000Y-89060000D01*
X75792906Y-23332906D02*
X76085779Y-23332906D01*
X127600000Y-24490000D02*
X127933671Y-24490000D01*
X132303298Y-174965403D02*
X132242571Y-175100000D01*
X34499072Y-129152789D02*
X34804723Y-129458440D01*
X172627081Y-61062504D02*
X172627081Y-60757081D01*
X29145416Y-67145142D02*
X29145416Y-68340577D01*
X88730794Y-28389206D02*
X88786978Y-28333022D01*
X58682657Y-28206796D02*
X59567386Y-28206796D01*
X62956179Y-22762087D02*
X62956179Y-26259870D01*
X117877951Y-28184700D02*
X117979642Y-28270000D01*
X16189578Y-93117584D02*
X17490624Y-94418630D01*
X122725368Y-26785435D02*
X125790736Y-26785435D01*
X78379182Y-27497814D02*
X80163325Y-29281957D01*
X145714809Y-167106252D02*
X146480657Y-166340404D01*
X172627081Y-60757081D02*
X170700899Y-58830899D01*
X175582887Y-119722642D02*
X178367599Y-119722642D01*
X84959536Y-27980310D02*
X88321898Y-27980310D01*
X19850000Y-73970000D02*
X19850000Y-76980000D01*
X151711976Y-155067607D02*
X151711976Y-155308024D01*
X119032294Y-28270000D02*
X119336797Y-27965497D01*
X17269925Y-79016325D02*
X15820345Y-77566745D01*
X88492157Y-177671102D02*
X79579050Y-177671102D01*
X125790736Y-26785435D02*
X126012593Y-27007292D01*
X45105183Y-45215123D02*
X45380000Y-44863373D01*
X30392862Y-69588023D02*
X30392862Y-71423534D01*
X14276459Y-91204465D02*
X16189578Y-93117584D01*
X27636396Y-74180000D02*
X20620000Y-74180000D01*
X143214139Y-26045861D02*
X144316541Y-27148263D01*
X141851274Y-170764232D02*
X140818758Y-171285413D01*
X58960245Y-167313314D02*
X60893777Y-167313314D01*
X41339088Y-50380912D02*
X41302437Y-50082417D01*
X18700000Y-107172579D02*
X16830221Y-105302800D01*
X122298116Y-27212687D02*
X122725368Y-26785435D01*
X62237948Y-28992523D02*
X62295999Y-29465318D01*
X52740000Y-153916997D02*
X52740000Y-154220000D01*
X152766410Y-148926401D02*
X155076573Y-148926401D01*
X57621200Y-158662199D02*
X57621200Y-160361200D01*
X29216112Y-116196112D02*
X25378170Y-116196112D01*
X112211603Y-31846195D02*
X111817798Y-32240000D01*
X42410215Y-141013608D02*
X43546646Y-142150039D01*
X17490624Y-94670000D02*
X18110312Y-94050312D01*
X17490624Y-94670000D02*
X17490624Y-104642397D01*
X146480657Y-166340404D02*
X146235613Y-166095360D01*
X27231141Y-121507576D02*
X28090000Y-122366435D01*
X52665863Y-153822106D02*
X52740000Y-153916997D01*
X56524722Y-30705278D02*
X56524722Y-30364731D01*
X158922623Y-142589862D02*
X160371902Y-141140583D01*
X187559470Y-69917054D02*
X187931126Y-70288710D01*
X151916773Y-40433599D02*
X149510000Y-38026826D01*
X57621200Y-160361200D02*
X58371411Y-161111411D01*
X88786978Y-28333022D02*
X100996578Y-28333022D01*
X167671743Y-54141743D02*
X165030000Y-51500000D01*
X62732046Y-22537954D02*
X62956179Y-22762087D01*
X56572199Y-158662199D02*
X57621200Y-158662199D01*
X33603638Y-60205370D02*
X33603638Y-59673096D01*
X31650000Y-62159008D02*
X33603638Y-60205370D01*
X142109475Y-28442497D02*
X142109475Y-27150525D01*
X29145416Y-67145142D02*
X30332349Y-65958209D01*
X62956179Y-27843821D02*
X61998013Y-28801987D01*
X90655608Y-30314020D02*
X88858160Y-30314020D01*
X183334743Y-70367121D02*
X182542622Y-69575000D01*
X46962773Y-146759408D02*
X49130978Y-148927613D01*
X36078299Y-87885000D02*
X37930000Y-87885000D01*
X187620000Y-105060000D02*
X187260000Y-105420000D01*
X39401064Y-53048337D02*
X39401064Y-52516062D01*
X142487250Y-160101771D02*
X141887500Y-161340572D01*
X141150000Y-23981722D02*
X143214139Y-26045861D01*
X182542622Y-69575000D02*
X179998115Y-69575000D01*
X54633304Y-33220000D02*
X54633304Y-32836696D01*
X91624610Y-31283022D02*
X90655608Y-30314020D01*
X61998013Y-28801987D02*
X61998013Y-28805065D01*
X134206056Y-173983944D02*
X133711469Y-174478531D01*
X147372287Y-18831107D02*
X148860000Y-20318820D01*
X186790000Y-111718525D02*
X186340000Y-112168525D01*
X141150000Y-21519099D02*
X135699099Y-21519099D01*
X135060000Y-20880000D02*
X135060000Y-19506626D01*
X146920179Y-18831107D02*
X147372287Y-18831107D01*
X35893600Y-113370000D02*
X35985000Y-113461400D01*
X143928033Y-158660988D02*
X142487250Y-160101771D01*
X144367693Y-167380000D02*
X144803740Y-166821886D01*
X147641943Y-168610155D02*
X146480657Y-167448869D01*
X19850000Y-76980000D02*
X19850000Y-77543879D01*
X140818758Y-171285413D02*
X140324587Y-171285413D01*
X190319683Y-82223399D02*
X190319683Y-81981584D01*
X105009919Y-31283022D02*
X104109919Y-32183022D01*
X87939270Y-181960730D02*
X87970000Y-181930000D01*
X61428888Y-16351235D02*
X61236982Y-16543141D01*
X134959650Y-173690000D02*
X134665706Y-173983944D01*
X28090000Y-122366435D02*
X28620000Y-123044805D01*
X14491633Y-102964212D02*
X14491633Y-102444488D01*
X179795249Y-69750000D02*
X179151965Y-69421305D01*
X71818646Y-19271309D02*
X72198221Y-19738221D01*
X61458000Y-168198000D02*
X64580000Y-171320000D01*
X144354415Y-18883463D02*
X141718779Y-21519099D01*
X160371902Y-141140583D02*
X160371902Y-139191815D01*
X38617470Y-53831931D02*
X39401064Y-53048337D01*
X61236982Y-18072561D02*
X59696663Y-19612880D01*
X20620000Y-74180000D02*
X19850000Y-74950000D01*
X52710000Y-35143304D02*
X54633304Y-33220000D01*
X119336797Y-27965497D02*
X120660535Y-27682172D01*
X54633304Y-32836696D02*
X55130000Y-32340000D01*
X174130000Y-125050000D02*
X174540000Y-125460000D01*
X145160917Y-32030917D02*
X145160917Y-30699012D01*
X145160917Y-30699012D02*
X144365990Y-30699012D01*
X185622946Y-69917054D02*
X187559470Y-69917054D01*
X65285157Y-171320000D02*
X67805224Y-173840067D01*
X103925300Y-36974700D02*
X103925300Y-37585300D01*
X57440781Y-170002047D02*
X57618633Y-170002047D01*
X103925300Y-36974700D02*
X101223022Y-34272422D01*
X35152800Y-104792800D02*
X35020000Y-104660000D01*
X51000367Y-152010367D02*
X52681855Y-153691855D01*
X186944363Y-116230136D02*
X186944363Y-118484445D01*
X28620000Y-123044805D02*
X28620000Y-123290000D01*
X126012593Y-27007292D02*
X129474631Y-27007292D01*
X115262967Y-28270000D02*
X116904841Y-28270000D01*
X69691311Y-17858790D02*
X69811258Y-17978737D01*
X59567386Y-29427386D02*
X59567386Y-28206796D01*
X167977394Y-59902772D02*
X167977394Y-56528062D01*
X44895168Y-143498561D02*
X44895168Y-144155168D01*
X175277236Y-69331707D02*
X175582887Y-69637358D01*
X30874781Y-125724781D02*
X31800105Y-126650105D01*
X152766410Y-40433599D02*
X151916773Y-40433599D01*
X178367599Y-119722642D02*
X179007271Y-119082970D01*
X133711469Y-174478531D02*
X133590652Y-174478531D01*
X37454878Y-134074878D02*
X37454878Y-134604878D01*
X57618633Y-170002047D02*
X58092985Y-169958523D01*
X76085779Y-23332906D02*
X78281714Y-25528841D01*
X115584519Y-180211318D02*
X114989215Y-179616014D01*
X187302199Y-81957177D02*
X187302199Y-80023662D01*
X104398759Y-180198759D02*
X103420729Y-181176789D01*
X59540000Y-164445509D02*
X56517030Y-167468479D01*
X88510120Y-30662060D02*
X88510120Y-37442920D01*
X103610000Y-39620000D02*
X104960000Y-39620000D01*
X44356401Y-47675969D02*
X44356401Y-46243599D01*
X127933671Y-24490000D02*
X128430422Y-24163753D01*
X59806972Y-19612880D02*
X62732046Y-22537954D01*
X187620000Y-104893041D02*
X187620000Y-105060000D01*
X142722844Y-169806521D02*
X142722844Y-170527156D01*
X101921578Y-29258022D02*
X100869600Y-30310000D01*
X103690000Y-39620000D02*
X104960000Y-39620000D01*
X89702433Y-181960730D02*
X91242109Y-180421054D01*
X114989215Y-179616014D02*
X104981504Y-179616014D01*
X146776762Y-34229042D02*
X145720000Y-33172280D01*
X37499691Y-54949710D02*
X38347054Y-53865134D01*
X34499072Y-125778080D02*
X34499072Y-129152789D01*
X45135770Y-45464230D02*
X45105183Y-45215123D01*
X52710000Y-36090000D02*
X52710000Y-35143304D01*
X160066251Y-46487825D02*
X160066251Y-49862534D01*
X76261852Y-174930000D02*
X71867944Y-174930000D01*
X45380000Y-44863373D02*
X45380000Y-44610000D01*
X16461585Y-114775830D02*
X16678303Y-114775830D01*
X186450000Y-77210359D02*
X186194071Y-76019965D01*
X42149800Y-48997841D02*
X43471672Y-47675969D01*
X91624610Y-31283022D02*
X89592536Y-29250948D01*
X100690000Y-30310000D02*
X100690000Y-31650000D01*
X29860207Y-124530207D02*
X29849385Y-124618347D01*
X20095600Y-69932625D02*
X20242988Y-69932625D01*
X30332349Y-65958209D02*
X32642511Y-65958209D01*
X50015707Y-148927613D02*
X49710056Y-148621962D01*
X58369982Y-161123045D02*
X59217345Y-162207621D01*
X101223022Y-32183022D02*
X102960000Y-32183022D01*
X146824960Y-34234960D02*
X146776762Y-34229042D01*
X30741561Y-63599720D02*
X30797099Y-63592901D01*
X69963711Y-19222422D02*
X71769759Y-19222422D01*
X27231141Y-119772962D02*
X28911584Y-119772962D01*
X183334743Y-71933497D02*
X183334743Y-70367121D01*
X34887200Y-104792800D02*
X35020000Y-104660000D01*
X82840000Y-27250000D02*
X84229226Y-27250000D01*
X20259627Y-116196112D02*
X19179106Y-117276633D01*
X69811258Y-17978737D02*
X69963711Y-18131190D01*
X29849385Y-124618347D02*
X30696748Y-125702922D01*
X40248427Y-51431487D02*
X40294124Y-51425876D01*
X54781590Y-156871590D02*
X56572199Y-158662199D01*
X91930000Y-39592800D02*
X90660000Y-39592800D01*
X39361755Y-137029296D02*
X41525486Y-139193027D01*
X79154037Y-178096115D02*
X76665957Y-178096115D01*
X17269925Y-80963458D02*
X18110312Y-81803845D01*
X166900000Y-135840000D02*
X164735118Y-138004882D01*
X160066251Y-49862534D02*
X160371902Y-50168185D01*
X187890000Y-90159128D02*
X187890000Y-86357274D01*
X58843128Y-167430431D02*
X58960245Y-167313314D01*
X152766410Y-150712600D02*
X151897863Y-151581147D01*
X35866179Y-57410555D02*
X36750909Y-57410555D01*
X60747944Y-30607944D02*
X59567386Y-29427386D01*
X42104564Y-135512666D02*
X42104564Y-138887376D01*
X62732046Y-22537954D02*
X66945519Y-18324481D01*
X88510120Y-37442920D02*
X90660000Y-39592800D01*
X175277236Y-63712659D02*
X172627081Y-61062504D01*
X35890075Y-132350075D02*
X35890075Y-132510075D01*
X58371411Y-161111411D02*
X58369982Y-161123045D01*
X37454878Y-134604878D02*
X39361755Y-136511755D01*
X44006360Y-142738448D02*
X44153069Y-142756462D01*
X29610000Y-66680558D02*
X29610000Y-64731281D01*
X44153069Y-142756462D02*
X44895168Y-143498561D01*
X141983432Y-161616568D02*
X141453007Y-162146993D01*
X175582887Y-119722642D02*
X175582887Y-121455472D01*
X59502652Y-162242652D02*
X59540000Y-162280000D01*
X69963711Y-21666156D02*
X69963711Y-19222422D01*
X183477622Y-70510000D02*
X185030000Y-70510000D01*
X188691007Y-103822034D02*
X187620000Y-104893041D01*
X175277236Y-65956997D02*
X175277236Y-69331707D01*
X146235613Y-166095360D02*
X146235613Y-162135366D01*
X58794481Y-169079131D02*
X58843128Y-169030484D01*
X29610000Y-64731281D02*
X30741561Y-63599720D01*
X145276535Y-166763835D02*
X145714809Y-167106252D01*
X187302199Y-80023662D02*
X187831980Y-79493881D01*
X141453007Y-162146993D02*
X141453007Y-166183007D01*
X92656552Y-31283022D02*
X91624610Y-31283022D01*
X101140000Y-37150000D02*
X103610000Y-39620000D01*
X18110312Y-81803845D02*
X18110312Y-94050312D01*
X186340000Y-112168525D02*
X186340000Y-112661280D01*
X178327071Y-68397071D02*
X178327071Y-68122103D01*
X88858160Y-30314020D02*
X88510120Y-30662060D01*
X36750909Y-55698492D02*
X37499691Y-54949710D01*
X120952707Y-27390000D02*
X122050282Y-27390000D01*
X27231141Y-119772962D02*
X27231141Y-121507576D01*
X58843128Y-169030484D02*
X58843128Y-167430431D01*
X128694897Y-24218546D02*
X133731515Y-19181928D01*
X103420729Y-181176789D02*
X102310654Y-181176789D01*
X71867944Y-174930000D02*
X71867944Y-174682788D01*
X47006556Y-42544264D02*
X47853919Y-41696901D01*
X19318029Y-115054141D02*
X19490789Y-114776364D01*
X116904841Y-28270000D02*
X117877951Y-28184700D01*
X149510000Y-38026826D02*
X149510000Y-37819162D01*
X78281714Y-25528841D02*
X78281714Y-26107081D01*
X114274945Y-29258022D02*
X115524501Y-29258022D01*
X79579050Y-177671102D02*
X79291002Y-177959150D01*
X179151965Y-69421305D02*
X179151965Y-69221965D01*
X29145416Y-67145142D02*
X29610000Y-66680558D01*
X170287558Y-129457228D02*
X171474490Y-128270296D01*
X50015707Y-148927613D02*
X50015707Y-150705707D01*
X127246558Y-177298977D02*
X118496860Y-177298977D01*
X117979642Y-28270000D02*
X119032294Y-28270000D01*
X125790736Y-26299264D02*
X127600000Y-24490000D01*
X71769759Y-19222422D02*
X71818646Y-19271309D01*
X39361755Y-136511755D02*
X39361755Y-137029296D01*
X39061072Y-57410555D02*
X36750909Y-57410555D01*
X58794481Y-169115288D02*
X58794481Y-169079131D01*
X186064227Y-115350000D02*
X186548790Y-115834563D01*
X17490624Y-94418630D02*
X17490624Y-94670000D01*
X47006556Y-42983444D02*
X47006556Y-42544264D01*
X28911584Y-119772962D02*
X29881868Y-118802678D01*
X186194071Y-76019965D02*
X186450000Y-75623848D01*
X49710056Y-148621962D02*
X49710056Y-145247252D01*
X48610000Y-40408546D02*
X51077163Y-37941383D01*
X109332800Y-172920000D02*
X109332800Y-171650000D01*
X56517030Y-167468479D02*
X56517030Y-169078296D01*
X186340000Y-112661280D02*
X186194071Y-113340035D01*
X20460000Y-116196112D02*
X20259627Y-116196112D01*
X17269925Y-79440000D02*
X17269925Y-79016325D01*
X179998115Y-69575000D02*
X179823115Y-69750000D01*
X76665957Y-178096115D02*
X75750914Y-179011158D01*
X165030000Y-51500000D02*
X165030000Y-50566844D01*
X48115176Y-41664824D02*
X48610000Y-41170000D01*
X49130978Y-148927613D02*
X50015707Y-148927613D01*
X84229226Y-27250000D02*
X84959536Y-27980310D01*
X170700899Y-58366838D02*
X168556472Y-56222411D01*
X152766410Y-148926401D02*
X152766410Y-150712600D01*
X155076573Y-148926401D02*
X156263505Y-147739469D01*
X87885274Y-181960730D02*
X87939270Y-181960730D01*
X145720000Y-33172280D02*
X145720000Y-32590000D01*
X190319683Y-81981584D02*
X187831980Y-79493881D01*
X62956179Y-26259870D02*
X62956179Y-27843821D01*
X54567236Y-156255752D02*
X54781590Y-156530112D01*
X54272055Y-37941383D02*
X55458988Y-36754450D01*
X39401064Y-52516062D02*
X40248427Y-51431487D01*
X186194071Y-115479844D02*
X186548790Y-115834563D01*
X179151965Y-69221965D02*
X178327071Y-68397071D01*
X167977394Y-56528062D02*
X167671743Y-56222411D01*
X33919993Y-129458440D02*
X34804723Y-129458440D01*
X47853919Y-41696901D02*
X48115176Y-41664824D01*
X188691007Y-103822034D02*
X187993288Y-103124315D01*
X48610000Y-41170000D02*
X48610000Y-40408546D01*
X144803740Y-166821886D02*
X145276535Y-166763835D01*
X52681855Y-153691855D02*
X52665863Y-153822106D01*
X91242109Y-180421054D02*
X88492157Y-177671102D01*
X151897863Y-151744259D02*
X151329361Y-152312761D01*
X45767522Y-145317522D02*
X46962773Y-146512773D01*
X100869600Y-30310000D02*
X100690000Y-30310000D01*
X167977394Y-131448025D02*
X165977336Y-133448083D01*
X43546646Y-142150039D02*
X44006360Y-142738448D01*
X14276459Y-89958641D02*
X14276459Y-91204465D01*
X19490789Y-114776364D02*
X19490789Y-111938992D01*
X179277628Y-118812613D02*
X179277628Y-116053020D01*
X148658012Y-159712967D02*
X148658012Y-157474055D01*
X179823115Y-69750000D02*
X179795249Y-69750000D01*
X132242571Y-175100000D02*
X129935283Y-175100000D01*
X59696663Y-19612880D02*
X59806972Y-19612880D01*
X136009721Y-173227470D02*
X135547191Y-173690000D01*
X104981504Y-179616014D02*
X104398759Y-180198759D01*
X91242109Y-180421054D02*
X91879510Y-179783653D01*
X186194071Y-113340035D02*
X186194071Y-115479844D01*
X36750909Y-57410555D02*
X36750909Y-55698492D01*
X61236982Y-16543141D02*
X61236982Y-18072561D01*
X187260000Y-108808404D02*
X186790000Y-109278404D01*
X162682064Y-139191815D02*
X163868997Y-138004882D01*
X46666563Y-47675969D02*
X47853496Y-46489036D01*
X51000367Y-151690367D02*
X51000367Y-152010367D01*
X58092985Y-169958523D02*
X58794481Y-169115288D01*
X165977336Y-133448083D02*
X166900000Y-134370747D01*
X69963711Y-18131190D02*
X69963711Y-21666156D01*
X185030000Y-70510000D02*
X185622946Y-69917054D01*
X127491432Y-177899696D02*
X125064011Y-180327117D01*
X81780986Y-26760000D02*
X82350000Y-26760000D01*
X29881868Y-118802678D02*
X29881868Y-116861868D01*
X151329361Y-154341237D02*
X151653924Y-154594813D01*
X31650000Y-62740000D02*
X31650000Y-62159008D01*
X114274945Y-29258022D02*
X115262967Y-28270000D01*
X186790000Y-109278404D02*
X186790000Y-111718525D01*
X189121593Y-91390721D02*
X187890000Y-90159128D01*
X34400000Y-104792800D02*
X34887200Y-104792800D01*
X151711976Y-155308024D02*
X149545945Y-157474055D01*
X122103424Y-27280304D02*
X122298116Y-27212687D01*
X35890075Y-132510075D02*
X37454878Y-134074878D01*
X157148234Y-147739469D02*
X159300000Y-145587703D01*
X174540000Y-126070000D02*
X172339704Y-128270296D01*
X187831980Y-79399047D02*
X186450000Y-78017067D01*
X59540000Y-162280000D02*
X59540000Y-164445509D01*
X148860000Y-22540000D02*
X145042040Y-26357960D01*
X187495868Y-85963142D02*
X187495868Y-83319828D01*
X175582887Y-121455472D02*
X174804959Y-122233400D01*
X28620000Y-123290000D02*
X29860207Y-124530207D01*
X144316541Y-27148263D02*
X145042040Y-27148263D01*
X61458000Y-166749091D02*
X61458000Y-168198000D01*
X31800105Y-126650105D02*
X31750759Y-127051993D01*
X118496860Y-177298977D02*
X115584519Y-180211318D01*
X79291002Y-177959150D02*
X79154037Y-178096115D01*
X34804723Y-131264723D02*
X35890075Y-132350075D01*
X19850000Y-74950000D02*
X19850000Y-76980000D01*
X51961893Y-36838107D02*
X52710000Y-36090000D01*
X174804959Y-122233400D02*
X174804959Y-122505041D01*
X115584519Y-180211318D02*
X115203614Y-180211318D01*
X127491432Y-177543851D02*
X127246558Y-177298977D01*
X142650000Y-167380000D02*
X143330000Y-167380000D01*
X141453007Y-166183007D02*
X142650000Y-167380000D01*
X166900000Y-134370747D02*
X166900000Y-135840000D01*
X149510000Y-37819162D02*
X149709581Y-37619581D01*
X141887500Y-161340572D02*
X141983432Y-161616568D01*
X174804959Y-122505041D02*
X174130000Y-123180000D01*
X138904529Y-173227470D02*
X136009721Y-173227470D01*
X160950981Y-46487825D02*
X160066251Y-46487825D01*
X33603638Y-59673096D02*
X35866179Y-57410555D01*
X138904529Y-172705471D02*
X138904529Y-173227470D01*
X29881868Y-116861868D02*
X29216112Y-116196112D01*
X16678303Y-114775830D02*
X19179106Y-117276633D01*
X55560000Y-31670000D02*
X56524722Y-30705278D01*
X128430422Y-24163753D02*
X128694897Y-24218546D01*
X21842627Y-71977373D02*
X19850000Y-73970000D01*
X40248004Y-56223623D02*
X39061072Y-57410555D01*
X145042040Y-26357960D02*
X145042040Y-27148263D01*
X50015707Y-150705707D02*
X51000367Y-151690367D01*
X190319683Y-105450710D02*
X188691007Y-103822034D01*
X151897863Y-151581147D02*
X151897863Y-151744259D01*
X149709581Y-37619581D02*
X149635027Y-37619581D01*
X20460000Y-116196112D02*
X19318029Y-115054141D01*
X133731515Y-19181928D02*
X134735302Y-19181928D01*
X186450000Y-75623848D02*
X186450000Y-75048754D01*
X143330000Y-167380000D02*
X143330000Y-169199365D01*
X71867944Y-174682788D02*
X71025223Y-173840067D01*
X190319683Y-107136601D02*
X190319683Y-105450710D01*
X105966897Y-32240000D02*
X105009919Y-31283022D01*
X136534125Y-19181928D02*
X134735302Y-19181928D01*
X168556472Y-56222411D02*
X167671743Y-56222411D01*
X41302437Y-50082417D02*
X42149800Y-48997841D01*
X23360624Y-88800000D02*
X35163299Y-88800000D01*
X165030000Y-50566844D02*
X160950981Y-46487825D01*
X78281714Y-26107081D02*
X80693516Y-26107081D01*
X141150000Y-21519099D02*
X141150000Y-23981722D01*
X44356401Y-47675969D02*
X46666563Y-47675969D01*
X178327071Y-68122103D02*
X176161965Y-65956997D01*
X61390585Y-30607944D02*
X60747944Y-30607944D01*
X25378170Y-116196112D02*
X20460000Y-116196112D01*
X17490624Y-104642397D02*
X16830221Y-105302800D01*
X111817798Y-32240000D02*
X105966897Y-32240000D01*
X43471672Y-47675969D02*
X44356401Y-47675969D01*
X41525486Y-139193027D02*
X42410215Y-139193027D01*
X150575924Y-36753238D02*
X152460759Y-36753238D01*
X52740000Y-154220000D02*
X54590039Y-156070039D01*
X151329361Y-152312761D02*
X151329361Y-154341237D01*
X40294124Y-51425876D02*
X41339088Y-50380912D01*
X100690000Y-31650000D02*
X101223022Y-32183022D01*
X149545945Y-157474055D02*
X148658012Y-157474055D01*
X64580000Y-171320000D02*
X65285157Y-171320000D01*
X30392862Y-71423534D02*
X27636396Y-74180000D01*
X148860000Y-20318820D02*
X148860000Y-22540000D01*
X66945519Y-18324481D02*
X67326546Y-18324481D01*
X160371902Y-139191815D02*
X162682064Y-139191815D01*
X167977394Y-129457228D02*
X170287558Y-129457228D01*
X67326546Y-18324481D02*
X68070715Y-17858790D01*
X179980648Y-115350000D02*
X186064227Y-115350000D01*
X175277236Y-65956997D02*
X175277236Y-63712659D01*
X164735118Y-138004882D02*
X163868997Y-138004882D01*
X67805224Y-173840067D02*
X64695733Y-173840067D01*
X115524501Y-29258022D02*
X117450004Y-31183525D01*
X54781590Y-156530112D02*
X54781590Y-156871590D01*
X44356401Y-46243599D02*
X45135770Y-45464230D01*
X18110312Y-94050312D02*
X23360624Y-88800000D01*
X143330000Y-169199365D02*
X142722844Y-169806521D01*
X24350000Y-75650000D02*
X24350000Y-90400000D01*
X156263505Y-147739469D02*
X157148234Y-147739469D01*
X114274945Y-29258022D02*
X112211603Y-31321364D01*
X51961893Y-37941383D02*
X54272055Y-37941383D01*
X87970000Y-181930000D02*
X88000730Y-181960730D01*
X146235613Y-162135366D02*
X148658012Y-159712967D01*
X72198221Y-19738221D02*
X75792906Y-23332906D01*
X187831980Y-79493881D02*
X187831980Y-79399047D01*
X170700899Y-58830899D02*
X170700899Y-58366838D01*
X56524722Y-30364731D02*
X58682657Y-28206796D01*
X81036435Y-26450000D02*
X81780986Y-26760000D01*
X149709581Y-37619581D02*
X150575924Y-36753238D01*
X186450000Y-78017067D02*
X186450000Y-77210359D01*
X71025223Y-173840067D02*
X67805224Y-173840067D01*
X80693516Y-26107081D02*
X81036435Y-26450000D01*
X189121593Y-92500000D02*
X189121593Y-92601127D01*
X179277628Y-116053020D02*
X179980648Y-115350000D01*
X79291002Y-177959150D02*
X76261852Y-174930000D01*
%TO.N,Ch36*%
X81942421Y-28380573D02*
X80951291Y-27389443D01*
X83742125Y-28380573D02*
X83770000Y-28420000D01*
X83770000Y-28420000D02*
X81942421Y-28380573D01*
%TO.N,Net-(D23-A)*%
X13637197Y-86362637D02*
X13540726Y-87447943D01*
X13414443Y-89223447D02*
X13341036Y-90597834D01*
X13341036Y-90597834D02*
X13341036Y-92232590D01*
X13637197Y-84927862D02*
X13637197Y-86362637D01*
X13341036Y-92232590D02*
X14189904Y-93081458D01*
X13540726Y-87447943D02*
X13620000Y-87527217D01*
X13620000Y-89038734D02*
X13414443Y-89223447D01*
X14829623Y-83735436D02*
X13637197Y-84927862D01*
X13620000Y-87527217D02*
X13620000Y-89038734D01*
%TO.N,Net-(D24-A)*%
X13580000Y-102351913D02*
X13420000Y-102191913D01*
X13800000Y-104503055D02*
X13800000Y-103614721D01*
X13800000Y-103614721D02*
X13580000Y-103394721D01*
X13337672Y-99989030D02*
X13337672Y-97031300D01*
X13580000Y-103394721D02*
X13580000Y-102351913D01*
X13420000Y-102191913D02*
X13420000Y-100071358D01*
X13337672Y-97031300D02*
X14163608Y-96205364D01*
X13420000Y-100071358D02*
X13337672Y-99989030D01*
X14845359Y-105548414D02*
X13800000Y-104503055D01*
%TO.N,Ch39*%
X60909363Y-24909133D02*
X59871319Y-23871089D01*
X61020000Y-26090000D02*
X60909363Y-24909133D01*
X60909363Y-26145672D02*
X61020000Y-26090000D01*
%TO.N,Ch35*%
X95719894Y-29233022D02*
X95744894Y-29258022D01*
X92656552Y-29233022D02*
X95719894Y-29233022D01*
%TO.N,Net-(D27-A)*%
X36380745Y-125745569D02*
X36380745Y-128227118D01*
X30696325Y-120910786D02*
X31545962Y-120910786D01*
X31545962Y-120910786D02*
X36380745Y-125745569D01*
%TO.N,Net-(D28-A)*%
X43986237Y-136006237D02*
X43986237Y-137961705D01*
X40488719Y-131982636D02*
X41336082Y-133067211D01*
X38301818Y-130645373D02*
X39601838Y-131945393D01*
X41336082Y-133067211D02*
X41304492Y-133324492D01*
X39601838Y-131945393D02*
X40451476Y-131945393D01*
X40451476Y-131945393D02*
X40488719Y-131982636D01*
X41304492Y-133324492D02*
X43986237Y-136006237D01*
%TO.N,Ch38*%
X63701674Y-18165117D02*
X65080000Y-16786791D01*
X65096791Y-16770000D02*
X65098340Y-16768451D01*
X65080000Y-16770000D02*
X65096791Y-16770000D01*
X65080000Y-16786791D02*
X65080000Y-16770000D01*
X62384048Y-18165117D02*
X63701674Y-18165117D01*
%TO.N,Ch34*%
X91930000Y-34970000D02*
X91930000Y-34385800D01*
X92935800Y-33380000D02*
X97170000Y-33370000D01*
X105034919Y-29258022D02*
X105009919Y-29233022D01*
X97170000Y-33370000D02*
X97180000Y-33380000D01*
X91930000Y-34385800D02*
X92935800Y-33380000D01*
X108098261Y-29258022D02*
X105034919Y-29258022D01*
%TO.N,Net-(D31-A)*%
X61246524Y-159849132D02*
X63670573Y-162273181D01*
X57681167Y-167072883D02*
X57681167Y-168850832D01*
X60110693Y-166561040D02*
X59502326Y-166561040D01*
X61118295Y-159849132D02*
X61246524Y-159849132D01*
X59502326Y-166561040D02*
X59022779Y-166162099D01*
X61644519Y-165605481D02*
X61066252Y-165605481D01*
X63670573Y-162273181D02*
X63670573Y-163579427D01*
X59022779Y-166162099D02*
X58548427Y-166205623D01*
X63670573Y-163579427D02*
X61644519Y-165605481D01*
X61066252Y-165605481D02*
X60110693Y-166561040D01*
X58548427Y-166205623D02*
X57681167Y-167072883D01*
%TO.N,Net-(D14-A)*%
X55744516Y-37850833D02*
X56591879Y-36766257D01*
X56560369Y-36509631D02*
X59261735Y-33808265D01*
X56591879Y-36766257D02*
X56560369Y-36509631D01*
X59261735Y-33808265D02*
X59261735Y-31887157D01*
X53537915Y-39172705D02*
X54422644Y-39172705D01*
X54422644Y-39172705D02*
X55744516Y-37850833D01*
%TO.N,Ch33*%
X99540000Y-32730000D02*
X99470000Y-32660000D01*
X99440000Y-32730000D02*
X99540000Y-32730000D01*
X92400800Y-32645000D02*
X99355000Y-32645000D01*
X120203326Y-28725980D02*
X117686371Y-28725980D01*
X117310000Y-29102351D02*
X117310000Y-29160000D01*
X90660000Y-34970000D02*
X90660000Y-34385800D01*
X117252351Y-29160000D02*
X117270996Y-29141355D01*
X90660000Y-34385800D02*
X92400800Y-32645000D01*
X117310000Y-29160000D02*
X117252351Y-29160000D01*
X99355000Y-32645000D02*
X99440000Y-32730000D01*
X117686371Y-28725980D02*
X117310000Y-29102351D01*
%TO.N,Ch37*%
X71554397Y-20580368D02*
X73542322Y-22568293D01*
X71554397Y-20373014D02*
X71554397Y-20580368D01*
%TO.N,Net-(D32-A)*%
X64838121Y-175320000D02*
X66648619Y-175320000D01*
X64830112Y-175336571D02*
X64838121Y-175320000D01*
X58626619Y-171740786D02*
X60815833Y-173930000D01*
X62018474Y-173930000D02*
X62176764Y-173930000D01*
X58626619Y-171467856D02*
X58626619Y-171740786D01*
X66648619Y-175320000D02*
X66998976Y-175670357D01*
X64021809Y-175320000D02*
X64380274Y-175493257D01*
X63566764Y-175320000D02*
X64021809Y-175320000D01*
X64380274Y-175493257D02*
X64830112Y-175336571D01*
X61552386Y-174091565D02*
X62007473Y-173950850D01*
X60815833Y-173930000D02*
X61246188Y-173930000D01*
X62007473Y-173950850D02*
X62018474Y-173930000D01*
X61246188Y-173930000D02*
X61552386Y-174091565D01*
X62176764Y-173930000D02*
X63566764Y-175320000D01*
%TO.N,Net-(D18-A)*%
X45932423Y-48907291D02*
X46817152Y-48907291D01*
X50310000Y-45410000D02*
X50310000Y-45070000D01*
X48500000Y-47224443D02*
X48500000Y-47220000D01*
X50310000Y-45070000D02*
X51656242Y-43723758D01*
X48500000Y-47220000D02*
X50310000Y-45410000D01*
X51656242Y-43723758D02*
X51656242Y-41621743D01*
X46817152Y-48907291D02*
X48500000Y-47224443D01*
%TO.N,Ch32*%
X128349271Y-25293796D02*
X128406204Y-25293796D01*
X128470000Y-25230000D02*
X128533796Y-25293796D01*
X128533796Y-25293796D02*
X128979307Y-25293796D01*
X128979307Y-25293796D02*
X130734630Y-23538473D01*
X128406204Y-25293796D02*
X128470000Y-25230000D01*
%TO.N,Ch28*%
X108103000Y-33810000D02*
X113480000Y-33810000D01*
X154381832Y-39171493D02*
X154381832Y-39738858D01*
X107500000Y-34997200D02*
X107500000Y-34413000D01*
X113480000Y-33810000D02*
X113740000Y-34070000D01*
X154381832Y-39738858D02*
X156263505Y-41620531D01*
X107500000Y-34413000D02*
X108103000Y-33810000D01*
%TO.N,Net-(D21-A)*%
X21823951Y-68783951D02*
X23843951Y-68783951D01*
X25007140Y-69947140D02*
X26155320Y-69947140D01*
X27063506Y-70855326D02*
X28811351Y-70855326D01*
X21007375Y-67967375D02*
X21823951Y-68783951D01*
X19724400Y-67967375D02*
X21007375Y-67967375D01*
X26155320Y-69947140D02*
X27063506Y-70855326D01*
X23843951Y-68783951D02*
X25007140Y-69947140D01*
%TO.N,Net-(D22-A)*%
X15445220Y-74977501D02*
X15758776Y-73637347D01*
X15070357Y-76717570D02*
X15445220Y-76342707D01*
X16163481Y-73386112D02*
X16455552Y-73454448D01*
X16455552Y-73454448D02*
X17243689Y-72666311D01*
X15445220Y-76342707D02*
X15445220Y-74977501D01*
X15035495Y-76894505D02*
X15070357Y-76717570D01*
X17243689Y-72666311D02*
X17243689Y-71483294D01*
X14804287Y-80155368D02*
X14804287Y-77125713D01*
X15295231Y-80646312D02*
X14804287Y-80155368D01*
X15758776Y-73637347D02*
X16163481Y-73386112D01*
X14804287Y-77125713D02*
X15035495Y-76894505D01*
%TO.N,Ch31*%
X137900683Y-14011510D02*
X137514319Y-14290126D01*
X139340501Y-14586023D02*
X139061885Y-14199659D01*
X139202572Y-15437278D02*
X139340501Y-14586023D01*
X136281490Y-16308510D02*
X136281490Y-16655983D01*
X140291593Y-15437278D02*
X140280000Y-15460000D01*
X139061885Y-14199659D02*
X137900683Y-14011510D01*
X137152722Y-15437278D02*
X136281490Y-16308510D01*
X137152722Y-14651723D02*
X137152722Y-15437278D01*
X137514319Y-14290126D02*
X137152722Y-14651723D01*
X140280000Y-15460000D02*
X139202572Y-15437278D01*
%TO.N,Ch27*%
X163868997Y-51355118D02*
X163868997Y-50787752D01*
X163868997Y-50787752D02*
X161987324Y-48906079D01*
%TO.N,Net-(D25-A)*%
X17248554Y-117799099D02*
X15717278Y-116267823D01*
X15428861Y-114309930D02*
X15428861Y-112942966D01*
X14790498Y-112304603D02*
X14790498Y-109113339D01*
X15717278Y-115547278D02*
X15428861Y-114309930D01*
X15428861Y-112942966D02*
X14790498Y-112304603D01*
X14790498Y-109113339D02*
X15258899Y-108644938D01*
X15717278Y-116267823D02*
X15717278Y-115547278D01*
%TO.N,Net-(D26-A)*%
X26198492Y-118880580D02*
X25339072Y-119740000D01*
X24147871Y-119740000D02*
X22486857Y-121401014D01*
X22486857Y-121401014D02*
X19560638Y-121401014D01*
X28732813Y-118451984D02*
X26231660Y-118451984D01*
X25339072Y-119740000D02*
X24147871Y-119740000D01*
X26231660Y-118451984D02*
X26198492Y-118880580D01*
%TO.N,Ch30*%
X146460253Y-23040000D02*
X146420000Y-23040000D01*
X146420000Y-23080253D02*
X146480657Y-23019596D01*
X147641943Y-21858310D02*
X146460253Y-23040000D01*
X146420000Y-23040000D02*
X146420000Y-23080253D01*
X147641943Y-20749845D02*
X147641943Y-21858310D01*
%TO.N,Ch26*%
X169592816Y-58640666D02*
X169592816Y-59208030D01*
X169592816Y-59208030D02*
X171474490Y-61089704D01*
%TO.N,Net-(D29-A)*%
X46756947Y-140379959D02*
X45907310Y-140379959D01*
X51591729Y-147696291D02*
X51591729Y-145747014D01*
X48942197Y-143097482D02*
X48942197Y-142565209D01*
X51591729Y-145747014D02*
X48942197Y-143097482D01*
X48942197Y-142565209D02*
X46756947Y-140379959D01*
%TO.N,Net-(D30-A)*%
X59197222Y-157430877D02*
X59197222Y-155547222D01*
X57835484Y-153587589D02*
X54362441Y-150114546D01*
X54362441Y-150114546D02*
X53512803Y-150114546D01*
X57835484Y-154185484D02*
X57835484Y-153587589D01*
X59197222Y-155547222D02*
X57835484Y-154185484D01*
%TO.N,Ch25*%
X178780000Y-69956943D02*
X177198309Y-68375252D01*
X178780000Y-70270000D02*
X178780000Y-69956943D01*
%TO.N,Ch29*%
X114465000Y-33769695D02*
X113665305Y-32970000D01*
X114465000Y-34715000D02*
X114465000Y-33769695D01*
X113665305Y-32970000D02*
X113180000Y-32970000D01*
X108770000Y-35581400D02*
X109748600Y-36560000D01*
X146776339Y-29436906D02*
X146776339Y-30004272D01*
X146776339Y-30004272D02*
X148658012Y-31885945D01*
X109748600Y-36560000D02*
X112620000Y-36560000D01*
X112620000Y-36560000D02*
X114465000Y-34715000D01*
X108770000Y-34997200D02*
X108770000Y-35581400D01*
%TO.N,Net-(D50-A)*%
X85615208Y-182404792D02*
X84283447Y-182404792D01*
X90977753Y-182403506D02*
X90418204Y-182963055D01*
X83055843Y-181990000D02*
X81766020Y-180700177D01*
X83868655Y-181990000D02*
X83055843Y-181990000D01*
X84283447Y-182404792D02*
X83868655Y-181990000D01*
X90418204Y-182963055D02*
X87003055Y-182963055D01*
X86030000Y-181990000D02*
X85615208Y-182404792D01*
X87003055Y-182963055D02*
X86030000Y-181990000D01*
%TO.N,Net-(D52-A)*%
X114261080Y-182188920D02*
X115882995Y-182188920D01*
X112570915Y-183879085D02*
X112935527Y-183514473D01*
X113872242Y-183067700D02*
X113821708Y-182628292D01*
X109011790Y-183879085D02*
X112570915Y-183879085D01*
X106561456Y-183119667D02*
X108473291Y-183119667D01*
X108473291Y-183119667D02*
X108473291Y-183340586D01*
X112935527Y-183514473D02*
X113576103Y-183440804D01*
X113821708Y-182628292D02*
X114261080Y-182188920D01*
X108473291Y-183340586D02*
X109011790Y-183879085D01*
X113576103Y-183440804D02*
X113872242Y-183067700D01*
%TO.N,Net-(D53-A)*%
X122595146Y-182092494D02*
X123134533Y-181553107D01*
X124625826Y-181371901D02*
X125957427Y-181023816D01*
X123134533Y-181553107D02*
X123134533Y-181315467D01*
X118967385Y-181692924D02*
X119366955Y-182092494D01*
X124349324Y-181210000D02*
X124625826Y-181371901D01*
X119366955Y-182092494D02*
X122595146Y-182092494D01*
X123134533Y-181315467D02*
X123240000Y-181210000D01*
X125957427Y-181023816D02*
X126000649Y-180950000D01*
X123240000Y-181210000D02*
X124349324Y-181210000D01*
X126574991Y-180950000D02*
X128065212Y-179459779D01*
X126000649Y-180950000D02*
X126574991Y-180950000D01*
%TO.N,Net-(D54-A)*%
X139742195Y-175043596D02*
X137485791Y-177300000D01*
X136311325Y-177300000D02*
X135732161Y-177300000D01*
X135732161Y-177300000D02*
X134497458Y-178534703D01*
X134497458Y-178534703D02*
X131049121Y-178534703D01*
X136606091Y-177420660D02*
X136311325Y-177300000D01*
X136893992Y-177300000D02*
X136606091Y-177420660D01*
X137485791Y-177300000D02*
X136893992Y-177300000D01*
%TO.N,Net-(D55-A)*%
X143172844Y-169992917D02*
X145249335Y-167916426D01*
X143172844Y-173101254D02*
X143172844Y-169992917D01*
X142566246Y-173707852D02*
X143172844Y-173101254D01*
%TO.N,Net-(D56-A)*%
X146293808Y-158672795D02*
X146293808Y-159023714D01*
X146000000Y-157324723D02*
X146000000Y-158015808D01*
X147081990Y-156242733D02*
X146000000Y-157324723D01*
X144287380Y-160973281D02*
X143926401Y-161718892D01*
X143926401Y-161718892D02*
X142974242Y-162671051D01*
X142974242Y-162671051D02*
X142974242Y-165105462D01*
X146000000Y-158015808D02*
X146235756Y-158200001D01*
X146235756Y-158200001D02*
X146293808Y-158672795D01*
X146293808Y-159023714D02*
X144656540Y-160660982D01*
X144599679Y-160660982D02*
X144287380Y-160973281D01*
X144656540Y-160660982D02*
X144599679Y-160660982D01*
%TO.N,Ch16*%
X89180000Y-174032792D02*
X89180000Y-168058104D01*
X99850000Y-174530000D02*
X99600000Y-174530000D01*
X154381832Y-150685689D02*
X152517521Y-152550000D01*
X99600000Y-174530000D02*
X97420000Y-176710000D01*
X97420000Y-176710000D02*
X91857208Y-176710000D01*
X152517521Y-152550000D02*
X152490000Y-152550000D01*
X91857208Y-176710000D02*
X89180000Y-174032792D01*
X152490000Y-152550000D02*
X152490000Y-152577521D01*
X90623980Y-163735000D02*
X92183700Y-163735000D01*
X89180000Y-168058104D02*
X90200000Y-167038104D01*
X100011712Y-174368288D02*
X99850000Y-174530000D01*
X154381832Y-150188507D02*
X154381832Y-150685689D01*
X90200000Y-165415305D02*
X90033767Y-165249072D01*
X90200000Y-167038104D02*
X90200000Y-165415305D01*
X90033767Y-164325213D02*
X90623980Y-163735000D01*
X90033767Y-165249072D02*
X90033767Y-164325213D01*
X152490000Y-152577521D02*
X152460759Y-152606762D01*
%TO.N,Ch8*%
X73480000Y-176060000D02*
X73475390Y-176102390D01*
X75418528Y-176102390D02*
X73480000Y-176060000D01*
X76374414Y-177058276D02*
X75418528Y-176102390D01*
%TO.N,Ch4*%
X46167652Y-143723054D02*
X48094634Y-145650036D01*
X46212961Y-143768363D02*
X46212961Y-144060320D01*
X46167652Y-143723054D02*
X46212961Y-143768363D01*
X48094634Y-145650036D02*
X48094634Y-146509358D01*
%TO.N,Ch24*%
X186548790Y-73525437D02*
X186548790Y-71588790D01*
X186548790Y-71588790D02*
X186040000Y-71080000D01*
%TO.N,Ch12*%
X122329110Y-178343761D02*
X121640000Y-179032871D01*
X91599500Y-168815000D02*
X92183700Y-168815000D01*
X90570500Y-169844000D02*
X91599500Y-168815000D01*
X95558875Y-175340000D02*
X96645474Y-174253401D01*
X92483604Y-175340000D02*
X90570500Y-173426896D01*
X95430000Y-175340000D02*
X92483604Y-175340000D01*
X121592871Y-179080000D02*
X121585070Y-179087801D01*
X121640000Y-179032871D02*
X121640000Y-179080000D01*
X124545553Y-178343761D02*
X122329110Y-178343761D01*
X121640000Y-179080000D02*
X121592871Y-179080000D01*
X95430000Y-175340000D02*
X95558875Y-175340000D01*
X90570500Y-173426896D02*
X90570500Y-169844000D01*
%TO.N,Ch20*%
X185848480Y-118488398D02*
X185200000Y-119136878D01*
X184646022Y-120726022D02*
X184670000Y-120750000D01*
X184670000Y-120750000D02*
X184646022Y-120773978D01*
X185200000Y-119136878D02*
X185200000Y-119710000D01*
X184646022Y-120263978D02*
X184646022Y-120726022D01*
X184646022Y-120773978D02*
X184646022Y-120881322D01*
X185200000Y-119710000D02*
X184646022Y-120263978D01*
%TO.N,Net-(D63-A)*%
X191120347Y-91557011D02*
X192100466Y-92537130D01*
X192100466Y-99803379D02*
X190979995Y-100923850D01*
X192100466Y-92537130D02*
X192100466Y-99803379D01*
%TO.N,Net-(D64-A)*%
X191526893Y-84544509D02*
X191672356Y-85913148D01*
X189800916Y-79142757D02*
X190570000Y-79911841D01*
X190850984Y-81152522D02*
X191310000Y-81611538D01*
X191310000Y-84369291D02*
X191526893Y-84544509D01*
X191310000Y-81611538D02*
X191310000Y-84369291D01*
X190570000Y-81152522D02*
X190850984Y-81152522D01*
X191672356Y-87743789D02*
X190979995Y-88436150D01*
X191672356Y-85913148D02*
X191672356Y-87743789D01*
X190570000Y-79911841D02*
X190570000Y-81152522D01*
%TO.N,Net-(D75-A)*%
X184910765Y-69135799D02*
X188325070Y-69135799D01*
X189027009Y-70576155D02*
X189027009Y-71976474D01*
X189550000Y-72499465D02*
X189550000Y-75745512D01*
X189550000Y-75745512D02*
X189222816Y-76072696D01*
X188495745Y-69306474D02*
X189027009Y-70576155D01*
X188325070Y-69135799D02*
X188495745Y-69306474D01*
X189027009Y-71976474D02*
X189550000Y-72499465D01*
%TO.N,Net-(D77-A)*%
X180407201Y-73187799D02*
X181070000Y-72525000D01*
X178061912Y-73187799D02*
X180407201Y-73187799D01*
X173701214Y-67188319D02*
X173701214Y-69119955D01*
X176836293Y-72561551D02*
X178061912Y-73187799D01*
X176689611Y-72108352D02*
X176836293Y-72561551D01*
X173701214Y-69119955D02*
X176689611Y-72108352D01*
%TO.N,Net-(D49-A)*%
X70272088Y-176902088D02*
X69869919Y-176902088D01*
X71840212Y-178623381D02*
X71703248Y-178333248D01*
X74250394Y-179087999D02*
X72457999Y-179087999D01*
X78557173Y-180077827D02*
X75717827Y-180077827D01*
X74821611Y-179659216D02*
X74250394Y-179087999D01*
X78750320Y-179884680D02*
X78557173Y-180077827D01*
X71703248Y-178333248D02*
X70272088Y-176902088D01*
X75717827Y-180077827D02*
X75523218Y-179883218D01*
X72079026Y-178709026D02*
X71840212Y-178623381D01*
X75523218Y-179883218D02*
X74821611Y-179659216D01*
X72457999Y-179087999D02*
X72079026Y-178709026D01*
%TO.N,Ch7*%
X62290000Y-171200000D02*
X62325295Y-171183450D01*
X62308745Y-171183450D02*
X62292195Y-171183450D01*
X62325295Y-171183450D02*
X63690116Y-171183450D01*
X62292195Y-171183450D02*
X62290000Y-171200000D01*
X63690116Y-171183450D02*
X65044420Y-172537754D01*
%TO.N,Net-(D51-A)*%
X102523142Y-184091534D02*
X103437961Y-183176715D01*
X94078199Y-182786542D02*
X95383191Y-184091534D01*
X95383191Y-184091534D02*
X102523142Y-184091534D01*
%TO.N,Ch3*%
X40489142Y-136774772D02*
X40489142Y-136207406D01*
X38060000Y-122080000D02*
X38060000Y-123860000D01*
X38060000Y-123860000D02*
X37240000Y-124680000D01*
X39850000Y-120290000D02*
X38060000Y-122080000D01*
X38601736Y-134320000D02*
X38560000Y-134320000D01*
X38560000Y-134278264D02*
X38607469Y-134325733D01*
X40489142Y-136207406D02*
X38601736Y-134320000D01*
X38560000Y-134320000D02*
X38560000Y-134278264D01*
%TO.N,Ch15*%
X147570000Y-157363755D02*
X147570000Y-157120558D01*
X144820065Y-161995755D02*
X144820065Y-161879368D01*
X147249556Y-155072907D02*
X146867093Y-155072907D01*
X148234581Y-156269933D02*
X148176530Y-155797138D01*
X146867093Y-155072907D02*
X145150000Y-156790000D01*
X148176530Y-155797138D02*
X147249556Y-155072907D01*
X145150000Y-156790000D02*
X145150000Y-157100000D01*
X146776339Y-159923094D02*
X146776339Y-158157416D01*
X147570000Y-157120558D02*
X148234581Y-156269933D01*
X144820065Y-161879368D02*
X146776339Y-159923094D01*
X146776339Y-158157416D02*
X147570000Y-157363755D01*
%TO.N,Ch23*%
X188290079Y-82511861D02*
X188290079Y-85137038D01*
X188290079Y-85137038D02*
X188691007Y-85537966D01*
%TO.N,Ch11*%
X95710000Y-173900000D02*
X95570000Y-173760000D01*
X91020500Y-173240500D02*
X91020500Y-170664000D01*
X112555394Y-180588746D02*
X112235335Y-180908805D01*
X91020500Y-170664000D02*
X91599500Y-170085000D01*
X91540000Y-173760000D02*
X91020500Y-173240500D01*
X95570000Y-173760000D02*
X91540000Y-173760000D01*
X91599500Y-170085000D02*
X92183700Y-170085000D01*
X109530000Y-180970000D02*
X109519670Y-180908805D01*
X112235335Y-180908805D02*
X109530000Y-180970000D01*
%TO.N,Ch19*%
X105289000Y-170959000D02*
X104710000Y-170380000D01*
X175320000Y-123280000D02*
X175320000Y-123360239D01*
X177198309Y-120984748D02*
X177198309Y-121481930D01*
X177198309Y-121481930D02*
X175400239Y-123280000D01*
X111071000Y-170959000D02*
X105289000Y-170959000D01*
X111600000Y-170430000D02*
X111071000Y-170959000D01*
X175400239Y-123280000D02*
X175320000Y-123280000D01*
X175320000Y-123360239D02*
X175277236Y-123403003D01*
%TO.N,Net-(D57-A)*%
X149744133Y-151445867D02*
X148963663Y-152226337D01*
X151420000Y-149770000D02*
X150974880Y-150215120D01*
X150579509Y-150263665D02*
X149732146Y-151348240D01*
X153802753Y-146508147D02*
X151420000Y-148890900D01*
X154687483Y-146508147D02*
X153802753Y-146508147D01*
X151420000Y-148890900D02*
X151420000Y-149770000D01*
X149732146Y-151348240D02*
X149744133Y-151445867D01*
X150974880Y-150215120D02*
X150579509Y-150263665D01*
X148963663Y-152226337D02*
X148963663Y-153793694D01*
%TO.N,Net-(D58-A)*%
X157337638Y-141613653D02*
X157388894Y-142031106D01*
X161408246Y-136773560D02*
X159230000Y-138951806D01*
X159230000Y-139484079D02*
X158185001Y-140529078D01*
X157388894Y-142031106D02*
X156569156Y-142850844D01*
X159230000Y-138951806D02*
X159230000Y-139484079D01*
X158185001Y-140529078D02*
X157337638Y-141613653D01*
X156569156Y-142850844D02*
X156569156Y-144059108D01*
X162292975Y-136773560D02*
X161408246Y-136773560D01*
%TO.N,Net-(D59-A)*%
X169898468Y-127038974D02*
X169013737Y-127038974D01*
X166337259Y-129715452D02*
X166337259Y-130247726D01*
X169013737Y-127038974D02*
X166337259Y-129715452D01*
X164174648Y-132410337D02*
X164174648Y-134324522D01*
X166337259Y-130247726D02*
X164174648Y-132410337D01*
%TO.N,Net-(D60-A)*%
X176621622Y-117301996D02*
X175297359Y-118626259D01*
X172548623Y-122144481D02*
X172582184Y-122417816D01*
X173736833Y-120853167D02*
X173602725Y-120853167D01*
X174449996Y-119710835D02*
X174496929Y-120093071D01*
X173602725Y-120853167D02*
X173395986Y-121059906D01*
X173395986Y-121059906D02*
X172548623Y-122144481D01*
X171780141Y-123219859D02*
X171780141Y-124589935D01*
X174496929Y-120093071D02*
X173736833Y-120853167D01*
X172582184Y-122417816D02*
X171780141Y-123219859D01*
X178097255Y-117301996D02*
X176621622Y-117301996D01*
X175297359Y-118626259D02*
X174449996Y-119710835D01*
%TO.N,Net-(D61-A)*%
X188930000Y-119636149D02*
X188930000Y-116765627D01*
X180977280Y-115933286D02*
X182903703Y-115933286D01*
X184284714Y-122060000D02*
X186506149Y-122060000D01*
X184224746Y-117254329D02*
X184224746Y-119918083D01*
X183493431Y-120649398D02*
X183493431Y-121268717D01*
X180436938Y-116473628D02*
X180977280Y-115933286D01*
X188930000Y-116765627D02*
X188488058Y-116323685D01*
X186506149Y-122060000D02*
X188930000Y-119636149D01*
X184224746Y-119918083D02*
X183493431Y-120649398D01*
X183493431Y-121268717D02*
X184284714Y-122060000D01*
X182903703Y-115933286D02*
X184224746Y-117254329D01*
%TO.N,Net-(D62-A)*%
X191240000Y-109270000D02*
X190832366Y-109677634D01*
X191307563Y-106581917D02*
X191240000Y-107057285D01*
X189334724Y-111175276D02*
X189222816Y-111287184D01*
X191307563Y-104661168D02*
X191307563Y-106581917D01*
X189222816Y-111287184D02*
X189222816Y-113287304D01*
X191240000Y-107057285D02*
X191240000Y-109270000D01*
X190200003Y-111329583D02*
X189334724Y-111175276D01*
X190590732Y-111057122D02*
X190200003Y-111329583D01*
X190832366Y-109702153D02*
X190590732Y-111057122D01*
X190679805Y-104033410D02*
X191307563Y-104661168D01*
X190832366Y-109677634D02*
X190832366Y-109702153D01*
%TO.N,Ch6*%
X37140000Y-117060000D02*
X37140000Y-116588600D01*
X60860000Y-162990000D02*
X60702732Y-164616249D01*
X39110000Y-114618600D02*
X39110000Y-112126396D01*
X41065000Y-110171396D02*
X41065000Y-108838600D01*
X60702732Y-164616249D02*
X59887638Y-165431343D01*
X60702732Y-163073865D02*
X60860000Y-162990000D01*
X37140000Y-116588600D02*
X39110000Y-114618600D01*
X39110000Y-112126396D02*
X41065000Y-110171396D01*
%TO.N,Ch2*%
X32870000Y-127090000D02*
X32883650Y-127040186D01*
X32883650Y-126472821D02*
X32870000Y-127090000D01*
X31001976Y-124591147D02*
X32883650Y-126472821D01*
%TO.N,Ch14*%
X144376537Y-170476537D02*
X144410000Y-170510000D01*
X144443463Y-170476537D02*
X146867823Y-170476537D01*
X98860000Y-174230000D02*
X96830000Y-176260000D01*
X92043604Y-176260000D02*
X89630000Y-173846396D01*
X96830000Y-176260000D02*
X92043604Y-176260000D01*
X91599500Y-166275000D02*
X92183700Y-166275000D01*
X89630000Y-173846396D02*
X89630000Y-168244500D01*
X144410000Y-170510000D02*
X144443463Y-170476537D01*
X146867823Y-170476537D02*
X146920179Y-170528893D01*
X89630000Y-168244500D02*
X91599500Y-166275000D01*
X144354415Y-170476537D02*
X144376537Y-170476537D01*
%TO.N,Ch10*%
X100258342Y-181013935D02*
X100368633Y-181124226D01*
X97300000Y-180990000D02*
X100258342Y-181013935D01*
X97318076Y-181013935D02*
X97300000Y-180990000D01*
%TO.N,Ch22*%
X189121593Y-94708873D02*
X189150466Y-94680000D01*
X189240000Y-97700000D02*
X189121593Y-94708873D01*
X189121593Y-97732413D02*
X189240000Y-97700000D01*
%TO.N,Ch18*%
X169592816Y-130719334D02*
X169592816Y-131216516D01*
X108600600Y-173930000D02*
X112340000Y-173930000D01*
X106320600Y-171650000D02*
X108600600Y-173930000D01*
X104710000Y-171650000D02*
X106320600Y-171650000D01*
X169592816Y-131216516D02*
X167671743Y-133137589D01*
%TO.N,Net-(D80-A)*%
X166095721Y-57453733D02*
X166095721Y-59243216D01*
X167121056Y-60268551D02*
X167691866Y-60999155D01*
X166095721Y-59243216D02*
X167121056Y-60268551D01*
X167691866Y-60999155D02*
X167691866Y-61531427D01*
X170930504Y-64770065D02*
X171780141Y-64770065D01*
X167691866Y-61531427D02*
X170930504Y-64770065D01*
%TO.N,Net-(D84-A)*%
X161074149Y-52784617D02*
X163325010Y-55035478D01*
X159239011Y-50179992D02*
X160086374Y-51264568D01*
X158490229Y-47719147D02*
X158490229Y-49350229D01*
X158490229Y-49350229D02*
X159247867Y-50107867D01*
X160449106Y-51309106D02*
X161074149Y-51934149D01*
X159247867Y-50107867D02*
X159239011Y-50179992D01*
X160086374Y-51264568D02*
X160449106Y-51309106D01*
X161074149Y-51934149D02*
X161074149Y-52784617D01*
X163325010Y-55035478D02*
X164174648Y-55035478D01*
%TO.N,Net-(D87-A)*%
X145535986Y-19739920D02*
X142837424Y-22438482D01*
X142837424Y-22438482D02*
X142837424Y-24016394D01*
X145318091Y-17130941D02*
X145535986Y-17348836D01*
X145535986Y-17348836D02*
X145535986Y-19739920D01*
%TO.N,Net-(D88-A)*%
X136363732Y-20343056D02*
X137155751Y-20343056D01*
X141846659Y-15652148D02*
X142566246Y-15652148D01*
X137155751Y-20343056D02*
X141846659Y-15652148D01*
%TO.N,Net-(D91-A)*%
X111874776Y-28333022D02*
X104306978Y-28333022D01*
X102946578Y-30233022D02*
X101921578Y-31258022D01*
X111186603Y-31283022D02*
X112211603Y-30258022D01*
X112211603Y-30258022D02*
X112211603Y-28669849D01*
X112211603Y-28669849D02*
X111874776Y-28333022D01*
X102946578Y-29693422D02*
X102946578Y-30233022D01*
X104306978Y-28333022D02*
X102946578Y-29693422D01*
%TO.N,Net-(D92-A)*%
X98833236Y-31283022D02*
X97933236Y-32183022D01*
X90476666Y-32183022D02*
X89544004Y-31250360D01*
X97933236Y-32183022D02*
X90476666Y-32183022D01*
%TO.N,Ch1*%
X34715000Y-108838600D02*
X28913600Y-114640000D01*
X25220000Y-118240000D02*
X24260254Y-118240000D01*
X24260254Y-118240000D02*
X23100000Y-119400254D01*
X23080254Y-119420000D02*
X23031983Y-119468271D01*
X23100000Y-119420000D02*
X23080254Y-119420000D01*
X28913600Y-114640000D02*
X23170000Y-114640000D01*
X23100000Y-119400254D02*
X23100000Y-119420000D01*
X23170000Y-114640000D02*
X23170000Y-114690000D01*
%TO.N,Ch5*%
X53818454Y-153794906D02*
X53818454Y-154362272D01*
X53818454Y-154362272D02*
X55700127Y-156243945D01*
%TO.N,Ch9*%
X88227776Y-179939544D02*
X85761537Y-179939544D01*
X85761537Y-179939544D02*
X85223091Y-179401098D01*
%TO.N,Ch13*%
X96320000Y-175790000D02*
X97800000Y-174310000D01*
X91599500Y-167545000D02*
X90080000Y-169064500D01*
X133288161Y-175601133D02*
X133274187Y-175587159D01*
X134427402Y-174433944D02*
X136100518Y-174433944D01*
X92210000Y-175790000D02*
X96320000Y-175790000D01*
X90080000Y-169064500D02*
X90080000Y-173660000D01*
X97850000Y-174260000D02*
X97850000Y-174260000D01*
X97800000Y-174260000D02*
X97850000Y-174260000D01*
X97800000Y-174310000D02*
X97800000Y-174260000D01*
X90080000Y-173660000D02*
X92210000Y-175790000D01*
X133288161Y-175601133D02*
X133288161Y-175573185D01*
X92183700Y-167545000D02*
X91599500Y-167545000D01*
X133288161Y-175573185D02*
X134427402Y-174433944D01*
%TO.N,Ch17*%
X106680000Y-172920000D02*
X104710000Y-172920000D01*
X160090000Y-143000000D02*
X160066251Y-142872175D01*
X161987324Y-140453921D02*
X161987324Y-140951102D01*
X161987324Y-140951102D02*
X160090000Y-143000000D01*
X109500000Y-175740000D02*
X106680000Y-172920000D01*
%TO.N,Ch21*%
X188290079Y-109408020D02*
X187831980Y-109866119D01*
X188290079Y-106848139D02*
X188290079Y-109408020D01*
%TO.N,Net-(D95-A)*%
X62630000Y-15010646D02*
X63560646Y-14080000D01*
X60946177Y-15330000D02*
X61436638Y-15330000D01*
X61436638Y-15330000D02*
X61618461Y-15234255D01*
X64447513Y-13834914D02*
X65628119Y-13834914D01*
X61927201Y-15330000D02*
X62630000Y-15330000D01*
X58702933Y-17877224D02*
X58702933Y-17573244D01*
X63939360Y-14080000D02*
X64447513Y-13834914D01*
X63560646Y-14080000D02*
X63939360Y-14080000D01*
X58702933Y-17573244D02*
X60946177Y-15330000D01*
X61618461Y-15234255D02*
X61927201Y-15330000D01*
X62630000Y-15330000D02*
X62630000Y-15010646D01*
X65628119Y-13834914D02*
X66812207Y-15019002D01*
%TO.N,Net-(D96-A)*%
X59835619Y-25636631D02*
X59835619Y-26934894D01*
X59835619Y-26934894D02*
X61143408Y-28242683D01*
X58721798Y-24522810D02*
X59835619Y-25636631D01*
X58721798Y-22209978D02*
X58721798Y-24522810D01*
X58892065Y-22039711D02*
X58721798Y-22209978D01*
X61143408Y-28242683D02*
X61143408Y-29438118D01*
%TO.N,MOSI*%
X100999000Y-167149000D02*
X100125000Y-166275000D01*
X102170000Y-167149000D02*
X100999000Y-167149000D01*
X105873200Y-167149000D02*
X106472200Y-166550000D01*
X41644000Y-106179000D02*
X41644000Y-112882400D01*
X109312800Y-166550000D02*
X109332800Y-166570000D01*
X40740000Y-105275000D02*
X41644000Y-106179000D01*
X108167200Y-41965000D02*
X110040000Y-40092200D01*
X102170000Y-167149000D02*
X105873200Y-167149000D01*
X97190000Y-39592800D02*
X97190000Y-40245000D01*
X110040000Y-40092200D02*
X110040000Y-39620000D01*
X40740000Y-104850000D02*
X40740000Y-105275000D01*
X98910000Y-41965000D02*
X108167200Y-41965000D01*
X100125000Y-166275000D02*
X96806500Y-166275000D01*
X106472200Y-166550000D02*
X109312800Y-166550000D01*
X97190000Y-40245000D02*
X98910000Y-41965000D01*
X41644000Y-112882400D02*
X41065000Y-113461400D01*
%TO.N,SCK1*%
X38550000Y-106030000D02*
X39215000Y-106695000D01*
X39200000Y-111400000D02*
X38525000Y-112075000D01*
X38210000Y-104792800D02*
X38550000Y-105132800D01*
X39215000Y-106695000D02*
X39215000Y-109090305D01*
X38525000Y-112075000D02*
X38525000Y-113461400D01*
X38550000Y-105132800D02*
X38550000Y-106030000D01*
X39215000Y-109090305D02*
X39200000Y-109105305D01*
X39200000Y-109105305D02*
X39200000Y-111400000D01*
%TO.N,CS2*%
X95436000Y-164426000D02*
X96015000Y-165005000D01*
X90758767Y-164625518D02*
X90958285Y-164426000D01*
X96015000Y-165005000D02*
X96806500Y-165005000D01*
X90958285Y-164426000D02*
X95436000Y-164426000D01*
%TO.N,CS3*%
X88710000Y-164610000D02*
X90325000Y-162995000D01*
X90325000Y-162995000D02*
X106443600Y-162995000D01*
X94920000Y-177160000D02*
X91640000Y-177160000D01*
X88710000Y-174230000D02*
X88710000Y-164610000D01*
X106443600Y-162995000D02*
X108748600Y-165300000D01*
X91640000Y-177160000D02*
X88710000Y-174230000D01*
X108748600Y-165300000D02*
X109332800Y-165300000D01*
X96170000Y-178410000D02*
X94920000Y-177160000D01*
%TO.N,Ch48*%
X17840000Y-111310000D02*
X17793265Y-113645664D01*
X30330000Y-100470000D02*
X31230000Y-101370000D01*
X31230000Y-101370000D02*
X42559000Y-101370000D01*
X17793265Y-113645664D02*
X18458065Y-114310464D01*
X17793265Y-111331187D02*
X17840000Y-111310000D01*
X42559000Y-101370000D02*
X43290000Y-100639000D01*
X43290000Y-100639000D02*
X43290000Y-100170000D01*
%TO.N,Ch44*%
X38210000Y-98280000D02*
X38210000Y-100170000D01*
X24157006Y-69916842D02*
X25310000Y-71069836D01*
X25350164Y-71110000D02*
X25314714Y-71074550D01*
X25310000Y-71069836D02*
X25310000Y-71110000D01*
X38005000Y-98075000D02*
X38210000Y-98280000D01*
X23104733Y-69916842D02*
X24157006Y-69916842D01*
X38005000Y-96720000D02*
X38005000Y-98075000D01*
X25310000Y-71110000D02*
X25350164Y-71110000D01*
%TO.N,Net-(D85-A)*%
X159317469Y-44441721D02*
X158458298Y-45300892D01*
X156800000Y-40400000D02*
X156800000Y-40730000D01*
X159317469Y-44026979D02*
X159317469Y-44441721D01*
X158850000Y-42780000D02*
X158850000Y-43428646D01*
X155354108Y-38954108D02*
X156800000Y-40400000D01*
X158850000Y-43428646D02*
X159317469Y-44026979D01*
X154576810Y-37984560D02*
X154667360Y-38075110D01*
X156800000Y-40730000D02*
X158850000Y-42780000D01*
X158458298Y-45300892D02*
X156569156Y-45300892D01*
X154667360Y-38075110D02*
X155354108Y-38954108D01*
X150884737Y-37984560D02*
X154576810Y-37984560D01*
%TO.N,Net-(D86-A)*%
X147907685Y-29437685D02*
X150864613Y-32394613D01*
X151700000Y-34719111D02*
X150852805Y-35566306D01*
X147003815Y-28282471D02*
X147907685Y-29186341D01*
X151700000Y-34160000D02*
X151700000Y-34719111D01*
X145607529Y-28282471D02*
X147003815Y-28282471D01*
X147907685Y-29186341D02*
X147907685Y-29437685D01*
X143549266Y-28327129D02*
X145562871Y-28327129D01*
X150852805Y-35566306D02*
X148963663Y-35566306D01*
X143241910Y-28019773D02*
X143549266Y-28327129D01*
X145562871Y-28327129D02*
X145607529Y-28282471D01*
X150864613Y-32394613D02*
X150864613Y-33207817D01*
X151281826Y-33741826D02*
X151700000Y-34160000D01*
X150864613Y-33207817D02*
X151281826Y-33741826D01*
%TO.N,Ch47*%
X21160000Y-99510000D02*
X22040000Y-99510000D01*
X16294770Y-99345230D02*
X16294770Y-102025721D01*
X16350000Y-99290000D02*
X16294770Y-99345230D01*
X16294770Y-99221503D02*
X16294770Y-99234770D01*
X42020000Y-100170000D02*
X42020000Y-98436903D01*
X38623097Y-95040000D02*
X26510000Y-95040000D01*
X16294770Y-102025721D02*
X16533733Y-102264684D01*
X20730000Y-99080000D02*
X21160000Y-99510000D01*
X16294770Y-99234770D02*
X16350000Y-99290000D01*
X42020000Y-98436903D02*
X38623097Y-95040000D01*
X26510000Y-95040000D02*
X22040000Y-99510000D01*
%TO.N,Ch43*%
X32948162Y-62775030D02*
X31027089Y-64696103D01*
X32948162Y-62277849D02*
X32948162Y-62775030D01*
%TO.N,Net-(D89-A)*%
X129992665Y-28137335D02*
X129393480Y-28137335D01*
X134361072Y-22853475D02*
X134361072Y-24113701D01*
X128709848Y-27710000D02*
X127544079Y-27710000D01*
X129393480Y-28137335D02*
X128927039Y-28040700D01*
X127544079Y-27710000D02*
X126674496Y-28579583D01*
X134361072Y-24113701D02*
X132276048Y-26198725D01*
X132276048Y-26198725D02*
X131931275Y-26198725D01*
X131931275Y-26198725D02*
X129992665Y-28137335D01*
X128927039Y-28040700D02*
X128709848Y-27710000D01*
%TO.N,Net-(D90-A)*%
X121583422Y-30276578D02*
X121747314Y-31042306D01*
X123721350Y-29841241D02*
X122018759Y-29841241D01*
X121747314Y-31042306D02*
X121488443Y-31442169D01*
X121488443Y-31442169D02*
X120142579Y-31730230D01*
X119742809Y-32130000D02*
X115146923Y-32130000D01*
X115146923Y-32130000D02*
X114274945Y-31258022D01*
X122018759Y-29841241D02*
X121583422Y-30276578D01*
X120142579Y-31730230D02*
X119742809Y-32130000D01*
%TO.N,Ch46*%
X16330000Y-90061516D02*
X16330000Y-90110000D01*
X16515170Y-87021447D02*
X16515170Y-89876346D01*
X38446701Y-95500000D02*
X36750000Y-95500000D01*
X16281516Y-90110000D02*
X16323541Y-90067975D01*
X40750000Y-100170000D02*
X40750000Y-97803299D01*
X16515170Y-89876346D02*
X16330000Y-90061516D01*
X34330000Y-98540000D02*
X34430000Y-98440000D01*
X34370000Y-97880000D02*
X34370000Y-98540000D01*
X34370000Y-98540000D02*
X34330000Y-98540000D01*
X40750000Y-97803299D02*
X38446701Y-95500000D01*
X16330000Y-90110000D02*
X16281516Y-90110000D01*
X36750000Y-95500000D02*
X34370000Y-97880000D01*
%TO.N,Ch42*%
X38610000Y-54980000D02*
X38632582Y-54464335D01*
X38632582Y-54961517D02*
X38610000Y-54980000D01*
X38632582Y-54464335D02*
X40553655Y-52543262D01*
%TO.N,Net-(D93-A)*%
X79642499Y-30040000D02*
X79080000Y-30040000D01*
X86342457Y-30999461D02*
X85958888Y-31383030D01*
X85958888Y-31383030D02*
X82670876Y-31383030D01*
X82670876Y-31383030D02*
X81327846Y-30040000D01*
X81327846Y-30040000D02*
X80958003Y-30040000D01*
X79080000Y-30040000D02*
X77291514Y-28251514D01*
X80893114Y-30195849D02*
X80452695Y-30377332D01*
X80452695Y-30377332D02*
X79642499Y-30040000D01*
X77291514Y-28251514D02*
X77291514Y-27844753D01*
X80958003Y-30040000D02*
X80893114Y-30195849D01*
%TO.N,Net-(D94-A)*%
X72924973Y-26106693D02*
X68115862Y-21297582D01*
X68115862Y-21297582D02*
X68115862Y-19039695D01*
X74591144Y-26106693D02*
X72924973Y-26106693D01*
%TO.N,Ch41*%
X46255004Y-45210000D02*
X46230000Y-45210000D01*
X48159147Y-42808676D02*
X48159147Y-43305857D01*
X48159147Y-43305857D02*
X46255004Y-45210000D01*
X46230000Y-45210000D02*
X46230000Y-45235004D01*
X46230000Y-45235004D02*
X46238074Y-45226930D01*
%TO.N,Ch45*%
X36580000Y-97010000D02*
X36580000Y-97470000D01*
X36580000Y-97470000D02*
X35820000Y-97470000D01*
X17831675Y-75592196D02*
X18450082Y-74973789D01*
X37595000Y-95995000D02*
X36580000Y-97010000D01*
X39480000Y-97169695D02*
X38305305Y-95995000D01*
X17831675Y-77963041D02*
X17831675Y-75592196D01*
X35820000Y-97470000D02*
X35620000Y-97670000D01*
X39480000Y-100170000D02*
X39480000Y-97169695D01*
X38305305Y-95995000D02*
X37595000Y-95995000D01*
%TO.N,CS6*%
X42020000Y-104792800D02*
X42711000Y-105483800D01*
X42711000Y-105956000D02*
X43864000Y-105956000D01*
X42711000Y-105483800D02*
X42711000Y-105956000D01*
X43864000Y-105956000D02*
X43990000Y-105830000D01*
X43990000Y-105830000D02*
X43990000Y-96485000D01*
X43990000Y-96485000D02*
X36565000Y-89060000D01*
%TD*%
M02*
