%TF.GenerationSoftware,KiCad,Pcbnew,8.0.0-dirty*%
%TF.CreationDate,2024-04-13T23:16:21-04:00*%
%TF.ProjectId,RCJ_Open_LinePCB,52434a5f-4f70-4656-9e5f-4c696e655043,rev?*%
%TF.SameCoordinates,Original*%
%TF.FileFunction,Copper,L1,Top*%
%TF.FilePolarity,Positive*%
%FSLAX46Y46*%
G04 Gerber Fmt 4.6, Leading zero omitted, Abs format (unit mm)*
G04 Created by KiCad (PCBNEW 8.0.0-dirty) date 2024-04-13 23:16:21*
%MOMM*%
%LPD*%
G01*
G04 APERTURE LIST*
G04 Aperture macros list*
%AMRoundRect*
0 Rectangle with rounded corners*
0 $1 Rounding radius*
0 $2 $3 $4 $5 $6 $7 $8 $9 X,Y pos of 4 corners*
0 Add a 4 corners polygon primitive as box body*
4,1,4,$2,$3,$4,$5,$6,$7,$8,$9,$2,$3,0*
0 Add four circle primitives for the rounded corners*
1,1,$1+$1,$2,$3*
1,1,$1+$1,$4,$5*
1,1,$1+$1,$6,$7*
1,1,$1+$1,$8,$9*
0 Add four rect primitives between the rounded corners*
20,1,$1+$1,$2,$3,$4,$5,0*
20,1,$1+$1,$4,$5,$6,$7,0*
20,1,$1+$1,$6,$7,$8,$9,0*
20,1,$1+$1,$8,$9,$2,$3,0*%
G04 Aperture macros list end*
%TA.AperFunction,ComponentPad*%
%ADD10RoundRect,0.250000X-0.600000X-0.600000X0.600000X-0.600000X0.600000X0.600000X-0.600000X0.600000X0*%
%TD*%
%TA.AperFunction,ComponentPad*%
%ADD11C,1.700000*%
%TD*%
%TA.AperFunction,ViaPad*%
%ADD12C,0.800000*%
%TD*%
%TA.AperFunction,Conductor*%
%ADD13C,0.250000*%
%TD*%
G04 APERTURE END LIST*
D10*
%TO.P,J1,1,Pin_1*%
%TO.N,CS3*%
X36565000Y-76360000D03*
D11*
%TO.P,J1,2,Pin_2*%
%TO.N,CS2*%
X39105000Y-76360000D03*
%TO.P,J1,3,Pin_3*%
%TO.N,MOSI*%
X36565000Y-78900000D03*
%TO.P,J1,4,Pin_4*%
%TO.N,MISO*%
X39105000Y-78900000D03*
%TO.P,J1,5,Pin_5*%
%TO.N,SCK1*%
X36565000Y-81440000D03*
%TO.P,J1,6,Pin_6*%
%TO.N,CS1*%
X39105000Y-81440000D03*
%TO.P,J1,7,Pin_7*%
%TO.N,CS4*%
X36565000Y-83980000D03*
%TO.P,J1,8,Pin_8*%
%TO.N,CS5*%
X39105000Y-83980000D03*
%TO.P,J1,9,Pin_9*%
%TO.N,5V*%
X36565000Y-86520000D03*
%TO.P,J1,10,Pin_10*%
%TO.N,GND*%
X39105000Y-86520000D03*
%TO.P,J1,11,Pin_11*%
%TO.N,CS6*%
X36565000Y-89060000D03*
%TO.P,J1,12,Pin_12*%
%TO.N,3.3V*%
X39105000Y-89060000D03*
%TD*%
D12*
%TO.N,3.3V*%
X24350000Y-90400000D03*
%TO.N,GND*%
X141530000Y-17550000D03*
X123000000Y-27930000D03*
X96660000Y-170090000D03*
X109332800Y-170234000D03*
X32160000Y-114340000D03*
X141570000Y-171900000D03*
X187340000Y-76560000D03*
X16370000Y-74420000D03*
X150610000Y-34340000D03*
X173380000Y-125870000D03*
X82320000Y-178730000D03*
X47874439Y-142743542D03*
X99550000Y-39592800D03*
X130390000Y-176590000D03*
X158230000Y-43970000D03*
X34470000Y-63470000D03*
X188920000Y-88620000D03*
X42480000Y-50170000D03*
X75840000Y-24470000D03*
X144960000Y-164480000D03*
X68050000Y-16660000D03*
X55320000Y-152540000D03*
X132820000Y-21540000D03*
X162260000Y-52630000D03*
X106230000Y-39620000D03*
X150530000Y-155000000D03*
X144730000Y-24680000D03*
X50100000Y-40470000D03*
X182320000Y-117130000D03*
X188920000Y-100860000D03*
X86590000Y-28900000D03*
X40140000Y-133200000D03*
X181260000Y-70540000D03*
X16920000Y-84180000D03*
X94330000Y-180910000D03*
X17340000Y-108300000D03*
X98850000Y-29230000D03*
X106471468Y-181071643D03*
X165830000Y-135560000D03*
X34840000Y-59790000D03*
X61380000Y-22520000D03*
X169890000Y-62320000D03*
X21730000Y-117920000D03*
X94360000Y-174490000D03*
X111240000Y-29250000D03*
X158220000Y-145350000D03*
X59780000Y-169620000D03*
X16160000Y-96150000D03*
X96820000Y-163720000D03*
X118530000Y-179710000D03*
X59540000Y-161060000D03*
X70660000Y-175030000D03*
X187230000Y-112770000D03*
X32670000Y-123420000D03*
X57550000Y-30660000D03*
X112540000Y-39730000D03*
%TO.N,Ch40*%
X53890000Y-35470000D03*
X99520000Y-35100000D03*
%TO.N,3.3V*%
X109332800Y-172290000D03*
X87970000Y-181930000D03*
X35020000Y-104660000D03*
X96806500Y-171355000D03*
X34690000Y-113370000D03*
%TO.N,Ch36*%
X94470000Y-34970000D03*
X83770000Y-28420000D03*
%TO.N,Ch39*%
X98390000Y-35190000D03*
X61020000Y-26090000D03*
%TO.N,Ch35*%
X92780000Y-29320000D03*
X93170000Y-34820000D03*
%TO.N,Ch38*%
X65080000Y-16770000D03*
X97010000Y-34970000D03*
%TO.N,Ch34*%
X105080000Y-29270000D03*
X97170000Y-33370000D03*
%TO.N,Ch33*%
X117310000Y-29160000D03*
X99440000Y-32730000D03*
%TO.N,Ch37*%
X73410000Y-22680000D03*
X95740000Y-34970000D03*
%TO.N,Ch32*%
X128470000Y-25230000D03*
X112580000Y-34997200D03*
%TO.N,Ch28*%
X113740000Y-34070000D03*
X154510000Y-39280000D03*
%TO.N,Ch31*%
X140280000Y-15460000D03*
X111390000Y-35010000D03*
%TO.N,Ch27*%
X161937240Y-48878055D03*
X106230000Y-34565000D03*
%TO.N,Ch30*%
X146420000Y-23040000D03*
X110040000Y-34997200D03*
%TO.N,Ch26*%
X105000000Y-35010000D03*
X169720000Y-58590000D03*
%TO.N,Ch25*%
X177207131Y-68383151D03*
X103690000Y-34997200D03*
%TO.N,Ch29*%
X113180000Y-32970000D03*
X146710000Y-29260000D03*
%TO.N,Ch16*%
X152490000Y-152550000D03*
X100011712Y-174368288D03*
%TO.N,Ch8*%
X43605000Y-108838600D03*
X73480000Y-176060000D03*
%TO.N,Ch4*%
X46167652Y-143723054D03*
X38490000Y-108838600D03*
%TO.N,Ch24*%
X104603747Y-164136253D03*
X186470000Y-73600000D03*
%TO.N,Ch12*%
X96645474Y-174253401D03*
X121640000Y-179080000D03*
%TO.N,Ch20*%
X104710000Y-169029200D03*
X184670000Y-120750000D03*
%TO.N,Ch7*%
X42369000Y-108838600D03*
X62290000Y-171200000D03*
X36530000Y-111206149D03*
%TO.N,Ch3*%
X37240000Y-124680000D03*
X38560000Y-134320000D03*
X39850000Y-120290000D03*
X37385000Y-108838600D03*
%TO.N,Ch15*%
X144800000Y-162030000D03*
X92183700Y-165151000D03*
%TO.N,Ch23*%
X188280000Y-82460000D03*
X104710000Y-165300000D03*
%TO.N,Ch11*%
X109530000Y-180970000D03*
X95710000Y-173900000D03*
%TO.N,Ch19*%
X175320000Y-123280000D03*
X111600000Y-170430000D03*
%TO.N,Ch6*%
X60860000Y-162990000D03*
X37140000Y-117060000D03*
%TO.N,Ch2*%
X32870000Y-127090000D03*
X35930000Y-108890000D03*
%TO.N,Ch14*%
X98860000Y-174230000D03*
X144410000Y-170510000D03*
%TO.N,Ch10*%
X92430000Y-171330000D03*
X97300000Y-180990000D03*
%TO.N,Ch22*%
X189240000Y-97700000D03*
X104710000Y-166424000D03*
%TO.N,Ch18*%
X167500000Y-133060000D03*
X112340000Y-173930000D03*
%TO.N,Ch1*%
X23100000Y-119420000D03*
X23170000Y-114640000D03*
%TO.N,Ch5*%
X54021790Y-153530500D03*
X39940000Y-108824271D03*
%TO.N,Ch9*%
X92183700Y-172625000D03*
X85120000Y-179410000D03*
%TO.N,Ch13*%
X97800000Y-174260000D03*
X133288161Y-175601133D03*
%TO.N,Ch17*%
X160090000Y-143000000D03*
X109500000Y-175740000D03*
%TO.N,Ch21*%
X104860000Y-167890000D03*
X188330000Y-106990000D03*
%TO.N,MOSI*%
X97190000Y-39592800D03*
X37900000Y-106720000D03*
X102170000Y-167149000D03*
X40740000Y-104850000D03*
%TO.N,MISO*%
X108740000Y-39550000D03*
X96806500Y-167545000D03*
X95740000Y-39592800D03*
X39835000Y-113461400D03*
X109332800Y-167593949D03*
X39480000Y-104792800D03*
X42710000Y-116140000D03*
%TO.N,SCK1*%
X107500000Y-39620000D03*
X109250000Y-169130000D03*
X94338747Y-39724053D03*
X96806500Y-168815000D03*
X38210000Y-104792800D03*
%TO.N,CS1*%
X42350000Y-113510000D03*
X26330000Y-75690000D03*
%TO.N,CS2*%
X90758767Y-164625518D03*
X26370000Y-78630000D03*
%TO.N,CS3*%
X96170000Y-178410000D03*
X26440000Y-81580000D03*
%TO.N,CS4*%
X111310000Y-39620000D03*
X26380000Y-84470000D03*
%TO.N,CS5*%
X98280000Y-39592800D03*
X26400000Y-87510000D03*
%TO.N,Ch48*%
X30330000Y-100470000D03*
X17840000Y-111310000D03*
%TO.N,Ch44*%
X25310000Y-71110000D03*
X38005000Y-96720000D03*
%TO.N,Ch47*%
X16350000Y-99290000D03*
X20730000Y-99080000D03*
%TO.N,Ch43*%
X32960000Y-62210000D03*
X36950000Y-100130000D03*
%TO.N,Ch46*%
X34370000Y-98540000D03*
X16330000Y-90110000D03*
%TO.N,Ch42*%
X38610000Y-54980000D03*
X35670000Y-100170000D03*
%TO.N,Ch41*%
X34440000Y-100190000D03*
X46230000Y-45210000D03*
%TO.N,Ch45*%
X17860000Y-78000000D03*
X35620000Y-97670000D03*
%TO.N,CS6*%
X26420000Y-90370000D03*
%TD*%
D13*
%TO.N,CS1*%
X15625000Y-99590305D02*
X18065000Y-102030305D01*
X15605000Y-87765000D02*
X15605000Y-92891396D01*
X18076802Y-95363198D02*
X15625000Y-97815000D01*
X17115000Y-111009695D02*
X17115000Y-111610305D01*
X17090000Y-78255305D02*
X17645000Y-78810305D01*
X17090000Y-77690000D02*
X17090000Y-78255305D01*
X17539695Y-112035000D02*
X35010000Y-112035000D01*
X15625000Y-97815000D02*
X15625000Y-99590305D01*
X15605000Y-92891396D02*
X18076802Y-95363198D01*
X17645000Y-85725000D02*
X15605000Y-87765000D01*
X24400000Y-70380000D02*
X17090000Y-77690000D01*
X25610000Y-70380000D02*
X24400000Y-70380000D01*
X17645000Y-78810305D02*
X17645000Y-85725000D01*
X26330000Y-71100000D02*
X25610000Y-70380000D01*
X26330000Y-75690000D02*
X26330000Y-71100000D01*
X18065000Y-102030305D02*
X18065000Y-110059695D01*
X35010000Y-112035000D02*
X35045000Y-112000000D01*
X18065000Y-110059695D02*
X17115000Y-111009695D01*
X17115000Y-111610305D02*
X17539695Y-112035000D01*
X35045000Y-112000000D02*
X40920000Y-112000000D01*
X40920000Y-112000000D02*
X42350000Y-113430000D01*
%TO.N,3.3V*%
X24350000Y-90400000D02*
X25640000Y-91690000D01*
X36475000Y-91690000D02*
X39105000Y-89060000D01*
X25640000Y-91690000D02*
X36475000Y-91690000D01*
%TO.N,Ch40*%
X74621279Y-27694710D02*
X70966569Y-24040000D01*
X80664710Y-27694710D02*
X74621279Y-27694710D01*
X70966569Y-24040000D02*
X67510000Y-24040000D01*
X85249882Y-30575000D02*
X83545000Y-30575000D01*
X89260000Y-34585118D02*
X85249882Y-30575000D01*
X67510000Y-24040000D02*
X56070000Y-35480000D01*
X89260000Y-37620000D02*
X89260000Y-34585118D01*
X90020000Y-38380000D02*
X89260000Y-37620000D01*
X94462204Y-38380000D02*
X90020000Y-38380000D01*
X98940000Y-37230000D02*
X95612204Y-37230000D01*
X83545000Y-30575000D02*
X80664710Y-27694710D01*
X95612204Y-37230000D02*
X94462204Y-38380000D01*
X99520000Y-36650000D02*
X98940000Y-37230000D01*
X99520000Y-35100000D02*
X99520000Y-36650000D01*
X56070000Y-35480000D02*
X53890000Y-35470000D01*
%TO.N,GND*%
X59570000Y-161060000D02*
X59540000Y-161060000D01*
X145960000Y-163480000D02*
X144960000Y-164480000D01*
X112580000Y-39730000D02*
X112590000Y-39720000D01*
X158240000Y-145330000D02*
X158220000Y-145350000D01*
X68050000Y-16660000D02*
X68020000Y-16660000D01*
X28070000Y-69930000D02*
X34470000Y-63530000D01*
X94360000Y-170400200D02*
X94930100Y-169830100D01*
X59780000Y-170520000D02*
X59780000Y-169620000D01*
X34810000Y-59790000D02*
X34810000Y-59790000D01*
X98190000Y-28540000D02*
X98020000Y-28540000D01*
X173950000Y-125870000D02*
X173380000Y-125870000D01*
X59540000Y-161030000D02*
X55290000Y-156780000D01*
X44220000Y-46540000D02*
X44040000Y-46720000D01*
X158240000Y-143130000D02*
X158240000Y-145330000D01*
X21730000Y-117910000D02*
X16660000Y-112840000D01*
X31700000Y-114340000D02*
X32160000Y-114340000D01*
X171930124Y-129719876D02*
X166090000Y-135560000D01*
X50100000Y-40460000D02*
X50100000Y-40460000D01*
X187340000Y-76550000D02*
X187340000Y-76560000D01*
X47320000Y-142330000D02*
X45860000Y-142330000D01*
X15120000Y-85980000D02*
X16920000Y-84180000D01*
X109332800Y-170234000D02*
X109332800Y-170342800D01*
X171930124Y-129589876D02*
X171930124Y-129719876D01*
X61370000Y-22490000D02*
X61370000Y-22510000D01*
X32640000Y-123410000D02*
X27290000Y-118060000D01*
X14870000Y-105750000D02*
X14870000Y-97440000D01*
X40140000Y-133200000D02*
X37620000Y-133200000D01*
X144750000Y-24700000D02*
X144750000Y-28450000D01*
X118540000Y-179710000D02*
X118530000Y-179710000D01*
X79895920Y-25360000D02*
X76740000Y-25360000D01*
X158230000Y-43970000D02*
X158240000Y-43970000D01*
X96860000Y-163720000D02*
X96820000Y-163720000D01*
X187230000Y-104769115D02*
X187230000Y-112770000D01*
X132830000Y-21530000D02*
X133340000Y-21530000D01*
X98160000Y-28540000D02*
X98850000Y-29230000D01*
X122980000Y-27900000D02*
X123960000Y-27900000D01*
X188920000Y-100860000D02*
X188910000Y-100870000D01*
X150530000Y-155000000D02*
X150530000Y-156460000D01*
X112540000Y-39730000D02*
X112580000Y-39730000D01*
X169870000Y-62330000D02*
X178080000Y-70540000D01*
X125520000Y-26340000D02*
X125870000Y-26340000D01*
X21740000Y-117920000D02*
X21730000Y-117920000D01*
X111240000Y-29250000D02*
X110390000Y-28400000D01*
X94320000Y-180900000D02*
X84500000Y-180900000D01*
X16660000Y-108980000D02*
X17340000Y-108300000D01*
X106230000Y-39620000D02*
X105505000Y-38895000D01*
X27150000Y-117920000D02*
X21740000Y-117920000D01*
X75840000Y-23620000D02*
X68880000Y-16660000D01*
X49860000Y-40470000D02*
X44220000Y-46110000D01*
X173380000Y-128140000D02*
X171930124Y-129589876D01*
X112200000Y-28290000D02*
X122590000Y-28290000D01*
X104903286Y-182400000D02*
X95820000Y-182400000D01*
X55290000Y-152570000D02*
X55320000Y-152540000D01*
X59540000Y-161060000D02*
X59540000Y-161030000D01*
X181330000Y-70540000D02*
X187340000Y-76550000D01*
X55290000Y-152510000D02*
X55320000Y-152540000D01*
X106471468Y-181071643D02*
X107879825Y-182480000D01*
X40170000Y-133200000D02*
X40140000Y-133200000D01*
X187350000Y-76560000D02*
X189990000Y-79200000D01*
X84944710Y-27244710D02*
X84257999Y-27069955D01*
X94930100Y-169830100D02*
X96430100Y-169830100D01*
X150530000Y-155000000D02*
X151660000Y-155000000D01*
X107879825Y-182480000D02*
X115770000Y-182480000D01*
X47874439Y-142743542D02*
X47733542Y-142743542D01*
X158240000Y-43970000D02*
X158240000Y-48570000D01*
X144710305Y-169785000D02*
X144051396Y-169785000D01*
X153340000Y-150230000D02*
X158220000Y-145350000D01*
X162300000Y-52630000D02*
X169870000Y-60200000D01*
X151660000Y-155000000D02*
X153340000Y-153320000D01*
X96660000Y-170060000D02*
X96660000Y-170090000D01*
X79982613Y-25402613D02*
X79895920Y-25360000D01*
X47874439Y-142743542D02*
X47874439Y-142884439D01*
X16370000Y-74420000D02*
X16370000Y-83630000D01*
X106520000Y-163140000D02*
X98402000Y-163140000D01*
X125870000Y-26340000D02*
X127980000Y-24230000D01*
X34470000Y-63470000D02*
X34530000Y-63470000D01*
X133340000Y-21530000D02*
X133340000Y-18933063D01*
X94330000Y-180910000D02*
X94320000Y-180900000D01*
X145135000Y-170209695D02*
X144710305Y-169785000D01*
X150610000Y-37370000D02*
X157210000Y-43970000D01*
X86590000Y-28890000D02*
X84944710Y-27244710D01*
X96430100Y-169830100D02*
X96660000Y-170060000D01*
X102965000Y-38895000D02*
X102267200Y-39592800D01*
X96690000Y-170090000D02*
X96690000Y-170090000D01*
X109332800Y-170342800D02*
X109400000Y-170410000D01*
X52380000Y-35770000D02*
X52380000Y-37190000D01*
X34530000Y-63470000D02*
X34500000Y-63500000D01*
X132820000Y-21540000D02*
X132830000Y-21530000D01*
X106231643Y-181071643D02*
X104903286Y-182400000D01*
X21730000Y-117920000D02*
X21730000Y-117910000D01*
X123260000Y-180820000D02*
X119650000Y-180820000D01*
X36190000Y-57430000D02*
X36190000Y-58410000D01*
X27290000Y-118060000D02*
X27150000Y-117920000D01*
X75840000Y-24470000D02*
X75840000Y-23620000D01*
X82320000Y-178720000D02*
X78600000Y-175000000D01*
X157210000Y-43970000D02*
X158230000Y-43970000D01*
X189990000Y-87550000D02*
X188920000Y-88620000D01*
X47874439Y-142884439D02*
X55290000Y-150300000D01*
X106471468Y-181071643D02*
X106231643Y-181071643D01*
X83356625Y-26800262D02*
X83066052Y-26700000D01*
X110057800Y-169752200D02*
X110057800Y-166677800D01*
X182320000Y-117130000D02*
X182320000Y-117500000D01*
X84500000Y-180900000D02*
X82330000Y-178730000D01*
X42480000Y-50170000D02*
X42160000Y-50170000D01*
X122590000Y-28290000D02*
X122980000Y-27900000D01*
X59780000Y-169620000D02*
X59900000Y-161390000D01*
X141540000Y-21490000D02*
X141540000Y-17560000D01*
X142620000Y-173320000D02*
X142625305Y-173320000D01*
X31700000Y-124390000D02*
X32670000Y-123420000D01*
X68020000Y-16660000D02*
X68020000Y-16660000D01*
X61380000Y-22520000D02*
X60080000Y-23820000D01*
X127520000Y-176560000D02*
X123260000Y-180820000D01*
X37620000Y-133200000D02*
X31700000Y-127280000D01*
X37460000Y-54870000D02*
X37460000Y-56160000D01*
X144730000Y-24680000D02*
X144750000Y-24700000D01*
X109332800Y-170234000D02*
X109576000Y-170234000D01*
X86950000Y-28540000D02*
X86590000Y-28900000D01*
X142625305Y-173320000D02*
X145135000Y-170810305D01*
X31700000Y-127280000D02*
X31700000Y-124390000D01*
X98330000Y-28400000D02*
X98190000Y-28540000D01*
X34470000Y-63530000D02*
X34470000Y-63470000D01*
X55290000Y-150300000D02*
X55290000Y-152510000D01*
X133340000Y-18933063D02*
X138143063Y-14130000D01*
X17310000Y-108190000D02*
X14870000Y-105750000D01*
X150530000Y-156460000D02*
X145960000Y-161030000D01*
X81280000Y-26700000D02*
X79982613Y-25402613D01*
X75850000Y-24470000D02*
X75840000Y-24470000D01*
X45860000Y-142330000D02*
X45860000Y-138890000D01*
X145960000Y-161030000D02*
X145960000Y-163480000D01*
X111240000Y-29250000D02*
X112200000Y-28290000D01*
X61370000Y-22510000D02*
X61380000Y-22520000D01*
X173380000Y-125870000D02*
X173380000Y-128140000D01*
X150610000Y-34340000D02*
X150610000Y-37370000D01*
X15120000Y-95110000D02*
X15120000Y-85980000D01*
X57470000Y-30680000D02*
X52380000Y-35770000D01*
X98020000Y-28540000D02*
X98160000Y-28540000D01*
X144750000Y-28450000D02*
X150610000Y-34310000D01*
X115770000Y-182480000D02*
X118530000Y-179720000D01*
X142620000Y-173320000D02*
X139380000Y-176560000D01*
X59900000Y-161390000D02*
X59570000Y-161060000D01*
X95820000Y-182400000D02*
X94330000Y-180910000D01*
X21740000Y-117920000D02*
X21740000Y-117920000D01*
X162260000Y-52630000D02*
X162300000Y-52630000D01*
X83066052Y-26700000D02*
X81280000Y-26700000D01*
X34840000Y-59790000D02*
X34810000Y-59790000D01*
X144710305Y-171235000D02*
X144705000Y-171235000D01*
X44220000Y-46110000D02*
X44220000Y-46540000D01*
X42480000Y-49730000D02*
X42480000Y-50170000D01*
X109576000Y-170234000D02*
X110057800Y-169752200D01*
X144705000Y-171235000D02*
X142620000Y-173320000D01*
X17310000Y-108270000D02*
X17310000Y-108190000D01*
X98020000Y-28540000D02*
X86950000Y-28540000D01*
X182320000Y-117500000D02*
X173950000Y-125870000D01*
X158240000Y-48570000D02*
X162260000Y-52590000D01*
X142970000Y-16260000D02*
X141680000Y-17550000D01*
X42160000Y-50170000D02*
X37460000Y-54870000D01*
X127980000Y-24230000D02*
X130130000Y-24230000D01*
X130130000Y-24230000D02*
X132820000Y-21540000D01*
X97424000Y-163156000D02*
X96860000Y-163720000D01*
X138143063Y-14130000D02*
X140840000Y-14130000D01*
X27290000Y-118060000D02*
X30610000Y-114740000D01*
X82330000Y-178730000D02*
X82320000Y-178730000D01*
X188150000Y-89390000D02*
X188150000Y-100090000D01*
X68880000Y-16660000D02*
X68050000Y-16660000D01*
X82320000Y-178730000D02*
X82320000Y-178720000D01*
X144960000Y-164480000D02*
X145990000Y-165510000D01*
X119650000Y-180820000D02*
X118540000Y-179710000D01*
X123960000Y-27900000D02*
X125520000Y-26340000D01*
X50100000Y-40470000D02*
X49860000Y-40470000D01*
X95000000Y-165540000D02*
X96820000Y-163720000D01*
X20860000Y-69930000D02*
X28070000Y-69930000D01*
X50100000Y-39470000D02*
X50100000Y-40470000D01*
X105505000Y-38895000D02*
X102965000Y-38895000D01*
X169870000Y-60200000D02*
X169870000Y-62330000D01*
X31300000Y-114740000D02*
X31700000Y-114340000D01*
X62190000Y-22490000D02*
X61370000Y-22490000D01*
X188920000Y-88620000D02*
X188150000Y-89390000D01*
X140840000Y-14130000D02*
X142970000Y-16260000D01*
X55290000Y-156780000D02*
X55290000Y-152570000D01*
X188150000Y-100090000D02*
X188920000Y-100860000D01*
X94930100Y-169830100D02*
X95000000Y-169760200D01*
X17340000Y-108300000D02*
X17310000Y-108270000D01*
X16370000Y-83630000D02*
X16920000Y-84180000D01*
X162260000Y-52590000D02*
X162260000Y-52630000D01*
X110390000Y-28400000D02*
X98330000Y-28400000D01*
X165830000Y-135560000D02*
X165810000Y-135560000D01*
X182340000Y-117110000D02*
X182320000Y-117130000D01*
X150610000Y-34310000D02*
X150610000Y-34340000D01*
X84257999Y-27069955D02*
X83356625Y-26800262D01*
X16160000Y-96150000D02*
X15120000Y-95110000D01*
X141936396Y-171900000D02*
X141570000Y-171900000D01*
X145990000Y-169955305D02*
X144710305Y-171235000D01*
X165810000Y-135560000D02*
X158240000Y-143130000D01*
X98386000Y-163156000D02*
X97424000Y-163156000D01*
X188910000Y-103089115D02*
X187230000Y-104769115D01*
X139380000Y-176560000D02*
X127520000Y-176560000D01*
X86590000Y-28900000D02*
X86590000Y-28890000D01*
X60080000Y-23820000D02*
X60080000Y-28190000D01*
X187340000Y-76560000D02*
X187350000Y-76560000D01*
X94360000Y-174490000D02*
X94360000Y-170400200D01*
X36190000Y-58410000D02*
X34840000Y-59760000D01*
X68020000Y-16660000D02*
X62190000Y-22490000D01*
X110057800Y-166677800D02*
X106520000Y-163140000D01*
X45860000Y-138890000D02*
X40170000Y-133200000D01*
X158240000Y-43970000D02*
X158240000Y-43970000D01*
X141680000Y-17550000D02*
X141530000Y-17550000D01*
X60080000Y-28190000D02*
X57590000Y-30680000D01*
X181260000Y-70540000D02*
X181330000Y-70540000D01*
X187230000Y-112770000D02*
X182890000Y-117110000D01*
X34840000Y-59760000D02*
X34840000Y-59790000D01*
X57590000Y-30680000D02*
X57470000Y-30680000D01*
X145135000Y-170810305D02*
X145135000Y-170209695D01*
X178080000Y-70540000D02*
X181260000Y-70540000D01*
X118530000Y-179720000D02*
X118530000Y-179710000D01*
X47733542Y-142743542D02*
X47320000Y-142330000D01*
X98402000Y-163140000D02*
X98386000Y-163156000D01*
X64260000Y-175000000D02*
X59780000Y-170520000D01*
X44040000Y-48170000D02*
X42480000Y-49730000D01*
X16660000Y-112840000D02*
X16660000Y-108980000D01*
X144051396Y-169785000D02*
X141936396Y-171900000D01*
X182890000Y-117110000D02*
X182340000Y-117110000D01*
X16370000Y-74420000D02*
X20860000Y-69930000D01*
X76740000Y-25360000D02*
X75850000Y-24470000D01*
X102267200Y-39592800D02*
X99550000Y-39592800D01*
X44040000Y-46720000D02*
X44040000Y-48170000D01*
X96660000Y-170090000D02*
X96690000Y-170090000D01*
X166090000Y-135560000D02*
X165830000Y-135560000D01*
X14870000Y-97440000D02*
X16160000Y-96150000D01*
X95000000Y-169760200D02*
X95000000Y-165540000D01*
X78600000Y-175000000D02*
X64260000Y-175000000D01*
X189990000Y-79200000D02*
X189990000Y-87550000D01*
X52380000Y-37190000D02*
X50100000Y-39470000D01*
X141540000Y-17560000D02*
X141530000Y-17550000D01*
X32670000Y-123420000D02*
X32640000Y-123410000D01*
X141540000Y-21490000D02*
X144730000Y-24680000D01*
X30610000Y-114740000D02*
X31300000Y-114740000D01*
X145990000Y-165510000D02*
X145990000Y-169955305D01*
X153340000Y-153320000D02*
X153340000Y-150230000D01*
X188910000Y-100870000D02*
X188910000Y-103089115D01*
X37460000Y-56160000D02*
X36190000Y-57430000D01*
%TO.N,Ch40*%
X99520000Y-35100000D02*
X99520000Y-35085305D01*
X99560000Y-35045305D02*
X99560000Y-35010000D01*
X53890000Y-35470000D02*
X53890000Y-35480000D01*
X99520000Y-35085305D02*
X99560000Y-35045305D01*
%TO.N,3.3V*%
X24350000Y-90400000D02*
X24350000Y-90400000D01*
%TO.N,Ch39*%
X83646396Y-30040000D02*
X79536396Y-25930000D01*
X71152965Y-23590000D02*
X63520000Y-23590000D01*
X97950000Y-35190000D02*
X97810000Y-35330000D01*
X63520000Y-23590000D02*
X61020000Y-26090000D01*
X98390000Y-35190000D02*
X97950000Y-35190000D01*
X98310000Y-35500000D02*
X98390000Y-35190000D01*
X97310305Y-35695000D02*
X93019695Y-35695000D01*
X73492965Y-25930000D02*
X71152965Y-23590000D01*
X87364695Y-30040000D02*
X83646396Y-30040000D01*
X97675305Y-35330000D02*
X97310305Y-35695000D01*
X79536396Y-25930000D02*
X73492965Y-25930000D01*
X93019695Y-35695000D02*
X87364695Y-30040000D01*
X97810000Y-35330000D02*
X97675305Y-35330000D01*
%TO.N,Ch35*%
X93220000Y-29760000D02*
X92780000Y-29320000D01*
X93220000Y-35100000D02*
X93220000Y-34870000D01*
X93170000Y-34820000D02*
X93220000Y-34770000D01*
X93220000Y-34770000D02*
X93220000Y-29760000D01*
X93220000Y-34870000D02*
X93170000Y-34820000D01*
%TO.N,Ch34*%
X105080000Y-29270000D02*
X105100000Y-29270000D01*
X101270000Y-29270000D02*
X105080000Y-29270000D01*
X97170000Y-33370000D02*
X101270000Y-29270000D01*
%TO.N,Ch33*%
X99490000Y-32730000D02*
X99440000Y-32730000D01*
X102160000Y-30060000D02*
X99490000Y-32730000D01*
X116410000Y-30060000D02*
X102160000Y-30060000D01*
X99440000Y-32730000D02*
X99550000Y-32840000D01*
X117310000Y-29160000D02*
X116410000Y-30060000D01*
%TO.N,Ch32*%
X122970000Y-30730000D02*
X128470000Y-25230000D01*
X112580000Y-34997200D02*
X112580000Y-35010000D01*
X111855000Y-35735000D02*
X109735000Y-35735000D01*
X109315000Y-33395000D02*
X111980000Y-30730000D01*
X109315000Y-35315000D02*
X109315000Y-33395000D01*
X111980000Y-30730000D02*
X122970000Y-30730000D01*
X112580000Y-35010000D02*
X111855000Y-35735000D01*
X109735000Y-35735000D02*
X109315000Y-35315000D01*
%TO.N,Ch31*%
X140250000Y-15520000D02*
X140250000Y-15490000D01*
X128935305Y-25790000D02*
X129980000Y-25790000D01*
X123545305Y-31180000D02*
X128935305Y-25790000D01*
X112260000Y-31180000D02*
X123545305Y-31180000D01*
X110560000Y-34120000D02*
X111390000Y-35010000D01*
X111390000Y-35010000D02*
X111310000Y-34870000D01*
X110560000Y-32880000D02*
X112260000Y-31180000D01*
X129980000Y-25790000D02*
X140250000Y-15520000D01*
X110560000Y-32880000D02*
X110560000Y-34120000D01*
%TO.N,Ch16*%
X142025000Y-171175000D02*
X142291397Y-170908603D01*
X142291397Y-170908603D02*
X142291397Y-167405692D01*
X100011712Y-174368288D02*
X100219700Y-174576276D01*
X142291397Y-167405692D02*
X142160000Y-167274295D01*
X142160000Y-167274295D02*
X142160000Y-160570000D01*
X132801460Y-174426133D02*
X133817834Y-174426133D01*
X138800000Y-174660000D02*
X138800000Y-173644695D01*
X100219700Y-174576276D02*
X100219700Y-176924116D01*
X132017593Y-175210000D02*
X132801460Y-174426133D01*
X138800000Y-173644695D02*
X141269695Y-171175000D01*
X141269695Y-171175000D02*
X142025000Y-171175000D01*
X133817834Y-174426133D02*
X134051701Y-174660000D01*
X122448097Y-177590000D02*
X124580812Y-177590000D01*
X134051701Y-174660000D02*
X138800000Y-174660000D01*
X100219700Y-176924116D02*
X101842227Y-178546643D01*
X101842227Y-178546643D02*
X116758864Y-178546643D01*
X122313097Y-177455000D02*
X122448097Y-177590000D01*
X142160000Y-160570000D02*
X150180000Y-152550000D01*
X150180000Y-152550000D02*
X152490000Y-152550000D01*
X116758864Y-178546643D02*
X117850507Y-177455000D01*
X131063097Y-174965000D02*
X131308097Y-175210000D01*
X117850507Y-177455000D02*
X122313097Y-177455000D01*
X124580812Y-177590000D02*
X127205812Y-174965000D01*
X131308097Y-175210000D02*
X132017593Y-175210000D01*
X127205812Y-174965000D02*
X131063097Y-174965000D01*
%TO.N,Ch12*%
X118229695Y-178985000D02*
X121545000Y-178985000D01*
X117318052Y-179896643D02*
X118229695Y-178985000D01*
X96645474Y-174253401D02*
X98869700Y-176477627D01*
X101283039Y-179896643D02*
X117318052Y-179896643D01*
X98869700Y-177483304D02*
X101283039Y-179896643D01*
X121545000Y-178985000D02*
X121640000Y-179080000D01*
X98869700Y-176477627D02*
X98869700Y-177483304D01*
%TO.N,Ch7*%
X36536149Y-111200000D02*
X39970000Y-111200000D01*
X36530000Y-111206149D02*
X36536149Y-111200000D01*
X42370000Y-108837600D02*
X42370000Y-108800000D01*
X42370000Y-108800000D02*
X42370000Y-108800000D01*
X39970000Y-111200000D02*
X42331400Y-108838600D01*
X42331400Y-108838600D02*
X42369000Y-108838600D01*
X42369000Y-108838600D02*
X42370000Y-108837600D01*
%TO.N,Ch11*%
X98419700Y-177669700D02*
X101096643Y-180346643D01*
X98419700Y-177323604D02*
X98419700Y-177669700D01*
X101096643Y-180346643D02*
X108906643Y-180346643D01*
X95710000Y-174613904D02*
X98419700Y-177323604D01*
X95710000Y-173900000D02*
X95710000Y-174613904D01*
X108906643Y-180346643D02*
X109530000Y-180970000D01*
%TO.N,Ch2*%
X41640000Y-117430000D02*
X43260000Y-117430000D01*
X44570000Y-116120000D02*
X44570000Y-107930000D01*
X35930000Y-108890000D02*
X36000000Y-108890000D01*
X32870000Y-127090000D02*
X33580000Y-126380000D01*
X33580000Y-125490000D02*
X41640000Y-117430000D01*
X35690000Y-106424695D02*
X35690000Y-108650000D01*
X36000000Y-108890000D02*
X36010000Y-108900000D01*
X35690000Y-108650000D02*
X35930000Y-108890000D01*
X42635000Y-105995000D02*
X36119695Y-105995000D01*
X44570000Y-107930000D02*
X42635000Y-105995000D01*
X43260000Y-117430000D02*
X44570000Y-116120000D01*
X33580000Y-126380000D02*
X33580000Y-125490000D01*
X36119695Y-105995000D02*
X35690000Y-106424695D01*
%TO.N,Ch14*%
X131121701Y-175660000D02*
X132203989Y-175660000D01*
X98860000Y-174230000D02*
X98860000Y-174620000D01*
X99760000Y-175520000D02*
X99769700Y-175520000D01*
X132203989Y-175660000D02*
X132987856Y-174876133D01*
X132987856Y-174876133D02*
X133631438Y-174876133D01*
X133631438Y-174876133D02*
X133865305Y-175110000D01*
X116945260Y-178996643D02*
X118036903Y-177905000D01*
X130876701Y-175415000D02*
X131121701Y-175660000D01*
X98860000Y-174620000D02*
X99760000Y-175520000D01*
X101655831Y-178996643D02*
X116945260Y-178996643D01*
X124767208Y-178040000D02*
X127392208Y-175415000D01*
X139810000Y-175110000D02*
X144410000Y-170510000D01*
X133865305Y-175110000D02*
X139810000Y-175110000D01*
X122126701Y-177905000D02*
X122261701Y-178040000D01*
X99769700Y-177110512D02*
X101655831Y-178996643D01*
X127392208Y-175415000D02*
X130876701Y-175415000D01*
X99769700Y-175520000D02*
X99769700Y-177110512D01*
X122261701Y-178040000D02*
X124767208Y-178040000D01*
X118036903Y-177905000D02*
X122126701Y-177905000D01*
%TO.N,Ch10*%
X92908700Y-171818700D02*
X92430000Y-171340000D01*
X92430000Y-171340000D02*
X92430000Y-171330000D01*
X92908700Y-174700401D02*
X92908700Y-171818700D01*
X97300000Y-180990000D02*
X97969700Y-180320300D01*
X97969700Y-177510000D02*
X95718299Y-177510000D01*
X97969700Y-180320300D02*
X97969700Y-177510000D01*
X95718299Y-177510000D02*
X92908700Y-174700401D01*
X92430000Y-171330000D02*
X92420000Y-171330000D01*
X92420000Y-171330000D02*
X92450000Y-171360000D01*
%TO.N,Ch9*%
X85120000Y-179410000D02*
X85090000Y-179410000D01*
X92183700Y-172625000D02*
X90788700Y-174020000D01*
X85090000Y-179410000D02*
X85130000Y-179370000D01*
X90788700Y-174020000D02*
X90480000Y-174020000D01*
X90480000Y-174020000D02*
X85120000Y-179380000D01*
X85120000Y-179380000D02*
X85120000Y-179410000D01*
%TO.N,Ch13*%
X127578604Y-175865000D02*
X130690305Y-175865000D01*
X118223299Y-178355000D02*
X121940305Y-178355000D01*
X130935305Y-176110000D02*
X132720000Y-176110000D01*
X99319700Y-176070000D02*
X99319700Y-177296908D01*
X122075305Y-178490000D02*
X124953604Y-178490000D01*
X121940305Y-178355000D02*
X122075305Y-178490000D01*
X124953604Y-178490000D02*
X127578604Y-175865000D01*
X132720000Y-176110000D02*
X133310000Y-175520000D01*
X130690305Y-175865000D02*
X130935305Y-176110000D01*
X101469435Y-179446643D02*
X117131656Y-179446643D01*
X117131656Y-179446643D02*
X118223299Y-178355000D01*
X99319700Y-175779700D02*
X97800000Y-174260000D01*
X99319700Y-177296908D02*
X101469435Y-179446643D01*
X99319700Y-176070000D02*
X99319700Y-175779700D01*
%TO.N,MISO*%
X101440305Y-37875000D02*
X101635305Y-37680000D01*
X106870000Y-37680000D02*
X108740000Y-39550000D01*
X100644695Y-37680000D02*
X100839695Y-37875000D01*
X100839695Y-37875000D02*
X101440305Y-37875000D01*
X101635305Y-37680000D02*
X106870000Y-37680000D01*
X95798600Y-37680000D02*
X100644695Y-37680000D01*
X108740000Y-39600000D02*
X108740000Y-39600000D01*
X108740000Y-39550000D02*
X108740000Y-39600000D01*
X95740000Y-37738600D02*
X95798600Y-37680000D01*
X95740000Y-39592800D02*
X95740000Y-37738600D01*
%TO.N,SCK1*%
X98239404Y-165130000D02*
X102379404Y-169270000D01*
X102379404Y-169270000D02*
X102863604Y-169754200D01*
X109220000Y-169130000D02*
X109250000Y-169130000D01*
X96046396Y-165130000D02*
X98239404Y-165130000D01*
X95560000Y-165616396D02*
X96046396Y-165130000D01*
X95560000Y-167568500D02*
X95560000Y-165616396D01*
X96806500Y-168815000D02*
X95560000Y-167568500D01*
X109250000Y-169130000D02*
X109250000Y-169100000D01*
X109250000Y-169100000D02*
X109250000Y-169100000D01*
X102863604Y-169754200D02*
X108595800Y-169754200D01*
X108595800Y-169754200D02*
X109220000Y-169130000D01*
%TO.N,CS1*%
X40280000Y-80265000D02*
X39105000Y-81440000D01*
X42430000Y-113510000D02*
X42350000Y-113430000D01*
X40280000Y-75873299D02*
X40280000Y-80265000D01*
X27265000Y-74735000D02*
X39141701Y-74735000D01*
X42350000Y-113510000D02*
X42430000Y-113510000D01*
X42350000Y-113430000D02*
X42350000Y-113510000D01*
X39141701Y-74735000D02*
X40280000Y-75873299D01*
X26310000Y-75690000D02*
X27265000Y-74735000D01*
X26330000Y-75670000D02*
X26330000Y-75690000D01*
X26350000Y-75650000D02*
X26330000Y-75670000D01*
X26330000Y-75690000D02*
X26310000Y-75690000D01*
%TO.N,CS2*%
X32311827Y-78600000D02*
X35726827Y-75185000D01*
X26350000Y-78600000D02*
X26370000Y-78630000D01*
X35726827Y-75185000D02*
X37930000Y-75185000D01*
X26370000Y-78630000D02*
X32311827Y-78600000D01*
X37930000Y-75185000D02*
X39105000Y-76360000D01*
%TO.N,CS3*%
X26440000Y-81580000D02*
X26470000Y-81550000D01*
X26410000Y-81550000D02*
X26440000Y-81580000D01*
X26470000Y-81550000D02*
X31375000Y-81550000D01*
X26350000Y-81550000D02*
X26410000Y-81550000D01*
X31375000Y-81550000D02*
X36565000Y-76360000D01*
%TO.N,CS4*%
X26380000Y-84470000D02*
X26870000Y-83980000D01*
X26350000Y-84500000D02*
X26380000Y-84470000D01*
X26870000Y-83980000D02*
X36565000Y-83980000D01*
%TO.N,CS5*%
X26400000Y-87400000D02*
X26400000Y-87510000D01*
X26350000Y-87450000D02*
X26400000Y-87400000D01*
X26290000Y-87510000D02*
X28645000Y-85155000D01*
X28645000Y-85155000D02*
X37930000Y-85155000D01*
X37930000Y-85155000D02*
X39105000Y-83980000D01*
X26400000Y-87510000D02*
X26290000Y-87510000D01*
%TO.N,Ch48*%
X17840000Y-111310000D02*
X28970000Y-100180000D01*
X30040000Y-100180000D02*
X28970000Y-100180000D01*
X30330000Y-100470000D02*
X30040000Y-100180000D01*
%TO.N,Ch44*%
X24650000Y-71910000D02*
X24650000Y-71770000D01*
X19130000Y-78633604D02*
X19020000Y-78523604D01*
X38005000Y-96720000D02*
X37895000Y-96830000D01*
X24650000Y-71770000D02*
X25310000Y-71110000D01*
X19020000Y-78523604D02*
X19020000Y-77540000D01*
X23118616Y-93687782D02*
X19130000Y-89699166D01*
X19130000Y-89699166D02*
X19130000Y-78633604D01*
X26006396Y-96830000D02*
X23118616Y-93942220D01*
X23118616Y-93942220D02*
X23118616Y-93687782D01*
X19020000Y-77540000D02*
X24650000Y-71910000D01*
X37895000Y-96830000D02*
X26006396Y-96830000D01*
%TO.N,Ch47*%
X20560000Y-98910000D02*
X16730000Y-98910000D01*
X16730000Y-98910000D02*
X16350000Y-99290000D01*
X20730000Y-99080000D02*
X20560000Y-98910000D01*
%TO.N,Ch43*%
X40730000Y-96340000D02*
X36950000Y-100120000D01*
X39100000Y-71050000D02*
X39100000Y-67074695D01*
X40730000Y-72680000D02*
X39100000Y-71050000D01*
X36940000Y-100130000D02*
X36970000Y-100100000D01*
X40730000Y-72680000D02*
X40730000Y-96340000D01*
X36950000Y-100130000D02*
X36940000Y-100130000D01*
X34255305Y-62230000D02*
X32960000Y-62210000D01*
X36950000Y-100120000D02*
X36950000Y-100130000D01*
X39100000Y-67074695D02*
X34255305Y-62230000D01*
X32960000Y-62210000D02*
X32940000Y-62230000D01*
%TO.N,Ch46*%
X21890000Y-98540000D02*
X16330000Y-92980000D01*
X16330000Y-92980000D02*
X16330000Y-90110000D01*
X34370000Y-98540000D02*
X21890000Y-98540000D01*
%TO.N,Ch42*%
X42070000Y-68045305D02*
X39340000Y-65315305D01*
X39340000Y-65315305D02*
X39340000Y-60110000D01*
X42070000Y-98940000D02*
X42070000Y-68045305D01*
X39340000Y-60110000D02*
X38610000Y-59380000D01*
X35670000Y-102520000D02*
X38490000Y-102520000D01*
X38490000Y-102520000D02*
X42070000Y-98940000D01*
X38610000Y-59380000D02*
X38610000Y-54980000D01*
X35670000Y-100170000D02*
X35670000Y-99970000D01*
X35670000Y-100170000D02*
X35670000Y-102520000D01*
X35670000Y-99970000D02*
X35730000Y-99910000D01*
%TO.N,Ch41*%
X43860000Y-64366396D02*
X43860000Y-97910000D01*
X34440000Y-100230000D02*
X34440000Y-100190000D01*
X35260000Y-102970000D02*
X34440000Y-102150000D01*
X46230000Y-45210000D02*
X46230000Y-49990000D01*
X34440000Y-102150000D02*
X34440000Y-100230000D01*
X43860000Y-97910000D02*
X38800000Y-102970000D01*
X46230000Y-49990000D02*
X39790000Y-56430000D01*
X39790000Y-56430000D02*
X39790000Y-60296396D01*
X39790000Y-60296396D02*
X43860000Y-64366396D01*
X34440000Y-100190000D02*
X34400000Y-100190000D01*
X34400000Y-100190000D02*
X34440000Y-100230000D01*
X38800000Y-102970000D02*
X35260000Y-102970000D01*
%TO.N,Ch45*%
X22668616Y-94128616D02*
X22668616Y-93874178D01*
X35180000Y-97420000D02*
X25960000Y-97420000D01*
X35200000Y-97440000D02*
X35620000Y-97670000D01*
X22668616Y-93874178D02*
X18680000Y-89885562D01*
X18680000Y-78820000D02*
X17860000Y-78000000D01*
X18680000Y-89885562D02*
X18680000Y-78820000D01*
X25960000Y-97420000D02*
X22668616Y-94128616D01*
X35620000Y-97670000D02*
X35180000Y-97420000D01*
%TO.N,CS6*%
X26420000Y-90330000D02*
X27690000Y-89060000D01*
X26350000Y-90400000D02*
X26380000Y-90370000D01*
X26420000Y-90370000D02*
X26420000Y-90330000D01*
X27690000Y-89060000D02*
X36565000Y-89060000D01*
X26380000Y-90370000D02*
X26420000Y-90370000D01*
%TD*%
%TA.AperFunction,Conductor*%
%TO.N,GND*%
G36*
X139566817Y-12773679D02*
G01*
X139578801Y-12774833D01*
X139952450Y-12829289D01*
X139964290Y-12831609D01*
X140330838Y-12922133D01*
X140342402Y-12925593D01*
X140699119Y-13051581D01*
X140708952Y-13055536D01*
X140880797Y-13133381D01*
X140882369Y-13134106D01*
X141714104Y-13525116D01*
X141715999Y-13526028D01*
X143366458Y-14338328D01*
X143366460Y-14338329D01*
X143368716Y-14339467D01*
X145002134Y-15185335D01*
X145004272Y-15186470D01*
X146620092Y-16065615D01*
X146622223Y-16066804D01*
X148219638Y-16978787D01*
X148221768Y-16980033D01*
X149800316Y-17924593D01*
X149802155Y-17925716D01*
X150581921Y-18411477D01*
X150583859Y-18412710D01*
X150691632Y-18482728D01*
X150691640Y-18482733D01*
X150703657Y-18491615D01*
X150901687Y-18657313D01*
X150913934Y-18669076D01*
X151086786Y-18859523D01*
X151097311Y-18872849D01*
X151200329Y-19023445D01*
X151242524Y-19085127D01*
X151242526Y-19085129D01*
X151251131Y-19099768D01*
X151365978Y-19329889D01*
X151372503Y-19345566D01*
X151454838Y-19589232D01*
X151459159Y-19605654D01*
X151507429Y-19858267D01*
X151509467Y-19875125D01*
X151522772Y-20131979D01*
X151522487Y-20148957D01*
X151500578Y-20405206D01*
X151497977Y-20421987D01*
X151441261Y-20672854D01*
X151436391Y-20689122D01*
X151345933Y-20929886D01*
X151338886Y-20945335D01*
X151216388Y-21171474D01*
X151207297Y-21185816D01*
X151055047Y-21393106D01*
X151044081Y-21406072D01*
X150864207Y-21591372D01*
X150853220Y-21601408D01*
X150753197Y-21682322D01*
X150751552Y-21683630D01*
X146943280Y-24658978D01*
X146851821Y-24733370D01*
X146691044Y-24905786D01*
X146559227Y-25101217D01*
X146459596Y-25314880D01*
X146394620Y-25541483D01*
X146394619Y-25541487D01*
X146365890Y-25775471D01*
X146365890Y-25775474D01*
X146374116Y-26011056D01*
X146374116Y-26011061D01*
X146374117Y-26011064D01*
X146419097Y-26242473D01*
X146419100Y-26242481D01*
X146499717Y-26463983D01*
X146499720Y-26463989D01*
X146499723Y-26463997D01*
X146590042Y-26626942D01*
X146614011Y-26670184D01*
X146684762Y-26764501D01*
X175918212Y-64181610D01*
X179314812Y-68529060D01*
X179389109Y-68620607D01*
X179561528Y-68781404D01*
X179561533Y-68781407D01*
X179561535Y-68781409D01*
X179561536Y-68781411D01*
X179724005Y-68891004D01*
X179756980Y-68913248D01*
X179970652Y-69012890D01*
X180197282Y-69077876D01*
X180431287Y-69106607D01*
X180431289Y-69106606D01*
X180431290Y-69106607D01*
X180431291Y-69106607D01*
X180565927Y-69101903D01*
X180666907Y-69098375D01*
X180898337Y-69053382D01*
X181119878Y-68972736D01*
X181326074Y-68858424D01*
X181420321Y-68787583D01*
X181428224Y-68781409D01*
X182145077Y-68221342D01*
X182824181Y-67690767D01*
X182825301Y-67689904D01*
X182979855Y-67572134D01*
X182988537Y-67566088D01*
X183317185Y-67357505D01*
X183327689Y-67351535D01*
X183674467Y-67176328D01*
X183685491Y-67171418D01*
X184047695Y-67030870D01*
X184059148Y-67027059D01*
X184433319Y-66922512D01*
X184445113Y-66919830D01*
X184827695Y-66852276D01*
X184839680Y-66850759D01*
X185227039Y-66820841D01*
X185239107Y-66820500D01*
X185627536Y-66828505D01*
X185639606Y-66829345D01*
X186025365Y-66875192D01*
X186037304Y-66877206D01*
X186416770Y-66960462D01*
X186428434Y-66963625D01*
X186797979Y-67083498D01*
X186809296Y-67087790D01*
X187165380Y-67243131D01*
X187176208Y-67248499D01*
X187515450Y-67437832D01*
X187525699Y-67444227D01*
X187844864Y-67665750D01*
X187854455Y-67673127D01*
X188150471Y-67924705D01*
X188159303Y-67932987D01*
X188429371Y-68212237D01*
X188437354Y-68221342D01*
X188678897Y-68525599D01*
X188685954Y-68535439D01*
X188896673Y-68861809D01*
X188902736Y-68872290D01*
X189080616Y-69217650D01*
X189085628Y-69228672D01*
X189229261Y-69590455D01*
X189232740Y-69600440D01*
X189288720Y-69786245D01*
X189289243Y-69788027D01*
X189544744Y-70684461D01*
X189545342Y-70686634D01*
X190024097Y-72490073D01*
X190024731Y-72492568D01*
X190465890Y-74305323D01*
X190466473Y-74307830D01*
X190869921Y-76129397D01*
X190870451Y-76131911D01*
X190917795Y-76368864D01*
X191236007Y-77961491D01*
X191236485Y-77964020D01*
X191563983Y-79800783D01*
X191564408Y-79803321D01*
X191853703Y-81646438D01*
X191854076Y-81648985D01*
X192105055Y-83497743D01*
X192105375Y-83500297D01*
X192317931Y-85353911D01*
X192318197Y-85356472D01*
X192492220Y-87213990D01*
X192492434Y-87216555D01*
X192627872Y-89077382D01*
X192628032Y-89079951D01*
X192724811Y-90943137D01*
X192724918Y-90945709D01*
X192783004Y-92810545D01*
X192783057Y-92813118D01*
X192802421Y-94678713D01*
X192802421Y-94681287D01*
X192783057Y-96546881D01*
X192783004Y-96549454D01*
X192724918Y-98414290D01*
X192724811Y-98416862D01*
X192628032Y-100280048D01*
X192627872Y-100282617D01*
X192492434Y-102143444D01*
X192492220Y-102146009D01*
X192318197Y-104003527D01*
X192317931Y-104006088D01*
X192105375Y-105859702D01*
X192105055Y-105862256D01*
X191854076Y-107711014D01*
X191853703Y-107713561D01*
X191564408Y-109556678D01*
X191563983Y-109559216D01*
X191236485Y-111395979D01*
X191236007Y-111398508D01*
X190870452Y-113228083D01*
X190869921Y-113230602D01*
X190466473Y-115052169D01*
X190465890Y-115054676D01*
X190024731Y-116867431D01*
X190024097Y-116869926D01*
X189545342Y-118673365D01*
X189544744Y-118675538D01*
X189289235Y-119572001D01*
X189288723Y-119573746D01*
X189232803Y-119759559D01*
X189229313Y-119769581D01*
X189085684Y-120131352D01*
X189080672Y-120142374D01*
X188902789Y-120487741D01*
X188896726Y-120498222D01*
X188686005Y-120824596D01*
X188678948Y-120834436D01*
X188437401Y-121138698D01*
X188429418Y-121147803D01*
X188159346Y-121427057D01*
X188150514Y-121435339D01*
X187854492Y-121686922D01*
X187844893Y-121694304D01*
X187525748Y-121915813D01*
X187515476Y-121922223D01*
X187176247Y-122111550D01*
X187165398Y-122116928D01*
X186809317Y-122272267D01*
X186797996Y-122276561D01*
X186428464Y-122396430D01*
X186416777Y-122399599D01*
X186037314Y-122482854D01*
X186025374Y-122484868D01*
X185639615Y-122530715D01*
X185627536Y-122531556D01*
X185239124Y-122539561D01*
X185227020Y-122539219D01*
X184839686Y-122509303D01*
X184827673Y-122507782D01*
X184445105Y-122440230D01*
X184433299Y-122437545D01*
X184059144Y-122333004D01*
X184047664Y-122329183D01*
X183820674Y-122241103D01*
X183685484Y-122188645D01*
X183674423Y-122183719D01*
X183327674Y-122008525D01*
X183317147Y-122002543D01*
X182988526Y-121793977D01*
X182979800Y-121787899D01*
X182825284Y-121670083D01*
X182824159Y-121669214D01*
X181647618Y-120750000D01*
X183756496Y-120750000D01*
X183776458Y-120939928D01*
X183776459Y-120939931D01*
X183835470Y-121121549D01*
X183835473Y-121121556D01*
X183930960Y-121286944D01*
X184058747Y-121428866D01*
X184213248Y-121541118D01*
X184387712Y-121618794D01*
X184574513Y-121658500D01*
X184765487Y-121658500D01*
X184952288Y-121618794D01*
X185126752Y-121541118D01*
X185281253Y-121428866D01*
X185409040Y-121286944D01*
X185504527Y-121121556D01*
X185563542Y-120939928D01*
X185583504Y-120750000D01*
X185563542Y-120560072D01*
X185504527Y-120378444D01*
X185409040Y-120213056D01*
X185281253Y-120071134D01*
X185126752Y-119958882D01*
X184952288Y-119881206D01*
X184952286Y-119881205D01*
X184765487Y-119841500D01*
X184574513Y-119841500D01*
X184387714Y-119881205D01*
X184387712Y-119881206D01*
X184217606Y-119956942D01*
X184213246Y-119958883D01*
X184058745Y-120071135D01*
X183930959Y-120213057D01*
X183835473Y-120378443D01*
X183835470Y-120378450D01*
X183776459Y-120560068D01*
X183776458Y-120560072D01*
X183756496Y-120750000D01*
X181647618Y-120750000D01*
X181420315Y-120572412D01*
X181326014Y-120501677D01*
X181326000Y-120501668D01*
X181119822Y-120387393D01*
X181009539Y-120347256D01*
X180898295Y-120306769D01*
X180898297Y-120306769D01*
X180666886Y-120261789D01*
X180666876Y-120261788D01*
X180431293Y-120253560D01*
X180431276Y-120253560D01*
X180197299Y-120282285D01*
X179970687Y-120347255D01*
X179970685Y-120347256D01*
X179757030Y-120446871D01*
X179561580Y-120578684D01*
X179389158Y-120739443D01*
X179389154Y-120739447D01*
X179314810Y-120830941D01*
X146684768Y-162595491D01*
X146614009Y-162689815D01*
X146541231Y-162821116D01*
X146499722Y-162896002D01*
X146499720Y-162896005D01*
X146499716Y-162896015D01*
X146419097Y-163117522D01*
X146419096Y-163117526D01*
X146389953Y-163267458D01*
X146374115Y-163348937D01*
X146374114Y-163348943D01*
X146365889Y-163584525D01*
X146365889Y-163584533D01*
X146394618Y-163818516D01*
X146416459Y-163894686D01*
X146459594Y-164045119D01*
X146459595Y-164045122D01*
X146459596Y-164045124D01*
X146502090Y-164136253D01*
X146559225Y-164258782D01*
X146626381Y-164358346D01*
X146691046Y-164454217D01*
X146851819Y-164626629D01*
X146943278Y-164701019D01*
X146943287Y-164701026D01*
X148463651Y-165888864D01*
X148464824Y-165889792D01*
X148612556Y-166008110D01*
X148620542Y-166015087D01*
X148678716Y-166070471D01*
X148895124Y-166276500D01*
X148903464Y-166285254D01*
X149150786Y-166571626D01*
X149158234Y-166581154D01*
X149376467Y-166890256D01*
X149382954Y-166900467D01*
X149570025Y-167229360D01*
X149575487Y-167240155D01*
X149639297Y-167383214D01*
X149720953Y-167566285D01*
X149729625Y-167585726D01*
X149734007Y-167597000D01*
X149852073Y-167950963D01*
X149853735Y-167955944D01*
X149856992Y-167967571D01*
X149941177Y-168336495D01*
X149943287Y-168348394D01*
X149991116Y-168723739D01*
X149992058Y-168735800D01*
X150003084Y-169114010D01*
X150002847Y-169126105D01*
X149976963Y-169503613D01*
X149975547Y-169515628D01*
X149913003Y-169888790D01*
X149910424Y-169900609D01*
X149811811Y-170265917D01*
X149808092Y-170277430D01*
X149674351Y-170631382D01*
X149669528Y-170642476D01*
X149501933Y-170981713D01*
X149496052Y-170992286D01*
X149296190Y-171313586D01*
X149289306Y-171323535D01*
X149059099Y-171623811D01*
X149051279Y-171633041D01*
X148792890Y-171909474D01*
X148784207Y-171917898D01*
X148500130Y-172167818D01*
X148490668Y-172175357D01*
X148182970Y-172396851D01*
X148174107Y-172402672D01*
X148011768Y-172499624D01*
X148010197Y-172500547D01*
X147191594Y-172973262D01*
X147189605Y-172974386D01*
X145533785Y-173890296D01*
X145531487Y-173891536D01*
X143856839Y-174772344D01*
X143854516Y-174773534D01*
X142161788Y-175618848D01*
X142159441Y-175619990D01*
X140449219Y-176429518D01*
X140446848Y-176430610D01*
X138719982Y-177203950D01*
X138717588Y-177204992D01*
X136974821Y-177941811D01*
X136972406Y-177942802D01*
X135214531Y-178642764D01*
X135212096Y-178643704D01*
X133439889Y-179306501D01*
X133437434Y-179307390D01*
X131651628Y-179932748D01*
X131649156Y-179933585D01*
X129850567Y-180521216D01*
X129848077Y-180522000D01*
X128037574Y-181071622D01*
X128035068Y-181072354D01*
X126213377Y-181583747D01*
X126210857Y-181584426D01*
X124378792Y-182057361D01*
X124376257Y-182057987D01*
X122534643Y-182492251D01*
X122532097Y-182492823D01*
X120681774Y-182888218D01*
X120679215Y-182888737D01*
X118820961Y-183245097D01*
X118818392Y-183245562D01*
X116953011Y-183562731D01*
X116950433Y-183563141D01*
X115078841Y-183840964D01*
X115076255Y-183841320D01*
X113199237Y-184079684D01*
X113196644Y-184079986D01*
X111314987Y-184278787D01*
X111312389Y-184279034D01*
X109426959Y-184438181D01*
X109424355Y-184438373D01*
X107536005Y-184557794D01*
X107533398Y-184557931D01*
X105643002Y-184637572D01*
X105640393Y-184637655D01*
X103748646Y-184677487D01*
X103746036Y-184677514D01*
X101853964Y-184677514D01*
X101851354Y-184677487D01*
X99959606Y-184637655D01*
X99956997Y-184637572D01*
X98066601Y-184557931D01*
X98063994Y-184557794D01*
X96175644Y-184438373D01*
X96173040Y-184438181D01*
X94287610Y-184279034D01*
X94285012Y-184278787D01*
X92403355Y-184079986D01*
X92400762Y-184079684D01*
X90523744Y-183841320D01*
X90521158Y-183840964D01*
X88649566Y-183563141D01*
X88646988Y-183562731D01*
X86781607Y-183245562D01*
X86779038Y-183245097D01*
X84920784Y-182888737D01*
X84918225Y-182888218D01*
X83067902Y-182492823D01*
X83065356Y-182492251D01*
X81223742Y-182057987D01*
X81221207Y-182057361D01*
X80727833Y-181930000D01*
X87056496Y-181930000D01*
X87076458Y-182119928D01*
X87076459Y-182119931D01*
X87135470Y-182301549D01*
X87135473Y-182301556D01*
X87230960Y-182466944D01*
X87358747Y-182608866D01*
X87513248Y-182721118D01*
X87687712Y-182798794D01*
X87874513Y-182838500D01*
X88065487Y-182838500D01*
X88252288Y-182798794D01*
X88426752Y-182721118D01*
X88581253Y-182608866D01*
X88709040Y-182466944D01*
X88804527Y-182301556D01*
X88863542Y-182119928D01*
X88883504Y-181930000D01*
X88863542Y-181740072D01*
X88804527Y-181558444D01*
X88709040Y-181393056D01*
X88581253Y-181251134D01*
X88426752Y-181138882D01*
X88252288Y-181061206D01*
X88252286Y-181061205D01*
X88065487Y-181021500D01*
X87874513Y-181021500D01*
X87687714Y-181061205D01*
X87513246Y-181138883D01*
X87358745Y-181251135D01*
X87230959Y-181393057D01*
X87135473Y-181558443D01*
X87135470Y-181558450D01*
X87099594Y-181668866D01*
X87076458Y-181740072D01*
X87056496Y-181930000D01*
X80727833Y-181930000D01*
X79389142Y-181584426D01*
X79386622Y-181583747D01*
X77564931Y-181072354D01*
X77562425Y-181071622D01*
X75751922Y-180522000D01*
X75749432Y-180521216D01*
X73950843Y-179933585D01*
X73948371Y-179932748D01*
X72162565Y-179307390D01*
X72160110Y-179306501D01*
X70387903Y-178643704D01*
X70385468Y-178642764D01*
X70023582Y-178498666D01*
X68627575Y-177942794D01*
X68625196Y-177941818D01*
X66882411Y-177204992D01*
X66880017Y-177203950D01*
X65153151Y-176430610D01*
X65150780Y-176429518D01*
X64370130Y-176060000D01*
X72566496Y-176060000D01*
X72586458Y-176249928D01*
X72586459Y-176249931D01*
X72645470Y-176431549D01*
X72645473Y-176431556D01*
X72740960Y-176596944D01*
X72868747Y-176738866D01*
X73023248Y-176851118D01*
X73197712Y-176928794D01*
X73384513Y-176968500D01*
X73575487Y-176968500D01*
X73762288Y-176928794D01*
X73936752Y-176851118D01*
X74091253Y-176738866D01*
X74219040Y-176596944D01*
X74314527Y-176431556D01*
X74373542Y-176249928D01*
X74393504Y-176060000D01*
X74373542Y-175870072D01*
X74314527Y-175688444D01*
X74219040Y-175523056D01*
X74091253Y-175381134D01*
X73936752Y-175268882D01*
X73762288Y-175191206D01*
X73762286Y-175191205D01*
X73575487Y-175151500D01*
X73384513Y-175151500D01*
X73197714Y-175191205D01*
X73023246Y-175268883D01*
X72868745Y-175381135D01*
X72740959Y-175523057D01*
X72645473Y-175688443D01*
X72645470Y-175688450D01*
X72618484Y-175771506D01*
X72586458Y-175870072D01*
X72566496Y-176060000D01*
X64370130Y-176060000D01*
X63440558Y-175619990D01*
X63438211Y-175618848D01*
X61745483Y-174773534D01*
X61743160Y-174772344D01*
X60068512Y-173891536D01*
X60066214Y-173890296D01*
X59285776Y-173458600D01*
X58410367Y-172974370D01*
X58408432Y-172973277D01*
X57589728Y-172500504D01*
X57588172Y-172499590D01*
X57555253Y-172479931D01*
X57425900Y-172402681D01*
X57417035Y-172396859D01*
X57109332Y-172175364D01*
X57099871Y-172167826D01*
X56815774Y-171917893D01*
X56807091Y-171909468D01*
X56731113Y-171828185D01*
X56548705Y-171633041D01*
X56540906Y-171623837D01*
X56310672Y-171323527D01*
X56303789Y-171313578D01*
X56233138Y-171200000D01*
X61376496Y-171200000D01*
X61396458Y-171389928D01*
X61398442Y-171396035D01*
X61455470Y-171571549D01*
X61455473Y-171571556D01*
X61550960Y-171736944D01*
X61678747Y-171878866D01*
X61833248Y-171991118D01*
X62007712Y-172068794D01*
X62194513Y-172108500D01*
X62385487Y-172108500D01*
X62572288Y-172068794D01*
X62746752Y-171991118D01*
X62901253Y-171878866D01*
X63029040Y-171736944D01*
X63124527Y-171571556D01*
X63183542Y-171389928D01*
X63203504Y-171200000D01*
X63183542Y-171010072D01*
X63124527Y-170828444D01*
X63029040Y-170663056D01*
X62901253Y-170521134D01*
X62746752Y-170408882D01*
X62572288Y-170331206D01*
X62572286Y-170331205D01*
X62385487Y-170291500D01*
X62194513Y-170291500D01*
X62007714Y-170331205D01*
X61833246Y-170408883D01*
X61678745Y-170521135D01*
X61550959Y-170663057D01*
X61455473Y-170828443D01*
X61455470Y-170828450D01*
X61396919Y-171008653D01*
X61396458Y-171010072D01*
X61376496Y-171200000D01*
X56233138Y-171200000D01*
X56103937Y-170992298D01*
X56098056Y-170981726D01*
X55930454Y-170642482D01*
X55925635Y-170631399D01*
X55791885Y-170277423D01*
X55788173Y-170265932D01*
X55689554Y-169900609D01*
X55686976Y-169888792D01*
X55685009Y-169877057D01*
X55624431Y-169515626D01*
X55623016Y-169503615D01*
X55622875Y-169501556D01*
X55597130Y-169126091D01*
X55596894Y-169114024D01*
X55607920Y-168735790D01*
X55608862Y-168723738D01*
X55656695Y-168348378D01*
X55658803Y-168336492D01*
X55742988Y-167967570D01*
X55746242Y-167955955D01*
X55865982Y-167596975D01*
X55870356Y-167585725D01*
X56024497Y-167240148D01*
X56029949Y-167229371D01*
X56217034Y-166900457D01*
X56223515Y-166890256D01*
X56441762Y-166581137D01*
X56449199Y-166571625D01*
X56696534Y-166285240D01*
X56704853Y-166276507D01*
X56979474Y-166015060D01*
X56987443Y-166008099D01*
X57135210Y-165889763D01*
X57136196Y-165888983D01*
X58656722Y-164701019D01*
X58748180Y-164626628D01*
X58908953Y-164454216D01*
X59040775Y-164258778D01*
X59140402Y-164045124D01*
X59205380Y-163818516D01*
X59234110Y-163584532D01*
X59225883Y-163348936D01*
X59180903Y-163117527D01*
X59134488Y-162990000D01*
X59946496Y-162990000D01*
X59966458Y-163179928D01*
X59966459Y-163179931D01*
X60025470Y-163361549D01*
X60025473Y-163361556D01*
X60120960Y-163526944D01*
X60248747Y-163668866D01*
X60403248Y-163781118D01*
X60577712Y-163858794D01*
X60764513Y-163898500D01*
X60955487Y-163898500D01*
X61142288Y-163858794D01*
X61316752Y-163781118D01*
X61471253Y-163668866D01*
X61599040Y-163526944D01*
X61694527Y-163361556D01*
X61753542Y-163179928D01*
X61773504Y-162990000D01*
X61753542Y-162800072D01*
X61694527Y-162618444D01*
X61599040Y-162453056D01*
X61471253Y-162311134D01*
X61316752Y-162198882D01*
X61142288Y-162121206D01*
X61142286Y-162121205D01*
X60955487Y-162081500D01*
X60764513Y-162081500D01*
X60577714Y-162121205D01*
X60403246Y-162198883D01*
X60248745Y-162311135D01*
X60120959Y-162453057D01*
X60025473Y-162618443D01*
X60025470Y-162618450D01*
X59968363Y-162794209D01*
X59966458Y-162800072D01*
X59946496Y-162990000D01*
X59134488Y-162990000D01*
X59100281Y-162896015D01*
X59100281Y-162896014D01*
X59100277Y-162896003D01*
X58985990Y-162689818D01*
X58915246Y-162595510D01*
X58915237Y-162595498D01*
X51832884Y-153530500D01*
X53108286Y-153530500D01*
X53128248Y-153720428D01*
X53128249Y-153720431D01*
X53187260Y-153902049D01*
X53187263Y-153902056D01*
X53282750Y-154067444D01*
X53410537Y-154209366D01*
X53565038Y-154321618D01*
X53739502Y-154399294D01*
X53926303Y-154439000D01*
X54117277Y-154439000D01*
X54304078Y-154399294D01*
X54478542Y-154321618D01*
X54633043Y-154209366D01*
X54760830Y-154067444D01*
X54856317Y-153902056D01*
X54915332Y-153720428D01*
X54935294Y-153530500D01*
X54915332Y-153340572D01*
X54856317Y-153158944D01*
X54760830Y-152993556D01*
X54633043Y-152851634D01*
X54478542Y-152739382D01*
X54304078Y-152661706D01*
X54304076Y-152661705D01*
X54117277Y-152622000D01*
X53926303Y-152622000D01*
X53739504Y-152661705D01*
X53565036Y-152739383D01*
X53410535Y-152851635D01*
X53282749Y-152993557D01*
X53187263Y-153158943D01*
X53187260Y-153158950D01*
X53128249Y-153340568D01*
X53128248Y-153340572D01*
X53108286Y-153530500D01*
X51832884Y-153530500D01*
X44170468Y-143723054D01*
X45254148Y-143723054D01*
X45274110Y-143912982D01*
X45274111Y-143912985D01*
X45333122Y-144094603D01*
X45333125Y-144094610D01*
X45428612Y-144259998D01*
X45556399Y-144401920D01*
X45710900Y-144514172D01*
X45885364Y-144591848D01*
X46072165Y-144631554D01*
X46263139Y-144631554D01*
X46449940Y-144591848D01*
X46624404Y-144514172D01*
X46778905Y-144401920D01*
X46906692Y-144259998D01*
X47002179Y-144094610D01*
X47061194Y-143912982D01*
X47081156Y-143723054D01*
X47061194Y-143533126D01*
X47002179Y-143351498D01*
X46906692Y-143186110D01*
X46778905Y-143044188D01*
X46624404Y-142931936D01*
X46449940Y-142854260D01*
X46449938Y-142854259D01*
X46263139Y-142814554D01*
X46072165Y-142814554D01*
X45885366Y-142854259D01*
X45710898Y-142931937D01*
X45556397Y-143044189D01*
X45428611Y-143186111D01*
X45333125Y-143351497D01*
X45333122Y-143351504D01*
X45274111Y-143533122D01*
X45274110Y-143533126D01*
X45254148Y-143723054D01*
X44170468Y-143723054D01*
X36823997Y-134320000D01*
X37646496Y-134320000D01*
X37666458Y-134509928D01*
X37666459Y-134509931D01*
X37725470Y-134691549D01*
X37725473Y-134691556D01*
X37820960Y-134856944D01*
X37948747Y-134998866D01*
X38103248Y-135111118D01*
X38277712Y-135188794D01*
X38464513Y-135228500D01*
X38655487Y-135228500D01*
X38842288Y-135188794D01*
X39016752Y-135111118D01*
X39171253Y-134998866D01*
X39299040Y-134856944D01*
X39394527Y-134691556D01*
X39453542Y-134509928D01*
X39473504Y-134320000D01*
X39453542Y-134130072D01*
X39394527Y-133948444D01*
X39299040Y-133783056D01*
X39171253Y-133641134D01*
X39016752Y-133528882D01*
X38842288Y-133451206D01*
X38842286Y-133451205D01*
X38655487Y-133411500D01*
X38464513Y-133411500D01*
X38277714Y-133451205D01*
X38103246Y-133528883D01*
X37948745Y-133641135D01*
X37820959Y-133783057D01*
X37725473Y-133948443D01*
X37725470Y-133948450D01*
X37666459Y-134130068D01*
X37666458Y-134130072D01*
X37646496Y-134320000D01*
X36823997Y-134320000D01*
X26285210Y-120830967D01*
X26219492Y-120750000D01*
X26210888Y-120739399D01*
X26038465Y-120578611D01*
X25843012Y-120446777D01*
X25843011Y-120446776D01*
X25843009Y-120446775D01*
X25629351Y-120347146D01*
X25629337Y-120347140D01*
X25402720Y-120282161D01*
X25402716Y-120282160D01*
X25168710Y-120253430D01*
X24933101Y-120261661D01*
X24933094Y-120261662D01*
X24701677Y-120306650D01*
X24480135Y-120387289D01*
X24480134Y-120387290D01*
X24273942Y-120501590D01*
X24179656Y-120572433D01*
X22775901Y-121669167D01*
X22774715Y-121670083D01*
X22620152Y-121787861D01*
X22611444Y-121793925D01*
X22282820Y-122002499D01*
X22272292Y-122008481D01*
X21925549Y-122183677D01*
X21914488Y-122188603D01*
X21552327Y-122329138D01*
X21540838Y-122332963D01*
X21166672Y-122437512D01*
X21154865Y-122440197D01*
X20772306Y-122507750D01*
X20760293Y-122509271D01*
X20372960Y-122539191D01*
X20360856Y-122539533D01*
X19972456Y-122531531D01*
X19960377Y-122530691D01*
X19574598Y-122484845D01*
X19562658Y-122482830D01*
X19183210Y-122399580D01*
X19171523Y-122396411D01*
X18801986Y-122276544D01*
X18790665Y-122272250D01*
X18434587Y-122116914D01*
X18423740Y-122111537D01*
X18239086Y-122008481D01*
X18084511Y-121922212D01*
X18074248Y-121915808D01*
X17755089Y-121694290D01*
X17745500Y-121686916D01*
X17449468Y-121435326D01*
X17440647Y-121427055D01*
X17170571Y-121147797D01*
X17162588Y-121138692D01*
X17092611Y-121050547D01*
X16921038Y-120834428D01*
X16913985Y-120824593D01*
X16865824Y-120750000D01*
X16703261Y-120498215D01*
X16697201Y-120487739D01*
X16693179Y-120479931D01*
X16519318Y-120142372D01*
X16514307Y-120131352D01*
X16490400Y-120071135D01*
X16370679Y-119769581D01*
X16367191Y-119759566D01*
X16367189Y-119759559D01*
X16311227Y-119573582D01*
X16310783Y-119572065D01*
X16267441Y-119420000D01*
X22186496Y-119420000D01*
X22206458Y-119609928D01*
X22206459Y-119609931D01*
X22265470Y-119791549D01*
X22265473Y-119791556D01*
X22360960Y-119956944D01*
X22488747Y-120098866D01*
X22643248Y-120211118D01*
X22817712Y-120288794D01*
X23004513Y-120328500D01*
X23195487Y-120328500D01*
X23382288Y-120288794D01*
X23556752Y-120211118D01*
X23711253Y-120098866D01*
X23839040Y-119956944D01*
X23934527Y-119791556D01*
X23993542Y-119609928D01*
X24013504Y-119420000D01*
X23993542Y-119230072D01*
X23934527Y-119048444D01*
X23839040Y-118883056D01*
X23711253Y-118741134D01*
X23556752Y-118628882D01*
X23382288Y-118551206D01*
X23382286Y-118551205D01*
X23195487Y-118511500D01*
X23004513Y-118511500D01*
X22817714Y-118551205D01*
X22643246Y-118628883D01*
X22488745Y-118741135D01*
X22360959Y-118883057D01*
X22265473Y-119048443D01*
X22265470Y-119048450D01*
X22206459Y-119230068D01*
X22206458Y-119230072D01*
X22186496Y-119420000D01*
X16267441Y-119420000D01*
X16055252Y-118675527D01*
X16054657Y-118673365D01*
X15626361Y-117060000D01*
X36226496Y-117060000D01*
X36246458Y-117249928D01*
X36246459Y-117249931D01*
X36305470Y-117431549D01*
X36305473Y-117431556D01*
X36400960Y-117596944D01*
X36528747Y-117738866D01*
X36683248Y-117851118D01*
X36857712Y-117928794D01*
X37044513Y-117968500D01*
X37235487Y-117968500D01*
X37422288Y-117928794D01*
X37596752Y-117851118D01*
X37751253Y-117738866D01*
X37879040Y-117596944D01*
X37974527Y-117431556D01*
X38033542Y-117249928D01*
X38053504Y-117060000D01*
X38033542Y-116870072D01*
X37974527Y-116688444D01*
X37879040Y-116523056D01*
X37751253Y-116381134D01*
X37596752Y-116268882D01*
X37422288Y-116191206D01*
X37422286Y-116191205D01*
X37235487Y-116151500D01*
X37044513Y-116151500D01*
X36857714Y-116191205D01*
X36683246Y-116268883D01*
X36528745Y-116381135D01*
X36400959Y-116523057D01*
X36305473Y-116688443D01*
X36305470Y-116688450D01*
X36247316Y-116867431D01*
X36246458Y-116870072D01*
X36226496Y-117060000D01*
X15626361Y-117060000D01*
X15575885Y-116869860D01*
X15575286Y-116867502D01*
X15134101Y-115054644D01*
X15133526Y-115052169D01*
X15124531Y-115011556D01*
X15042237Y-114640000D01*
X22256496Y-114640000D01*
X22276458Y-114829928D01*
X22276459Y-114829931D01*
X22335470Y-115011549D01*
X22335473Y-115011556D01*
X22430960Y-115176944D01*
X22558747Y-115318866D01*
X22713248Y-115431118D01*
X22887712Y-115508794D01*
X23074513Y-115548500D01*
X23265487Y-115548500D01*
X23452288Y-115508794D01*
X23626752Y-115431118D01*
X23781253Y-115318866D01*
X23909040Y-115176944D01*
X24004527Y-115011556D01*
X24063542Y-114829928D01*
X24083504Y-114640000D01*
X24063542Y-114450072D01*
X24004527Y-114268444D01*
X23909040Y-114103056D01*
X23781253Y-113961134D01*
X23626752Y-113848882D01*
X23452288Y-113771206D01*
X23452286Y-113771205D01*
X23265487Y-113731500D01*
X23074513Y-113731500D01*
X22887714Y-113771205D01*
X22713246Y-113848883D01*
X22558745Y-113961135D01*
X22430959Y-114103057D01*
X22335473Y-114268443D01*
X22335470Y-114268450D01*
X22287610Y-114415750D01*
X22276458Y-114450072D01*
X22256496Y-114640000D01*
X15042237Y-114640000D01*
X14730061Y-113230523D01*
X14729563Y-113228159D01*
X14363982Y-111398456D01*
X14363523Y-111396031D01*
X14036007Y-109559168D01*
X14035599Y-109556727D01*
X13746288Y-107713509D01*
X13745930Y-107711064D01*
X13494937Y-105862200D01*
X13494631Y-105859758D01*
X13282063Y-104006048D01*
X13281802Y-104003527D01*
X13281629Y-104001684D01*
X13107776Y-102145974D01*
X13107565Y-102143444D01*
X13088864Y-101886500D01*
X12972122Y-100282547D01*
X12971971Y-100280118D01*
X12875187Y-98416851D01*
X12875081Y-98414290D01*
X12872681Y-98337224D01*
X12816994Y-96549412D01*
X12816942Y-96546881D01*
X12816767Y-96530068D01*
X12797578Y-94681252D01*
X12797578Y-94678713D01*
X12799298Y-94513006D01*
X12816942Y-92813074D01*
X12816995Y-92810545D01*
X12823158Y-92612710D01*
X12875081Y-90945693D01*
X12875188Y-90943137D01*
X12878961Y-90870500D01*
X12971971Y-89079875D01*
X12972122Y-89077458D01*
X13107568Y-87216513D01*
X13107779Y-87213990D01*
X13107839Y-87213350D01*
X13281807Y-85356420D01*
X13282062Y-85353960D01*
X13494632Y-83500230D01*
X13494935Y-83497811D01*
X13745932Y-81648921D01*
X13746286Y-81646503D01*
X14035601Y-79803256D01*
X14036005Y-79800847D01*
X14363526Y-77963951D01*
X14363978Y-77961560D01*
X14729567Y-76131821D01*
X14730057Y-76129495D01*
X15133538Y-74307777D01*
X15134096Y-74305377D01*
X15575291Y-72492474D01*
X15575879Y-72490162D01*
X16054667Y-70686595D01*
X16055255Y-70684461D01*
X16310779Y-69787945D01*
X16311224Y-69786428D01*
X16367203Y-69600413D01*
X16370682Y-69590426D01*
X16514317Y-69228639D01*
X16519320Y-69217638D01*
X16697209Y-68872259D01*
X16703270Y-68861784D01*
X16705433Y-68858434D01*
X16914001Y-68535395D01*
X16921037Y-68525584D01*
X17162600Y-68221302D01*
X17170568Y-68212214D01*
X17440663Y-67932938D01*
X17449473Y-67924678D01*
X17745505Y-67673088D01*
X17755083Y-67665721D01*
X18074259Y-67444192D01*
X18084498Y-67437803D01*
X18423769Y-67248454D01*
X18434572Y-67243099D01*
X18790686Y-67087747D01*
X18801971Y-67083467D01*
X19171531Y-66963592D01*
X19183206Y-66960426D01*
X19562671Y-66877173D01*
X19574589Y-66875161D01*
X19960380Y-66829313D01*
X19972453Y-66828474D01*
X20360873Y-66820472D01*
X20372943Y-66820813D01*
X20760297Y-66850734D01*
X20772297Y-66852254D01*
X21154866Y-66919808D01*
X21166671Y-66922493D01*
X21540836Y-67027042D01*
X21552325Y-67030867D01*
X21914486Y-67171402D01*
X21925547Y-67176328D01*
X22272289Y-67351523D01*
X22282817Y-67357505D01*
X22611445Y-67566082D01*
X22620150Y-67572144D01*
X22774699Y-67689904D01*
X22775888Y-67690822D01*
X24179689Y-68787591D01*
X24273915Y-68858432D01*
X24273919Y-68858434D01*
X24480119Y-68972740D01*
X24701663Y-69053381D01*
X24701666Y-69053381D01*
X24701670Y-69053383D01*
X24701669Y-69053383D01*
X24852567Y-69082716D01*
X24933095Y-69098371D01*
X25037815Y-69102029D01*
X25168710Y-69106603D01*
X25168712Y-69106603D01*
X25168712Y-69106602D01*
X25168715Y-69106603D01*
X25402722Y-69077873D01*
X25629353Y-69012889D01*
X25843029Y-68913252D01*
X26038486Y-68781415D01*
X26210913Y-68620624D01*
X26285188Y-68529060D01*
X58915246Y-26764490D01*
X58985991Y-26670183D01*
X59100278Y-26463998D01*
X59180904Y-26242474D01*
X59225885Y-26011064D01*
X59234111Y-25775467D01*
X59205382Y-25541484D01*
X59140404Y-25314876D01*
X59040777Y-25101222D01*
X59029168Y-25084011D01*
X58908956Y-24905786D01*
X58908954Y-24905783D01*
X58748181Y-24733371D01*
X58656722Y-24658981D01*
X58536972Y-24565422D01*
X56123742Y-22680000D01*
X72496496Y-22680000D01*
X72516458Y-22869928D01*
X72516459Y-22869931D01*
X72575470Y-23051549D01*
X72575473Y-23051556D01*
X72670960Y-23216944D01*
X72798747Y-23358866D01*
X72953248Y-23471118D01*
X73127712Y-23548794D01*
X73314513Y-23588500D01*
X73505487Y-23588500D01*
X73692288Y-23548794D01*
X73866752Y-23471118D01*
X74021253Y-23358866D01*
X74149040Y-23216944D01*
X74244527Y-23051556D01*
X74303542Y-22869928D01*
X74323504Y-22680000D01*
X74303542Y-22490072D01*
X74244527Y-22308444D01*
X74149040Y-22143056D01*
X74021253Y-22001134D01*
X73866752Y-21888882D01*
X73692288Y-21811206D01*
X73692286Y-21811205D01*
X73505487Y-21771500D01*
X73314513Y-21771500D01*
X73127714Y-21811205D01*
X72953246Y-21888883D01*
X72798745Y-22001135D01*
X72670959Y-22143057D01*
X72575473Y-22308443D01*
X72575470Y-22308450D01*
X72516459Y-22490068D01*
X72516458Y-22490072D01*
X72496496Y-22680000D01*
X56123742Y-22680000D01*
X54848393Y-21683588D01*
X54846795Y-21682318D01*
X54746767Y-21601481D01*
X54735731Y-21591406D01*
X54735698Y-21591372D01*
X54555868Y-21406111D01*
X54544910Y-21393153D01*
X54392656Y-21185850D01*
X54383571Y-21171516D01*
X54261071Y-20945363D01*
X54254025Y-20929914D01*
X54234277Y-20877350D01*
X54163568Y-20689143D01*
X54158703Y-20672890D01*
X54101985Y-20422001D01*
X54099387Y-20405242D01*
X54077479Y-20148973D01*
X54077195Y-20131997D01*
X54080013Y-20077605D01*
X54090505Y-19875125D01*
X54092539Y-19858295D01*
X54140817Y-19605653D01*
X54145134Y-19589248D01*
X54227476Y-19345566D01*
X54233996Y-19329901D01*
X54348858Y-19099754D01*
X54357451Y-19085137D01*
X54502677Y-18872844D01*
X54513186Y-18859537D01*
X54686070Y-18669057D01*
X54698294Y-18657318D01*
X54896344Y-18491603D01*
X54908355Y-18482728D01*
X55016115Y-18412726D01*
X55016149Y-18412704D01*
X55018004Y-18411523D01*
X55797893Y-17925684D01*
X55799632Y-17924622D01*
X57378273Y-16980007D01*
X57380318Y-16978812D01*
X57746069Y-16770000D01*
X64166496Y-16770000D01*
X64186458Y-16959928D01*
X64186459Y-16959931D01*
X64245470Y-17141549D01*
X64245473Y-17141556D01*
X64340960Y-17306944D01*
X64468747Y-17448866D01*
X64623248Y-17561118D01*
X64797712Y-17638794D01*
X64984513Y-17678500D01*
X65175487Y-17678500D01*
X65362288Y-17638794D01*
X65536752Y-17561118D01*
X65691253Y-17448866D01*
X65819040Y-17306944D01*
X65914527Y-17141556D01*
X65973542Y-16959928D01*
X65993504Y-16770000D01*
X65973542Y-16580072D01*
X65914527Y-16398444D01*
X65819040Y-16233056D01*
X65691253Y-16091134D01*
X65536752Y-15978882D01*
X65362288Y-15901206D01*
X65362286Y-15901205D01*
X65175487Y-15861500D01*
X64984513Y-15861500D01*
X64797714Y-15901205D01*
X64623246Y-15978883D01*
X64468745Y-16091135D01*
X64340959Y-16233057D01*
X64245473Y-16398443D01*
X64245470Y-16398450D01*
X64186459Y-16580068D01*
X64186458Y-16580072D01*
X64166496Y-16770000D01*
X57746069Y-16770000D01*
X58977819Y-16066779D01*
X58979866Y-16065636D01*
X60595767Y-15186447D01*
X60597824Y-15185355D01*
X62231322Y-14339446D01*
X62233488Y-14338353D01*
X63884044Y-13526005D01*
X63885851Y-13525135D01*
X64717683Y-13134081D01*
X64719089Y-13133432D01*
X64891103Y-13055598D01*
X64900897Y-13051662D01*
X65257633Y-12925671D01*
X65269173Y-12922217D01*
X65635731Y-12831693D01*
X65647559Y-12829376D01*
X66021215Y-12774920D01*
X66033188Y-12773767D01*
X66410339Y-12755905D01*
X66422405Y-12755920D01*
X66799524Y-12774816D01*
X66811500Y-12776004D01*
X67184983Y-12831479D01*
X67196792Y-12833825D01*
X67563124Y-12925357D01*
X67574659Y-12928843D01*
X67930344Y-13055560D01*
X67941487Y-13060153D01*
X68079475Y-13125053D01*
X68283151Y-13220849D01*
X68293811Y-13226512D01*
X68618221Y-13419663D01*
X68628280Y-13426336D01*
X68932369Y-13650114D01*
X68941732Y-13657734D01*
X69222630Y-13910029D01*
X69231208Y-13918523D01*
X69486235Y-14196930D01*
X69493946Y-14206218D01*
X69720692Y-14508102D01*
X69727464Y-14518096D01*
X69924178Y-14841251D01*
X69929283Y-14850504D01*
X70013483Y-15019785D01*
X70013865Y-15020559D01*
X70219080Y-15440444D01*
X70660128Y-16265413D01*
X71135045Y-17071352D01*
X71643009Y-17856867D01*
X72183157Y-18620624D01*
X72754561Y-19361310D01*
X73356199Y-20077600D01*
X73356207Y-20077609D01*
X73987080Y-20768317D01*
X73987084Y-20768321D01*
X74646089Y-21432236D01*
X75332094Y-22068219D01*
X76043923Y-22675179D01*
X76228024Y-22819397D01*
X76780331Y-23252054D01*
X77540057Y-23797856D01*
X78321790Y-24311643D01*
X79124181Y-24792530D01*
X79579059Y-25040078D01*
X79622252Y-25063584D01*
X79671727Y-25112919D01*
X79686675Y-25181171D01*
X79662351Y-25246670D01*
X79606477Y-25288620D01*
X79562979Y-25296500D01*
X73806732Y-25296500D01*
X73739693Y-25276815D01*
X73719051Y-25260181D01*
X71556801Y-23097931D01*
X71556797Y-23097928D01*
X71453046Y-23028603D01*
X71453037Y-23028598D01*
X71337750Y-22980845D01*
X71337742Y-22980843D01*
X71215363Y-22956500D01*
X71215359Y-22956500D01*
X63582394Y-22956500D01*
X63457606Y-22956500D01*
X63457601Y-22956500D01*
X63335222Y-22980843D01*
X63335214Y-22980845D01*
X63219927Y-23028598D01*
X63219918Y-23028603D01*
X63116167Y-23097928D01*
X63116163Y-23097931D01*
X61068915Y-25145181D01*
X61007592Y-25178666D01*
X60981234Y-25181500D01*
X60924513Y-25181500D01*
X60737714Y-25221205D01*
X60563246Y-25298883D01*
X60408745Y-25411135D01*
X60280959Y-25553057D01*
X60185473Y-25718443D01*
X60185470Y-25718450D01*
X60126459Y-25900068D01*
X60126458Y-25900072D01*
X60106496Y-26090000D01*
X60126458Y-26279928D01*
X60126459Y-26279931D01*
X60185470Y-26461549D01*
X60185473Y-26461556D01*
X60280960Y-26626944D01*
X60408747Y-26768866D01*
X60563248Y-26881118D01*
X60737712Y-26958794D01*
X60924513Y-26998500D01*
X61115487Y-26998500D01*
X61302288Y-26958794D01*
X61476752Y-26881118D01*
X61631253Y-26768866D01*
X61759040Y-26626944D01*
X61854527Y-26461556D01*
X61913542Y-26279928D01*
X61930981Y-26113997D01*
X61957564Y-26049387D01*
X61966611Y-26039291D01*
X63746085Y-24259819D01*
X63807408Y-24226334D01*
X63833766Y-24223500D01*
X66131234Y-24223500D01*
X66198273Y-24243185D01*
X66244028Y-24295989D01*
X66253972Y-24365147D01*
X66224947Y-24428703D01*
X66218915Y-24435181D01*
X55845355Y-34808739D01*
X55784032Y-34842224D01*
X55757105Y-34845057D01*
X54599665Y-34839747D01*
X54532717Y-34819755D01*
X54508086Y-34798722D01*
X54501255Y-34791136D01*
X54501254Y-34791135D01*
X54501253Y-34791134D01*
X54346752Y-34678882D01*
X54172288Y-34601206D01*
X54172286Y-34601205D01*
X53985487Y-34561500D01*
X53794513Y-34561500D01*
X53607714Y-34601205D01*
X53433246Y-34678883D01*
X53278745Y-34791135D01*
X53150959Y-34933057D01*
X53055473Y-35098443D01*
X53055470Y-35098450D01*
X53008222Y-35243866D01*
X52996458Y-35280072D01*
X52976496Y-35470000D01*
X52996458Y-35659928D01*
X52996459Y-35659931D01*
X53055470Y-35841549D01*
X53055473Y-35841556D01*
X53150960Y-36006944D01*
X53251469Y-36118571D01*
X53274827Y-36144513D01*
X53278747Y-36148866D01*
X53433248Y-36261118D01*
X53607712Y-36338794D01*
X53794513Y-36378500D01*
X53985487Y-36378500D01*
X54172288Y-36338794D01*
X54346752Y-36261118D01*
X54501253Y-36148866D01*
X54502232Y-36147778D01*
X54502961Y-36147329D01*
X54506089Y-36144513D01*
X54506603Y-36145084D01*
X54561713Y-36111122D01*
X54594955Y-36106739D01*
X55998833Y-36113180D01*
X56005039Y-36113500D01*
X56007606Y-36113500D01*
X56068099Y-36113500D01*
X56068667Y-36113500D01*
X56129487Y-36113780D01*
X56129488Y-36113779D01*
X56129544Y-36113780D01*
X56130543Y-36113682D01*
X56131112Y-36113628D01*
X56132322Y-36113514D01*
X56132392Y-36113500D01*
X56132394Y-36113500D01*
X56192144Y-36101614D01*
X56251989Y-36089996D01*
X56251991Y-36089994D01*
X56252048Y-36089984D01*
X56253153Y-36089649D01*
X56253684Y-36089490D01*
X56254725Y-36089179D01*
X56254781Y-36089155D01*
X56254785Y-36089155D01*
X56311046Y-36065850D01*
X56367497Y-36042771D01*
X56367500Y-36042768D01*
X56367551Y-36042748D01*
X56368515Y-36042234D01*
X56369003Y-36041974D01*
X56370028Y-36041431D01*
X56370073Y-36041400D01*
X56370075Y-36041400D01*
X56420693Y-36007577D01*
X56471572Y-35973918D01*
X56471576Y-35973913D01*
X56471615Y-35973888D01*
X56472466Y-35973191D01*
X56472874Y-35972857D01*
X56473804Y-35972100D01*
X56473833Y-35972071D01*
X56516933Y-35928970D01*
X56560213Y-35886086D01*
X56560214Y-35886083D01*
X56562043Y-35884272D01*
X56566225Y-35879677D01*
X62322608Y-30123295D01*
X62383928Y-30089812D01*
X62453620Y-30094796D01*
X62509553Y-30136668D01*
X62533970Y-30202132D01*
X62519118Y-30270405D01*
X62507999Y-30287320D01*
X59311898Y-34378144D01*
X52423074Y-43195436D01*
X47085213Y-50027586D01*
X47028428Y-50068295D01*
X46958648Y-50071841D01*
X46898029Y-50037098D01*
X46865816Y-49975097D01*
X46863500Y-49951244D01*
X46863500Y-45911756D01*
X46883185Y-45844717D01*
X46895346Y-45828788D01*
X46969040Y-45746944D01*
X47064527Y-45581556D01*
X47123542Y-45399928D01*
X47143504Y-45210000D01*
X47123542Y-45020072D01*
X47064527Y-44838444D01*
X46969040Y-44673056D01*
X46841253Y-44531134D01*
X46686752Y-44418882D01*
X46512288Y-44341206D01*
X46512286Y-44341205D01*
X46325487Y-44301500D01*
X46134513Y-44301500D01*
X45947714Y-44341205D01*
X45773246Y-44418883D01*
X45618745Y-44531135D01*
X45490959Y-44673057D01*
X45395473Y-44838443D01*
X45395470Y-44838450D01*
X45350597Y-44976556D01*
X45336458Y-45020072D01*
X45316496Y-45210000D01*
X45336458Y-45399928D01*
X45336459Y-45399931D01*
X45395470Y-45581549D01*
X45395473Y-45581556D01*
X45474252Y-45718006D01*
X45490960Y-45746944D01*
X45564649Y-45828784D01*
X45594880Y-45891775D01*
X45596500Y-45911756D01*
X45596500Y-49676234D01*
X45576815Y-49743273D01*
X45560181Y-49763915D01*
X39455181Y-55868915D01*
X39393858Y-55902400D01*
X39324166Y-55897416D01*
X39268233Y-55855544D01*
X39243816Y-55790080D01*
X39243500Y-55781234D01*
X39243500Y-55681756D01*
X39263185Y-55614717D01*
X39275346Y-55598788D01*
X39349040Y-55516944D01*
X39444527Y-55351556D01*
X39503542Y-55169928D01*
X39523504Y-54980000D01*
X39503542Y-54790072D01*
X39444527Y-54608444D01*
X39349040Y-54443056D01*
X39221253Y-54301134D01*
X39066752Y-54188882D01*
X38892288Y-54111206D01*
X38892286Y-54111205D01*
X38705487Y-54071500D01*
X38514513Y-54071500D01*
X38327714Y-54111205D01*
X38153246Y-54188883D01*
X37998745Y-54301135D01*
X37870959Y-54443057D01*
X37775473Y-54608443D01*
X37775470Y-54608450D01*
X37716459Y-54790068D01*
X37716458Y-54790072D01*
X37696496Y-54980000D01*
X37716458Y-55169928D01*
X37716459Y-55169931D01*
X37775470Y-55351549D01*
X37775473Y-55351556D01*
X37870960Y-55516944D01*
X37944649Y-55598784D01*
X37974880Y-55661775D01*
X37976500Y-55681756D01*
X37976500Y-59442398D01*
X38000843Y-59564777D01*
X38000845Y-59564785D01*
X38048598Y-59680072D01*
X38048603Y-59680081D01*
X38117928Y-59783832D01*
X38117931Y-59783836D01*
X38670181Y-60336085D01*
X38703666Y-60397408D01*
X38706500Y-60423766D01*
X38706500Y-65377703D01*
X38727958Y-65485579D01*
X38721731Y-65555171D01*
X38678868Y-65610348D01*
X38612978Y-65633592D01*
X38544981Y-65617524D01*
X38518660Y-65597451D01*
X34707379Y-61786170D01*
X34706035Y-61784805D01*
X34666686Y-61744221D01*
X34662979Y-61741081D01*
X34659141Y-61737932D01*
X34659138Y-61737929D01*
X34612092Y-61706494D01*
X34610509Y-61705418D01*
X34564012Y-61673300D01*
X34559701Y-61670910D01*
X34555373Y-61668596D01*
X34503113Y-61646949D01*
X34501351Y-61646204D01*
X34449459Y-61623764D01*
X34444925Y-61622311D01*
X34440095Y-61620847D01*
X34440090Y-61620845D01*
X34400598Y-61612989D01*
X34384646Y-61609816D01*
X34382776Y-61609429D01*
X34327464Y-61597537D01*
X34322615Y-61596983D01*
X34317700Y-61596500D01*
X34317699Y-61596500D01*
X34261124Y-61596500D01*
X34259210Y-61596485D01*
X34252222Y-61596377D01*
X33675283Y-61587468D01*
X33608556Y-61566751D01*
X33585048Y-61546455D01*
X33571254Y-61531135D01*
X33416753Y-61418883D01*
X33416752Y-61418882D01*
X33242288Y-61341206D01*
X33242286Y-61341205D01*
X33055487Y-61301500D01*
X32864513Y-61301500D01*
X32677714Y-61341205D01*
X32503246Y-61418883D01*
X32348745Y-61531135D01*
X32220959Y-61673057D01*
X32125473Y-61838443D01*
X32125470Y-61838450D01*
X32066459Y-62020068D01*
X32066458Y-62020072D01*
X32046496Y-62210000D01*
X32066458Y-62399928D01*
X32066459Y-62399931D01*
X32125470Y-62581549D01*
X32125473Y-62581556D01*
X32220960Y-62746944D01*
X32316908Y-62853505D01*
X32340225Y-62879402D01*
X32348747Y-62888866D01*
X32503248Y-63001118D01*
X32677712Y-63078794D01*
X32864513Y-63118500D01*
X33055487Y-63118500D01*
X33242288Y-63078794D01*
X33416752Y-63001118D01*
X33571253Y-62888866D01*
X33571261Y-62888857D01*
X33574200Y-62886211D01*
X33576282Y-62885211D01*
X33576510Y-62885046D01*
X33576540Y-62885087D01*
X33637188Y-62855976D01*
X33659086Y-62854369D01*
X33938624Y-62858685D01*
X34005351Y-62879402D01*
X34024390Y-62894989D01*
X38430181Y-67300780D01*
X38463666Y-67362103D01*
X38466500Y-67388461D01*
X38466500Y-71112398D01*
X38490843Y-71234777D01*
X38490845Y-71234785D01*
X38538598Y-71350072D01*
X38538603Y-71350081D01*
X38607928Y-71453832D01*
X38607931Y-71453836D01*
X40060181Y-72906085D01*
X40093666Y-72967408D01*
X40096500Y-72993766D01*
X40096500Y-74494532D01*
X40076815Y-74561571D01*
X40024011Y-74607326D01*
X39954853Y-74617270D01*
X39891297Y-74588245D01*
X39884819Y-74582213D01*
X39545537Y-74242931D01*
X39545533Y-74242928D01*
X39441782Y-74173603D01*
X39441773Y-74173598D01*
X39326486Y-74125845D01*
X39326478Y-74125843D01*
X39204099Y-74101500D01*
X39204095Y-74101500D01*
X27327394Y-74101500D01*
X27202606Y-74101500D01*
X27162741Y-74109429D01*
X27111690Y-74119584D01*
X27042099Y-74113356D01*
X26986922Y-74070492D01*
X26963678Y-74004602D01*
X26963500Y-73997966D01*
X26963500Y-71037605D01*
X26963499Y-71037601D01*
X26939156Y-70915222D01*
X26939155Y-70915215D01*
X26921284Y-70872071D01*
X26891401Y-70799925D01*
X26848844Y-70736234D01*
X26822072Y-70696166D01*
X26822069Y-70696163D01*
X26013836Y-69887931D01*
X26013832Y-69887928D01*
X25910081Y-69818603D01*
X25910072Y-69818598D01*
X25794785Y-69770845D01*
X25794777Y-69770843D01*
X25672398Y-69746500D01*
X25672394Y-69746500D01*
X24462394Y-69746500D01*
X24337606Y-69746500D01*
X24337601Y-69746500D01*
X24215222Y-69770843D01*
X24215214Y-69770845D01*
X24099927Y-69818598D01*
X24099918Y-69818603D01*
X23996167Y-69887928D01*
X23996163Y-69887931D01*
X18512762Y-75371334D01*
X16686167Y-77197929D01*
X16659198Y-77224898D01*
X16597927Y-77286168D01*
X16528603Y-77389918D01*
X16528598Y-77389927D01*
X16480845Y-77505214D01*
X16480843Y-77505222D01*
X16456500Y-77627601D01*
X16456500Y-78317703D01*
X16480843Y-78440082D01*
X16480845Y-78440090D01*
X16528598Y-78555377D01*
X16528603Y-78555386D01*
X16597928Y-78659137D01*
X16597931Y-78659141D01*
X16975181Y-79036390D01*
X17008666Y-79097713D01*
X17011500Y-79124071D01*
X17011500Y-85411233D01*
X16991815Y-85478272D01*
X16975180Y-85498914D01*
X15201167Y-87272929D01*
X15157047Y-87317049D01*
X15112927Y-87361168D01*
X15043603Y-87464918D01*
X15043598Y-87464927D01*
X14995845Y-87580214D01*
X14995843Y-87580222D01*
X14971500Y-87702601D01*
X14971500Y-92953794D01*
X14995843Y-93076173D01*
X14995845Y-93076181D01*
X15043598Y-93191468D01*
X15043603Y-93191477D01*
X15112928Y-93295228D01*
X15112931Y-93295232D01*
X17093216Y-95275516D01*
X17126701Y-95336839D01*
X17121717Y-95406531D01*
X17093216Y-95450878D01*
X16615213Y-95928882D01*
X15221167Y-97322929D01*
X15177047Y-97367049D01*
X15132927Y-97411168D01*
X15063603Y-97514918D01*
X15063598Y-97514927D01*
X15015845Y-97630214D01*
X15015843Y-97630222D01*
X14991500Y-97752601D01*
X14991500Y-99652703D01*
X15015843Y-99775082D01*
X15015845Y-99775090D01*
X15063598Y-99890377D01*
X15063603Y-99890386D01*
X15132928Y-99994137D01*
X15132931Y-99994141D01*
X17395181Y-102256390D01*
X17428666Y-102317713D01*
X17431500Y-102344071D01*
X17431500Y-109745929D01*
X17411815Y-109812968D01*
X17395181Y-109833610D01*
X16711167Y-110517624D01*
X16681976Y-110546815D01*
X16622927Y-110605863D01*
X16553603Y-110709613D01*
X16553598Y-110709622D01*
X16505845Y-110824909D01*
X16505843Y-110824917D01*
X16481500Y-110947296D01*
X16481500Y-111672703D01*
X16505843Y-111795082D01*
X16505845Y-111795090D01*
X16553598Y-111910377D01*
X16553603Y-111910386D01*
X16622928Y-112014137D01*
X16622931Y-112014141D01*
X17047624Y-112438833D01*
X17135862Y-112527071D01*
X17135863Y-112527072D01*
X17239613Y-112596396D01*
X17239622Y-112596401D01*
X17265738Y-112607218D01*
X17354910Y-112644155D01*
X17477296Y-112668499D01*
X17477300Y-112668500D01*
X17477301Y-112668500D01*
X33831192Y-112668500D01*
X33898231Y-112688185D01*
X33943986Y-112740989D01*
X33953930Y-112810147D01*
X33938579Y-112854500D01*
X33855473Y-112998443D01*
X33855470Y-112998450D01*
X33796459Y-113180068D01*
X33796458Y-113180072D01*
X33776496Y-113370000D01*
X33796458Y-113559928D01*
X33796459Y-113559931D01*
X33855470Y-113741549D01*
X33855473Y-113741556D01*
X33950960Y-113906944D01*
X34053290Y-114020594D01*
X34077014Y-114046942D01*
X34078747Y-114048866D01*
X34233248Y-114161118D01*
X34407712Y-114238794D01*
X34594513Y-114278500D01*
X34785487Y-114278500D01*
X34972288Y-114238794D01*
X35146752Y-114161118D01*
X35301253Y-114048866D01*
X35429040Y-113906944D01*
X35524527Y-113741556D01*
X35583542Y-113559928D01*
X35603504Y-113370000D01*
X35583542Y-113180072D01*
X35524527Y-112998444D01*
X35429040Y-112833056D01*
X35429039Y-112833054D01*
X35427100Y-112830385D01*
X35426455Y-112828579D01*
X35425791Y-112827428D01*
X35426001Y-112827306D01*
X35403620Y-112764579D01*
X35419446Y-112696525D01*
X35469552Y-112647830D01*
X35527418Y-112633500D01*
X39079429Y-112633500D01*
X39146468Y-112653185D01*
X39192223Y-112705989D01*
X39202167Y-112775147D01*
X39173142Y-112838703D01*
X39171579Y-112840472D01*
X39095959Y-112924457D01*
X39000473Y-113089843D01*
X39000470Y-113089850D01*
X38941459Y-113271468D01*
X38941458Y-113271472D01*
X38921496Y-113461400D01*
X38941458Y-113651328D01*
X38941459Y-113651331D01*
X39000470Y-113832949D01*
X39000473Y-113832956D01*
X39095960Y-113998344D01*
X39223747Y-114140266D01*
X39378248Y-114252518D01*
X39552712Y-114330194D01*
X39739513Y-114369900D01*
X39930487Y-114369900D01*
X40117288Y-114330194D01*
X40291752Y-114252518D01*
X40446253Y-114140266D01*
X40574040Y-113998344D01*
X40669527Y-113832956D01*
X40728542Y-113651328D01*
X40748504Y-113461400D01*
X40728542Y-113271472D01*
X40669527Y-113089844D01*
X40574040Y-112924456D01*
X40523573Y-112868407D01*
X40498421Y-112840472D01*
X40468191Y-112777480D01*
X40476817Y-112708145D01*
X40521558Y-112654480D01*
X40588211Y-112633522D01*
X40590571Y-112633500D01*
X40606234Y-112633500D01*
X40673273Y-112653185D01*
X40693915Y-112669819D01*
X41403956Y-113379860D01*
X41437441Y-113441183D01*
X41439596Y-113480500D01*
X41436496Y-113510000D01*
X41456458Y-113699928D01*
X41456459Y-113699931D01*
X41515470Y-113881549D01*
X41515473Y-113881556D01*
X41610960Y-114046944D01*
X41738747Y-114188866D01*
X41893248Y-114301118D01*
X42067712Y-114378794D01*
X42254513Y-114418500D01*
X42445487Y-114418500D01*
X42632288Y-114378794D01*
X42806752Y-114301118D01*
X42961253Y-114188866D01*
X43089040Y-114046944D01*
X43184527Y-113881556D01*
X43243542Y-113699928D01*
X43263504Y-113510000D01*
X43243542Y-113320072D01*
X43184527Y-113138444D01*
X43089040Y-112973056D01*
X42961253Y-112831134D01*
X42806752Y-112718882D01*
X42632288Y-112641206D01*
X42632286Y-112641205D01*
X42632285Y-112641205D01*
X42445751Y-112601556D01*
X42384269Y-112568364D01*
X42383851Y-112567947D01*
X41323836Y-111507931D01*
X41323832Y-111507928D01*
X41220081Y-111438603D01*
X41220072Y-111438598D01*
X41104785Y-111390845D01*
X41104777Y-111390843D01*
X40976419Y-111365311D01*
X40976828Y-111363250D01*
X40920883Y-111340647D01*
X40880536Y-111283605D01*
X40877433Y-111213804D01*
X40910161Y-111155742D01*
X42282485Y-109783419D01*
X42343808Y-109749934D01*
X42370166Y-109747100D01*
X42464487Y-109747100D01*
X42651288Y-109707394D01*
X42825752Y-109629718D01*
X42914116Y-109565517D01*
X42979920Y-109542038D01*
X43047974Y-109557863D01*
X43059874Y-109565510D01*
X43148248Y-109629718D01*
X43322712Y-109707394D01*
X43509513Y-109747100D01*
X43700486Y-109747100D01*
X43700487Y-109747100D01*
X43786721Y-109728770D01*
X43856385Y-109734085D01*
X43912119Y-109776222D01*
X43936225Y-109841802D01*
X43936500Y-109850060D01*
X43936500Y-115806233D01*
X43916815Y-115873272D01*
X43900185Y-115893909D01*
X43844027Y-115950068D01*
X43805599Y-115988496D01*
X43744275Y-116021980D01*
X43674584Y-116016996D01*
X43618650Y-115975124D01*
X43599987Y-115939132D01*
X43544529Y-115768449D01*
X43544526Y-115768443D01*
X43449040Y-115603056D01*
X43321253Y-115461134D01*
X43166752Y-115348882D01*
X42992288Y-115271206D01*
X42992286Y-115271205D01*
X42805487Y-115231500D01*
X42614513Y-115231500D01*
X42427714Y-115271205D01*
X42253246Y-115348883D01*
X42098745Y-115461135D01*
X41970959Y-115603057D01*
X41875473Y-115768443D01*
X41875470Y-115768450D01*
X41816459Y-115950068D01*
X41816458Y-115950072D01*
X41796496Y-116140000D01*
X41816458Y-116329928D01*
X41816459Y-116329931D01*
X41875470Y-116511549D01*
X41875475Y-116511561D01*
X41932598Y-116610501D01*
X41949071Y-116678401D01*
X41926218Y-116744428D01*
X41871297Y-116787618D01*
X41825211Y-116796500D01*
X41577601Y-116796500D01*
X41455222Y-116820843D01*
X41455214Y-116820845D01*
X41339927Y-116868598D01*
X41339918Y-116868603D01*
X41236167Y-116937928D01*
X41236163Y-116937931D01*
X35084028Y-123090068D01*
X33176167Y-124997929D01*
X33132047Y-125042049D01*
X33087927Y-125086168D01*
X33018603Y-125189918D01*
X33018598Y-125189927D01*
X32970845Y-125305214D01*
X32970843Y-125305222D01*
X32946500Y-125427601D01*
X32946500Y-126057500D01*
X32926815Y-126124539D01*
X32874011Y-126170294D01*
X32822500Y-126181500D01*
X32774513Y-126181500D01*
X32587714Y-126221205D01*
X32413246Y-126298883D01*
X32258745Y-126411135D01*
X32130959Y-126553057D01*
X32035473Y-126718443D01*
X32035470Y-126718450D01*
X31976459Y-126900068D01*
X31976458Y-126900072D01*
X31956496Y-127090000D01*
X31976458Y-127279928D01*
X31976459Y-127279931D01*
X32035470Y-127461549D01*
X32035473Y-127461556D01*
X32130960Y-127626944D01*
X32258747Y-127768866D01*
X32413248Y-127881118D01*
X32587712Y-127958794D01*
X32774513Y-127998500D01*
X32965487Y-127998500D01*
X33152288Y-127958794D01*
X33326752Y-127881118D01*
X33481253Y-127768866D01*
X33609040Y-127626944D01*
X33704527Y-127461556D01*
X33763542Y-127279928D01*
X33780981Y-127113999D01*
X33807564Y-127049388D01*
X33816601Y-127039302D01*
X34072072Y-126783833D01*
X34141401Y-126680075D01*
X34189155Y-126564784D01*
X34213500Y-126442393D01*
X34213500Y-126317606D01*
X34213500Y-125803765D01*
X34233185Y-125736726D01*
X34249814Y-125716089D01*
X35285903Y-124680000D01*
X36326496Y-124680000D01*
X36346458Y-124869928D01*
X36346459Y-124869931D01*
X36405470Y-125051549D01*
X36405473Y-125051556D01*
X36500960Y-125216944D01*
X36628747Y-125358866D01*
X36783248Y-125471118D01*
X36957712Y-125548794D01*
X37144513Y-125588500D01*
X37335487Y-125588500D01*
X37522288Y-125548794D01*
X37696752Y-125471118D01*
X37851253Y-125358866D01*
X37979040Y-125216944D01*
X38074527Y-125051556D01*
X38133542Y-124869928D01*
X38153504Y-124680000D01*
X38133542Y-124490072D01*
X38074527Y-124308444D01*
X37979040Y-124143056D01*
X37851253Y-124001134D01*
X37696752Y-123888882D01*
X37522288Y-123811206D01*
X37522286Y-123811205D01*
X37335487Y-123771500D01*
X37144513Y-123771500D01*
X36957714Y-123811205D01*
X36783246Y-123888883D01*
X36628745Y-124001135D01*
X36500959Y-124143057D01*
X36405473Y-124308443D01*
X36405470Y-124308450D01*
X36367673Y-124424779D01*
X36346458Y-124490072D01*
X36326496Y-124680000D01*
X35285903Y-124680000D01*
X39031831Y-120934071D01*
X39093152Y-120900588D01*
X39162844Y-120905572D01*
X39211659Y-120938781D01*
X39238747Y-120968866D01*
X39393248Y-121081118D01*
X39567712Y-121158794D01*
X39754513Y-121198500D01*
X39945487Y-121198500D01*
X40132288Y-121158794D01*
X40306752Y-121081118D01*
X40461253Y-120968866D01*
X40589040Y-120826944D01*
X40684527Y-120661556D01*
X40743542Y-120479928D01*
X40763504Y-120290000D01*
X40743542Y-120100072D01*
X40684527Y-119918444D01*
X40589040Y-119753056D01*
X40489537Y-119642547D01*
X40459308Y-119579557D01*
X40467933Y-119510221D01*
X40494004Y-119471898D01*
X41866085Y-118099819D01*
X41927408Y-118066334D01*
X41953766Y-118063500D01*
X43322395Y-118063500D01*
X43322396Y-118063499D01*
X43444785Y-118039155D01*
X43560075Y-117991400D01*
X43663833Y-117922071D01*
X45062072Y-116523833D01*
X45131401Y-116420075D01*
X45179155Y-116304785D01*
X45186297Y-116268883D01*
X45203499Y-116182398D01*
X45203500Y-116182395D01*
X45203500Y-107867605D01*
X45203499Y-107867601D01*
X45190264Y-107801066D01*
X45179155Y-107745215D01*
X45131400Y-107629925D01*
X45131399Y-107629924D01*
X45131396Y-107629918D01*
X45062072Y-107526168D01*
X45047020Y-107511116D01*
X44973833Y-107437929D01*
X44154347Y-106618443D01*
X43038836Y-105502931D01*
X43038832Y-105502928D01*
X42935081Y-105433603D01*
X42935072Y-105433598D01*
X42819785Y-105385845D01*
X42819777Y-105385843D01*
X42697398Y-105361500D01*
X42697394Y-105361500D01*
X41699728Y-105361500D01*
X41632689Y-105341815D01*
X41586934Y-105289011D01*
X41576990Y-105219853D01*
X41581797Y-105199182D01*
X41593112Y-105164358D01*
X41633542Y-105039928D01*
X41653504Y-104850000D01*
X41633542Y-104660072D01*
X41574527Y-104478444D01*
X41479040Y-104313056D01*
X41351253Y-104171134D01*
X41196752Y-104058882D01*
X41022288Y-103981206D01*
X41022286Y-103981205D01*
X40835487Y-103941500D01*
X40644513Y-103941500D01*
X40457714Y-103981205D01*
X40283250Y-104058880D01*
X40222248Y-104103200D01*
X40156441Y-104126679D01*
X40088387Y-104110853D01*
X40076479Y-104103199D01*
X39936756Y-104001684D01*
X39936752Y-104001682D01*
X39762288Y-103924006D01*
X39762286Y-103924005D01*
X39575487Y-103884300D01*
X39384513Y-103884300D01*
X39197714Y-103924005D01*
X39023243Y-104001684D01*
X38917885Y-104078232D01*
X38852079Y-104101712D01*
X38784025Y-104085886D01*
X38772115Y-104078232D01*
X38666756Y-104001684D01*
X38666752Y-104001682D01*
X38492288Y-103924006D01*
X38492286Y-103924005D01*
X38305487Y-103884300D01*
X38114513Y-103884300D01*
X37927714Y-103924005D01*
X37753246Y-104001683D01*
X37598745Y-104113935D01*
X37470959Y-104255857D01*
X37375473Y-104421243D01*
X37375470Y-104421250D01*
X37356887Y-104478444D01*
X37316458Y-104602872D01*
X37296496Y-104792800D01*
X37316458Y-104982728D01*
X37316459Y-104982731D01*
X37375470Y-105164349D01*
X37375474Y-105164358D01*
X37381908Y-105175502D01*
X37398379Y-105243402D01*
X37375526Y-105309428D01*
X37320605Y-105352618D01*
X37274520Y-105361500D01*
X36057296Y-105361500D01*
X35934917Y-105385843D01*
X35934910Y-105385845D01*
X35889464Y-105404669D01*
X35819995Y-105412137D01*
X35757516Y-105380861D01*
X35721864Y-105320772D01*
X35724359Y-105250946D01*
X35749864Y-105207134D01*
X35759040Y-105196944D01*
X35854527Y-105031556D01*
X35913542Y-104849928D01*
X35933504Y-104660000D01*
X35913542Y-104470072D01*
X35854527Y-104288444D01*
X35759040Y-104123056D01*
X35631253Y-103981134D01*
X35476752Y-103868882D01*
X35413630Y-103840778D01*
X35360395Y-103795530D01*
X35340073Y-103728681D01*
X35359118Y-103661457D01*
X35411484Y-103615201D01*
X35464067Y-103603500D01*
X38862395Y-103603500D01*
X38862396Y-103603499D01*
X38984785Y-103579155D01*
X39100075Y-103531400D01*
X39203833Y-103462071D01*
X44352072Y-98313833D01*
X44421401Y-98210075D01*
X44441905Y-98160572D01*
X44456753Y-98124726D01*
X44456782Y-98124654D01*
X44469153Y-98094789D01*
X44469155Y-98094785D01*
X44493500Y-97972394D01*
X44493500Y-64304002D01*
X44469155Y-64181611D01*
X44421400Y-64066321D01*
X44421399Y-64066320D01*
X44421396Y-64066314D01*
X44352072Y-63962564D01*
X44352071Y-63962563D01*
X44263833Y-63874325D01*
X41589456Y-61199948D01*
X41555971Y-61138625D01*
X41560955Y-61068933D01*
X41602827Y-61013000D01*
X41668291Y-60988583D01*
X41736564Y-61003435D01*
X41753479Y-61014554D01*
X44277514Y-62986546D01*
X44278610Y-62987412D01*
X44442554Y-63118500D01*
X44451478Y-63125635D01*
X44458924Y-63132090D01*
X44782083Y-63435557D01*
X44789918Y-63443614D01*
X45083780Y-63774601D01*
X45090851Y-63783333D01*
X45353501Y-64139585D01*
X45359759Y-64148934D01*
X45589040Y-64527526D01*
X45594426Y-64537403D01*
X45788449Y-64935211D01*
X45792917Y-64945537D01*
X45950089Y-65359304D01*
X45953602Y-65369991D01*
X46072620Y-65796277D01*
X46075151Y-65807238D01*
X46155046Y-66242569D01*
X46156573Y-66253715D01*
X46196749Y-66695208D01*
X46197251Y-66705037D01*
X46199765Y-66926336D01*
X46199773Y-66927745D01*
X46199773Y-122432271D01*
X46199765Y-122433668D01*
X46197272Y-122654955D01*
X46196770Y-122664796D01*
X46156592Y-123106282D01*
X46155065Y-123117428D01*
X46075167Y-123552760D01*
X46072636Y-123563722D01*
X45953611Y-123990022D01*
X45950097Y-124000709D01*
X45792930Y-124414454D01*
X45788462Y-124424779D01*
X45594429Y-124822606D01*
X45589044Y-124832483D01*
X45359771Y-125211058D01*
X45353513Y-125220407D01*
X45090860Y-125576662D01*
X45083780Y-125585405D01*
X44789924Y-125916384D01*
X44782081Y-125924449D01*
X44458928Y-126227909D01*
X44451481Y-126234365D01*
X44278599Y-126372596D01*
X44277504Y-126373461D01*
X40915999Y-128999756D01*
X40824531Y-129074154D01*
X40663751Y-129246569D01*
X40531932Y-129441997D01*
X40531928Y-129442004D01*
X40432296Y-129655662D01*
X40367319Y-129882261D01*
X40367316Y-129882272D01*
X40338585Y-130116254D01*
X40346810Y-130351856D01*
X40391789Y-130583266D01*
X40391793Y-130583280D01*
X40472413Y-130804788D01*
X40472416Y-130804795D01*
X40586702Y-131010979D01*
X40586704Y-131010982D01*
X40657462Y-131105267D01*
X52423074Y-146164564D01*
X59311898Y-154981856D01*
X65317298Y-162668418D01*
X65318534Y-162670026D01*
X65412327Y-162794209D01*
X65420220Y-162806009D01*
X65578632Y-163074941D01*
X65585933Y-163089425D01*
X65707495Y-163375812D01*
X65712842Y-163391125D01*
X65795981Y-163690917D01*
X65799284Y-163706796D01*
X65842583Y-164014881D01*
X65843785Y-164031057D01*
X65846500Y-164342153D01*
X65845581Y-164358346D01*
X65807666Y-164667146D01*
X65804640Y-164683082D01*
X65726745Y-164984277D01*
X65721666Y-164999681D01*
X65605120Y-165288145D01*
X65598073Y-165302754D01*
X65444876Y-165573531D01*
X65435983Y-165587096D01*
X65248753Y-165835561D01*
X65238165Y-165847848D01*
X65019396Y-166070471D01*
X65008881Y-166080012D01*
X64887855Y-166177793D01*
X64886269Y-166179053D01*
X63825143Y-167008096D01*
X63750333Y-167069405D01*
X63623647Y-167215505D01*
X63527369Y-167383214D01*
X63465089Y-167566281D01*
X63465087Y-167566289D01*
X63439117Y-167757911D01*
X63450423Y-167950956D01*
X63450423Y-167950959D01*
X63450424Y-167950962D01*
X63465953Y-168017794D01*
X63472330Y-168045241D01*
X63524230Y-168259352D01*
X63526533Y-168271447D01*
X63587249Y-168707105D01*
X63588396Y-168721091D01*
X63599498Y-169160807D01*
X63599198Y-169173114D01*
X63582883Y-169392945D01*
X63576496Y-169491685D01*
X63598170Y-169688417D01*
X63598170Y-169688421D01*
X63658070Y-169877058D01*
X63658074Y-169877066D01*
X63753858Y-170050251D01*
X63828586Y-170138443D01*
X63881811Y-170201258D01*
X64036919Y-170324173D01*
X64036931Y-170324182D01*
X64036932Y-170324183D01*
X64124023Y-170371273D01*
X64698945Y-170663057D01*
X64957903Y-170794483D01*
X66641685Y-171608637D01*
X68342972Y-172385548D01*
X69207254Y-172757474D01*
X70042737Y-173117007D01*
X70060940Y-173124840D01*
X71794757Y-173826156D01*
X72668263Y-174160051D01*
X72782162Y-174200632D01*
X73019057Y-174248969D01*
X73260637Y-174258680D01*
X73500648Y-174229516D01*
X73732872Y-174162230D01*
X73951297Y-174058566D01*
X74150265Y-173921208D01*
X74324624Y-173753713D01*
X74469858Y-173560419D01*
X74582207Y-173346332D01*
X74658760Y-173116996D01*
X74697536Y-172878350D01*
X74700000Y-172757462D01*
X74700000Y-167630898D01*
X94926500Y-167630898D01*
X94950843Y-167753277D01*
X94950845Y-167753285D01*
X94998598Y-167868572D01*
X94998603Y-167868581D01*
X95067928Y-167972332D01*
X95067931Y-167972336D01*
X95859878Y-168764282D01*
X95893363Y-168825605D01*
X95895518Y-168839001D01*
X95903492Y-168914868D01*
X95912958Y-169004928D01*
X95912959Y-169004931D01*
X95971970Y-169186549D01*
X95971973Y-169186556D01*
X96067460Y-169351944D01*
X96195247Y-169493866D01*
X96349748Y-169606118D01*
X96524212Y-169683794D01*
X96711013Y-169723500D01*
X96901987Y-169723500D01*
X97088788Y-169683794D01*
X97263252Y-169606118D01*
X97417753Y-169493866D01*
X97545540Y-169351944D01*
X97641027Y-169186556D01*
X97700042Y-169004928D01*
X97720004Y-168815000D01*
X97700042Y-168625072D01*
X97641027Y-168443444D01*
X97545540Y-168278056D01*
X97531958Y-168262972D01*
X97501729Y-168199981D01*
X97510353Y-168130646D01*
X97531959Y-168097027D01*
X97545540Y-168081944D01*
X97641027Y-167916556D01*
X97700042Y-167734928D01*
X97720004Y-167545000D01*
X97700042Y-167355072D01*
X97641027Y-167173444D01*
X97545540Y-167008056D01*
X97417753Y-166866134D01*
X97263252Y-166753882D01*
X97088788Y-166676206D01*
X97088786Y-166676205D01*
X96901987Y-166636500D01*
X96711013Y-166636500D01*
X96524214Y-166676205D01*
X96524212Y-166676206D01*
X96367933Y-166745785D01*
X96298685Y-166755069D01*
X96235409Y-166725441D01*
X96198196Y-166666305D01*
X96193500Y-166632505D01*
X96193500Y-165930162D01*
X96213185Y-165863123D01*
X96229819Y-165842481D01*
X96272481Y-165799819D01*
X96333804Y-165766334D01*
X96360162Y-165763500D01*
X97925638Y-165763500D01*
X97992677Y-165783185D01*
X98013319Y-165799819D01*
X101887333Y-169673833D01*
X102371533Y-170158033D01*
X102453568Y-170240068D01*
X102459772Y-170246272D01*
X102563522Y-170315596D01*
X102563531Y-170315601D01*
X102574325Y-170320072D01*
X102678819Y-170363355D01*
X102801205Y-170387699D01*
X102801209Y-170387700D01*
X102801210Y-170387700D01*
X108658195Y-170387700D01*
X108658196Y-170387699D01*
X108780585Y-170363355D01*
X108895875Y-170315600D01*
X108999633Y-170246271D01*
X109171085Y-170074819D01*
X109232408Y-170041334D01*
X109258766Y-170038500D01*
X109345487Y-170038500D01*
X109532288Y-169998794D01*
X109706752Y-169921118D01*
X109861253Y-169808866D01*
X109989040Y-169666944D01*
X110084527Y-169501556D01*
X110143542Y-169319928D01*
X110163504Y-169130000D01*
X110143542Y-168940072D01*
X110084527Y-168758444D01*
X109989040Y-168593056D01*
X109926648Y-168523762D01*
X109889085Y-168482044D01*
X109858855Y-168419052D01*
X109867481Y-168349717D01*
X109908348Y-168298755D01*
X109944053Y-168272815D01*
X110071840Y-168130893D01*
X110167327Y-167965505D01*
X110226342Y-167783877D01*
X110246304Y-167593949D01*
X110226342Y-167404021D01*
X110167327Y-167222393D01*
X110071840Y-167057005D01*
X109944053Y-166915083D01*
X109789552Y-166802831D01*
X109615088Y-166725155D01*
X109615086Y-166725154D01*
X109428287Y-166685449D01*
X109237313Y-166685449D01*
X109050514Y-166725154D01*
X108876046Y-166802832D01*
X108721545Y-166915084D01*
X108593759Y-167057006D01*
X108498273Y-167222392D01*
X108498270Y-167222399D01*
X108439259Y-167404017D01*
X108439258Y-167404021D01*
X108419296Y-167593949D01*
X108439258Y-167783877D01*
X108439259Y-167783880D01*
X108498270Y-167965498D01*
X108498273Y-167965505D01*
X108593760Y-168130893D01*
X108637976Y-168180000D01*
X108693714Y-168241904D01*
X108723944Y-168304896D01*
X108715318Y-168374231D01*
X108674451Y-168425193D01*
X108638746Y-168451134D01*
X108510959Y-168593057D01*
X108415473Y-168758443D01*
X108415470Y-168758450D01*
X108356459Y-168940067D01*
X108356458Y-168940070D01*
X108356458Y-168940072D01*
X108349642Y-169004928D01*
X108349144Y-169009662D01*
X108322559Y-169074277D01*
X108265261Y-169114261D01*
X108225823Y-169120700D01*
X105744771Y-169120700D01*
X105677732Y-169101015D01*
X105631977Y-169048211D01*
X105621450Y-169009662D01*
X105620953Y-169004931D01*
X105603542Y-168839272D01*
X105544527Y-168657644D01*
X105529712Y-168631985D01*
X105513242Y-168564086D01*
X105536094Y-168498059D01*
X105544952Y-168487014D01*
X105549427Y-168482044D01*
X105599040Y-168426944D01*
X105694527Y-168261556D01*
X105753542Y-168079928D01*
X105773504Y-167890000D01*
X105753542Y-167700072D01*
X105694527Y-167518444D01*
X105599040Y-167353056D01*
X105471253Y-167211134D01*
X105433053Y-167183380D01*
X105390389Y-167128051D01*
X105384410Y-167058437D01*
X105413790Y-167000092D01*
X105449040Y-166960944D01*
X105544527Y-166795556D01*
X105603542Y-166613928D01*
X105623504Y-166424000D01*
X105603542Y-166234072D01*
X105544527Y-166052444D01*
X105470368Y-165923997D01*
X105453896Y-165856100D01*
X105470368Y-165800002D01*
X105544527Y-165671556D01*
X105603542Y-165489928D01*
X105623504Y-165300000D01*
X105603542Y-165110072D01*
X105544527Y-164928444D01*
X105449040Y-164763056D01*
X105412971Y-164722997D01*
X105382741Y-164660005D01*
X105391367Y-164590670D01*
X105397729Y-164578033D01*
X105438274Y-164507809D01*
X105497289Y-164326181D01*
X105517251Y-164136253D01*
X105497289Y-163946325D01*
X105484470Y-163906873D01*
X126202466Y-163906873D01*
X126241801Y-164155229D01*
X126319508Y-164394383D01*
X126398015Y-164548461D01*
X126431438Y-164614057D01*
X126433668Y-164618432D01*
X126581463Y-164821856D01*
X126581467Y-164821861D01*
X126759277Y-164999671D01*
X126759282Y-164999675D01*
X126911226Y-165110068D01*
X126962710Y-165147473D01*
X127105474Y-165220215D01*
X127186755Y-165261630D01*
X127186757Y-165261630D01*
X127186760Y-165261632D01*
X127291539Y-165295677D01*
X127425909Y-165339337D01*
X127674266Y-165378673D01*
X127925729Y-165378673D01*
X127925734Y-165378673D01*
X128174090Y-165339337D01*
X128244919Y-165316323D01*
X128413240Y-165261632D01*
X128637290Y-165147473D01*
X128840724Y-164999670D01*
X129018531Y-164821863D01*
X129166334Y-164618429D01*
X129280493Y-164394379D01*
X129358198Y-164155229D01*
X129397534Y-163906868D01*
X129400000Y-163781139D01*
X129397534Y-163655410D01*
X129358198Y-163407049D01*
X129280493Y-163167899D01*
X129280491Y-163167896D01*
X129280491Y-163167894D01*
X129233129Y-163074941D01*
X129166334Y-162943849D01*
X129066188Y-162806009D01*
X129018536Y-162740421D01*
X129018532Y-162740416D01*
X128840722Y-162562606D01*
X128840717Y-162562602D01*
X128637293Y-162414807D01*
X128637292Y-162414806D01*
X128637290Y-162414805D01*
X128567322Y-162379154D01*
X128413244Y-162300647D01*
X128174090Y-162222940D01*
X127925734Y-162183605D01*
X127925729Y-162183605D01*
X127674271Y-162183605D01*
X127674266Y-162183605D01*
X127425909Y-162222940D01*
X127186755Y-162300647D01*
X126962706Y-162414807D01*
X126759282Y-162562602D01*
X126759277Y-162562606D01*
X126581467Y-162740416D01*
X126581463Y-162740421D01*
X126433668Y-162943845D01*
X126319508Y-163167894D01*
X126241801Y-163407048D01*
X126202466Y-163655404D01*
X126202466Y-163906873D01*
X105484470Y-163906873D01*
X105438274Y-163764697D01*
X105342787Y-163599309D01*
X105215000Y-163457387D01*
X105060499Y-163345135D01*
X104886035Y-163267459D01*
X104886033Y-163267458D01*
X104699234Y-163227753D01*
X104508260Y-163227753D01*
X104321461Y-163267458D01*
X104146993Y-163345136D01*
X103992492Y-163457388D01*
X103864706Y-163599310D01*
X103769220Y-163764696D01*
X103769217Y-163764703D01*
X103710206Y-163946321D01*
X103710205Y-163946325D01*
X103690243Y-164136253D01*
X103710205Y-164326181D01*
X103710206Y-164326184D01*
X103769217Y-164507802D01*
X103769220Y-164507809D01*
X103864706Y-164673196D01*
X103900775Y-164713255D01*
X103931005Y-164776247D01*
X103922379Y-164845582D01*
X103916013Y-164858226D01*
X103875472Y-164928446D01*
X103875470Y-164928450D01*
X103816459Y-165110068D01*
X103816458Y-165110072D01*
X103796496Y-165300000D01*
X103816458Y-165489928D01*
X103816459Y-165489931D01*
X103875470Y-165671549D01*
X103875473Y-165671556D01*
X103949630Y-165800000D01*
X103966103Y-165867901D01*
X103949630Y-165924000D01*
X103875473Y-166052443D01*
X103875470Y-166052450D01*
X103816459Y-166234068D01*
X103816458Y-166234072D01*
X103796496Y-166424000D01*
X103816458Y-166613928D01*
X103816459Y-166613931D01*
X103875470Y-166795549D01*
X103875473Y-166795556D01*
X103970960Y-166960944D01*
X103989440Y-166981468D01*
X104098741Y-167102861D01*
X104098745Y-167102863D01*
X104098747Y-167102866D01*
X104133411Y-167128051D01*
X104136943Y-167130617D01*
X104179609Y-167185947D01*
X104185588Y-167255560D01*
X104156209Y-167313906D01*
X104120963Y-167353050D01*
X104120958Y-167353057D01*
X104025473Y-167518443D01*
X104025470Y-167518450D01*
X103966459Y-167700068D01*
X103966458Y-167700072D01*
X103946496Y-167890000D01*
X103966458Y-168079928D01*
X103966459Y-168079931D01*
X104025470Y-168261549D01*
X104025472Y-168261553D01*
X104025473Y-168261556D01*
X104035000Y-168278057D01*
X104040286Y-168287212D01*
X104056758Y-168355112D01*
X104033905Y-168421139D01*
X104025049Y-168432182D01*
X103970963Y-168492250D01*
X103970958Y-168492257D01*
X103875473Y-168657643D01*
X103875470Y-168657650D01*
X103816546Y-168839001D01*
X103816458Y-168839272D01*
X103799047Y-169004931D01*
X103798550Y-169009662D01*
X103771965Y-169074276D01*
X103714668Y-169114261D01*
X103675229Y-169120700D01*
X103177370Y-169120700D01*
X103110331Y-169101015D01*
X103089689Y-169084381D01*
X102259825Y-168254517D01*
X102226340Y-168193194D01*
X102231324Y-168123502D01*
X102273196Y-168067569D01*
X102321724Y-168045546D01*
X102452288Y-168017794D01*
X102626752Y-167940118D01*
X102781253Y-167827866D01*
X102909040Y-167685944D01*
X103004527Y-167520556D01*
X103063542Y-167338928D01*
X103083504Y-167149000D01*
X103063542Y-166959072D01*
X103004527Y-166777444D01*
X102909040Y-166612056D01*
X102781253Y-166470134D01*
X102626752Y-166357882D01*
X102452288Y-166280206D01*
X102452286Y-166280205D01*
X102265487Y-166240500D01*
X102074513Y-166240500D01*
X101887714Y-166280205D01*
X101713246Y-166357883D01*
X101558745Y-166470135D01*
X101430959Y-166612057D01*
X101335473Y-166777443D01*
X101335470Y-166777450D01*
X101276458Y-166959070D01*
X101276457Y-166959073D01*
X101273950Y-166982926D01*
X101247364Y-167047540D01*
X101190065Y-167087522D01*
X101120246Y-167090180D01*
X101062949Y-167057641D01*
X98643240Y-164637931D01*
X98643236Y-164637928D01*
X98539485Y-164568603D01*
X98539476Y-164568598D01*
X98424189Y-164520845D01*
X98424181Y-164520843D01*
X98301802Y-164496500D01*
X98301798Y-164496500D01*
X96108790Y-164496500D01*
X95984002Y-164496500D01*
X95983997Y-164496500D01*
X95861618Y-164520843D01*
X95861610Y-164520845D01*
X95746323Y-164568598D01*
X95746314Y-164568603D01*
X95642563Y-164637928D01*
X95642559Y-164637931D01*
X95170424Y-165110068D01*
X95156167Y-165124325D01*
X95133019Y-165147473D01*
X95067927Y-165212564D01*
X94998603Y-165316314D01*
X94998598Y-165316323D01*
X94950845Y-165431610D01*
X94950843Y-165431618D01*
X94926500Y-165553997D01*
X94926500Y-167630898D01*
X74700000Y-167630898D01*
X74700000Y-163906873D01*
X76202466Y-163906873D01*
X76241801Y-164155229D01*
X76319508Y-164394383D01*
X76398015Y-164548461D01*
X76431438Y-164614057D01*
X76433668Y-164618432D01*
X76581463Y-164821856D01*
X76581467Y-164821861D01*
X76759277Y-164999671D01*
X76759282Y-164999675D01*
X76911226Y-165110068D01*
X76962710Y-165147473D01*
X77105474Y-165220215D01*
X77186755Y-165261630D01*
X77186757Y-165261630D01*
X77186760Y-165261632D01*
X77291539Y-165295677D01*
X77425909Y-165339337D01*
X77674266Y-165378673D01*
X77925729Y-165378673D01*
X77925734Y-165378673D01*
X78174090Y-165339337D01*
X78244919Y-165316323D01*
X78413240Y-165261632D01*
X78637290Y-165147473D01*
X78840724Y-164999670D01*
X79018531Y-164821863D01*
X79161184Y-164625518D01*
X89845263Y-164625518D01*
X89865225Y-164815446D01*
X89865226Y-164815449D01*
X89924237Y-164997067D01*
X89924240Y-164997074D01*
X90019727Y-165162462D01*
X90064839Y-165212564D01*
X90143566Y-165300000D01*
X90147514Y-165304384D01*
X90302015Y-165416636D01*
X90476479Y-165494312D01*
X90663280Y-165534018D01*
X90854254Y-165534018D01*
X91041055Y-165494312D01*
X91176407Y-165434049D01*
X91245654Y-165424765D01*
X91308931Y-165454393D01*
X91344770Y-165509007D01*
X91349171Y-165522549D01*
X91349173Y-165522556D01*
X91444660Y-165687944D01*
X91572447Y-165829866D01*
X91726948Y-165942118D01*
X91901412Y-166019794D01*
X92088213Y-166059500D01*
X92279187Y-166059500D01*
X92465988Y-166019794D01*
X92640452Y-165942118D01*
X92794953Y-165829866D01*
X92922740Y-165687944D01*
X93018227Y-165522556D01*
X93077242Y-165340928D01*
X93097204Y-165151000D01*
X93077242Y-164961072D01*
X93018227Y-164779444D01*
X92922740Y-164614056D01*
X92794953Y-164472134D01*
X92640452Y-164359882D01*
X92465988Y-164282206D01*
X92465986Y-164282205D01*
X92279187Y-164242500D01*
X92088213Y-164242500D01*
X91901413Y-164282205D01*
X91901410Y-164282206D01*
X91766059Y-164342467D01*
X91696809Y-164351751D01*
X91633533Y-164322122D01*
X91597693Y-164267501D01*
X91593296Y-164253968D01*
X91593295Y-164253967D01*
X91593294Y-164253962D01*
X91497807Y-164088574D01*
X91370020Y-163946652D01*
X91215519Y-163834400D01*
X91041055Y-163756724D01*
X91041053Y-163756723D01*
X90854254Y-163717018D01*
X90663280Y-163717018D01*
X90476481Y-163756723D01*
X90302013Y-163834401D01*
X90147512Y-163946653D01*
X90019726Y-164088575D01*
X89924240Y-164253961D01*
X89924237Y-164253968D01*
X89865226Y-164435586D01*
X89865225Y-164435590D01*
X89845263Y-164625518D01*
X79161184Y-164625518D01*
X79166334Y-164618429D01*
X79280493Y-164394379D01*
X79358198Y-164155229D01*
X79397534Y-163906868D01*
X79400000Y-163781139D01*
X79397534Y-163655410D01*
X79358198Y-163407049D01*
X79280493Y-163167899D01*
X79280491Y-163167896D01*
X79280491Y-163167894D01*
X79233129Y-163074941D01*
X79166334Y-162943849D01*
X79066188Y-162806009D01*
X79018536Y-162740421D01*
X79018532Y-162740416D01*
X78840722Y-162562606D01*
X78840717Y-162562602D01*
X78637293Y-162414807D01*
X78637292Y-162414806D01*
X78637290Y-162414805D01*
X78567322Y-162379154D01*
X78413244Y-162300647D01*
X78174090Y-162222940D01*
X77925734Y-162183605D01*
X77925729Y-162183605D01*
X77674271Y-162183605D01*
X77674266Y-162183605D01*
X77425909Y-162222940D01*
X77186755Y-162300647D01*
X76962706Y-162414807D01*
X76759282Y-162562602D01*
X76759277Y-162562606D01*
X76581467Y-162740416D01*
X76581463Y-162740421D01*
X76433668Y-162943845D01*
X76319508Y-163167894D01*
X76241801Y-163407048D01*
X76202466Y-163655404D01*
X76202466Y-163906873D01*
X74700000Y-163906873D01*
X74700000Y-162182310D01*
X74700021Y-162180008D01*
X74702029Y-162071854D01*
X74703534Y-162054761D01*
X74737540Y-161840021D01*
X74742077Y-161821123D01*
X74808902Y-161615439D01*
X74816339Y-161597484D01*
X74914521Y-161404783D01*
X74924677Y-161388210D01*
X75051788Y-161213251D01*
X75064421Y-161198461D01*
X75217334Y-161045544D01*
X75232121Y-161032913D01*
X75407079Y-160905795D01*
X75423653Y-160895639D01*
X75616337Y-160797460D01*
X75634305Y-160790016D01*
X75839989Y-160723185D01*
X75858888Y-160718648D01*
X76073612Y-160684639D01*
X76090728Y-160683134D01*
X76198850Y-160681159D01*
X76201114Y-160681139D01*
X129398792Y-160681139D01*
X129401223Y-160681163D01*
X129403283Y-160681203D01*
X129509345Y-160683283D01*
X129526298Y-160684785D01*
X129741080Y-160718803D01*
X129759990Y-160723342D01*
X129965639Y-160790159D01*
X129983611Y-160797603D01*
X130176282Y-160895770D01*
X130192870Y-160905936D01*
X130367799Y-161033025D01*
X130382595Y-161045661D01*
X130535498Y-161198559D01*
X130548134Y-161213354D01*
X130675232Y-161388279D01*
X130685399Y-161404869D01*
X130783569Y-161597524D01*
X130791016Y-161615501D01*
X130857840Y-161821145D01*
X130862383Y-161840063D01*
X130862384Y-161840068D01*
X130896396Y-162054761D01*
X130896404Y-162054807D01*
X130897908Y-162071837D01*
X130899977Y-162179937D01*
X130900000Y-162182310D01*
X130900000Y-172757462D01*
X130902428Y-172878353D01*
X130941205Y-173117005D01*
X131017760Y-173346346D01*
X131076668Y-173458598D01*
X131130113Y-173560440D01*
X131188589Y-173638266D01*
X131275350Y-173753737D01*
X131275352Y-173753739D01*
X131275353Y-173753740D01*
X131449706Y-173921229D01*
X131449710Y-173921232D01*
X131449713Y-173921235D01*
X131648686Y-174058597D01*
X131867115Y-174162263D01*
X131899954Y-174171778D01*
X131958866Y-174209340D01*
X131988120Y-174272791D01*
X131978425Y-174341985D01*
X131953128Y-174378560D01*
X131894746Y-174436943D01*
X131791506Y-174540182D01*
X131730186Y-174573666D01*
X131703827Y-174576500D01*
X131621863Y-174576500D01*
X131554824Y-174556815D01*
X131534186Y-174540185D01*
X131466930Y-174472929D01*
X131466929Y-174472928D01*
X131466928Y-174472927D01*
X131363178Y-174403603D01*
X131363169Y-174403598D01*
X131247882Y-174355845D01*
X131247874Y-174355843D01*
X131125495Y-174331500D01*
X131125491Y-174331500D01*
X127143418Y-174331500D01*
X127143413Y-174331500D01*
X127021034Y-174355843D01*
X127021022Y-174355846D01*
X127001966Y-174363740D01*
X126905736Y-174403599D01*
X126905733Y-174403600D01*
X126801979Y-174472927D01*
X126801975Y-174472930D01*
X124354727Y-176920181D01*
X124293404Y-176953666D01*
X124267046Y-176956500D01*
X122744923Y-176956500D01*
X122677884Y-176936815D01*
X122676032Y-176935602D01*
X122613169Y-176893598D01*
X122497882Y-176845845D01*
X122497874Y-176845843D01*
X122375495Y-176821500D01*
X122375491Y-176821500D01*
X117912900Y-176821500D01*
X117788113Y-176821500D01*
X117788108Y-176821500D01*
X117665729Y-176845843D01*
X117665721Y-176845845D01*
X117550434Y-176893598D01*
X117550425Y-176893603D01*
X117446674Y-176962928D01*
X117446670Y-176962931D01*
X116532779Y-177876824D01*
X116471456Y-177910309D01*
X116445098Y-177913143D01*
X102155994Y-177913143D01*
X102088955Y-177893458D01*
X102068313Y-177876824D01*
X100889519Y-176698030D01*
X100856034Y-176636707D01*
X100853200Y-176610349D01*
X100853200Y-175740000D01*
X108586496Y-175740000D01*
X108606458Y-175929928D01*
X108606459Y-175929931D01*
X108665470Y-176111549D01*
X108665473Y-176111556D01*
X108760960Y-176276944D01*
X108888747Y-176418866D01*
X109043248Y-176531118D01*
X109217712Y-176608794D01*
X109404513Y-176648500D01*
X109595487Y-176648500D01*
X109782288Y-176608794D01*
X109956752Y-176531118D01*
X110111253Y-176418866D01*
X110239040Y-176276944D01*
X110334527Y-176111556D01*
X110393542Y-175929928D01*
X110413504Y-175740000D01*
X110393542Y-175550072D01*
X110334527Y-175368444D01*
X110239040Y-175203056D01*
X110111253Y-175061134D01*
X109956752Y-174948882D01*
X109782288Y-174871206D01*
X109782286Y-174871205D01*
X109595487Y-174831500D01*
X109404513Y-174831500D01*
X109217714Y-174871205D01*
X109043246Y-174948883D01*
X108888745Y-175061135D01*
X108760959Y-175203057D01*
X108665473Y-175368443D01*
X108665470Y-175368450D01*
X108606459Y-175550068D01*
X108606458Y-175550072D01*
X108586496Y-175740000D01*
X100853200Y-175740000D01*
X100853200Y-174738059D01*
X100859268Y-174699743D01*
X100905254Y-174558216D01*
X100925216Y-174368288D01*
X100905254Y-174178360D01*
X100846239Y-173996732D01*
X100807711Y-173930000D01*
X111426496Y-173930000D01*
X111446458Y-174119928D01*
X111446459Y-174119931D01*
X111505470Y-174301549D01*
X111505473Y-174301556D01*
X111600960Y-174466944D01*
X111728747Y-174608866D01*
X111883248Y-174721118D01*
X112057712Y-174798794D01*
X112244513Y-174838500D01*
X112435487Y-174838500D01*
X112622288Y-174798794D01*
X112796752Y-174721118D01*
X112951253Y-174608866D01*
X113079040Y-174466944D01*
X113174527Y-174301556D01*
X113233542Y-174119928D01*
X113253504Y-173930000D01*
X113233542Y-173740072D01*
X113174527Y-173558444D01*
X113079040Y-173393056D01*
X112951253Y-173251134D01*
X112796752Y-173138882D01*
X112622288Y-173061206D01*
X112622286Y-173061205D01*
X112435487Y-173021500D01*
X112244513Y-173021500D01*
X112057714Y-173061205D01*
X111883246Y-173138883D01*
X111728745Y-173251135D01*
X111600959Y-173393057D01*
X111505473Y-173558443D01*
X111505470Y-173558450D01*
X111446459Y-173740068D01*
X111446458Y-173740072D01*
X111426496Y-173930000D01*
X100807711Y-173930000D01*
X100750752Y-173831344D01*
X100622965Y-173689422D01*
X100468464Y-173577170D01*
X100294000Y-173499494D01*
X100293998Y-173499493D01*
X100107199Y-173459788D01*
X99916225Y-173459788D01*
X99729425Y-173499493D01*
X99729422Y-173499494D01*
X99590678Y-173561266D01*
X99521428Y-173570550D01*
X99467359Y-173548304D01*
X99316756Y-173438884D01*
X99316752Y-173438882D01*
X99142288Y-173361206D01*
X99142286Y-173361205D01*
X98955487Y-173321500D01*
X98764513Y-173321500D01*
X98577714Y-173361205D01*
X98403247Y-173438881D01*
X98379899Y-173455845D01*
X98314092Y-173479324D01*
X98256582Y-173468806D01*
X98082288Y-173391206D01*
X98082286Y-173391205D01*
X97895487Y-173351500D01*
X97704513Y-173351500D01*
X97517714Y-173391205D01*
X97343250Y-173468880D01*
X97300163Y-173500185D01*
X97234356Y-173523664D01*
X97166302Y-173507838D01*
X97154393Y-173500184D01*
X97102230Y-173462285D01*
X97102226Y-173462283D01*
X96927762Y-173384607D01*
X96927760Y-173384606D01*
X96740961Y-173344901D01*
X96549987Y-173344901D01*
X96546581Y-173345625D01*
X96521558Y-173350943D01*
X96451891Y-173345625D01*
X96403631Y-173312624D01*
X96321254Y-173221135D01*
X96235450Y-173158794D01*
X96166752Y-173108882D01*
X95992288Y-173031206D01*
X95992286Y-173031205D01*
X95805487Y-172991500D01*
X95614513Y-172991500D01*
X95427714Y-173031205D01*
X95253246Y-173108883D01*
X95098745Y-173221135D01*
X94970959Y-173363057D01*
X94875473Y-173528443D01*
X94875470Y-173528450D01*
X94823167Y-173689423D01*
X94816458Y-173710072D01*
X94796496Y-173900000D01*
X94816458Y-174089928D01*
X94816459Y-174089931D01*
X94875470Y-174271549D01*
X94875473Y-174271556D01*
X94957131Y-174412993D01*
X94970960Y-174436944D01*
X95044649Y-174518784D01*
X95074880Y-174581775D01*
X95076500Y-174601756D01*
X95076500Y-174676302D01*
X95100843Y-174798681D01*
X95100845Y-174798689D01*
X95148598Y-174913976D01*
X95148603Y-174913985D01*
X95217928Y-175017736D01*
X95217931Y-175017740D01*
X96865011Y-176664819D01*
X96898496Y-176726142D01*
X96893512Y-176795834D01*
X96851640Y-176851767D01*
X96786176Y-176876184D01*
X96777330Y-176876500D01*
X96032065Y-176876500D01*
X95965026Y-176856815D01*
X95944384Y-176840181D01*
X93578519Y-174474316D01*
X93545034Y-174412993D01*
X93542200Y-174386635D01*
X93542200Y-172290000D01*
X108419296Y-172290000D01*
X108439258Y-172479928D01*
X108439259Y-172479931D01*
X108498270Y-172661549D01*
X108498273Y-172661556D01*
X108593760Y-172826944D01*
X108721547Y-172968866D01*
X108876048Y-173081118D01*
X109050512Y-173158794D01*
X109237313Y-173198500D01*
X109428287Y-173198500D01*
X109615088Y-173158794D01*
X109789552Y-173081118D01*
X109944053Y-172968866D01*
X110071840Y-172826944D01*
X110167327Y-172661556D01*
X110226342Y-172479928D01*
X110246304Y-172290000D01*
X110226342Y-172100072D01*
X110167327Y-171918444D01*
X110071840Y-171753056D01*
X109944053Y-171611134D01*
X109789552Y-171498882D01*
X109615088Y-171421206D01*
X109615086Y-171421205D01*
X109428287Y-171381500D01*
X109237313Y-171381500D01*
X109050514Y-171421205D01*
X108876046Y-171498883D01*
X108721545Y-171611135D01*
X108593759Y-171753057D01*
X108498273Y-171918443D01*
X108498270Y-171918450D01*
X108443162Y-172088056D01*
X108439258Y-172100072D01*
X108419296Y-172290000D01*
X93542200Y-172290000D01*
X93542200Y-171756305D01*
X93542199Y-171756301D01*
X93536281Y-171726549D01*
X93517855Y-171633915D01*
X93470100Y-171518625D01*
X93470099Y-171518624D01*
X93470096Y-171518618D01*
X93400771Y-171414867D01*
X93400768Y-171414863D01*
X93377795Y-171391890D01*
X93357651Y-171355000D01*
X95892996Y-171355000D01*
X95912958Y-171544928D01*
X95912959Y-171544931D01*
X95971970Y-171726549D01*
X95971973Y-171726556D01*
X96067460Y-171891944D01*
X96195247Y-172033866D01*
X96349748Y-172146118D01*
X96524212Y-172223794D01*
X96711013Y-172263500D01*
X96901987Y-172263500D01*
X97088788Y-172223794D01*
X97263252Y-172146118D01*
X97417753Y-172033866D01*
X97545540Y-171891944D01*
X97641027Y-171726556D01*
X97700042Y-171544928D01*
X97720004Y-171355000D01*
X97700042Y-171165072D01*
X97641027Y-170983444D01*
X97545540Y-170818056D01*
X97417753Y-170676134D01*
X97263252Y-170563882D01*
X97088788Y-170486206D01*
X97088786Y-170486205D01*
X96901987Y-170446500D01*
X96711013Y-170446500D01*
X96524214Y-170486205D01*
X96349746Y-170563883D01*
X96195245Y-170676135D01*
X96067459Y-170818057D01*
X95971973Y-170983443D01*
X95971970Y-170983450D01*
X95921082Y-171140068D01*
X95912958Y-171165072D01*
X95892996Y-171355000D01*
X93357651Y-171355000D01*
X93344310Y-171330567D01*
X93342156Y-171317182D01*
X93323542Y-171140072D01*
X93264527Y-170958444D01*
X93169040Y-170793056D01*
X93041253Y-170651134D01*
X92886752Y-170538882D01*
X92712288Y-170461206D01*
X92712286Y-170461205D01*
X92565477Y-170430000D01*
X110686496Y-170430000D01*
X110706458Y-170619928D01*
X110706459Y-170619931D01*
X110765470Y-170801549D01*
X110765473Y-170801556D01*
X110860960Y-170966944D01*
X110932992Y-171046944D01*
X110974810Y-171093388D01*
X110988747Y-171108866D01*
X111143248Y-171221118D01*
X111317712Y-171298794D01*
X111504513Y-171338500D01*
X111695487Y-171338500D01*
X111882288Y-171298794D01*
X112056752Y-171221118D01*
X112211253Y-171108866D01*
X112339040Y-170966944D01*
X112434527Y-170801556D01*
X112493542Y-170619928D01*
X112513504Y-170430000D01*
X112493542Y-170240072D01*
X112434527Y-170058444D01*
X112339040Y-169893056D01*
X112211253Y-169751134D01*
X112056752Y-169638882D01*
X111882288Y-169561206D01*
X111882286Y-169561205D01*
X111695487Y-169521500D01*
X111504513Y-169521500D01*
X111317714Y-169561205D01*
X111143246Y-169638883D01*
X110988745Y-169751135D01*
X110860959Y-169893057D01*
X110765473Y-170058443D01*
X110765470Y-170058450D01*
X110706459Y-170240068D01*
X110706458Y-170240072D01*
X110686496Y-170430000D01*
X92565477Y-170430000D01*
X92525487Y-170421500D01*
X92334513Y-170421500D01*
X92147714Y-170461205D01*
X91973246Y-170538883D01*
X91818745Y-170651135D01*
X91690959Y-170793057D01*
X91595473Y-170958443D01*
X91595470Y-170958450D01*
X91536459Y-171140068D01*
X91536458Y-171140072D01*
X91516496Y-171330000D01*
X91536458Y-171519928D01*
X91536459Y-171519931D01*
X91595470Y-171701549D01*
X91595473Y-171701556D01*
X91627082Y-171756305D01*
X91632322Y-171765380D01*
X91648795Y-171833280D01*
X91625942Y-171899307D01*
X91597823Y-171927696D01*
X91572448Y-171946132D01*
X91572446Y-171946134D01*
X91444659Y-172088057D01*
X91349173Y-172253443D01*
X91349170Y-172253450D01*
X91290159Y-172435068D01*
X91290158Y-172435072D01*
X91272719Y-172600996D01*
X91246134Y-172665610D01*
X91237079Y-172675715D01*
X90562615Y-173350181D01*
X90501292Y-173383666D01*
X90474934Y-173386500D01*
X90417602Y-173386500D01*
X90295219Y-173410843D01*
X90295214Y-173410845D01*
X90261448Y-173424829D01*
X90261449Y-173424830D01*
X90179926Y-173458598D01*
X90179922Y-173458600D01*
X90076171Y-173527924D01*
X90076163Y-173527930D01*
X85138915Y-178465181D01*
X85077592Y-178498666D01*
X85051234Y-178501500D01*
X85024513Y-178501500D01*
X84837714Y-178541205D01*
X84663246Y-178618883D01*
X84508745Y-178731135D01*
X84380959Y-178873057D01*
X84285473Y-179038443D01*
X84285470Y-179038450D01*
X84226459Y-179220068D01*
X84226458Y-179220072D01*
X84206496Y-179410000D01*
X84226458Y-179599928D01*
X84226459Y-179599931D01*
X84285470Y-179781549D01*
X84285473Y-179781556D01*
X84380960Y-179946944D01*
X84450827Y-180024539D01*
X84502114Y-180081500D01*
X84508747Y-180088866D01*
X84663248Y-180201118D01*
X84837712Y-180278794D01*
X85024513Y-180318500D01*
X85215487Y-180318500D01*
X85402288Y-180278794D01*
X85576752Y-180201118D01*
X85731253Y-180088866D01*
X85859040Y-179946944D01*
X85954527Y-179781556D01*
X86013542Y-179599928D01*
X86033504Y-179410000D01*
X86033503Y-179409997D01*
X86034183Y-179403536D01*
X86036436Y-179403772D01*
X86053189Y-179346722D01*
X86069823Y-179326080D01*
X90706086Y-174689819D01*
X90767409Y-174656334D01*
X90793767Y-174653500D01*
X90851095Y-174653500D01*
X90851096Y-174653499D01*
X90973485Y-174629155D01*
X91088775Y-174581400D01*
X91192533Y-174512071D01*
X92063519Y-173641085D01*
X92124842Y-173607600D01*
X92194533Y-173612584D01*
X92250467Y-173654456D01*
X92274884Y-173719920D01*
X92275200Y-173728766D01*
X92275200Y-174762799D01*
X92299543Y-174885178D01*
X92299545Y-174885186D01*
X92347298Y-175000473D01*
X92347303Y-175000482D01*
X92416628Y-175104233D01*
X92416631Y-175104237D01*
X95285509Y-177973114D01*
X95318994Y-178034437D01*
X95315759Y-178099112D01*
X95276459Y-178220066D01*
X95276458Y-178220070D01*
X95276458Y-178220072D01*
X95256496Y-178410000D01*
X95276458Y-178599928D01*
X95276459Y-178599931D01*
X95335470Y-178781549D01*
X95335473Y-178781556D01*
X95430960Y-178946944D01*
X95558747Y-179088866D01*
X95713248Y-179201118D01*
X95887712Y-179278794D01*
X96074513Y-179318500D01*
X96265487Y-179318500D01*
X96452288Y-179278794D01*
X96626752Y-179201118D01*
X96781253Y-179088866D01*
X96909040Y-178946944D01*
X97004527Y-178781556D01*
X97063542Y-178599928D01*
X97083504Y-178410000D01*
X97069888Y-178280457D01*
X97082457Y-178211732D01*
X97130189Y-178160708D01*
X97193209Y-178143500D01*
X97212200Y-178143500D01*
X97279239Y-178163185D01*
X97324994Y-178215989D01*
X97336200Y-178267500D01*
X97336200Y-179957500D01*
X97316515Y-180024539D01*
X97263711Y-180070294D01*
X97212200Y-180081500D01*
X97204513Y-180081500D01*
X97017714Y-180121205D01*
X96843246Y-180198883D01*
X96688745Y-180311135D01*
X96560959Y-180453057D01*
X96465473Y-180618443D01*
X96465470Y-180618450D01*
X96412957Y-180780069D01*
X96406458Y-180800072D01*
X96386496Y-180990000D01*
X96406458Y-181179928D01*
X96406459Y-181179931D01*
X96465470Y-181361549D01*
X96465473Y-181361556D01*
X96560960Y-181526944D01*
X96688747Y-181668866D01*
X96843248Y-181781118D01*
X97017712Y-181858794D01*
X97204513Y-181898500D01*
X97395487Y-181898500D01*
X97582288Y-181858794D01*
X97756752Y-181781118D01*
X97911253Y-181668866D01*
X98039040Y-181526944D01*
X98134527Y-181361556D01*
X98193542Y-181179928D01*
X98210981Y-181013997D01*
X98237564Y-180949387D01*
X98246601Y-180939301D01*
X98461771Y-180724133D01*
X98531100Y-180620375D01*
X98578855Y-180505085D01*
X98603200Y-180382694D01*
X98603200Y-180257906D01*
X98603200Y-179048466D01*
X98622885Y-178981427D01*
X98675689Y-178935672D01*
X98744847Y-178925728D01*
X98808403Y-178954753D01*
X98814881Y-178960785D01*
X100604572Y-180750476D01*
X100654164Y-180800068D01*
X100692811Y-180838715D01*
X100796561Y-180908039D01*
X100796567Y-180908042D01*
X100796568Y-180908043D01*
X100911858Y-180955798D01*
X100983257Y-180970000D01*
X101034244Y-180980142D01*
X101034248Y-180980143D01*
X101034249Y-180980143D01*
X108505912Y-180980143D01*
X108572951Y-180999828D01*
X108618706Y-181052632D01*
X108629232Y-181091177D01*
X108636458Y-181159928D01*
X108636459Y-181159931D01*
X108695470Y-181341549D01*
X108695473Y-181341556D01*
X108790960Y-181506944D01*
X108918747Y-181648866D01*
X109073248Y-181761118D01*
X109247712Y-181838794D01*
X109434513Y-181878500D01*
X109625487Y-181878500D01*
X109812288Y-181838794D01*
X109986752Y-181761118D01*
X110141253Y-181648866D01*
X110269040Y-181506944D01*
X110364527Y-181341556D01*
X110423542Y-181159928D01*
X110443504Y-180970000D01*
X110423542Y-180780072D01*
X110395074Y-180692460D01*
X110393080Y-180622620D01*
X110429160Y-180562787D01*
X110491861Y-180531959D01*
X110513006Y-180530143D01*
X117380447Y-180530143D01*
X117380448Y-180530142D01*
X117502837Y-180505798D01*
X117618127Y-180458043D01*
X117721885Y-180388714D01*
X118455780Y-179654819D01*
X118517103Y-179621334D01*
X118543461Y-179618500D01*
X120847153Y-179618500D01*
X120914192Y-179638185D01*
X120939301Y-179659527D01*
X121028747Y-179758866D01*
X121183248Y-179871118D01*
X121357712Y-179948794D01*
X121544513Y-179988500D01*
X121735487Y-179988500D01*
X121922288Y-179948794D01*
X122096752Y-179871118D01*
X122251253Y-179758866D01*
X122379040Y-179616944D01*
X122474527Y-179451556D01*
X122533542Y-179269928D01*
X122537261Y-179234536D01*
X122563846Y-179169923D01*
X122621143Y-179129939D01*
X122660582Y-179123500D01*
X125015999Y-179123500D01*
X125016000Y-179123499D01*
X125138389Y-179099155D01*
X125253679Y-179051400D01*
X125357437Y-178982071D01*
X127804690Y-176534819D01*
X127866013Y-176501334D01*
X127892371Y-176498500D01*
X130376539Y-176498500D01*
X130443578Y-176518185D01*
X130464215Y-176534814D01*
X130526343Y-176596942D01*
X130531473Y-176602072D01*
X130635223Y-176671396D01*
X130635229Y-176671399D01*
X130635230Y-176671400D01*
X130750520Y-176719155D01*
X130872906Y-176743499D01*
X130872910Y-176743500D01*
X130872911Y-176743500D01*
X132782395Y-176743500D01*
X132782396Y-176743499D01*
X132904785Y-176719155D01*
X133020075Y-176671400D01*
X133123833Y-176602071D01*
X133179953Y-176545950D01*
X133241274Y-176512467D01*
X133267633Y-176509633D01*
X133383648Y-176509633D01*
X133570449Y-176469927D01*
X133744913Y-176392251D01*
X133899414Y-176279999D01*
X134027201Y-176138077D01*
X134122688Y-175972689D01*
X134169317Y-175829182D01*
X134208755Y-175771506D01*
X134273113Y-175744308D01*
X134287248Y-175743500D01*
X139872395Y-175743500D01*
X139872396Y-175743499D01*
X139994785Y-175719155D01*
X140110075Y-175671400D01*
X140213833Y-175602071D01*
X144361085Y-171454819D01*
X144422408Y-171421334D01*
X144448766Y-171418500D01*
X144505487Y-171418500D01*
X144692288Y-171378794D01*
X144866752Y-171301118D01*
X145021253Y-171188866D01*
X145149040Y-171046944D01*
X145244527Y-170881556D01*
X145303542Y-170699928D01*
X145323504Y-170510000D01*
X145303542Y-170320072D01*
X145244527Y-170138444D01*
X145149040Y-169973056D01*
X145021253Y-169831134D01*
X144866752Y-169718882D01*
X144692288Y-169641206D01*
X144692286Y-169641205D01*
X144505487Y-169601500D01*
X144314513Y-169601500D01*
X144127714Y-169641205D01*
X143953246Y-169718883D01*
X143798745Y-169831135D01*
X143670959Y-169973057D01*
X143575473Y-170138443D01*
X143575470Y-170138450D01*
X143516459Y-170320068D01*
X143516458Y-170320072D01*
X143499019Y-170485996D01*
X143472434Y-170550610D01*
X143463379Y-170560715D01*
X143136578Y-170887517D01*
X143075255Y-170921002D01*
X143005564Y-170916018D01*
X142949630Y-170874147D01*
X142925213Y-170808682D01*
X142924897Y-170799836D01*
X142924897Y-167343297D01*
X142924896Y-167343293D01*
X142923582Y-167336689D01*
X142900552Y-167220907D01*
X142852797Y-167105617D01*
X142844639Y-167093408D01*
X142814397Y-167048145D01*
X142793520Y-166981468D01*
X142793500Y-166979256D01*
X142793500Y-162030000D01*
X143886496Y-162030000D01*
X143906458Y-162219928D01*
X143906459Y-162219931D01*
X143965470Y-162401549D01*
X143965473Y-162401556D01*
X144060960Y-162566944D01*
X144188747Y-162708866D01*
X144343248Y-162821118D01*
X144517712Y-162898794D01*
X144704513Y-162938500D01*
X144895487Y-162938500D01*
X145082288Y-162898794D01*
X145256752Y-162821118D01*
X145411253Y-162708866D01*
X145539040Y-162566944D01*
X145634527Y-162401556D01*
X145693542Y-162219928D01*
X145713504Y-162030000D01*
X145693542Y-161840072D01*
X145634527Y-161658444D01*
X145539040Y-161493056D01*
X145411253Y-161351134D01*
X145256752Y-161238882D01*
X145082288Y-161161206D01*
X145082286Y-161161205D01*
X144895487Y-161121500D01*
X144704513Y-161121500D01*
X144517714Y-161161205D01*
X144517712Y-161161206D01*
X144400817Y-161213251D01*
X144343246Y-161238883D01*
X144188745Y-161351135D01*
X144060959Y-161493057D01*
X143965473Y-161658443D01*
X143965470Y-161658450D01*
X143906461Y-161840063D01*
X143906458Y-161840072D01*
X143886496Y-162030000D01*
X142793500Y-162030000D01*
X142793500Y-160883766D01*
X142813185Y-160816727D01*
X142829819Y-160796085D01*
X150406086Y-153219819D01*
X150467409Y-153186334D01*
X150493767Y-153183500D01*
X151782691Y-153183500D01*
X151849730Y-153203185D01*
X151874840Y-153224527D01*
X151878747Y-153228866D01*
X152033248Y-153341118D01*
X152207712Y-153418794D01*
X152394513Y-153458500D01*
X152585487Y-153458500D01*
X152772288Y-153418794D01*
X152946752Y-153341118D01*
X153101253Y-153228866D01*
X153229040Y-153086944D01*
X153324527Y-152921556D01*
X153383542Y-152739928D01*
X153403504Y-152550000D01*
X153383542Y-152360072D01*
X153324527Y-152178444D01*
X153229040Y-152013056D01*
X153101253Y-151871134D01*
X152946752Y-151758882D01*
X152772288Y-151681206D01*
X152772286Y-151681205D01*
X152585487Y-151641500D01*
X152394513Y-151641500D01*
X152207714Y-151681205D01*
X152033246Y-151758883D01*
X151878745Y-151871135D01*
X151874840Y-151875473D01*
X151815354Y-151912121D01*
X151782691Y-151916500D01*
X150117601Y-151916500D01*
X149995222Y-151940842D01*
X149995213Y-151940845D01*
X149879924Y-151988599D01*
X149879921Y-151988600D01*
X149776167Y-152057927D01*
X149776163Y-152057930D01*
X145706479Y-156127614D01*
X145645156Y-156161099D01*
X145575464Y-156156115D01*
X145519531Y-156114243D01*
X145495114Y-156048779D01*
X145509966Y-155980506D01*
X145521076Y-155963603D01*
X146288102Y-154981856D01*
X153176926Y-146164564D01*
X155649354Y-143000000D01*
X159176496Y-143000000D01*
X159196458Y-143189928D01*
X159196459Y-143189931D01*
X159255470Y-143371549D01*
X159255473Y-143371556D01*
X159350960Y-143536944D01*
X159478747Y-143678866D01*
X159633248Y-143791118D01*
X159807712Y-143868794D01*
X159994513Y-143908500D01*
X160185487Y-143908500D01*
X160372288Y-143868794D01*
X160546752Y-143791118D01*
X160701253Y-143678866D01*
X160829040Y-143536944D01*
X160924527Y-143371556D01*
X160983542Y-143189928D01*
X161003504Y-143000000D01*
X160983542Y-142810072D01*
X160924527Y-142628444D01*
X160829040Y-142463056D01*
X160701253Y-142321134D01*
X160546752Y-142208882D01*
X160372288Y-142131206D01*
X160372286Y-142131205D01*
X160185487Y-142091500D01*
X159994513Y-142091500D01*
X159807714Y-142131205D01*
X159633246Y-142208883D01*
X159478745Y-142321135D01*
X159350959Y-142463057D01*
X159255473Y-142628443D01*
X159255470Y-142628450D01*
X159196459Y-142810068D01*
X159196458Y-142810072D01*
X159176496Y-143000000D01*
X155649354Y-143000000D01*
X163415332Y-133060000D01*
X166586496Y-133060000D01*
X166606458Y-133249928D01*
X166606459Y-133249931D01*
X166665470Y-133431549D01*
X166665473Y-133431556D01*
X166760960Y-133596944D01*
X166888747Y-133738866D01*
X167043248Y-133851118D01*
X167217712Y-133928794D01*
X167404513Y-133968500D01*
X167595487Y-133968500D01*
X167782288Y-133928794D01*
X167956752Y-133851118D01*
X168111253Y-133738866D01*
X168239040Y-133596944D01*
X168334527Y-133431556D01*
X168393542Y-133249928D01*
X168413504Y-133060000D01*
X168393542Y-132870072D01*
X168334527Y-132688444D01*
X168239040Y-132523056D01*
X168111253Y-132381134D01*
X167956752Y-132268882D01*
X167782288Y-132191206D01*
X167782286Y-132191205D01*
X167595487Y-132151500D01*
X167404513Y-132151500D01*
X167217714Y-132191205D01*
X167043246Y-132268883D01*
X166888745Y-132381135D01*
X166760959Y-132523057D01*
X166665473Y-132688443D01*
X166665470Y-132688450D01*
X166606459Y-132870068D01*
X166606458Y-132870072D01*
X166586496Y-133060000D01*
X163415332Y-133060000D01*
X164942533Y-131105272D01*
X171056307Y-123280000D01*
X174406496Y-123280000D01*
X174426458Y-123469928D01*
X174426459Y-123469931D01*
X174485470Y-123651549D01*
X174485473Y-123651556D01*
X174580960Y-123816944D01*
X174708747Y-123958866D01*
X174863248Y-124071118D01*
X175037712Y-124148794D01*
X175224513Y-124188500D01*
X175415487Y-124188500D01*
X175602288Y-124148794D01*
X175776752Y-124071118D01*
X175931253Y-123958866D01*
X176059040Y-123816944D01*
X176154527Y-123651556D01*
X176213542Y-123469928D01*
X176233504Y-123280000D01*
X176213542Y-123090072D01*
X176154527Y-122908444D01*
X176059040Y-122743056D01*
X175931253Y-122601134D01*
X175776752Y-122488882D01*
X175602288Y-122411206D01*
X175602286Y-122411205D01*
X175415487Y-122371500D01*
X175224513Y-122371500D01*
X175037714Y-122411205D01*
X175037712Y-122411206D01*
X174872316Y-122484845D01*
X174863246Y-122488883D01*
X174708745Y-122601135D01*
X174580959Y-122743057D01*
X174485473Y-122908443D01*
X174485470Y-122908450D01*
X174426459Y-123090068D01*
X174426458Y-123090072D01*
X174406496Y-123280000D01*
X171056307Y-123280000D01*
X171831358Y-122287980D01*
X177837163Y-114600898D01*
X177838166Y-114599634D01*
X177934833Y-114479846D01*
X177944270Y-114469424D01*
X178163885Y-114252930D01*
X178175981Y-114242459D01*
X178420898Y-114056694D01*
X178434260Y-114047857D01*
X178701088Y-113895230D01*
X178715459Y-113888200D01*
X178999749Y-113771257D01*
X179014928Y-113766132D01*
X179311916Y-113686832D01*
X179327620Y-113683710D01*
X179632364Y-113643374D01*
X179648328Y-113642303D01*
X179955734Y-113641606D01*
X179971722Y-113642605D01*
X180276629Y-113681557D01*
X180292342Y-113684606D01*
X180589695Y-113762559D01*
X180604894Y-113767613D01*
X180889704Y-113883263D01*
X180904124Y-113890235D01*
X180933641Y-113906942D01*
X181172492Y-114042132D01*
X181184323Y-114049746D01*
X181309294Y-114140590D01*
X181309415Y-114140748D01*
X181309449Y-114140703D01*
X181448966Y-114242452D01*
X181747655Y-114415750D01*
X182064759Y-114552472D01*
X182064762Y-114552472D01*
X182064767Y-114552475D01*
X182395810Y-114650692D01*
X182395817Y-114650694D01*
X182736175Y-114709035D01*
X183037937Y-114724470D01*
X183081045Y-114726675D01*
X183081045Y-114726674D01*
X183081046Y-114726675D01*
X183425581Y-114703365D01*
X183425589Y-114703363D01*
X183425593Y-114703363D01*
X183499149Y-114689505D01*
X183764933Y-114639434D01*
X184094332Y-114535781D01*
X184409144Y-114393863D01*
X184704942Y-114215676D01*
X184921979Y-114046942D01*
X184977561Y-114003730D01*
X184977562Y-114003728D01*
X184977567Y-114003725D01*
X185223185Y-113760992D01*
X185438341Y-113490890D01*
X185620010Y-113197218D01*
X185765638Y-112884104D01*
X185873175Y-112555953D01*
X185909567Y-112387153D01*
X186091878Y-111466202D01*
X186422811Y-109617957D01*
X186715117Y-107763210D01*
X186820494Y-106990000D01*
X187416496Y-106990000D01*
X187436458Y-107179928D01*
X187436459Y-107179931D01*
X187495470Y-107361549D01*
X187495473Y-107361556D01*
X187590960Y-107526944D01*
X187718747Y-107668866D01*
X187873248Y-107781118D01*
X188047712Y-107858794D01*
X188234513Y-107898500D01*
X188425487Y-107898500D01*
X188612288Y-107858794D01*
X188786752Y-107781118D01*
X188941253Y-107668866D01*
X189069040Y-107526944D01*
X189164527Y-107361556D01*
X189223542Y-107179928D01*
X189243504Y-106990000D01*
X189223542Y-106800072D01*
X189164527Y-106618444D01*
X189069040Y-106453056D01*
X188941253Y-106311134D01*
X188786752Y-106198882D01*
X188612288Y-106121206D01*
X188612286Y-106121205D01*
X188425487Y-106081500D01*
X188234513Y-106081500D01*
X188047714Y-106121205D01*
X187873246Y-106198883D01*
X187718745Y-106311135D01*
X187590959Y-106453057D01*
X187495473Y-106618443D01*
X187495470Y-106618450D01*
X187451915Y-106752500D01*
X187436458Y-106800072D01*
X187416496Y-106990000D01*
X186820494Y-106990000D01*
X186968667Y-105902769D01*
X187183351Y-104037444D01*
X187359077Y-102168046D01*
X187495766Y-100295389D01*
X187547008Y-99357966D01*
X187550968Y-99236222D01*
X187524162Y-98994130D01*
X187458594Y-98759550D01*
X187355988Y-98538645D01*
X187272309Y-98415570D01*
X187219042Y-98337224D01*
X187219037Y-98337218D01*
X187051350Y-98160572D01*
X187051347Y-98160569D01*
X186857316Y-98013331D01*
X186642045Y-97899376D01*
X186642042Y-97899375D01*
X186411193Y-97821699D01*
X186170825Y-97782340D01*
X186170814Y-97782339D01*
X186049042Y-97780000D01*
X186049036Y-97780000D01*
X184569548Y-97780000D01*
X184567809Y-97779988D01*
X184400799Y-97777645D01*
X184388653Y-97776877D01*
X184055914Y-97739383D01*
X184042205Y-97737054D01*
X183879869Y-97700000D01*
X188326496Y-97700000D01*
X188346458Y-97889928D01*
X188346459Y-97889931D01*
X188405469Y-98071546D01*
X188405473Y-98071556D01*
X188500960Y-98236944D01*
X188628747Y-98378866D01*
X188783248Y-98491118D01*
X188957712Y-98568794D01*
X189144513Y-98608500D01*
X189335487Y-98608500D01*
X189522288Y-98568794D01*
X189696752Y-98491118D01*
X189851253Y-98378866D01*
X189979040Y-98236944D01*
X190074527Y-98071556D01*
X190074528Y-98071550D01*
X190074531Y-98071546D01*
X190101866Y-97987415D01*
X190133542Y-97889928D01*
X190153504Y-97700000D01*
X190133542Y-97510072D01*
X190074527Y-97328444D01*
X189979040Y-97163056D01*
X189851253Y-97021134D01*
X189696752Y-96908882D01*
X189522288Y-96831206D01*
X189522286Y-96831205D01*
X189335487Y-96791500D01*
X189144513Y-96791500D01*
X188957714Y-96831205D01*
X188783246Y-96908883D01*
X188628745Y-97021135D01*
X188500959Y-97163057D01*
X188405473Y-97328443D01*
X188405470Y-97328450D01*
X188355999Y-97480708D01*
X188346458Y-97510072D01*
X188326496Y-97700000D01*
X183879869Y-97700000D01*
X183716592Y-97662731D01*
X183703231Y-97658881D01*
X183387996Y-97548573D01*
X183375154Y-97543254D01*
X183209546Y-97463500D01*
X183074241Y-97398339D01*
X183062071Y-97391612D01*
X182779285Y-97213923D01*
X182767945Y-97205877D01*
X182506830Y-96997642D01*
X182496461Y-96988376D01*
X182260300Y-96752213D01*
X182251034Y-96741844D01*
X182042802Y-96480726D01*
X182034756Y-96469386D01*
X181857066Y-96186592D01*
X181850340Y-96174421D01*
X181843632Y-96160491D01*
X181705432Y-95873512D01*
X181700119Y-95860689D01*
X181589807Y-95545430D01*
X181585958Y-95532069D01*
X181582585Y-95517290D01*
X181511637Y-95206449D01*
X181509312Y-95192763D01*
X181475771Y-94895082D01*
X181471918Y-94860876D01*
X181471138Y-94846993D01*
X181471138Y-94805734D01*
X182971131Y-94805734D01*
X183010466Y-95054090D01*
X183088173Y-95293244D01*
X183202333Y-95517293D01*
X183350128Y-95720717D01*
X183350132Y-95720722D01*
X183527942Y-95898532D01*
X183527947Y-95898536D01*
X183660857Y-95995100D01*
X183731375Y-96046334D01*
X183874139Y-96119076D01*
X183955420Y-96160491D01*
X183955422Y-96160491D01*
X183955425Y-96160493D01*
X184066243Y-96196500D01*
X184194574Y-96238198D01*
X184442931Y-96277534D01*
X184694394Y-96277534D01*
X184694399Y-96277534D01*
X184942755Y-96238198D01*
X185181905Y-96160493D01*
X185405955Y-96046334D01*
X185609389Y-95898531D01*
X185787196Y-95720724D01*
X185934999Y-95517290D01*
X186049158Y-95293240D01*
X186126863Y-95054090D01*
X186166199Y-94805729D01*
X186168665Y-94680000D01*
X186166199Y-94554271D01*
X186126863Y-94305910D01*
X186049158Y-94066760D01*
X186049156Y-94066757D01*
X186049156Y-94066755D01*
X186007741Y-93985474D01*
X185934999Y-93842710D01*
X185914553Y-93814569D01*
X185787201Y-93639282D01*
X185787197Y-93639277D01*
X185609387Y-93461467D01*
X185609382Y-93461463D01*
X185405958Y-93313668D01*
X185405957Y-93313667D01*
X185405955Y-93313666D01*
X185335987Y-93278015D01*
X185181909Y-93199508D01*
X184942755Y-93121801D01*
X184694399Y-93082466D01*
X184694394Y-93082466D01*
X184442936Y-93082466D01*
X184442931Y-93082466D01*
X184194574Y-93121801D01*
X183955420Y-93199508D01*
X183731371Y-93313668D01*
X183527947Y-93461463D01*
X183527942Y-93461467D01*
X183350132Y-93639277D01*
X183350128Y-93639282D01*
X183202333Y-93842706D01*
X183088173Y-94066755D01*
X183010466Y-94305909D01*
X182971131Y-94554265D01*
X182971131Y-94805734D01*
X181471138Y-94805734D01*
X181471138Y-94513006D01*
X181471918Y-94499123D01*
X181509312Y-94167233D01*
X181511636Y-94153553D01*
X181585959Y-93827926D01*
X181589807Y-93814569D01*
X181700122Y-93499304D01*
X181705429Y-93486493D01*
X181850345Y-93185567D01*
X181857060Y-93173417D01*
X182034758Y-92890608D01*
X182042802Y-92879273D01*
X182251041Y-92618146D01*
X182260291Y-92607795D01*
X182496470Y-92371614D01*
X182506820Y-92362365D01*
X182767953Y-92154116D01*
X182779277Y-92146081D01*
X183062071Y-91968386D01*
X183074233Y-91961663D01*
X183375169Y-91816738D01*
X183387986Y-91811429D01*
X183612304Y-91732935D01*
X183703231Y-91701118D01*
X183716592Y-91697268D01*
X184042220Y-91622942D01*
X184055898Y-91620618D01*
X184388665Y-91583121D01*
X184400786Y-91582354D01*
X184567809Y-91580011D01*
X184569548Y-91580000D01*
X186049057Y-91580000D01*
X186151333Y-91578004D01*
X186170819Y-91577624D01*
X186411183Y-91538267D01*
X186642031Y-91460591D01*
X186857296Y-91346639D01*
X186859695Y-91344819D01*
X187051315Y-91199410D01*
X187051322Y-91199405D01*
X187219012Y-91022757D01*
X187355957Y-90821337D01*
X187458561Y-90600438D01*
X187524127Y-90365863D01*
X187550933Y-90123777D01*
X187547008Y-90002034D01*
X187495768Y-89064611D01*
X187359079Y-87191954D01*
X187183353Y-85322556D01*
X186968669Y-83457231D01*
X186832761Y-82460000D01*
X187366496Y-82460000D01*
X187386458Y-82649928D01*
X187386459Y-82649931D01*
X187445470Y-82831549D01*
X187445473Y-82831556D01*
X187540960Y-82996944D01*
X187668747Y-83138866D01*
X187823248Y-83251118D01*
X187997712Y-83328794D01*
X188184513Y-83368500D01*
X188375487Y-83368500D01*
X188562288Y-83328794D01*
X188736752Y-83251118D01*
X188891253Y-83138866D01*
X189019040Y-82996944D01*
X189114527Y-82831556D01*
X189173542Y-82649928D01*
X189193504Y-82460000D01*
X189173542Y-82270072D01*
X189114527Y-82088444D01*
X189019040Y-81923056D01*
X188891253Y-81781134D01*
X188736752Y-81668882D01*
X188562288Y-81591206D01*
X188562286Y-81591205D01*
X188375487Y-81551500D01*
X188184513Y-81551500D01*
X187997714Y-81591205D01*
X187823246Y-81668883D01*
X187668745Y-81781135D01*
X187540959Y-81923057D01*
X187445473Y-82088443D01*
X187445470Y-82088450D01*
X187390099Y-82258866D01*
X187386458Y-82270072D01*
X187366496Y-82460000D01*
X186832761Y-82460000D01*
X186759584Y-81923057D01*
X186715119Y-81596789D01*
X186532353Y-80437097D01*
X186422814Y-79742043D01*
X186091880Y-77893798D01*
X185909567Y-76972847D01*
X185873183Y-76804045D01*
X185765645Y-76475893D01*
X185765639Y-76475880D01*
X185620022Y-76162788D01*
X185620020Y-76162785D01*
X185620017Y-76162778D01*
X185438348Y-75869105D01*
X185223191Y-75599002D01*
X184977572Y-75356269D01*
X184920826Y-75312152D01*
X184704951Y-75144320D01*
X184409152Y-74966132D01*
X184409141Y-74966126D01*
X184094328Y-74824208D01*
X183764946Y-74720561D01*
X183764938Y-74720559D01*
X183764935Y-74720558D01*
X183764930Y-74720557D01*
X183425594Y-74656628D01*
X183425576Y-74656626D01*
X183081055Y-74633317D01*
X183081045Y-74633316D01*
X182736181Y-74650956D01*
X182736160Y-74650958D01*
X182395818Y-74709297D01*
X182395810Y-74709299D01*
X182064765Y-74807517D01*
X182064751Y-74807522D01*
X181747653Y-74944242D01*
X181747643Y-74944247D01*
X181448960Y-75117541D01*
X181309604Y-75219183D01*
X181309448Y-75219297D01*
X181184318Y-75310264D01*
X181172483Y-75317880D01*
X180904137Y-75469765D01*
X180889710Y-75476742D01*
X180604900Y-75592391D01*
X180589693Y-75597448D01*
X180292352Y-75675399D01*
X180276620Y-75678452D01*
X179971725Y-75717401D01*
X179955731Y-75718401D01*
X179648340Y-75717704D01*
X179632350Y-75716632D01*
X179327626Y-75676297D01*
X179311908Y-75673172D01*
X179028308Y-75597448D01*
X179014925Y-75593874D01*
X178999748Y-75588751D01*
X178727453Y-75476742D01*
X178715468Y-75471812D01*
X178701073Y-75464770D01*
X178537725Y-75371334D01*
X178434256Y-75312149D01*
X178420898Y-75303316D01*
X178175977Y-75117547D01*
X178163872Y-75107066D01*
X177944265Y-74890582D01*
X177934822Y-74880152D01*
X177838229Y-74760443D01*
X177837099Y-74759019D01*
X176931574Y-73600000D01*
X185556496Y-73600000D01*
X185576458Y-73789928D01*
X185576459Y-73789931D01*
X185635470Y-73971549D01*
X185635473Y-73971556D01*
X185730960Y-74136944D01*
X185858747Y-74278866D01*
X186013248Y-74391118D01*
X186187712Y-74468794D01*
X186374513Y-74508500D01*
X186565487Y-74508500D01*
X186752288Y-74468794D01*
X186926752Y-74391118D01*
X187081253Y-74278866D01*
X187209040Y-74136944D01*
X187304527Y-73971556D01*
X187363542Y-73789928D01*
X187383504Y-73600000D01*
X187363542Y-73410072D01*
X187304527Y-73228444D01*
X187209040Y-73063056D01*
X187081253Y-72921134D01*
X186926752Y-72808882D01*
X186752288Y-72731206D01*
X186752286Y-72731205D01*
X186565487Y-72691500D01*
X186374513Y-72691500D01*
X186187714Y-72731205D01*
X186013246Y-72808883D01*
X185858745Y-72921135D01*
X185730959Y-73063057D01*
X185635473Y-73228443D01*
X185635470Y-73228450D01*
X185576459Y-73410068D01*
X185576458Y-73410072D01*
X185556496Y-73600000D01*
X176931574Y-73600000D01*
X172855726Y-68383151D01*
X176293627Y-68383151D01*
X176313589Y-68573079D01*
X176313590Y-68573082D01*
X176372601Y-68754700D01*
X176372604Y-68754707D01*
X176468091Y-68920095D01*
X176595878Y-69062017D01*
X176750379Y-69174269D01*
X176924843Y-69251945D01*
X177111644Y-69291651D01*
X177302618Y-69291651D01*
X177489419Y-69251945D01*
X177663883Y-69174269D01*
X177818384Y-69062017D01*
X177946171Y-68920095D01*
X178041658Y-68754707D01*
X178100673Y-68573079D01*
X178120635Y-68383151D01*
X178100673Y-68193223D01*
X178041658Y-68011595D01*
X177946171Y-67846207D01*
X177818384Y-67704285D01*
X177663883Y-67592033D01*
X177489419Y-67514357D01*
X177489417Y-67514356D01*
X177302618Y-67474651D01*
X177111644Y-67474651D01*
X176924845Y-67514356D01*
X176750377Y-67592034D01*
X176595876Y-67704286D01*
X176468090Y-67846208D01*
X176372604Y-68011594D01*
X176372601Y-68011601D01*
X176313590Y-68193219D01*
X176313589Y-68193223D01*
X176293627Y-68383151D01*
X172855726Y-68383151D01*
X171831358Y-67072020D01*
X165204476Y-58590000D01*
X168806496Y-58590000D01*
X168826458Y-58779928D01*
X168826459Y-58779931D01*
X168885470Y-58961549D01*
X168885473Y-58961556D01*
X168980960Y-59126944D01*
X169108747Y-59268866D01*
X169263248Y-59381118D01*
X169437712Y-59458794D01*
X169624513Y-59498500D01*
X169815487Y-59498500D01*
X170002288Y-59458794D01*
X170176752Y-59381118D01*
X170331253Y-59268866D01*
X170459040Y-59126944D01*
X170554527Y-58961556D01*
X170613542Y-58779928D01*
X170633504Y-58590000D01*
X170613542Y-58400072D01*
X170554527Y-58218444D01*
X170459040Y-58053056D01*
X170331253Y-57911134D01*
X170176752Y-57798882D01*
X170002288Y-57721206D01*
X170002286Y-57721205D01*
X169815487Y-57681500D01*
X169624513Y-57681500D01*
X169437714Y-57721205D01*
X169263246Y-57798883D01*
X169108745Y-57911135D01*
X168980959Y-58053057D01*
X168885473Y-58218443D01*
X168885470Y-58218450D01*
X168826459Y-58400068D01*
X168826458Y-58400072D01*
X168806496Y-58590000D01*
X165204476Y-58590000D01*
X164942533Y-58254728D01*
X157616674Y-48878055D01*
X161023736Y-48878055D01*
X161043698Y-49067983D01*
X161043699Y-49067986D01*
X161102710Y-49249604D01*
X161102713Y-49249611D01*
X161198200Y-49414999D01*
X161325987Y-49556921D01*
X161480488Y-49669173D01*
X161654952Y-49746849D01*
X161841753Y-49786555D01*
X162032727Y-49786555D01*
X162219528Y-49746849D01*
X162393992Y-49669173D01*
X162548493Y-49556921D01*
X162676280Y-49414999D01*
X162771767Y-49249611D01*
X162830782Y-49067983D01*
X162850744Y-48878055D01*
X162830782Y-48688127D01*
X162771767Y-48506499D01*
X162676280Y-48341111D01*
X162548493Y-48199189D01*
X162393992Y-48086937D01*
X162219528Y-48009261D01*
X162219526Y-48009260D01*
X162032727Y-47969555D01*
X161841753Y-47969555D01*
X161654954Y-48009260D01*
X161480486Y-48086938D01*
X161325985Y-48199190D01*
X161198199Y-48341112D01*
X161102713Y-48506498D01*
X161102710Y-48506505D01*
X161043699Y-48688123D01*
X161043698Y-48688127D01*
X161023736Y-48878055D01*
X157616674Y-48878055D01*
X153176926Y-43195436D01*
X150117852Y-39280000D01*
X153596496Y-39280000D01*
X153616458Y-39469928D01*
X153616459Y-39469931D01*
X153675470Y-39651549D01*
X153675473Y-39651556D01*
X153770960Y-39816944D01*
X153898747Y-39958866D01*
X154053248Y-40071118D01*
X154227712Y-40148794D01*
X154414513Y-40188500D01*
X154605487Y-40188500D01*
X154792288Y-40148794D01*
X154966752Y-40071118D01*
X155121253Y-39958866D01*
X155249040Y-39816944D01*
X155344527Y-39651556D01*
X155403542Y-39469928D01*
X155423504Y-39280000D01*
X155403542Y-39090072D01*
X155344527Y-38908444D01*
X155249040Y-38743056D01*
X155121253Y-38601134D01*
X154966752Y-38488882D01*
X154792288Y-38411206D01*
X154792286Y-38411205D01*
X154605487Y-38371500D01*
X154414513Y-38371500D01*
X154227714Y-38411205D01*
X154227712Y-38411206D01*
X154063868Y-38484154D01*
X154053246Y-38488883D01*
X153898745Y-38601135D01*
X153770959Y-38743057D01*
X153675473Y-38908443D01*
X153675470Y-38908450D01*
X153616459Y-39090068D01*
X153616458Y-39090072D01*
X153596496Y-39280000D01*
X150117852Y-39280000D01*
X146288102Y-34378144D01*
X142289370Y-29260000D01*
X145796496Y-29260000D01*
X145816458Y-29449928D01*
X145816459Y-29449931D01*
X145875470Y-29631549D01*
X145875473Y-29631556D01*
X145970960Y-29796944D01*
X146098747Y-29938866D01*
X146253248Y-30051118D01*
X146427712Y-30128794D01*
X146614513Y-30168500D01*
X146805487Y-30168500D01*
X146992288Y-30128794D01*
X147166752Y-30051118D01*
X147321253Y-29938866D01*
X147449040Y-29796944D01*
X147544527Y-29631556D01*
X147603542Y-29449928D01*
X147623504Y-29260000D01*
X147603542Y-29070072D01*
X147544527Y-28888444D01*
X147449040Y-28723056D01*
X147321253Y-28581134D01*
X147166752Y-28468882D01*
X146992288Y-28391206D01*
X146992286Y-28391205D01*
X146805487Y-28351500D01*
X146614513Y-28351500D01*
X146427714Y-28391205D01*
X146382131Y-28411500D01*
X146292952Y-28451205D01*
X146253246Y-28468883D01*
X146098745Y-28581135D01*
X145970959Y-28723057D01*
X145875473Y-28888443D01*
X145875470Y-28888450D01*
X145848950Y-28970072D01*
X145816458Y-29070072D01*
X145796496Y-29260000D01*
X142289370Y-29260000D01*
X139415211Y-25581245D01*
X139301087Y-25438993D01*
X139047873Y-25176505D01*
X138925614Y-25073695D01*
X138768743Y-24941779D01*
X138768724Y-24941765D01*
X138466711Y-24737349D01*
X138466684Y-24737332D01*
X138145056Y-24565435D01*
X138145057Y-24565435D01*
X138145043Y-24565428D01*
X138145037Y-24565425D01*
X138145030Y-24565422D01*
X137807263Y-24427898D01*
X137807111Y-24427854D01*
X137643801Y-24380455D01*
X137456990Y-24326235D01*
X137098066Y-24261553D01*
X137098061Y-24261552D01*
X137098058Y-24261552D01*
X136734344Y-24234545D01*
X136734343Y-24234545D01*
X136369790Y-24245507D01*
X136369786Y-24245507D01*
X136008361Y-24294319D01*
X135653963Y-24380454D01*
X135556135Y-24415346D01*
X135310442Y-24502977D01*
X135310436Y-24502979D01*
X135310430Y-24502982D01*
X134981534Y-24660553D01*
X134670782Y-24851487D01*
X134381580Y-25073695D01*
X134247608Y-25197554D01*
X133858560Y-25563257D01*
X133855430Y-25566101D01*
X133052926Y-26270475D01*
X133049234Y-26273590D01*
X132220165Y-26945962D01*
X132216355Y-26948931D01*
X131361709Y-27588515D01*
X131357786Y-27591333D01*
X130478900Y-28197128D01*
X130474870Y-28199792D01*
X129573021Y-28770919D01*
X129568890Y-28773423D01*
X128645522Y-29308966D01*
X128641297Y-29311308D01*
X127697738Y-29810499D01*
X127693425Y-29812674D01*
X126731170Y-30274720D01*
X126726776Y-30276726D01*
X125747219Y-30700958D01*
X125742749Y-30702791D01*
X124945047Y-31011952D01*
X124875425Y-31017824D01*
X124813680Y-30985123D01*
X124779416Y-30924232D01*
X124783513Y-30854482D01*
X124812552Y-30808656D01*
X129161390Y-26459819D01*
X129222713Y-26426334D01*
X129249071Y-26423500D01*
X130042395Y-26423500D01*
X130042396Y-26423499D01*
X130164785Y-26399155D01*
X130280075Y-26351400D01*
X130383833Y-26282071D01*
X133625904Y-23040000D01*
X145506496Y-23040000D01*
X145526458Y-23229928D01*
X145526459Y-23229931D01*
X145585470Y-23411549D01*
X145585473Y-23411556D01*
X145680960Y-23576944D01*
X145808747Y-23718866D01*
X145963248Y-23831118D01*
X146137712Y-23908794D01*
X146324513Y-23948500D01*
X146515487Y-23948500D01*
X146702288Y-23908794D01*
X146876752Y-23831118D01*
X147031253Y-23718866D01*
X147159040Y-23576944D01*
X147254527Y-23411556D01*
X147313542Y-23229928D01*
X147333504Y-23040000D01*
X147313542Y-22850072D01*
X147254527Y-22668444D01*
X147159040Y-22503056D01*
X147031253Y-22361134D01*
X146876752Y-22248882D01*
X146702288Y-22171206D01*
X146702286Y-22171205D01*
X146515487Y-22131500D01*
X146324513Y-22131500D01*
X146137714Y-22171205D01*
X145963246Y-22248883D01*
X145808745Y-22361135D01*
X145680959Y-22503057D01*
X145585473Y-22668443D01*
X145585470Y-22668450D01*
X145536425Y-22819397D01*
X145526458Y-22850072D01*
X145506496Y-23040000D01*
X133625904Y-23040000D01*
X140261085Y-16404819D01*
X140322408Y-16371334D01*
X140348766Y-16368500D01*
X140375487Y-16368500D01*
X140562288Y-16328794D01*
X140736752Y-16251118D01*
X140891253Y-16138866D01*
X141019040Y-15996944D01*
X141114527Y-15831556D01*
X141173542Y-15649928D01*
X141193504Y-15460000D01*
X141173542Y-15270072D01*
X141114527Y-15088444D01*
X141019040Y-14923056D01*
X140891253Y-14781134D01*
X140736752Y-14668882D01*
X140562288Y-14591206D01*
X140562286Y-14591205D01*
X140375487Y-14551500D01*
X140184513Y-14551500D01*
X139997714Y-14591205D01*
X139823246Y-14668883D01*
X139668745Y-14781135D01*
X139540959Y-14923057D01*
X139445473Y-15088443D01*
X139445470Y-15088450D01*
X139413622Y-15186470D01*
X139386458Y-15270072D01*
X139366496Y-15460000D01*
X139365817Y-15466464D01*
X139363562Y-15466227D01*
X139346811Y-15523276D01*
X139330177Y-15543918D01*
X129753915Y-25120181D01*
X129692592Y-25153666D01*
X129666234Y-25156500D01*
X129487429Y-25156500D01*
X129420390Y-25136815D01*
X129374635Y-25084011D01*
X129364109Y-25045464D01*
X129363934Y-25043801D01*
X129363542Y-25040072D01*
X129304527Y-24858444D01*
X129209040Y-24693056D01*
X129081253Y-24551134D01*
X128926752Y-24438882D01*
X128752288Y-24361206D01*
X128752286Y-24361205D01*
X128565487Y-24321500D01*
X128374513Y-24321500D01*
X128187714Y-24361205D01*
X128187712Y-24361206D01*
X128038018Y-24427854D01*
X128013246Y-24438883D01*
X127858745Y-24551135D01*
X127730959Y-24693057D01*
X127635473Y-24858443D01*
X127635470Y-24858450D01*
X127576459Y-25040068D01*
X127576458Y-25040072D01*
X127559906Y-25197554D01*
X127559019Y-25205995D01*
X127532434Y-25270609D01*
X127523379Y-25280714D01*
X122743915Y-30060181D01*
X122682592Y-30093666D01*
X122656234Y-30096500D01*
X117948283Y-30096500D01*
X117881244Y-30076815D01*
X117835489Y-30024011D01*
X117825545Y-29954853D01*
X117854570Y-29891297D01*
X117875394Y-29872184D01*
X117921253Y-29838866D01*
X118049040Y-29696944D01*
X118144527Y-29531556D01*
X118203542Y-29349928D01*
X118223504Y-29160000D01*
X118203542Y-28970072D01*
X118144527Y-28788444D01*
X118049040Y-28623056D01*
X117921253Y-28481134D01*
X117766752Y-28368882D01*
X117592288Y-28291206D01*
X117592286Y-28291205D01*
X117405487Y-28251500D01*
X117214513Y-28251500D01*
X117027714Y-28291205D01*
X117027712Y-28291206D01*
X116869829Y-28361500D01*
X116853246Y-28368883D01*
X116698745Y-28481135D01*
X116570959Y-28623057D01*
X116475473Y-28788443D01*
X116475470Y-28788450D01*
X116416459Y-28970068D01*
X116416458Y-28970072D01*
X116399642Y-29130068D01*
X116399019Y-29135997D01*
X116372434Y-29200611D01*
X116363379Y-29210716D01*
X116183915Y-29390181D01*
X116122592Y-29423666D01*
X116096234Y-29426500D01*
X106114771Y-29426500D01*
X106047732Y-29406815D01*
X106001977Y-29354011D01*
X105991450Y-29289538D01*
X105993504Y-29270000D01*
X105973542Y-29080072D01*
X105914527Y-28898444D01*
X105819040Y-28733056D01*
X105691253Y-28591134D01*
X105536752Y-28478882D01*
X105362288Y-28401206D01*
X105362286Y-28401205D01*
X105175487Y-28361500D01*
X104984513Y-28361500D01*
X104797714Y-28401205D01*
X104797712Y-28401206D01*
X104645709Y-28468882D01*
X104623246Y-28478883D01*
X104468745Y-28591135D01*
X104464840Y-28595473D01*
X104405354Y-28632121D01*
X104372691Y-28636500D01*
X101207602Y-28636500D01*
X101085219Y-28660843D01*
X101085214Y-28660845D01*
X101051448Y-28674829D01*
X101051449Y-28674830D01*
X100969926Y-28708598D01*
X100969922Y-28708600D01*
X100866171Y-28777924D01*
X100866163Y-28777930D01*
X97218915Y-32425181D01*
X97157592Y-32458666D01*
X97131234Y-32461500D01*
X97074513Y-32461500D01*
X96887714Y-32501205D01*
X96713246Y-32578883D01*
X96558745Y-32691135D01*
X96430959Y-32833057D01*
X96335473Y-32998443D01*
X96335470Y-32998450D01*
X96283003Y-33159928D01*
X96276458Y-33180072D01*
X96256496Y-33370000D01*
X96276458Y-33559928D01*
X96276459Y-33559931D01*
X96335470Y-33741549D01*
X96335473Y-33741556D01*
X96430960Y-33906944D01*
X96497346Y-33980673D01*
X96535192Y-34022706D01*
X96565422Y-34085698D01*
X96556796Y-34155033D01*
X96515928Y-34205996D01*
X96447886Y-34255432D01*
X96382080Y-34278912D01*
X96314026Y-34263087D01*
X96302115Y-34255432D01*
X96196756Y-34178884D01*
X96196752Y-34178882D01*
X96022288Y-34101206D01*
X96022286Y-34101205D01*
X95835487Y-34061500D01*
X95644513Y-34061500D01*
X95457714Y-34101205D01*
X95283243Y-34178884D01*
X95177885Y-34255432D01*
X95112079Y-34278912D01*
X95044025Y-34263086D01*
X95032115Y-34255432D01*
X94926756Y-34178884D01*
X94926752Y-34178882D01*
X94752288Y-34101206D01*
X94752286Y-34101205D01*
X94565487Y-34061500D01*
X94374513Y-34061500D01*
X94187713Y-34101205D01*
X94187710Y-34101206D01*
X94027934Y-34172342D01*
X93958684Y-34181626D01*
X93895408Y-34151997D01*
X93858195Y-34092862D01*
X93853500Y-34059062D01*
X93853500Y-29697605D01*
X93853499Y-29697601D01*
X93829156Y-29575222D01*
X93829155Y-29575215D01*
X93789137Y-29478603D01*
X93781401Y-29459927D01*
X93781396Y-29459918D01*
X93711566Y-29355410D01*
X93691347Y-29299481D01*
X93690224Y-29288794D01*
X93673542Y-29130072D01*
X93614527Y-28948444D01*
X93519040Y-28783056D01*
X93391253Y-28641134D01*
X93236752Y-28528882D01*
X93062288Y-28451206D01*
X93062286Y-28451205D01*
X92875487Y-28411500D01*
X92684513Y-28411500D01*
X92497714Y-28451205D01*
X92323246Y-28528883D01*
X92168745Y-28641135D01*
X92040959Y-28783057D01*
X91945473Y-28948443D01*
X91945470Y-28948450D01*
X91886459Y-29130068D01*
X91886458Y-29130072D01*
X91866496Y-29320000D01*
X91886458Y-29509928D01*
X91886459Y-29509931D01*
X91945468Y-29691543D01*
X91945473Y-29691556D01*
X92040960Y-29856944D01*
X92168747Y-29998866D01*
X92323248Y-30111118D01*
X92497712Y-30188794D01*
X92497724Y-30188796D01*
X92500804Y-30189797D01*
X92502370Y-30190867D01*
X92503649Y-30191437D01*
X92503544Y-30191670D01*
X92558484Y-30229228D01*
X92585690Y-30293584D01*
X92586500Y-30307733D01*
X92586500Y-34062712D01*
X92566815Y-34129751D01*
X92554616Y-34145722D01*
X92552802Y-34147735D01*
X92493301Y-34184359D01*
X92423444Y-34183000D01*
X92373005Y-34152406D01*
X87768531Y-29547931D01*
X87768527Y-29547928D01*
X87664776Y-29478603D01*
X87664767Y-29478598D01*
X87549480Y-29430845D01*
X87549472Y-29430843D01*
X87427093Y-29406500D01*
X87427089Y-29406500D01*
X84339464Y-29406500D01*
X84272425Y-29386815D01*
X84226670Y-29334011D01*
X84216726Y-29264853D01*
X84245751Y-29201297D01*
X84266574Y-29182184D01*
X84381253Y-29098866D01*
X84509040Y-28956944D01*
X84604527Y-28791556D01*
X84663542Y-28609928D01*
X84683504Y-28420000D01*
X84663542Y-28230072D01*
X84604527Y-28048444D01*
X84509040Y-27883056D01*
X84381253Y-27741134D01*
X84226752Y-27628882D01*
X84052288Y-27551206D01*
X84052286Y-27551205D01*
X83865487Y-27511500D01*
X83674513Y-27511500D01*
X83487714Y-27551205D01*
X83313246Y-27628883D01*
X83158745Y-27741135D01*
X83030959Y-27883057D01*
X82935473Y-28048443D01*
X82935471Y-28048447D01*
X82903652Y-28146377D01*
X82864214Y-28204052D01*
X82799855Y-28231250D01*
X82731009Y-28219335D01*
X82698040Y-28195739D01*
X80073859Y-25571558D01*
X80040374Y-25510235D01*
X80045358Y-25440543D01*
X80087230Y-25384610D01*
X80152694Y-25360193D01*
X80216237Y-25372593D01*
X80785370Y-25652342D01*
X81641303Y-26029785D01*
X82512169Y-26371363D01*
X83396467Y-26676489D01*
X83396474Y-26676491D01*
X84292655Y-26944631D01*
X84370496Y-26964440D01*
X85199235Y-27175339D01*
X86114597Y-27368204D01*
X87037177Y-27522897D01*
X87965384Y-27639150D01*
X87965387Y-27639150D01*
X87965401Y-27639152D01*
X88780272Y-27706994D01*
X88897618Y-27716764D01*
X89832270Y-27755604D01*
X89876514Y-27755832D01*
X90299933Y-27758022D01*
X115300000Y-27758022D01*
X115300067Y-27758022D01*
X115717837Y-27755861D01*
X115767729Y-27755603D01*
X116702382Y-27716762D01*
X116935771Y-27697331D01*
X117634597Y-27639151D01*
X117634608Y-27639149D01*
X117634615Y-27639149D01*
X118562822Y-27522895D01*
X119485402Y-27368203D01*
X120400764Y-27175338D01*
X121307328Y-26944633D01*
X121307332Y-26944631D01*
X121307343Y-26944629D01*
X121803418Y-26796201D01*
X122203532Y-26676487D01*
X123087829Y-26371361D01*
X123958695Y-26029783D01*
X124814627Y-25652340D01*
X125654150Y-25239684D01*
X126475816Y-24792527D01*
X127278206Y-24311640D01*
X128059939Y-23797853D01*
X128819664Y-23252050D01*
X129556073Y-22675175D01*
X130267895Y-22068221D01*
X130953902Y-21432235D01*
X131612911Y-20768315D01*
X132243786Y-20077605D01*
X132845438Y-19361296D01*
X133416831Y-18620625D01*
X133956977Y-17856868D01*
X134464947Y-17071342D01*
X134939863Y-16265403D01*
X135380908Y-15440440D01*
X135586225Y-15020372D01*
X135586396Y-15020026D01*
X135670692Y-14850470D01*
X135675787Y-14841234D01*
X135872504Y-14518061D01*
X135879262Y-14508086D01*
X136106022Y-14206171D01*
X136113725Y-14196894D01*
X136368761Y-13918469D01*
X136377328Y-13909984D01*
X136658232Y-13657674D01*
X136667592Y-13650058D01*
X136971698Y-13426261D01*
X136981733Y-13419604D01*
X137306175Y-13226429D01*
X137316825Y-13220773D01*
X137658501Y-13060069D01*
X137669634Y-13055480D01*
X138025327Y-12928758D01*
X138036844Y-12925277D01*
X138403186Y-12833741D01*
X138415020Y-12831390D01*
X138788498Y-12775914D01*
X138800473Y-12774727D01*
X139177599Y-12755831D01*
X139189665Y-12755816D01*
X139566817Y-12773679D01*
G37*
%TD.AperFunction*%
%TA.AperFunction,Conductor*%
G36*
X141983272Y-171828185D02*
G01*
X142029027Y-171880989D01*
X142038971Y-171950147D01*
X142009946Y-172013703D01*
X142003914Y-172020181D01*
X139645181Y-174378914D01*
X139583858Y-174412399D01*
X139514166Y-174407415D01*
X139458233Y-174365543D01*
X139433816Y-174300079D01*
X139433500Y-174291233D01*
X139433500Y-173958461D01*
X139453185Y-173891422D01*
X139469819Y-173870780D01*
X141495780Y-171844819D01*
X141557103Y-171811334D01*
X141583461Y-171808500D01*
X141916233Y-171808500D01*
X141983272Y-171828185D01*
G37*
%TD.AperFunction*%
%TA.AperFunction,Conductor*%
G36*
X38639075Y-86712993D02*
G01*
X38704901Y-86827007D01*
X38797993Y-86920099D01*
X38912007Y-86985925D01*
X38975588Y-87002961D01*
X38343625Y-87634925D01*
X38414801Y-87684763D01*
X38458426Y-87739340D01*
X38465620Y-87808838D01*
X38434097Y-87871193D01*
X38402697Y-87895392D01*
X38359427Y-87918809D01*
X38359422Y-87918812D01*
X38181761Y-88057092D01*
X38181756Y-88057097D01*
X38029284Y-88222723D01*
X38029276Y-88222734D01*
X37938808Y-88361206D01*
X37885662Y-88406562D01*
X37816431Y-88415986D01*
X37753095Y-88386484D01*
X37731192Y-88361206D01*
X37640723Y-88222734D01*
X37640715Y-88222723D01*
X37488243Y-88057097D01*
X37488238Y-88057092D01*
X37310577Y-87918812D01*
X37310578Y-87918812D01*
X37310576Y-87918811D01*
X37274070Y-87899055D01*
X37224479Y-87849836D01*
X37209371Y-87781619D01*
X37233541Y-87716064D01*
X37274070Y-87680945D01*
X37274084Y-87680936D01*
X37310576Y-87661189D01*
X37488240Y-87522906D01*
X37640722Y-87357268D01*
X37734749Y-87213347D01*
X37787894Y-87167994D01*
X37857125Y-87158570D01*
X37920461Y-87188072D01*
X37940131Y-87210049D01*
X37990072Y-87281373D01*
X37990073Y-87281373D01*
X38622037Y-86649409D01*
X38639075Y-86712993D01*
G37*
%TD.AperFunction*%
%TA.AperFunction,Conductor*%
G36*
X110888273Y-30713185D02*
G01*
X110934028Y-30765989D01*
X110943972Y-30835147D01*
X110914947Y-30898703D01*
X110908915Y-30905181D01*
X108911167Y-32902929D01*
X108867047Y-32947049D01*
X108822927Y-32991168D01*
X108753603Y-33094918D01*
X108753598Y-33094927D01*
X108705845Y-33210214D01*
X108705843Y-33210222D01*
X108681500Y-33332601D01*
X108681500Y-35377398D01*
X108705843Y-35499777D01*
X108705845Y-35499785D01*
X108753598Y-35615072D01*
X108753603Y-35615081D01*
X108822928Y-35718832D01*
X108822931Y-35718836D01*
X109331163Y-36227069D01*
X109331166Y-36227072D01*
X109382117Y-36261116D01*
X109434925Y-36296401D01*
X109453643Y-36304154D01*
X109512412Y-36328497D01*
X109512417Y-36328498D01*
X109512421Y-36328500D01*
X109550215Y-36344155D01*
X109672601Y-36368499D01*
X109672605Y-36368500D01*
X109672606Y-36368500D01*
X111917395Y-36368500D01*
X111917396Y-36368499D01*
X112039785Y-36344155D01*
X112155075Y-36296400D01*
X112258833Y-36227071D01*
X112543885Y-35942019D01*
X112605208Y-35908534D01*
X112631566Y-35905700D01*
X112675487Y-35905700D01*
X112862288Y-35865994D01*
X113036752Y-35788318D01*
X113191253Y-35676066D01*
X113319040Y-35534144D01*
X113414527Y-35368756D01*
X113473542Y-35187128D01*
X113484331Y-35084468D01*
X113510914Y-35019859D01*
X113568211Y-34979873D01*
X113633434Y-34976145D01*
X113644513Y-34978500D01*
X113835487Y-34978500D01*
X114022288Y-34938794D01*
X114196752Y-34861118D01*
X114351253Y-34748866D01*
X114479040Y-34606944D01*
X114574527Y-34441556D01*
X114633542Y-34259928D01*
X114653504Y-34070000D01*
X114633542Y-33880072D01*
X114574527Y-33698444D01*
X114479040Y-33533056D01*
X114351253Y-33391134D01*
X114283015Y-33341556D01*
X114196753Y-33278882D01*
X114149406Y-33257802D01*
X114096170Y-33212551D01*
X114075849Y-33145702D01*
X114076520Y-33131586D01*
X114093504Y-32970000D01*
X114073542Y-32780072D01*
X114014527Y-32598444D01*
X113919040Y-32433056D01*
X113791253Y-32291134D01*
X113636752Y-32178882D01*
X113462288Y-32101206D01*
X113462286Y-32101205D01*
X113275486Y-32061499D01*
X113269020Y-32060820D01*
X113204407Y-32034234D01*
X113180367Y-31999783D01*
X113171727Y-32018703D01*
X113112949Y-32056477D01*
X113090980Y-32060820D01*
X113084513Y-32061499D01*
X112897714Y-32101205D01*
X112723246Y-32178883D01*
X112568745Y-32291135D01*
X112440959Y-32433057D01*
X112345473Y-32598443D01*
X112345470Y-32598450D01*
X112286459Y-32780068D01*
X112286458Y-32780072D01*
X112266496Y-32970000D01*
X112286458Y-33159928D01*
X112286459Y-33159931D01*
X112345470Y-33341549D01*
X112345473Y-33341556D01*
X112440960Y-33506944D01*
X112568747Y-33648866D01*
X112696314Y-33741549D01*
X112723248Y-33761118D01*
X112770592Y-33782197D01*
X112823829Y-33827447D01*
X112844150Y-33894296D01*
X112843477Y-33908437D01*
X112835669Y-33982726D01*
X112809085Y-34047341D01*
X112751787Y-34087326D01*
X112686570Y-34091055D01*
X112675487Y-34088700D01*
X112484513Y-34088700D01*
X112297714Y-34128405D01*
X112123247Y-34206081D01*
X112123246Y-34206082D01*
X112049076Y-34259970D01*
X111983269Y-34283450D01*
X111915216Y-34267624D01*
X111903306Y-34259970D01*
X111846753Y-34218882D01*
X111846752Y-34218881D01*
X111703344Y-34155033D01*
X111672288Y-34141206D01*
X111672286Y-34141205D01*
X111485487Y-34101500D01*
X111462893Y-34101500D01*
X111395854Y-34081815D01*
X111372208Y-34062071D01*
X111359894Y-34048867D01*
X111298213Y-33982726D01*
X111226815Y-33906166D01*
X111195488Y-33843712D01*
X111193500Y-33821595D01*
X111193500Y-33193766D01*
X111213185Y-33126727D01*
X111229819Y-33106085D01*
X112486085Y-31849819D01*
X112547408Y-31816334D01*
X112573766Y-31813500D01*
X113078014Y-31813500D01*
X113145053Y-31833185D01*
X113180949Y-31874611D01*
X113197277Y-31846944D01*
X113259683Y-31815522D01*
X113281986Y-31813500D01*
X121435899Y-31813500D01*
X121502938Y-31833185D01*
X121548693Y-31885989D01*
X121558637Y-31955147D01*
X121529612Y-32018703D01*
X121470834Y-32056477D01*
X121462222Y-32058674D01*
X120620389Y-32241545D01*
X120615649Y-32242478D01*
X119564202Y-32428326D01*
X119560018Y-32428992D01*
X119031316Y-32503919D01*
X118913054Y-32522460D01*
X118913051Y-32522461D01*
X118684165Y-32592125D01*
X118684154Y-32592129D01*
X118469224Y-32697247D01*
X118273703Y-32835150D01*
X118102550Y-33002345D01*
X117960106Y-33194592D01*
X117960105Y-33194594D01*
X117849987Y-33407010D01*
X117774985Y-33634212D01*
X117774984Y-33634219D01*
X117737000Y-33870439D01*
X117734626Y-33990098D01*
X117734626Y-45356808D01*
X117734602Y-45359242D01*
X117732479Y-45467356D01*
X117730976Y-45484321D01*
X117696959Y-45699086D01*
X117692417Y-45718006D01*
X117625598Y-45923648D01*
X117618152Y-45941624D01*
X117519987Y-46134283D01*
X117509820Y-46150874D01*
X117382731Y-46325796D01*
X117370095Y-46340591D01*
X117217199Y-46493488D01*
X117202403Y-46506125D01*
X117027476Y-46633218D01*
X117010885Y-46643384D01*
X116818226Y-46741550D01*
X116800251Y-46748996D01*
X116594616Y-46815814D01*
X116575696Y-46820357D01*
X116360930Y-46854376D01*
X116343958Y-46855879D01*
X116235852Y-46857996D01*
X116233424Y-46858020D01*
X89366585Y-46858020D01*
X89364152Y-46857996D01*
X89358560Y-46857886D01*
X89256038Y-46855873D01*
X89239073Y-46854370D01*
X89024307Y-46820351D01*
X89005388Y-46815809D01*
X88799745Y-46748990D01*
X88781768Y-46741543D01*
X88589119Y-46643380D01*
X88572529Y-46633214D01*
X88397596Y-46506117D01*
X88382801Y-46493480D01*
X88229912Y-46340591D01*
X88217275Y-46325795D01*
X88090185Y-46150870D01*
X88080018Y-46134280D01*
X87981853Y-45941622D01*
X87974407Y-45923646D01*
X87916991Y-45746943D01*
X87907586Y-45717997D01*
X87903048Y-45699094D01*
X87869028Y-45484317D01*
X87867526Y-45467360D01*
X87865398Y-45359239D01*
X87865374Y-45356799D01*
X87865374Y-43883754D01*
X91502466Y-43883754D01*
X91541801Y-44132110D01*
X91619508Y-44371264D01*
X91733668Y-44595313D01*
X91881463Y-44798737D01*
X91881467Y-44798742D01*
X92059277Y-44976552D01*
X92059282Y-44976556D01*
X92119172Y-45020068D01*
X92262710Y-45124354D01*
X92405474Y-45197096D01*
X92486755Y-45238511D01*
X92486757Y-45238511D01*
X92486760Y-45238513D01*
X92614949Y-45280164D01*
X92725909Y-45316218D01*
X92974266Y-45355554D01*
X93225729Y-45355554D01*
X93225734Y-45355554D01*
X93474090Y-45316218D01*
X93713240Y-45238513D01*
X93937290Y-45124354D01*
X94140724Y-44976551D01*
X94318531Y-44798744D01*
X94466334Y-44595310D01*
X94580493Y-44371260D01*
X94658198Y-44132110D01*
X94697533Y-43883754D01*
X110902466Y-43883754D01*
X110941801Y-44132110D01*
X111019508Y-44371264D01*
X111133668Y-44595313D01*
X111281463Y-44798737D01*
X111281467Y-44798742D01*
X111459277Y-44976552D01*
X111459282Y-44976556D01*
X111519172Y-45020068D01*
X111662710Y-45124354D01*
X111805474Y-45197096D01*
X111886755Y-45238511D01*
X111886757Y-45238511D01*
X111886760Y-45238513D01*
X112014949Y-45280164D01*
X112125909Y-45316218D01*
X112374266Y-45355554D01*
X112625729Y-45355554D01*
X112625734Y-45355554D01*
X112874090Y-45316218D01*
X113113240Y-45238513D01*
X113337290Y-45124354D01*
X113540724Y-44976551D01*
X113718531Y-44798744D01*
X113866334Y-44595310D01*
X113980493Y-44371260D01*
X114058198Y-44132110D01*
X114097534Y-43883749D01*
X114100000Y-43758020D01*
X114097534Y-43632291D01*
X114058198Y-43383930D01*
X113980493Y-43144780D01*
X113980491Y-43144777D01*
X113980491Y-43144775D01*
X113939076Y-43063494D01*
X113866334Y-42920730D01*
X113847451Y-42894740D01*
X113718536Y-42717302D01*
X113718532Y-42717297D01*
X113540722Y-42539487D01*
X113540717Y-42539483D01*
X113337293Y-42391688D01*
X113337292Y-42391687D01*
X113337290Y-42391686D01*
X113267322Y-42356035D01*
X113113244Y-42277528D01*
X112874090Y-42199821D01*
X112625734Y-42160486D01*
X112625729Y-42160486D01*
X112374271Y-42160486D01*
X112374266Y-42160486D01*
X112125909Y-42199821D01*
X111886755Y-42277528D01*
X111662706Y-42391688D01*
X111459282Y-42539483D01*
X111459277Y-42539487D01*
X111281467Y-42717297D01*
X111281463Y-42717302D01*
X111133668Y-42920726D01*
X111019508Y-43144775D01*
X110941801Y-43383929D01*
X110902466Y-43632285D01*
X110902466Y-43883754D01*
X94697533Y-43883754D01*
X94697534Y-43883749D01*
X94700000Y-43758020D01*
X94697534Y-43632291D01*
X94658198Y-43383930D01*
X94580493Y-43144780D01*
X94580491Y-43144777D01*
X94580491Y-43144775D01*
X94539076Y-43063494D01*
X94466334Y-42920730D01*
X94447451Y-42894740D01*
X94318536Y-42717302D01*
X94318532Y-42717297D01*
X94140722Y-42539487D01*
X94140717Y-42539483D01*
X93937293Y-42391688D01*
X93937292Y-42391687D01*
X93937290Y-42391686D01*
X93867322Y-42356035D01*
X93713244Y-42277528D01*
X93474090Y-42199821D01*
X93225734Y-42160486D01*
X93225729Y-42160486D01*
X92974271Y-42160486D01*
X92974266Y-42160486D01*
X92725909Y-42199821D01*
X92486755Y-42277528D01*
X92262706Y-42391688D01*
X92059282Y-42539483D01*
X92059277Y-42539487D01*
X91881467Y-42717297D01*
X91881463Y-42717302D01*
X91733668Y-42920726D01*
X91619508Y-43144775D01*
X91541801Y-43383929D01*
X91502466Y-43632285D01*
X91502466Y-43883754D01*
X87865374Y-43883754D01*
X87865374Y-34385758D01*
X87885059Y-34318719D01*
X87937863Y-34272964D01*
X88007021Y-34263020D01*
X88070577Y-34292045D01*
X88077055Y-34298077D01*
X88590181Y-34811203D01*
X88623666Y-34872526D01*
X88626500Y-34898884D01*
X88626500Y-37682398D01*
X88650843Y-37804777D01*
X88650845Y-37804785D01*
X88698598Y-37920072D01*
X88698603Y-37920081D01*
X88767928Y-38023832D01*
X88767931Y-38023836D01*
X89527929Y-38783833D01*
X89572978Y-38828882D01*
X89616168Y-38872072D01*
X89719918Y-38941396D01*
X89719924Y-38941399D01*
X89719925Y-38941400D01*
X89835215Y-38989155D01*
X89955374Y-39013056D01*
X89957601Y-39013499D01*
X89957605Y-39013500D01*
X89957606Y-39013500D01*
X93485166Y-39013500D01*
X93552205Y-39033185D01*
X93597960Y-39085989D01*
X93607904Y-39155147D01*
X93592553Y-39199500D01*
X93504220Y-39352496D01*
X93504217Y-39352503D01*
X93466063Y-39469931D01*
X93445205Y-39534125D01*
X93425243Y-39724053D01*
X93445205Y-39913981D01*
X93445206Y-39913984D01*
X93504217Y-40095602D01*
X93504220Y-40095609D01*
X93599707Y-40260997D01*
X93727494Y-40402919D01*
X93881995Y-40515171D01*
X94056459Y-40592847D01*
X94243260Y-40632553D01*
X94434234Y-40632553D01*
X94621035Y-40592847D01*
X94795499Y-40515171D01*
X94950000Y-40402919D01*
X95017427Y-40328033D01*
X95076910Y-40291388D01*
X95146767Y-40292717D01*
X95182455Y-40310687D01*
X95283248Y-40383918D01*
X95457712Y-40461594D01*
X95644513Y-40501300D01*
X95835487Y-40501300D01*
X96022288Y-40461594D01*
X96196752Y-40383918D01*
X96351253Y-40271666D01*
X96372850Y-40247679D01*
X96432336Y-40211031D01*
X96502193Y-40212361D01*
X96557149Y-40247679D01*
X96578747Y-40271666D01*
X96733248Y-40383918D01*
X96907712Y-40461594D01*
X97094513Y-40501300D01*
X97285487Y-40501300D01*
X97472288Y-40461594D01*
X97646752Y-40383918D01*
X97646754Y-40383916D01*
X97646757Y-40383915D01*
X97662113Y-40372758D01*
X97727919Y-40349277D01*
X97795973Y-40365102D01*
X97807887Y-40372758D01*
X97823242Y-40383915D01*
X97823246Y-40383917D01*
X97823248Y-40383918D01*
X97997712Y-40461594D01*
X98184513Y-40501300D01*
X98375487Y-40501300D01*
X98562288Y-40461594D01*
X98736752Y-40383918D01*
X98891253Y-40271666D01*
X99019040Y-40129744D01*
X99114527Y-39964356D01*
X99173542Y-39782728D01*
X99193504Y-39592800D01*
X99173542Y-39402872D01*
X99114527Y-39221244D01*
X99019040Y-39055856D01*
X98891253Y-38913934D01*
X98736752Y-38801682D01*
X98562288Y-38724006D01*
X98562286Y-38724005D01*
X98375487Y-38684300D01*
X98184513Y-38684300D01*
X97997714Y-38724005D01*
X97823247Y-38801681D01*
X97807884Y-38812844D01*
X97742078Y-38836323D01*
X97674024Y-38820497D01*
X97662116Y-38812844D01*
X97646752Y-38801681D01*
X97515075Y-38743056D01*
X97472288Y-38724006D01*
X97472286Y-38724005D01*
X97285487Y-38684300D01*
X97094513Y-38684300D01*
X96907714Y-38724005D01*
X96733246Y-38801683D01*
X96695809Y-38828883D01*
X96578747Y-38913934D01*
X96578745Y-38913935D01*
X96573490Y-38917754D01*
X96572402Y-38916257D01*
X96517462Y-38942613D01*
X96448128Y-38933977D01*
X96394469Y-38889228D01*
X96373522Y-38822572D01*
X96373500Y-38820230D01*
X96373500Y-38437500D01*
X96393185Y-38370461D01*
X96445989Y-38324706D01*
X96497500Y-38313500D01*
X100330927Y-38313500D01*
X100397966Y-38333185D01*
X100418608Y-38349819D01*
X100435858Y-38367069D01*
X100435862Y-38367072D01*
X100539616Y-38436399D01*
X100539618Y-38436399D01*
X100539620Y-38436401D01*
X100621142Y-38470168D01*
X100654910Y-38484155D01*
X100654912Y-38484155D01*
X100654917Y-38484157D01*
X100777296Y-38508499D01*
X100777300Y-38508500D01*
X100777301Y-38508500D01*
X101502700Y-38508500D01*
X101502701Y-38508499D01*
X101625090Y-38484155D01*
X101740380Y-38436400D01*
X101844138Y-38367071D01*
X101844141Y-38367068D01*
X101861391Y-38349819D01*
X101922714Y-38316334D01*
X101949072Y-38313500D01*
X106556234Y-38313500D01*
X106623273Y-38333185D01*
X106643915Y-38349819D01*
X106986765Y-38692669D01*
X107020250Y-38753992D01*
X107015266Y-38823684D01*
X106973394Y-38879617D01*
X106971970Y-38880667D01*
X106888750Y-38941131D01*
X106888746Y-38941134D01*
X106760959Y-39083057D01*
X106665473Y-39248443D01*
X106665470Y-39248450D01*
X106606459Y-39430068D01*
X106606458Y-39430072D01*
X106586496Y-39620000D01*
X106606458Y-39809928D01*
X106606459Y-39809931D01*
X106665470Y-39991549D01*
X106665473Y-39991556D01*
X106760960Y-40156944D01*
X106888747Y-40298866D01*
X107043248Y-40411118D01*
X107217712Y-40488794D01*
X107404513Y-40528500D01*
X107595487Y-40528500D01*
X107782288Y-40488794D01*
X107956752Y-40411118D01*
X108095288Y-40310465D01*
X108161092Y-40286985D01*
X108229146Y-40302810D01*
X108241057Y-40310465D01*
X108283243Y-40341115D01*
X108283245Y-40341116D01*
X108283248Y-40341118D01*
X108457712Y-40418794D01*
X108644513Y-40458500D01*
X108835487Y-40458500D01*
X109022288Y-40418794D01*
X109196752Y-40341118D01*
X109351253Y-40228866D01*
X109479040Y-40086944D01*
X109574527Y-39921556D01*
X109633542Y-39739928D01*
X109646147Y-39620000D01*
X110396496Y-39620000D01*
X110416458Y-39809928D01*
X110416459Y-39809931D01*
X110475470Y-39991549D01*
X110475473Y-39991556D01*
X110570960Y-40156944D01*
X110698747Y-40298866D01*
X110853248Y-40411118D01*
X111027712Y-40488794D01*
X111214513Y-40528500D01*
X111405487Y-40528500D01*
X111592288Y-40488794D01*
X111766752Y-40411118D01*
X111921253Y-40298866D01*
X112049040Y-40156944D01*
X112144527Y-39991556D01*
X112203542Y-39809928D01*
X112223504Y-39620000D01*
X112203542Y-39430072D01*
X112144527Y-39248444D01*
X112049040Y-39083056D01*
X111922585Y-38942613D01*
X111921254Y-38941135D01*
X111921249Y-38941131D01*
X111766752Y-38828882D01*
X111592288Y-38751206D01*
X111592286Y-38751205D01*
X111405487Y-38711500D01*
X111214513Y-38711500D01*
X111027714Y-38751205D01*
X111010471Y-38758882D01*
X110914341Y-38801682D01*
X110853246Y-38828883D01*
X110698745Y-38941135D01*
X110570959Y-39083057D01*
X110475473Y-39248443D01*
X110475470Y-39248450D01*
X110416459Y-39430068D01*
X110416458Y-39430072D01*
X110396496Y-39620000D01*
X109646147Y-39620000D01*
X109653504Y-39550000D01*
X109633542Y-39360072D01*
X109574527Y-39178444D01*
X109479040Y-39013056D01*
X109351253Y-38871134D01*
X109196752Y-38758882D01*
X109022288Y-38681206D01*
X109022286Y-38681205D01*
X108835487Y-38641500D01*
X108778766Y-38641500D01*
X108711727Y-38621815D01*
X108691085Y-38605181D01*
X107273836Y-37187931D01*
X107273832Y-37187928D01*
X107170081Y-37118603D01*
X107170072Y-37118598D01*
X107054785Y-37070845D01*
X107054777Y-37070843D01*
X106932398Y-37046500D01*
X106932394Y-37046500D01*
X101572911Y-37046500D01*
X101572907Y-37046500D01*
X101450524Y-37070843D01*
X101450519Y-37070845D01*
X101416753Y-37084829D01*
X101416754Y-37084830D01*
X101335231Y-37118598D01*
X101335227Y-37118600D01*
X101231476Y-37187924D01*
X101231470Y-37187928D01*
X101227675Y-37191724D01*
X101166350Y-37225205D01*
X101096658Y-37220216D01*
X101052318Y-37191718D01*
X101048531Y-37187931D01*
X101048527Y-37187928D01*
X100944776Y-37118603D01*
X100944767Y-37118598D01*
X100829480Y-37070845D01*
X100829472Y-37070843D01*
X100707093Y-37046500D01*
X100707089Y-37046500D01*
X100227039Y-37046500D01*
X100160000Y-37026815D01*
X100114245Y-36974011D01*
X100104301Y-36904853D01*
X100112478Y-36875048D01*
X100129153Y-36834789D01*
X100129155Y-36834785D01*
X100153500Y-36712394D01*
X100153500Y-36587606D01*
X100153500Y-35801756D01*
X100173185Y-35734717D01*
X100185346Y-35718788D01*
X100259040Y-35636944D01*
X100354527Y-35471556D01*
X100413542Y-35289928D01*
X100433504Y-35100000D01*
X100422699Y-34997200D01*
X102776496Y-34997200D01*
X102796458Y-35187128D01*
X102796459Y-35187131D01*
X102855470Y-35368749D01*
X102855473Y-35368756D01*
X102950960Y-35534144D01*
X103078747Y-35676066D01*
X103233248Y-35788318D01*
X103407712Y-35865994D01*
X103594513Y-35905700D01*
X103785487Y-35905700D01*
X103972288Y-35865994D01*
X104146752Y-35788318D01*
X104263307Y-35703635D01*
X104329111Y-35680156D01*
X104397165Y-35695981D01*
X104409069Y-35703630D01*
X104543248Y-35801118D01*
X104717712Y-35878794D01*
X104904513Y-35918500D01*
X105095487Y-35918500D01*
X105282288Y-35878794D01*
X105456752Y-35801118D01*
X105611253Y-35688866D01*
X105739040Y-35546944D01*
X105777854Y-35479714D01*
X105828420Y-35431500D01*
X105897027Y-35418276D01*
X105935677Y-35428435D01*
X105947712Y-35433794D01*
X106134513Y-35473500D01*
X106325487Y-35473500D01*
X106512288Y-35433794D01*
X106686752Y-35356118D01*
X106841253Y-35243866D01*
X106969040Y-35101944D01*
X107064527Y-34936556D01*
X107123542Y-34754928D01*
X107143504Y-34565000D01*
X107123542Y-34375072D01*
X107064527Y-34193444D01*
X106969040Y-34028056D01*
X106841253Y-33886134D01*
X106686752Y-33773882D01*
X106512288Y-33696206D01*
X106512286Y-33696205D01*
X106325487Y-33656500D01*
X106134513Y-33656500D01*
X105947714Y-33696205D01*
X105942685Y-33698444D01*
X105845870Y-33741549D01*
X105773246Y-33773883D01*
X105618745Y-33886135D01*
X105490960Y-34028055D01*
X105452145Y-34095285D01*
X105401577Y-34143500D01*
X105332970Y-34156722D01*
X105294326Y-34146565D01*
X105282289Y-34141206D01*
X105282286Y-34141205D01*
X105095487Y-34101500D01*
X104904513Y-34101500D01*
X104717714Y-34141205D01*
X104543243Y-34218884D01*
X104426693Y-34303563D01*
X104360887Y-34327043D01*
X104292833Y-34311217D01*
X104280926Y-34303566D01*
X104146752Y-34206082D01*
X103972288Y-34128406D01*
X103972286Y-34128405D01*
X103785487Y-34088700D01*
X103594513Y-34088700D01*
X103407714Y-34128405D01*
X103373810Y-34143500D01*
X103294341Y-34178882D01*
X103233246Y-34206083D01*
X103078745Y-34318335D01*
X102950959Y-34460257D01*
X102855473Y-34625643D01*
X102855470Y-34625650D01*
X102801701Y-34791135D01*
X102796458Y-34807272D01*
X102776496Y-34997200D01*
X100422699Y-34997200D01*
X100413542Y-34910072D01*
X100354527Y-34728444D01*
X100259040Y-34563056D01*
X100131253Y-34421134D01*
X99976752Y-34308882D01*
X99802288Y-34231206D01*
X99802286Y-34231205D01*
X99615487Y-34191500D01*
X99424513Y-34191500D01*
X99237714Y-34231205D01*
X99237712Y-34231206D01*
X99120370Y-34283450D01*
X99063246Y-34308883D01*
X98962098Y-34382371D01*
X98896291Y-34405850D01*
X98838778Y-34395332D01*
X98672288Y-34321206D01*
X98672286Y-34321205D01*
X98485487Y-34281500D01*
X98294513Y-34281500D01*
X98107714Y-34321205D01*
X97933247Y-34398881D01*
X97933246Y-34398882D01*
X97893614Y-34427677D01*
X97827808Y-34451157D01*
X97759754Y-34435331D01*
X97728579Y-34410331D01*
X97644807Y-34317293D01*
X97614577Y-34254302D01*
X97623202Y-34184966D01*
X97664072Y-34134003D01*
X97781253Y-34048866D01*
X97909040Y-33906944D01*
X98004527Y-33741556D01*
X98063542Y-33559928D01*
X98080981Y-33393997D01*
X98107564Y-33329387D01*
X98116611Y-33319291D01*
X98395901Y-33040001D01*
X98457222Y-33006518D01*
X98526914Y-33011502D01*
X98582847Y-33053374D01*
X98601509Y-33089361D01*
X98605468Y-33101544D01*
X98605473Y-33101556D01*
X98700960Y-33266944D01*
X98828747Y-33408866D01*
X98983248Y-33521118D01*
X99157712Y-33598794D01*
X99344513Y-33638500D01*
X99535487Y-33638500D01*
X99722288Y-33598794D01*
X99896752Y-33521118D01*
X100051253Y-33408866D01*
X100179040Y-33266944D01*
X100274527Y-33101556D01*
X100333542Y-32919928D01*
X100345108Y-32809873D01*
X100371692Y-32745260D01*
X100380739Y-32735163D01*
X102386085Y-30729819D01*
X102447408Y-30696334D01*
X102473766Y-30693500D01*
X110821234Y-30693500D01*
X110888273Y-30713185D01*
G37*
%TD.AperFunction*%
%TD*%
M02*
