%TF.GenerationSoftware,KiCad,Pcbnew,8.0.0-dirty*%
%TF.CreationDate,2024-03-12T22:30:07-04:00*%
%TF.ProjectId,RCJ_Open_LinePCB,52434a5f-4f70-4656-9e5f-4c696e655043,rev?*%
%TF.SameCoordinates,Original*%
%TF.FileFunction,Profile,NP*%
%FSLAX46Y46*%
G04 Gerber Fmt 4.6, Leading zero omitted, Abs format (unit mm)*
G04 Created by KiCad (PCBNEW 8.0.0-dirty) date 2024-03-12 22:30:07*
%MOMM*%
%LPD*%
G01*
G04 APERTURE LIST*
%TA.AperFunction,Profile*%
%ADD10C,0.200000*%
%TD*%
G04 APERTURE END LIST*
D10*
X186168665Y-94680000D02*
G75*
G02*
X182968665Y-94680000I-1600000J0D01*
G01*
X182968665Y-94680000D02*
G75*
G02*
X186168665Y-94680000I1600000J0D01*
G01*
X40657467Y-131105272D02*
G75*
G02*
X40915991Y-128999765I1182013J923492D01*
G01*
X186049036Y-97780000D02*
G75*
G02*
X187546972Y-99357964I-36J-1500000D01*
G01*
X40657467Y-131105272D02*
X52423074Y-146164564D01*
X181309449Y-75219297D02*
G75*
G02*
X185909559Y-76972849I1747651J-2325903D01*
G01*
X58915246Y-162595510D02*
G75*
G02*
X58656723Y-164701020I-1182046J-923490D01*
G01*
X63472314Y-168045168D02*
G75*
G02*
X63825135Y-167008092I968486J249068D01*
G01*
X89365374Y-46858020D02*
X116234626Y-46858020D01*
X63472312Y-168045168D02*
G75*
G02*
X63582882Y-169392904I-3874012J-996232D01*
G01*
X189288999Y-69787173D02*
G75*
G02*
X189288999Y-119572827I-86488999J-24892827D01*
G01*
X171831358Y-122287980D02*
X177837678Y-114600240D01*
X146288102Y-34378144D02*
X153176926Y-43195436D01*
X74700000Y-172757462D02*
X74700000Y-162181139D01*
X22631335Y-94680000D02*
G75*
G02*
X19431335Y-94680000I-1600000J0D01*
G01*
X19431335Y-94680000D02*
G75*
G02*
X22631335Y-94680000I1600000J0D01*
G01*
X146943278Y-164701019D02*
X148464286Y-165889360D01*
X66184789Y-25581245D02*
G75*
G02*
X71352306Y-25197537I2758011J-2154855D01*
G01*
X59311898Y-154981856D02*
X65317945Y-162669246D01*
X94700000Y-43758020D02*
G75*
G02*
X91500000Y-43758020I-1600000J0D01*
G01*
X91500000Y-43758020D02*
G75*
G02*
X94700000Y-43758020I1600000J0D01*
G01*
X148464286Y-165889360D02*
G75*
G02*
X148011019Y-172500072I-2462686J-3152040D01*
G01*
X164942533Y-58254728D02*
X171831358Y-67072020D01*
X130900000Y-172757462D02*
X130900000Y-162181139D01*
X65317945Y-162669246D02*
G75*
G02*
X64887074Y-166178429I-1970045J-1539154D01*
G01*
X140712928Y-166178427D02*
X141774860Y-167008099D01*
X148011019Y-172500073D02*
G75*
G02*
X57588981Y-172500073I-45211019J77820073D01*
G01*
X44278080Y-126373012D02*
X40915990Y-128999764D01*
X76200000Y-160681139D02*
X129400000Y-160681139D01*
X72668263Y-174160050D02*
G75*
G02*
X64124007Y-170371263I30131837J79480250D01*
G01*
X52423074Y-43195436D02*
X59311898Y-34378144D01*
X129400000Y-160681139D02*
G75*
G02*
X130900061Y-162181139I0J-1500061D01*
G01*
X22775266Y-121669664D02*
X24179679Y-120572417D01*
X59311898Y-154981856D02*
X52423074Y-146164564D01*
X22775266Y-121669664D02*
G75*
G02*
X16310994Y-119572829I-2524216J3230844D01*
G01*
X74700000Y-162181139D02*
G75*
G02*
X76200000Y-160681100I1500000J39D01*
G01*
X117734626Y-45358020D02*
G75*
G02*
X116234626Y-46858026I-1500026J20D01*
G01*
X141774860Y-167008099D02*
G75*
G02*
X142127677Y-168045166I-615660J-788001D01*
G01*
X186049036Y-91580000D02*
X184568665Y-91580000D01*
X146943278Y-24658981D02*
X150752404Y-21682966D01*
X58656722Y-24658981D02*
X54847596Y-21682966D01*
X55017076Y-18412102D02*
G75*
G02*
X64718402Y-13133744I47782924J-76267898D01*
G01*
X141475994Y-170371264D02*
G75*
G02*
X132931737Y-174160051I-38676094J75691464D01*
G01*
X54847596Y-21682966D02*
G75*
G02*
X55017072Y-18412096I1231324J1576026D01*
G01*
X142017114Y-169392904D02*
G75*
G02*
X141475999Y-170371274I-996114J-87896D01*
G01*
X64718402Y-13133745D02*
G75*
G02*
X70013667Y-15020229I1692498J-3624255D01*
G01*
X86568728Y-32503926D02*
G75*
G02*
X87865418Y-33990078I-203328J-1486174D01*
G01*
X150582924Y-18412103D02*
G75*
G02*
X150752360Y-21682910I-1061824J-1694797D01*
G01*
X185909567Y-76972847D02*
G75*
G02*
X187547006Y-90002034I-88241067J-17707153D01*
G01*
X140881598Y-13133745D02*
G75*
G02*
X150582923Y-18412103I-38081598J-81546255D01*
G01*
X142017114Y-169392904D02*
G75*
G02*
X142127687Y-168045168I3984486J351504D01*
G01*
X26285188Y-68529060D02*
X58915246Y-26764490D01*
X140712928Y-166178427D02*
G75*
G02*
X140282058Y-162669248I1539172J1970027D01*
G01*
X117734626Y-33990078D02*
X117734626Y-45358020D01*
X40657467Y-58254728D02*
X52423074Y-43195436D01*
X46199773Y-66927042D02*
X46199773Y-122432958D01*
X132931737Y-174160051D02*
G75*
G02*
X130900036Y-172757462I-531737J1402551D01*
G01*
X134247663Y-25197505D02*
G75*
G02*
X139415245Y-25581218I2409537J-2538595D01*
G01*
X135586304Y-15020215D02*
G75*
G02*
X140881631Y-13133672I3602796J-1737685D01*
G01*
X186049036Y-97780000D02*
X184568665Y-97780000D01*
X117734626Y-33990078D02*
G75*
G02*
X119031266Y-32503884I1500074J-22D01*
G01*
X164942533Y-58254728D02*
X153176926Y-43195436D01*
X179314812Y-120830940D02*
X146684754Y-162595510D01*
X86568728Y-32503926D02*
G75*
G02*
X71352341Y-25197501I3731272J27268826D01*
G01*
X90300000Y-27758022D02*
X115300000Y-27758022D01*
X74700000Y-172757462D02*
G75*
G02*
X72668250Y-174160084I-1500000J-38D01*
G01*
X129400000Y-163781139D02*
G75*
G02*
X126200000Y-163781139I-1600000J0D01*
G01*
X126200000Y-163781139D02*
G75*
G02*
X129400000Y-163781139I1600000J0D01*
G01*
X146943278Y-164701019D02*
G75*
G02*
X146684756Y-162595511I923522J1182019D01*
G01*
X26285188Y-68529060D02*
G75*
G02*
X24179700Y-68787557I-1181988J923460D01*
G01*
X177837678Y-114600240D02*
G75*
G02*
X181309444Y-114140709I1970022J-1539160D01*
G01*
X89365374Y-46858020D02*
G75*
G02*
X87865380Y-45358020I26J1500020D01*
G01*
X182824734Y-67690336D02*
G75*
G02*
X189288940Y-69787190I2524166J-3230864D01*
G01*
X40915990Y-60360236D02*
G75*
G02*
X40657447Y-58254713I923510J1182036D01*
G01*
X57588981Y-172500072D02*
G75*
G02*
X57135711Y-165889357I2009379J3458672D01*
G01*
X179314812Y-120830940D02*
G75*
G02*
X181420279Y-120572471I1181988J-923660D01*
G01*
X135586303Y-15020215D02*
G75*
G02*
X115300000Y-27758034I-20286303J9785115D01*
G01*
X184568665Y-97780000D02*
G75*
G02*
X184568665Y-91580000I35J3100000D01*
G01*
X90300000Y-27758022D02*
G75*
G02*
X70013708Y-15020210I0J22522922D01*
G01*
X58656722Y-164701019D02*
X57135714Y-165889360D01*
X16311001Y-119572827D02*
G75*
G02*
X16311001Y-69787173I86488999J24892827D01*
G01*
X146288102Y-154981856D02*
X140282055Y-162669246D01*
X46199773Y-122432958D02*
G75*
G02*
X44278082Y-126373014I-5000003J-2D01*
G01*
X24179679Y-120572417D02*
G75*
G02*
X26285214Y-120830920I923521J-1181983D01*
G01*
X181420320Y-68787582D02*
G75*
G02*
X179314800Y-68529070I-923520J1181882D01*
G01*
X44278080Y-62986988D02*
X40915990Y-60360236D01*
X64887072Y-166178427D02*
X63825140Y-167008099D01*
X16311001Y-69787173D02*
G75*
G02*
X22775261Y-67690342I3940049J-1134007D01*
G01*
X187547008Y-99357966D02*
G75*
G02*
X185909569Y-112387153I-89878508J4677966D01*
G01*
X185909567Y-112387153D02*
G75*
G02*
X181309444Y-114140709I-2852467J572353D01*
G01*
X187547007Y-90002034D02*
G75*
G02*
X186049036Y-91580035I-1498007J-77966D01*
G01*
X26285188Y-120830940D02*
X58915246Y-162595510D01*
X146684754Y-26764490D02*
G75*
G02*
X146943277Y-24658980I1182046J923490D01*
G01*
X134247663Y-25197505D02*
G75*
G02*
X119031276Y-32503957I-18947663J19962305D01*
G01*
X114100000Y-43758020D02*
G75*
G02*
X110900000Y-43758020I-1600000J0D01*
G01*
X110900000Y-43758020D02*
G75*
G02*
X114100000Y-43758020I1600000J0D01*
G01*
X164942533Y-131105272D02*
X171831358Y-122287980D01*
X182824734Y-67690336D02*
X181420321Y-68787583D01*
X87865374Y-33990078D02*
X87865374Y-45358020D01*
X181309448Y-75219296D02*
G75*
G02*
X177837673Y-74759764I-1501748J1998696D01*
G01*
X179314812Y-68529060D02*
X146684754Y-26764490D01*
X59311898Y-34378144D02*
X66184789Y-25581245D01*
X146288102Y-154981856D02*
X153176926Y-146164564D01*
X22775266Y-67690336D02*
X24179679Y-68787583D01*
X146288102Y-34378144D02*
X139415211Y-25581245D01*
X182824734Y-121669664D02*
X181420321Y-120572417D01*
X44278080Y-62986988D02*
G75*
G02*
X46199750Y-66927042I-3078280J-3940012D01*
G01*
X64124006Y-170371263D02*
G75*
G02*
X63582898Y-169392905I454994J890463D01*
G01*
X58656722Y-24658981D02*
G75*
G02*
X58915244Y-26764489I-923522J-1182019D01*
G01*
X171831358Y-67072020D02*
X177837678Y-74759760D01*
X189289000Y-119572827D02*
G75*
G02*
X182824696Y-121669713I-3940100J1134027D01*
G01*
X79400000Y-163781139D02*
G75*
G02*
X76200000Y-163781139I-1600000J0D01*
G01*
X76200000Y-163781139D02*
G75*
G02*
X79400000Y-163781139I1600000J0D01*
G01*
X164942533Y-131105272D02*
X153176926Y-146164564D01*
M02*
